<svg width="175" height="110" viewBox="0 0 175 110" fill="none" xmlns="http://www.w3.org/2000/svg">
<path d="M99.2273 55.0903C99.2273 61.4537 93.9551 66.7266 87.4096 66.7266C80.8642 66.7266 75.7734 61.4537 75.7734 55.0903C75.7734 48.727 81.0463 43.2727 87.4096 43.2727C93.773 43.2727 99.2273 48.5449 99.2273 55.0903ZM121.5 55.0903C121.5 73.8176 106.228 89 87.4096 89C68.591 89 53.5 73.8183 53.5 55.0903C53.5 36.3624 68.6817 21 87.4096 21C106.138 21 121.5 36.2717 121.5 55.0903ZM110.319 55.0903C110.319 42.4537 100.046 32.1814 87.4096 32.1814C74.773 32.1814 64.6821 42.4537 64.6821 55.0903C64.6821 67.727 74.8644 77.8179 87.4096 77.8179C99.9549 77.8179 110.319 67.6356 110.319 55.0903Z" fill="#CC0000"/>
</svg>
