<?xml version="1.0" encoding="UTF-8"?><svg id="Layer_1" xmlns="http://www.w3.org/2000/svg" viewBox="0 0 2693.03 1582.5"><defs><style>.cls-1{fill:#f1641e;}</style></defs><path class="cls-1" d="M2101.74,1328.84c83.86,0,152.66-27.95,197.82-80.63,46.22-54.83,61.28-109.65,61.28-221.46v-457.98c0-20.43-16.13-24.73-32.25-21.5-45.15,9.68-86,17.2-137.61,22.58-13.98,1.08-19.35,10.75-19.35,20.43s6.45,20.43,26.87,21.5c44.08,2.15,61.28,16.13,61.28,51.6v238.67c0,68.8-61.28,130.08-129.01,130.08-61.28,0-96.75-40.85-96.75-124.7v-339.72c0-20.43-15.05-23.65-32.25-20.43-44.08,8.6-82.78,17.2-130.08,22.58-16.12,1.08-21.5,10.75-21.5,20.43s6.45,20.43,26.88,21.5c39.77,2.15,55.9,16.13,55.9,51.6v262.31c0,117.18,67.73,169.87,168.78,169.87,62.36,0,127.93-35.48,158.04-101.06v88.15c0,68.81-13.98,112.89-41.93,146.21-29.03,34.4-66.66,53.75-115.03,53.75-56.98,0-88.16-20.43-88.16-50.52,0-9.68,3.23-20.43,3.23-35.48,0-27.95-19.35-52.67-49.45-52.67-37.63,0-55.9,29.03-55.9,62.35,0,58.05,63.43,122.56,189.21,122.56M1625.49,1095.56c122.56,0,198.89-75.26,198.89-166.64s-61.28-124.71-169.86-161.26c-84.93-29.03-112.88-55.9-112.88-94.61,0-43,32.26-79.55,92.46-79.55,54.83,0,95.68,24.72,118.26,76.33l10.75,24.73c4.3,10.75,13.98,16.12,21.5,16.12,9.68,0,18.28-8.6,16.13-21.5l-10.75-88.15c-2.15-15.05-6.45-21.5-19.35-26.88-40.85-18.27-83.85-26.87-131.16-26.87-117.18,0-184.91,72.03-184.91,161.26,0,75.25,41.93,120.41,156.96,158.03,89.23,29.03,125.79,52.68,125.79,97.84s-37.63,83.85-108.58,83.85c-62.35,0-98.91-25.8-126.86-83.85l-16.13-33.33c-4.3-8.6-11.83-12.9-18.28-12.9-11.82,0-19.35,10.75-17.2,24.73l15.05,96.75c2.15,13.98,7.53,18.28,19.35,23.65,45.15,21.5,82.78,32.26,140.83,32.26M1257.83,1093.41c73.11,0,119.34-38.71,140.84-99.98,4.3-13.98-2.15-25.81-13.98-25.81-6.45,0-12.91,3.23-18.28,11.83-19.35,32.25-48.38,46.22-78.48,46.22-20.43,0-37.63-6.45-49.45-20.43-12.9-15.05-17.2-39.77-17.2-69.88v-325.75l141.91,1.08c17.2,0,24.72-13.98,24.72-27.95s-7.53-25.8-24.72-25.8l-141.91,1.08v-81.71c0-13.98-8.6-20.43-19.35-20.43-7.53,0-15.05,3.22-21.5,12.9-37.63,55.9-65.58,78.48-121.48,101.06-10.75,4.3-17.2,11.82-17.2,21.5,0,10.75,5.38,18.27,21.5,18.27h56.98v338.65c0,47.3,12.9,81.71,36.55,107.51,23.65,25.81,58.05,37.63,101.06,37.63M561.19,683.8v-277.37c0-15.05,6.45-21.5,22.58-21.5h224.68c65.58,0,93.54,18.27,113.96,74.18l24.72,69.88c4.3,12.9,13.98,19.35,23.65,19.35s19.35-8.6,19.35-22.58l-2.14-173.09c0-13.98-8.6-19.35-20.43-19.35H356.93c-19.35,0-24.72,10.75-24.72,21.5s5.37,21.5,23.65,22.58c75.25,6.45,88.15,21.5,88.15,91.38v491.3c0,61.28-12.9,75.26-83.85,81.71-17.2,1.08-22.58,11.82-22.58,22.58s5.38,21.5,23.65,21.5h617.09c11.82,0,20.42-5.37,20.42-19.35l2.15-173.09c0-13.98-9.68-21.5-19.36-21.5-8.6,0-18.27,5.37-22.57,18.27l-22.58,69.88c-18.28,58.05-49.45,75.26-115.03,75.26h-187.06c-58.05,0-73.11-15.05-73.11-65.58v-235.44h139.76c55.9,0,74.18,15.05,92.46,68.8l15.04,44.08c4.3,12.9,15.05,19.35,24.73,19.35s18.28-6.45,18.28-22.57c-1.08-41.93-2.15-89.23-2.15-135.46s0-93.53,1.08-137.61c0-16.13-8.6-22.58-18.28-22.58-8.6,0-19.35,6.45-23.65,19.35l-15.04,44.08c-18.28,54.83-34.41,72.03-92.46,72.03h-139.76Z"/></svg>
