<svg width="175" height="110" viewBox="0 0 175 110" fill="none" xmlns="http://www.w3.org/2000/svg">
<g clip-path="url(#clip0_5408_31543)">
<path d="M34.7306 39L30.5479 59.485L25.8529 39H17.7007L13.0057 59.485L8.8229 39H0.5L7.28639 70.2907H16.9751L21.7127 49.5137L26.4504 70.2907H35.9257L42.6694 39H34.7306Z" fill="#0053E2"/>
<path d="M52.8489 44.7578C47.6844 44.7578 44.0565 46.4684 42.7334 47.6783V54.3536C44.2699 53.0185 47.5138 51.0576 51.7819 51.0576C54.4281 51.0576 55.4098 51.7669 55.4098 53.2271C55.4098 54.4788 54.044 54.9794 50.2453 55.7722C44.4833 56.9404 41.1541 58.9847 41.1541 63.8661C41.1541 68.372 44.1845 71.0004 48.5807 71.0004C52.2619 71.0004 54.4611 69.3312 55.6658 67.0876V70.2911H63.6046V54.9377C63.6046 47.8869 59.8486 44.7578 52.8489 44.7578ZM51.7391 65.9521C49.8612 65.9521 48.8368 64.8257 48.8368 63.282C48.8368 61.2793 50.4587 60.4866 52.5075 59.7774C53.5757 59.3858 54.6439 58.9779 55.3671 58.3594V61.8218C55.367 64.4501 53.9586 65.9521 51.7391 65.9521Z" fill="#0053E2"/>
<path d="M74.813 39H66.5754V70.2907H74.813V39Z" fill="#0053E2"/>
<path d="M107.874 44.8418C103.878 44.8418 101.295 47.1896 99.9438 50.3161C99.2194 46.9661 96.8108 44.8418 93.4478 44.8418C89.6365 44.8418 87.1516 47.0142 85.8932 50.0667V45.551H77.7837V70.2916H86.0212V56.5654C86.0212 53.186 87.1736 51.2668 89.6491 51.2668C91.6552 51.2668 92.3381 52.6019 92.3381 54.688V70.2916H100.576V56.5654C100.576 53.186 101.728 51.2668 104.204 51.2668C106.21 51.2668 106.893 52.6019 106.893 54.688V70.2916H115.13V53.5614C115.13 48.3464 112.612 44.8418 107.874 44.8418Z" fill="#0053E2"/>
<path d="M128.617 44.7578C123.453 44.7578 119.825 46.4684 118.502 47.6783V54.3536C120.038 53.0185 123.282 51.0576 127.55 51.0576C130.196 51.0576 131.178 51.7669 131.178 53.2271C131.178 54.4788 129.812 54.9794 126.014 55.7722C120.252 56.9404 116.922 58.9847 116.922 63.8661C116.922 68.372 119.953 71.0004 124.349 71.0004C128.03 71.0004 130.229 69.3312 131.434 67.0876V70.2911H139.373V54.9377C139.373 47.8869 135.617 44.7578 128.617 44.7578ZM127.508 65.9521C125.63 65.9521 124.605 64.8257 124.605 63.282C124.605 61.2793 126.227 60.4866 128.276 59.7774C129.344 59.3858 130.412 58.9779 131.136 58.3594V61.8218C131.136 64.4501 129.727 65.9521 127.508 65.9521Z" fill="#0053E2"/>
<path d="M150.257 52.5395V45.5496H142.19V70.2901H150.427V59.7764C150.427 54.9368 153.501 53.6435 156.446 53.6435C157.427 53.6435 158.366 53.7687 158.793 53.8938V45.3827C154.158 45.1639 151.342 48.0579 150.257 52.5395Z" fill="#0053E2"/>
<path d="M174.5 51.8081V45.5499H169.25V40.752H161.013V62.0297C161.013 67.9957 164.47 70.7911 169.976 70.7911C172.537 70.7911 173.903 70.2905 174.5 69.9149V63.6986C174.031 64.0323 173.262 64.2826 172.281 64.2826C170.445 64.3244 169.25 63.5316 169.25 60.9032V51.8081H174.5Z" fill="#0053E2"/>
</g>
<defs>
<clipPath id="clip0_5408_31543">
<rect width="174" height="32" fill="white" transform="translate(0.5 39)"/>
</clipPath>
</defs>
</svg>
