<svg width="175" height="110" viewBox="0 0 175 110" fill="none" xmlns="http://www.w3.org/2000/svg">
<g clip-path="url(#clip0_5408_31513)">
<path d="M46.9501 34.3V48.2C46.9501 48.2 51.8501 48.2 54.4501 48C56.5501 47.6 56.8501 47.4 57.2501 45.4L58.0501 42.4H60.2501L59.8501 48.9L60.0501 55.7H57.8501L57.2501 53.1C56.6501 51.2 55.9501 50.8 54.4501 50.7C52.5501 50.5 46.9501 50.5 46.9501 50.5V62.2C46.9501 64.4 48.0501 65.4 50.7501 65.4H58.6501C61.0501 65.4 63.5501 65.2 65.0501 61.6L67.0501 57.1H68.9501C68.7501 58 67.8501 66.3 67.6501 68.2C67.6501 68.2 60.5501 68 57.5501 68H43.9501H35.8501V66L38.4501 65.4C40.3501 65 40.9501 64.5 40.9501 63C40.9501 63 41.1501 57.9 41.1501 49.5C41.1501 41.1 40.9501 36 40.9501 36C40.9501 34.3 40.3501 33.9 38.4501 33.6L35.8501 32.9V30.9L43.7501 31.1H58.7501C61.7501 31 66.8501 30.5 66.8501 30.5C66.8501 30.5 66.6501 33.7 66.4501 41.2H64.3501L63.5501 38.6C62.8501 35.2 61.7501 33.5 59.6501 33.5H47.8501C46.9501 33.5 46.9501 33.7 46.9501 34.3ZM77.3501 35.7H79.6501V43.6L87.3501 43.2L86.9501 46.8L79.4501 46.2V60.1C79.4501 64 80.7501 65.6 83.0501 65.6C85.0501 65.6 86.6501 64.5 87.1501 63.5L88.2501 64.8C87.1501 67.4 83.9501 68.7 80.9501 68.7C77.2501 68.7 74.1501 66.5 74.1501 62.1V46.4H69.6501V44.5C73.4501 44.2 76.2501 41.9 77.3501 35.7ZM93.5501 60L95.0501 63.6C95.6501 65.1 96.9501 66.6 99.9501 66.6C103.15 66.6 104.45 64.9 104.45 62.8C104.45 56.4 91.8501 58.3 91.8501 49.6C91.8501 44.7 95.7501 42.4 100.85 42.4C103.15 42.4 106.45 42.8 108.15 43.5C107.75 45.4 107.55 47.8 107.55 49.7L105.65 49.9L104.35 46.1C103.95 45.2 102.45 44.4 100.55 44.4C98.2501 44.4 96.0501 45.3 96.0501 47.8C96.0501 53.6 109.05 52.3 109.05 61C109.05 65.9 104.75 68.5 99.4501 68.5C95.5501 68.5 91.5501 67 91.5501 67C91.9501 64.8 91.7501 62.3 91.5501 59.9C91.6501 60 93.5501 60 93.5501 60ZM108.15 78C108.75 75.9 109.05 73.3 109.45 70.9L111.55 70.7L112.35 74.6C112.55 75.5 113.05 76.3 114.55 76.3C116.95 76.3 120.15 74.8 123.25 69.5C121.95 66.3 117.95 56 114.35 48.1C113.45 46 113.25 45.8 111.95 45.5L110.95 45.1V43.2L116.65 43.4L123.55 43V44.9L121.85 45.3C120.55 45.5 119.95 46.2 119.95 47C119.95 47.2 119.95 47.4 120.15 47.8C120.55 48.9 123.55 57.4 125.75 63C127.65 59.1 131.15 50.2 131.75 48.7C131.95 47.9 132.15 47.8 132.15 47.2C132.15 46.2 131.55 45.7 130.25 45.3L128.95 44.9V43L134.25 43.2L139.15 43V44.9L138.25 45.6C136.35 46.4 136.15 46.5 135.45 48.1L127.15 67.5C122.25 78.6 117.15 79.5 113.65 79.5C111.35 79.5 109.65 78.9 108.15 78Z" fill="#F1641E"/>
</g>
<defs>
<clipPath id="clip0_5408_31513">
<rect width="103.3" height="49" fill="white" transform="translate(35.8501 30.5)"/>
</clipPath>
</defs>
</svg>
