<svg width="330" height="192" viewBox="0 0 330 192" fill="none" xmlns="http://www.w3.org/2000/svg">
<g clip-path="url(#clip0_4466_3785)">
<path d="M0 36C0 16.1178 16.1178 0 36 0H294C313.882 0 330 16.1178 330 36V156C330 175.882 313.882 192 294 192H36C16.1178 192 0 175.882 0 156V36Z" fill="white"/>
<path d="M160.452 28.1641C149.658 57.4237 126.424 80.6559 97.1641 91.4515C92.9453 93.0068 92.9453 98.9913 97.1641 100.548C126.424 111.342 149.656 134.576 160.452 163.836C162.007 168.055 167.991 168.055 169.548 163.836C180.342 134.576 203.576 111.344 232.836 100.548C237.055 98.9932 237.055 93.0087 232.836 91.4515C203.576 80.6578 180.344 57.4237 169.548 28.1641C167.993 23.9453 162.009 23.9453 160.452 28.1641Z" fill="#F2F2F2" stroke="#F2F2F2" stroke-width="1.5" stroke-miterlimit="10"/>
<path opacity="0.3" d="M64.5547 89.1388C66.8502 91.4343 68.0002 92.5842 68.5306 93.8636C69.237 95.5714 69.237 97.4894 68.5306 99.1972C68.0002 100.479 66.8524 101.626 64.5547 103.922L58.9218 109.555C56.6263 111.85 55.4764 113 54.1971 113.531C52.4892 114.237 50.5712 114.237 48.8634 113.531C47.5819 113 46.4341 111.853 44.1386 109.555L38.5057 103.922C36.2102 101.626 35.0603 100.477 34.5299 99.1972C33.8234 97.4894 33.8234 95.5714 34.5299 93.8636C35.0603 92.5821 36.208 91.4343 38.5057 89.1388L44.1386 83.5059C46.4341 81.2104 47.584 80.0605 48.8634 79.5301C50.5712 78.8236 52.4892 78.8236 54.1971 79.5301C55.4785 80.0605 56.6263 81.2082 58.9218 83.5059L64.5547 89.1388Z" fill="#EBEBEB" stroke="#1F1F1F" stroke-width="1.5" stroke-linecap="round" stroke-linejoin="round"/>
<path d="M51.5283 98.44C54.3943 98.44 56.7177 96.1166 56.7177 93.2506C56.7177 90.3845 54.3943 88.0612 51.5283 88.0612C48.6623 88.0612 46.3389 90.3845 46.3389 93.2506C46.3389 96.1166 48.6623 98.44 51.5283 98.44Z" fill="white" stroke="#1F1F1F" stroke-width="1.5" stroke-linecap="round" stroke-linejoin="round"/>
<path d="M51.5279 98.5461C46.5507 98.5461 42.3075 101.684 40.6675 106.091L44.1363 109.559C46.4318 111.855 47.5818 113.005 48.8611 113.535C50.569 114.242 52.4869 114.242 54.1948 113.535C55.4762 113.005 56.624 111.857 58.9196 109.559L62.3884 106.091C60.7484 101.686 56.5052 98.5461 51.5279 98.5461Z" fill="white" stroke="#1F1F1F" stroke-width="1.5" stroke-linecap="round" stroke-linejoin="round"/>
<path d="M64.5547 89.1388C66.8502 91.4343 68.0002 92.5842 68.5306 93.8636C69.237 95.5714 69.237 97.4894 68.5306 99.1972C68.0002 100.479 66.8524 101.626 64.5547 103.922L58.9218 109.555C56.6263 111.85 55.4764 113 54.1971 113.531C52.4892 114.237 50.5712 114.237 48.8634 113.531C47.5819 113 46.4341 111.853 44.1386 109.555L38.5057 103.922C36.2102 101.626 35.0603 100.477 34.5299 99.1972C33.8234 97.4894 33.8234 95.5714 34.5299 93.8636C35.0603 92.5821 36.208 91.4343 38.5057 89.1388L44.1386 83.5059C46.4341 81.2104 47.584 80.0605 48.8634 79.5301C50.5712 78.8236 52.4892 78.8236 54.1971 79.5301C55.4785 80.0605 56.6263 81.2082 58.9218 83.5059L64.5547 89.1388Z" stroke="#1F1F1F" stroke-width="1.5" stroke-linecap="round" stroke-linejoin="round"/>
<path opacity="0.3" d="M65.877 57.4216C65.877 60.6697 65.877 62.2928 65.3466 63.5742C64.6401 65.2821 63.2823 66.6399 61.5744 67.3464C60.293 67.8768 58.67 67.8768 55.4218 67.8768H47.4552C44.2071 67.8768 42.584 67.8768 41.3026 67.3464C39.5947 66.6399 38.2369 65.2821 37.5304 63.5742C37 62.2928 37 60.6697 37 57.4216V49.455C37 46.2068 37 44.5838 37.5304 43.3024C38.2369 41.5945 39.5947 40.2366 41.3026 39.5302C42.584 38.9998 44.2071 38.9998 47.4552 38.9998H55.4218C58.67 38.9998 60.293 38.9998 61.5744 39.5302C63.2823 40.2366 64.6401 41.5945 65.3466 43.3024C65.877 44.5838 65.877 46.2068 65.877 49.455V57.4216Z" fill="#EBEBEB" stroke="#1F1F1F" stroke-width="1.5" stroke-linecap="round" stroke-linejoin="round"/>
<path d="M51.4399 56.1823C54.306 56.1823 56.6293 53.8589 56.6293 50.9929C56.6293 48.1269 54.306 45.8035 51.4399 45.8035C48.5739 45.8035 46.2505 48.1269 46.2505 50.9929C46.2505 53.8589 48.5739 56.1823 51.4399 56.1823Z" fill="white" stroke="#1F1F1F" stroke-width="1.5" stroke-linecap="round" stroke-linejoin="round"/>
<path d="M39.9279 66.5739C40.3543 66.8795 40.8126 67.1425 41.3048 67.3462C42.5863 67.8766 44.2093 67.8766 47.4574 67.8766H55.424C58.6722 67.8766 60.2952 67.8766 61.5767 67.3462C62.0689 67.1425 62.5271 66.8795 62.9536 66.5739C62.3065 60.7884 57.3992 56.2885 51.4397 56.2885C45.4801 56.2885 40.575 60.7884 39.9258 66.5739H39.9279Z" fill="white" stroke="#1F1F1F" stroke-width="1.5" stroke-linecap="round" stroke-linejoin="round"/>
<path d="M65.877 57.4216C65.877 60.6697 65.877 62.2928 65.3466 63.5742C64.6401 65.2821 63.2823 66.6399 61.5744 67.3464C60.293 67.8768 58.67 67.8768 55.4218 67.8768H47.4552C44.2071 67.8768 42.584 67.8768 41.3026 67.3464C39.5947 66.6399 38.2369 65.2821 37.5304 63.5742C37 62.2928 37 60.6697 37 57.4216V49.455C37 46.2068 37 44.5838 37.5304 43.3024C38.2369 41.5945 39.5947 40.2366 41.3026 39.5302C42.584 38.9998 44.2071 38.9998 47.4552 38.9998H55.4218C58.67 38.9998 60.293 38.9998 61.5744 39.5302C63.2823 40.2366 64.6401 41.5945 65.3466 43.3024C65.877 44.5838 65.877 46.2068 65.877 49.455V57.4216Z" stroke="#1F1F1F" stroke-width="1.5" stroke-linecap="round" stroke-linejoin="round"/>
<path opacity="0.3" d="M66.246 136.803C67.1689 138.432 67.1689 140.443 66.246 142.073L63.6555 146.651L61.0842 151.24C60.1676 152.872 58.4682 153.877 56.6309 153.875L51.4691 153.864L46.3072 153.875C44.4699 153.877 42.7705 152.872 41.854 151.24L39.2826 146.651L36.6922 142.073C35.7693 140.443 35.7693 138.432 36.6922 136.803L39.2826 132.224L41.854 127.635C42.7705 126.004 44.4699 124.998 46.3072 125L51.4691 125.011L56.6309 125C58.4682 124.998 60.1676 126.004 61.0842 127.635L63.6555 132.224L66.246 136.803Z" fill="#EBEBEB" stroke="#1F1F1F" stroke-width="1.5" stroke-linecap="round" stroke-linejoin="round"/>
<path d="M51.541 141.684C54.407 141.684 56.7304 139.361 56.7304 136.495C56.7304 133.629 54.407 131.305 51.541 131.305C48.6749 131.305 46.3516 133.629 46.3516 136.495C46.3516 139.361 48.6749 141.684 51.541 141.684Z" fill="white" stroke="#1F1F1F" stroke-width="1.5" stroke-linecap="round" stroke-linejoin="round"/>
<path d="M51.5412 141.79C46.6063 141.79 42.395 144.877 40.7231 149.224L41.854 151.24C42.7705 152.871 44.4699 153.877 46.3072 153.875L51.469 153.864L56.6309 153.875C58.4682 153.877 60.1676 152.871 61.0841 151.24L62.2998 149.072C60.5898 144.805 56.4187 141.788 51.5412 141.788V141.79Z" fill="white" stroke="#1F1F1F" stroke-width="1.5" stroke-linecap="round" stroke-linejoin="round"/>
<path d="M66.246 136.803C67.1689 138.432 67.1689 140.443 66.246 142.073L63.6555 146.651L61.0842 151.24C60.1676 152.872 58.4682 153.877 56.6309 153.875L51.4691 153.864L46.3072 153.875C44.4699 153.877 42.7705 152.872 41.854 151.24L39.2826 146.651L36.6922 142.073C35.7693 140.443 35.7693 138.432 36.6922 136.803L39.2826 132.224L41.854 127.635C42.7705 126.004 44.4699 124.998 46.3072 125L51.4691 125.011L56.6309 125C58.4682 124.998 60.1676 126.004 61.0842 127.635L63.6555 132.224L66.246 136.803Z" stroke="#1F1F1F" stroke-width="1.5" stroke-linecap="round" stroke-linejoin="round"/>
<rect x="211" y="43.5088" width="34.6604" height="34.6604" rx="8" transform="rotate(-45 211 43.5088)" fill="#D9D9D9"/>
<path d="M229 43.2217L233.504 47.7261L242.722 38.5084" fill="#D9D9D9"/>
<path d="M229 43.2217L233.504 47.7261L242.722 38.5084" stroke="white" stroke-width="1.5" stroke-linecap="round" stroke-linejoin="round"/>
<path d="M235.187 160.935V151.511C242.341 151.511 248.14 145.712 248.14 138.558H257.564C257.564 145.712 263.362 151.511 270.516 151.511V160.935C263.362 160.935 257.564 166.733 257.564 173.887H248.14C248.14 166.733 242.341 160.935 235.187 160.935ZM252.852 160.492C255.209 160.492 257.121 158.58 257.121 156.223C257.121 153.865 255.209 151.953 252.852 151.953C250.494 151.953 248.582 153.865 248.582 156.223C248.582 158.58 250.494 160.492 252.852 160.492Z" fill="#F1F1F1"/>
<path d="M234.559 147.155C239.287 147.155 243.119 143.323 243.119 138.596C243.119 133.868 239.287 130.036 234.559 130.036C229.832 130.036 226 133.868 226 138.596C226 143.323 229.832 147.155 234.559 147.155Z" fill="#D9D9D9" stroke="#D9D9D9" stroke-width="1.5" stroke-linecap="round" stroke-linejoin="round"/>
<path d="M281.87 120.448H279.91C277.825 120.448 276.78 117.926 278.256 116.452L279.641 115.066L276.803 112.228L275.418 113.614C273.943 115.088 271.422 114.044 271.422 111.959V110H267.408V111.959C267.408 114.044 264.887 115.089 263.412 113.614L262.027 112.228L259.189 115.066L260.574 116.452C262.049 117.926 261.005 120.448 258.92 120.448H256.96V124.461H258.92C261.005 124.461 262.05 126.983 260.574 128.457L259.189 129.843L262.027 132.681L263.412 131.295C264.887 129.821 267.408 130.864 267.408 132.95V134.909H271.422V132.95C271.422 130.864 273.943 129.819 275.418 131.295L276.803 132.681L279.641 129.843L278.256 128.457C276.781 126.983 277.825 124.461 279.91 124.461H281.87V120.448Z" fill="#D9D9D9" stroke="#1F1F1F" stroke-width="1.5" stroke-linecap="round" stroke-linejoin="round"/>
<path d="M269.414 125.092C270.871 125.092 272.052 123.911 272.052 122.454C272.052 120.998 270.871 119.817 269.414 119.817C267.957 119.817 266.776 120.998 266.776 122.454C266.776 123.911 267.957 125.092 269.414 125.092Z" fill="white" stroke="#1F1F1F" stroke-width="1.5" stroke-linecap="round" stroke-linejoin="round"/>
<path d="M268.595 119.947L233.631 136.125" stroke="#1F1F1F" stroke-width="1.5" stroke-linecap="round" stroke-linejoin="round"/>
<path d="M234.559 141.233C236.016 141.233 237.197 140.052 237.197 138.596C237.197 137.139 236.016 135.958 234.559 135.958C233.102 135.958 231.921 137.139 231.921 138.596C231.921 140.052 233.102 141.233 234.559 141.233Z" fill="white" stroke="#1F1F1F" stroke-width="1.5" stroke-linecap="round" stroke-linejoin="round"/>
<path d="M235.241 141.142L270.554 124.833" stroke="#1F1F1F" stroke-width="1.5" stroke-linecap="round" stroke-linejoin="round"/>
<path d="M292.812 140.643C288.832 142.11 285.672 145.272 284.203 149.251C283.992 149.824 283.177 149.824 282.966 149.251C281.498 145.272 278.337 142.11 274.358 140.643C273.784 140.431 273.784 139.617 274.358 139.405C278.337 137.938 281.497 134.776 282.966 130.797C283.177 130.224 283.992 130.224 284.203 130.797C285.671 134.776 288.832 137.938 292.812 139.405C293.385 139.617 293.385 140.431 292.812 140.643Z" fill="#F1F1F1"/>
<path d="M85.9137 81.9999H153.895C161.963 81.9999 168.511 88.5487 168.511 96.6167C168.511 104.685 161.963 111.233 153.895 111.233H103.32C90.4488 111.233 80 100.785 80 87.9136C80 84.6504 82.6505 81.9999 85.9137 81.9999Z" fill="#D9D9D9" stroke="#D9D9D9" stroke-width="1.5" stroke-linecap="round" stroke-linejoin="round"/>
<path d="M97.4768 91.8435H126.583C129.1 91.8435 131.14 93.8839 131.14 96.4009V96.7456C131.14 99.2625 129.1 101.303 126.583 101.303H97.4768C94.9598 101.303 92.9194 99.2625 92.9194 96.7456V96.4009C92.9194 93.8839 94.9598 91.8435 97.4768 91.8435Z" fill="white" stroke="#1F1F1F" stroke-width="1.5" stroke-linecap="round" stroke-linejoin="round"/>
<path d="M138.818 95.8503C140.524 95.1291 142.054 94.0743 143.328 92.769C144.633 91.4924 145.688 89.9589 146.409 88.2515C146.738 87.4744 147.842 87.4696 148.169 88.2467C149.569 91.5642 152.224 94.2211 155.54 95.6221C156.315 95.9493 156.311 97.0535 155.535 97.3806C153.829 98.1019 152.299 99.1567 151.024 100.462C149.719 101.739 148.664 103.272 147.943 104.979C147.614 105.757 146.51 105.761 146.183 104.984C144.783 101.667 142.128 99.0099 138.812 97.6088C138.036 97.2817 138.041 96.1774 138.817 95.8503H138.818Z" fill="white" stroke="#1F1F1F" stroke-width="1.5" stroke-linecap="round" stroke-linejoin="round"/>
</g>
<defs>
<clipPath id="clip0_4466_3785">
<path d="M0 36C0 16.1178 16.1178 0 36 0H294C313.882 0 330 16.1178 330 36V156C330 175.882 313.882 192 294 192H36C16.1178 192 0 175.882 0 156V36Z" fill="white"/>
</clipPath>
</defs>
</svg>
