<svg width="175" height="110" viewBox="0 0 175 110" fill="none" xmlns="http://www.w3.org/2000/svg">
<g clip-path="url(#clip0_5408_31528)">
<path d="M172.999 45.8414C172.999 45.6258 172.883 45.4102 172.593 45.4102H172.07V46.799H172.264V46.2922H172.438L172.786 46.799H173.018L172.651 46.2698C172.902 46.253 172.999 46.0374 172.999 45.8414ZM172.267 46.0962V45.5894H172.615C172.77 45.5894 172.828 45.7266 172.828 45.8442C172.828 45.9618 172.77 46.099 172.595 46.099L172.267 46.0962Z" fill="#7B189F"/>
<path d="M172.496 44.9023C171.838 44.9023 171.319 45.4315 171.319 46.0951C171.319 46.7615 171.841 47.2879 172.496 47.2879C173.151 47.2879 173.674 46.7587 173.674 46.0951C173.676 45.4287 173.135 44.9023 172.496 44.9023ZM172.496 47.1115C171.935 47.1115 171.493 46.6607 171.493 46.0951C171.473 45.5267 171.938 45.0787 172.496 45.0787C173.054 45.0787 173.499 45.5295 173.499 46.0951C173.502 46.6635 173.057 47.1115 172.496 47.1115Z" fill="#7B189F"/>
<path d="M150.249 41.5591C152.003 41.5591 153.424 40.1551 153.424 38.4231C153.424 36.6911 152.003 35.2871 150.249 35.2871C148.495 35.2871 147.073 36.6911 147.073 38.4231C147.073 40.1551 148.495 41.5591 150.249 41.5591Z" fill="#7B189F"/>
<path d="M15.1906 65.2237L5.86486 55.7737L2.64755 59.0329C2.32416 59.3605 2.28546 59.6041 2.40708 60.0101L3.93558 66.0385C4.09589 66.6909 4.41652 67.0157 5.06053 67.1781L11.0114 68.7265C11.4122 68.8497 11.6555 68.8077 11.9761 68.4829L15.1906 65.2237ZM16.7191 65.2237L19.9364 68.4829C20.2598 68.8105 20.5003 68.8497 20.9011 68.7265L26.852 67.1781C27.496 67.0157 27.8166 66.6909 27.9769 66.0385L29.5054 60.0101C29.6271 59.6041 29.5856 59.3577 29.265 59.0329L26.0477 55.7737L16.7191 65.2237ZM16.7191 44.7781L26.0477 54.2281L29.265 50.9689C29.5884 50.6413 29.6271 50.3977 29.5054 49.9917L27.9769 43.9633C27.8166 43.3109 27.496 42.9861 26.852 42.8237L20.9011 41.2753C20.5003 41.1521 20.2571 41.1941 19.9364 41.5189L16.7191 44.7781ZM15.1906 44.7781L11.9761 41.5189C11.6527 41.1913 11.4122 41.1521 11.0114 41.2753L5.06053 42.8237C4.41652 42.9861 4.09589 43.3109 3.93558 43.9633L2.40708 49.9889C2.28546 50.3949 2.32692 50.6413 2.64755 50.9661L5.86486 54.2253L15.1906 44.7781Z" fill="#7B189F"/>
<path d="M121.384 48.9718H116.437V63.711C116.437 64.4782 115.823 65.0998 115.066 65.0998H111.21V48.9718H106.71L100.74 66.119C98.3267 73.0014 95.9552 74.7934 91.7346 74.7934C90.9302 74.7934 89.645 74.631 88.3569 74.3874L89.4957 70.599H91.3338C93.3626 70.599 94.4322 69.9606 95.1343 68.1686C95.8336 66.3738 95.8502 66.0966 95.8585 66.0798L88.6997 44.9006H93.2354C93.838 44.9006 94.3687 45.2982 94.5456 45.8806L98.5893 59.1946L102.851 46.0402C103.133 45.2254 103.495 44.9006 104.3 44.9006H111.213V44.3294C111.213 38.343 113.946 35.207 119.134 35.207C119.939 35.207 121.757 35.3526 122.844 35.599L121.696 39.4014H120.179C118.114 39.4014 116.439 41.0982 116.439 43.1898V44.9006H122.606L121.384 48.9718Z" fill="#7B189F"/>
<path d="M55.8796 59.032L51.8608 45.7964C51.659 45.1048 51.3798 44.9004 50.6944 44.9004H46.8745C46.1918 44.9004 45.9099 45.1048 45.7081 45.7964L41.6477 59.032L38.0297 44.9004H32.2805L38.0711 64.2064C38.2729 64.898 38.5521 65.1024 39.2375 65.1024H43.2177C43.9004 65.1024 44.1823 64.898 44.3841 64.2064L48.6048 50.604L52.8669 64.2064C53.0686 64.898 53.3478 65.1024 54.0333 65.1024H57.6127C58.2954 65.1024 58.5773 64.898 58.7791 64.2064L64.5697 44.9004H59.5392L55.8796 59.032Z" fill="#7B189F"/>
<path d="M152.861 44.9004H147.634V65.1024H152.861V44.9004Z" fill="#7B189F"/>
<path d="M81.1814 46.0397L81.0597 48.3637C79.8132 45.3481 77.2813 44.4941 74.3045 44.4941C68.8373 44.4941 65.4182 49.5033 65.4182 55.0025C65.4182 60.5017 68.8345 65.5109 74.3045 65.5109C77.2813 65.5109 79.8132 64.6541 81.0597 61.6413L81.1814 63.9653C81.1814 64.7381 81.5435 65.1049 82.1875 65.1049H86.3694V44.9001H82.1875C81.5435 44.9001 81.1814 45.2641 81.1814 46.0397ZM75.7888 61.2829C72.4913 61.2829 70.6063 58.4997 70.6063 54.9997C70.6063 51.4997 72.4886 48.7165 75.7888 48.7165C79.089 48.7165 80.9713 51.4997 80.9713 54.9997C80.9713 58.4997 79.0863 61.2829 75.7888 61.2829Z" fill="#7B189F"/>
<path d="M138.048 46.0397L137.927 48.3637C136.68 45.3481 134.148 44.4941 131.171 44.4941C125.704 44.4941 122.285 49.5033 122.285 55.0025C122.285 60.5017 125.701 65.5109 131.171 65.5109C134.148 65.5109 136.68 64.6541 137.927 61.6413L138.048 63.9653C138.048 64.7381 138.41 65.1049 139.054 65.1049H143.236V44.9001H139.054C138.413 44.9001 138.048 45.2641 138.048 46.0397ZM132.658 61.2829C129.361 61.2829 127.476 58.4997 127.476 54.9997C127.476 51.4997 129.358 48.7165 132.658 48.7165C135.959 48.7165 137.841 51.4997 137.841 54.9997C137.841 58.4997 135.956 61.2829 132.658 61.2829Z" fill="#7B189F"/>
<path d="M168.823 44.6953C165.727 44.6953 163.516 45.6585 162.551 49.4049L162.471 46.0393C162.471 45.2665 162.109 44.8997 161.465 44.8997H157.283V65.1017H162.51V54.9993C162.51 51.4573 164.519 49.1753 167.977 49.1753H168.919L170.188 44.9501C169.702 44.7401 169.185 44.6953 168.823 44.6953Z" fill="#7B189F"/>
</g>
<defs>
<clipPath id="clip0_5408_31528">
<rect width="174" height="42" fill="white" transform="translate(0.5 34)"/>
</clipPath>
</defs>
</svg>
