<?xml version="1.0" encoding="UTF-8" standalone="no"?>
<svg
   width="340.24301"
   height="100"
   viewBox="0 0 340.24302 100"
   fill="#000000"
   shape-rendering="crispEdges"
   version="1.1"
   id="svg10"
   sodipodi:docname="Block1.svg"
   inkscape:version="1.4.3 (0d15f75, 2025-12-25)"
   xmlns:inkscape="http://www.inkscape.org/namespaces/inkscape"
   xmlns:sodipodi="http://sodipodi.sourceforge.net/DTD/sodipodi-0.dtd"
   xmlns="http://www.w3.org/2000/svg"
   xmlns:svg="http://www.w3.org/2000/svg">
  <defs
     id="defs10" />
  <sodipodi:namedview
     id="namedview10"
     pagecolor="#ffffff"
     bordercolor="#000000"
     borderopacity="0.25"
     inkscape:showpageshadow="2"
     inkscape:pageopacity="0.0"
     inkscape:pagecheckerboard="0"
     inkscape:deskcolor="#d1d1d1"
     inkscape:zoom="5.5020674"
     inkscape:cx="160.12163"
     inkscape:cy="35.077724"
     inkscape:window-width="2799"
     inkscape:window-height="1285"
     inkscape:window-x="0"
     inkscape:window-y="25"
     inkscape:window-maximized="0"
     inkscape:current-layer="svg10" />
  <g
     id="grid"
     transform="matrix(0.15667456,0,0,0.15667456,10.177992,15.993988)">
    <rect
       x="0"
       y="0"
       width="120"
       height="120"
       rx="20"
       id="rect1" />
    <rect
       x="160"
       y="0"
       width="120"
       height="120"
       rx="20"
       id="rect2" />
    <rect
       x="320"
       y="0"
       width="120"
       height="120"
       rx="20"
       id="rect3" />
    <rect
       x="0"
       y="160"
       width="120"
       height="120"
       rx="20"
       id="rect4" />
    <rect
       x="160"
       y="160"
       width="120"
       height="120"
       rx="20"
       id="rect5" />
    <rect
       x="320"
       y="160"
       width="120"
       height="120"
       rx="20"
       id="rect6" />
    <rect
       x="0"
       y="320"
       width="120"
       height="120"
       rx="20"
       id="rect7" />
    <rect
       x="160"
       y="320"
       width="120"
       height="120"
       rx="20"
       id="rect8" />
    <rect
       x="320"
       y="320"
       width="120"
       height="120"
       rx="20"
       id="rect9" />
  </g>
  <path
     d="m 123.84335,85.987721 c -6.50215,0 -11.28997,-2.590457 -14.4443,-6.338583 v 3.047321 c 0,1.232715 -0.99754,2.233865 -2.22572,2.233865 h -7.03202 c -1.228174,0 -2.225564,-1.00115 -2.225564,-2.233865 V 18.227838 c 0,-1.232687 0.99739,-2.23385 2.225564,-2.23385 h 7.03202 c 1.22818,0 2.22572,1.001163 2.22572,2.23385 v 21.675158 c 3.15433,-3.741859 7.94215,-6.338583 14.4443,-6.338583 14.0642,0 22.10004,11.90758 22.10004,26.211654 0,14.304074 -8.03584,26.211654 -22.10004,26.211654 z M 109.10591,58.336855 v 2.97854 c 0,9.317122 5.35514,14.598152 12.43714,14.598152 8.32255,0 12.81739,-6.526279 12.81739,-16.131213 0,-9.604934 -4.49484,-16.131213 -12.81739,-16.131213 -7.082,0 -12.43714,5.187182 -12.43714,14.692001 z M 167.2458,18.227838 v 64.474888 c 0,1.232715 -0.99801,2.233865 -2.22603,2.233865 h -7.03218 c -1.22802,0 -2.22556,-1.00115 -2.22556,-2.233865 V 18.227838 c 0,-1.232687 0.99754,-2.23385 2.22556,-2.23385 h 7.03218 c 1.22802,0 2.22603,1.001163 2.22603,2.23385 z m 58.27041,41.548229 c 0,15.649439 -10.04441,26.211654 -24.20152,26.211654 -14.15712,0 -24.20152,-10.562215 -24.20152,-26.211654 0,-15.649438 10.0444,-26.211654 24.20152,-26.211654 14.15711,0 24.20152,10.562216 24.20152,26.211654 z m -36.83106,0 c 0,10.274404 4.88041,16.512872 12.62954,16.512872 7.74912,0 12.6311,-6.238468 12.6311,-16.512872 0,-10.274404 -4.88198,-16.512872 -12.6311,-16.512872 -7.74913,0 -12.62954,6.244735 -12.62954,16.512872 z m 55.03977,0 c 0,10.274404 5.35514,16.225061 13.20453,16.225061 5.22353,0 8.70954,-2.934671 10.5113,-7.258419 0.50449,-1.213915 1.90046,-1.770736 3.07239,-1.176313 l 5.77972,2.928404 c 1.05912,0.538178 1.50878,1.814605 1.03406,2.903337 -3.1288,7.189639 -10.39223,12.595851 -20.3912,12.595851 -14.35139,0 -24.68094,-10.656064 -24.68094,-26.211654 0,-15.55559 10.32955,-26.211654 24.68094,-26.211654 9.9175,0 17.01956,5.174804 20.19222,12.257904 0.47942,1.070088 0.0689,2.333981 -0.96042,2.897226 l -5.66691,3.0973 c -1.15313,0.632025 -2.56163,0.09385 -3.07866,-1.120067 -1.80802,-4.254967 -5.2815,-7.239618 -10.48623,-7.239618 -7.84313,0 -13.20453,6.050772 -13.20453,16.325176 z"
     id="path9"
     style="stroke-width:0.156675" />
  <path
     d="m 297.43296,53.187118 v -34.95928 c 0,-1.232687 -0.99645,-2.23385 -2.22478,-2.23385 h -7.03155 c -1.22833,0 -2.22635,1.001163 -2.22635,2.23385 v 64.462354 c 0,1.232715 0.99802,2.233865 2.22635,2.233865 h 7.03155 c 1.22833,0 2.22478,-1.00115 2.22478,-2.233865 V 69.29342 c 0,-0.256633 0.10654,-0.506842 0.28672,-0.694538 l 5.46167,-5.562731 c 0.44339,-0.450596 1.17819,-0.375549 1.52758,0.150095 l 13.68395,20.736661 c 0.41049,0.625758 1.10299,1.00115 1.8519,1.00115 h 7.9481 c 1.77669,0 2.83581,-1.989766 1.85189,-3.472848 L 312.32018,54.770315 c -0.26165,-0.387926 -0.21151,-0.901035 0.1128,-1.238982 l 14.72428,-15.223911 c 1.37247,-1.414144 0.36818,-3.785727 -1.59495,-3.785727 h -7.82432 c -0.62357,0 -1.2158,0.2629 -1.63882,0.725873 l -16.94435,18.609178 c -0.61104,0.66947 -1.72186,0.237675 -1.72186,-0.669628 z"
     id="path10"
     style="stroke-width:0.156675" />
</svg>
