<svg width="175" height="110" viewBox="0 0 175 110" fill="none" xmlns="http://www.w3.org/2000/svg">
<g clip-path="url(#clip0_5408_31190)">
<g clip-path="url(#clip1_5408_31190)">
<path d="M148.254 36.916H128.706C124.116 36.916 120.396 40.6369 120.396 45.2268V64.7746C120.396 69.3645 124.116 73.0854 128.706 73.0854H148.254C152.844 73.0854 156.565 69.3645 156.565 64.7746V45.2268C156.565 40.6369 152.844 36.916 148.254 36.916Z" fill="#FFE70D"/>
<path d="M143.29 60.2501H146.096C147.142 60.2501 147.812 59.4854 148.124 57.7695C148.415 56.1231 148.036 55.39 146.99 55.39H144.181L144.623 52.9189C145.119 50.1002 146.592 48.7098 149.012 48.7098H149.474C150.82 48.7098 151.556 48.4917 151.657 47.8629C151.739 47.4394 151.619 46.858 151.483 46.2165C151.341 45.594 151.19 44.9904 150.975 44.6523C150.649 44.0835 149.903 43.8086 148.728 43.8086C145.821 43.8086 143.429 44.6112 141.542 46.2355C139.665 47.8502 138.467 50.0212 137.94 52.9663L137.488 55.3932L131.62 55.5986C131.563 55.5986 129.209 55.7787 127.414 55.9177C127.139 55.9398 127.126 56.3348 127.398 56.3759L130.823 56.8942C130.937 56.91 131.032 56.9953 131.064 57.1059L131.139 57.3776C131.193 57.5672 131.06 57.7568 130.864 57.7726L129.585 57.8801C129.345 57.899 129.335 58.2498 129.572 58.2846L131.288 58.531C131.367 58.5437 131.43 58.6006 131.446 58.6796L131.506 58.964C131.534 59.0967 131.436 59.2231 131.301 59.2326L124.958 59.5833C124.712 59.596 124.715 59.9625 124.962 59.972C128.305 60.0984 132.451 60.2532 132.505 60.2532H136.594L135.538 66.2035H142.24L143.29 60.2532V60.2501Z" fill="#1642B9"/>
<path d="M39.0762 43.0023C39.25 43.2077 39.3258 43.4763 39.2847 43.7386L37.1707 57.2918C37.1517 57.5225 37.1423 57.6711 37.1423 57.7595C37.1423 58.2177 37.2276 58.5306 37.4014 58.6886C37.5594 58.8403 37.9165 58.9224 37.9765 58.9319C38.1693 58.9635 38.3525 59.0583 38.4884 59.2005C38.6749 59.3933 38.7665 59.6619 38.7412 59.9305L38.618 61.1471C38.5927 61.4062 38.4853 61.6211 38.3209 61.738C38.1756 61.8423 37.9923 61.9339 37.7585 62.0224C37.5309 62.1077 36.88 62.2973 36.4281 62.2973C35.2905 62.2973 34.4089 62.0318 33.8085 61.5073C33.2144 60.9859 32.911 60.2275 32.911 59.2479C32.911 58.9856 32.9363 58.6886 32.99 58.3726C33.0121 58.2399 35.2873 43.6122 35.3126 43.451C35.3821 43.0023 35.7613 42.6768 36.2132 42.6768H38.3841C38.6527 42.6768 38.9055 42.7938 39.0762 42.9992V43.0023ZM45.2824 47.9193H43.1399C42.6881 47.9193 42.3089 48.2448 42.2393 48.6935L40.3212 60.9448C40.2801 61.2102 40.356 61.4788 40.5298 61.6842C40.7036 61.8896 40.9532 62.0066 41.2218 62.0066H43.3675C43.8193 62.0066 44.1985 61.6811 44.2681 61.2324L46.1862 48.981C46.2273 48.7156 46.1514 48.447 45.9776 48.2416C45.8038 48.0362 45.551 47.9193 45.2824 47.9193ZM44.5525 46.709C45.4531 46.709 46.1293 46.472 46.5591 46.0075C46.9951 45.5335 47.21 44.9426 47.21 44.2C47.21 43.6249 47.0489 43.1919 46.7297 42.9075C46.4074 42.62 45.9113 42.4746 45.254 42.4746C44.3534 42.4746 43.6771 42.7116 43.2474 43.1761C42.8113 43.6501 42.5996 44.2411 42.5996 44.9837C42.5996 45.5588 42.7607 45.9917 43.0799 46.2761C43.4085 46.5668 43.8889 46.7058 44.5556 46.7058L44.5525 46.709ZM75.9313 48.2858C75.7575 48.0552 75.4857 47.9161 75.2013 47.9161H72.9387C72.5374 47.9161 72.1772 48.1879 72.0666 48.5734C71.8707 49.2339 71.5073 49.9986 70.9795 50.8486C70.2369 52.0462 69.6271 52.7888 69.1088 53.1238L69.0267 53.1649C68.8402 53.2565 68.559 53.3956 67.5573 53.5725L67.434 53.5947L68.9982 43.7418C69.0393 43.4763 68.9635 43.2077 68.7897 43.0023C68.6159 42.7969 68.3631 42.68 68.0976 42.68H65.9267C65.4748 42.68 65.0988 43.0055 65.0261 43.4542L62.2706 60.9416C62.2263 61.2071 62.3022 61.4757 62.476 61.6811C62.6498 61.8865 62.9026 62.0034 63.168 62.0034H65.3389C65.7908 62.0034 66.1669 61.6779 66.2395 61.2292L66.9505 56.6693H68.3093L70.1801 61.422C70.3191 61.7727 70.6509 62.0002 71.0269 62.0002H73.378C73.8804 62.0002 74.2881 61.5895 74.2881 61.0839C74.2881 60.9575 74.2628 60.8342 74.2122 60.7173L72.0697 55.1652L72.114 55.1241C73.0019 54.3214 73.912 53.1838 74.8158 51.746C75.4035 50.8138 75.8238 49.9227 76.0671 49.0948C76.1493 48.8199 76.0956 48.5165 75.9249 48.2858H75.9313ZM110.41 47.9193H108.713L109.089 45.4861C109.13 45.2206 109.051 44.952 108.881 44.7498C108.707 44.5444 108.454 44.4275 108.189 44.4275H106.473C106.071 44.4275 105.711 44.6992 105.597 45.0848L104.766 47.9193H103.828C103.379 47.9193 103 48.2448 102.927 48.6903L102.715 50.008C102.671 50.2735 102.747 50.5421 102.921 50.7475C103.095 50.9529 103.347 51.0698 103.613 51.0698H104.182L103.17 57.5889C103.098 57.9965 103.063 58.4294 103.063 58.8718C103.063 60.0284 103.366 60.869 103.989 61.4441C104.605 62.0129 105.55 62.3005 106.795 62.3005C107.544 62.3005 108.603 61.9876 108.726 61.9434C108.827 61.9086 109.007 61.8454 109.032 61.8359C109.073 61.8201 109.111 61.8043 109.146 61.7822C109.405 61.64 109.579 61.3777 109.614 61.0839L109.769 59.7314C109.8 59.447 109.699 59.1626 109.494 58.9635C109.434 58.9066 109.367 58.8592 109.298 58.8181C109.25 58.7928 109.203 58.7739 109.159 58.7581C109.124 58.7455 109.042 58.7297 108.719 58.736C108.644 58.736 108.558 58.736 108.476 58.736C108.328 58.736 108.236 58.7328 108.182 58.7202C108.056 58.698 107.74 58.6317 107.585 58.4863C107.509 58.4168 107.272 58.2051 107.272 57.4309C107.272 57.3551 107.282 57.2413 107.301 57.0675L108.226 51.0603H110.151C110.587 51.0603 110.963 50.7475 111.045 50.3209L111.301 49.0032C111.352 48.7346 111.285 48.4565 111.108 48.2448C110.935 48.033 110.679 47.9098 110.404 47.9098L110.41 47.9193ZM60.2261 49.1548C60.9813 50.1818 61.3668 51.5375 61.3668 53.187C61.3668 54.274 61.2183 55.3326 60.9244 56.3438C60.6337 57.3487 60.1692 58.3283 59.5498 59.2574C58.9336 60.1769 58.0393 60.929 56.8954 61.4852C55.7483 62.0445 54.3864 62.3289 52.8475 62.3289C52.2407 62.3289 51.476 62.2657 50.5723 62.1425L50.4806 62.1298L50.3131 63.7888C50.3131 63.8078 50.31 63.8236 50.3068 63.8425L49.8297 66.7592C49.757 67.2048 49.3778 67.5271 48.9291 67.5271H46.7803C46.5148 67.5271 46.262 67.4102 46.0882 67.2048C45.9144 67.0025 45.8386 66.7308 45.8797 66.4653L48.6826 48.6967C48.7521 48.2479 49.1313 47.9225 49.5832 47.9225H50.9736C51.2201 47.9225 51.4602 48.0236 51.6309 48.2037C51.8015 48.3838 51.8931 48.6271 51.8837 48.8736L51.8331 50.3809L52.0006 50.1724C52.0132 50.1566 53.3404 48.5323 55.3723 47.8877C55.9316 47.7107 56.472 47.6254 57.0155 47.6254C58.4154 47.6254 59.4645 48.1278 60.2261 49.158V49.1548ZM57.2904 53.8917C57.2904 53.0859 57.1514 52.4096 56.8765 51.8882C56.5921 51.3447 56.1844 51.0698 55.6693 51.0698C55.0911 51.0698 54.4243 51.4427 53.6817 52.179C52.9549 52.9026 52.2913 53.7653 51.7162 54.7386L51.1031 58.6633L51.1758 58.6854C51.8078 58.8877 52.5409 58.9888 53.3562 58.9888C54.6739 58.9888 55.6725 58.4516 56.3235 57.3898C56.9649 56.3438 57.2904 55.1683 57.2904 53.8917ZM100.785 47.7581C99.8525 47.9793 98.9361 48.5576 98.3325 49C97.6436 49.5088 96.6545 50.5895 96.6451 50.6021L96.4776 50.7822L96.5661 48.8768C96.5787 48.6271 96.4871 48.3806 96.3133 48.2005C96.1426 48.0204 95.9025 47.9161 95.6528 47.9161H94.2498C93.7979 47.9161 93.4187 48.2416 93.3492 48.6935L91.4311 60.9416C91.39 61.2071 91.4658 61.4757 91.6396 61.6811C91.8134 61.8865 92.0662 62.0002 92.3317 62.0002H94.4994C94.9513 62.0002 95.3305 61.6748 95.4 61.2261L96.4144 54.7038C96.9927 53.8885 97.7416 53.1838 98.6453 52.6087C99.3247 52.179 100.02 51.9072 100.709 51.7966C101.088 51.7366 101.391 51.4427 101.464 51.0603L101.884 48.8167C101.941 48.5102 101.843 48.2005 101.619 47.9857C101.398 47.7739 101.079 47.6855 100.778 47.755L100.785 47.7581ZM90.8149 49.2497L88.9441 61.2261C88.8746 61.6748 88.4954 62.0002 88.0435 62.0002H86.6531C86.4067 62.0002 86.1697 61.8991 85.999 61.719C85.8284 61.5421 85.7367 61.2987 85.7431 61.0491L85.7968 59.5639L85.6325 59.7472C85.6325 59.7472 85.0921 60.3507 84.4759 60.8311C83.5595 61.5484 82.542 61.937 82.4314 61.9813C81.8657 62.193 81.2527 62.2973 80.6144 62.2973C79.2145 62.2973 78.1654 61.7948 77.4038 60.7647C76.6486 59.7377 76.2631 58.3821 76.2631 56.7294C76.2631 55.8699 76.3484 55.0261 76.519 54.2172C76.6865 53.4082 76.9867 52.5866 77.4101 51.7777C77.8336 50.9687 78.3676 50.2514 78.9933 49.651C79.6158 49.0474 80.4406 48.5544 81.436 48.1816C82.4345 47.8087 83.5658 47.6191 84.8077 47.6191C86.3277 47.6191 88.1067 47.815 90.0849 48.2068C90.5684 48.3016 90.8875 48.7599 90.8117 49.2497H90.8149ZM86.5236 51.2594L86.4509 51.2373C85.8189 51.0382 85.0858 50.9371 84.2705 50.9371C82.9528 50.9371 81.9542 51.4743 81.3033 52.536C80.6618 53.582 80.3363 54.7607 80.3363 56.0342C80.3363 56.8368 80.4753 57.513 80.7503 58.0376C81.0347 58.5811 81.4423 58.8592 81.9605 58.8592C82.5388 58.8592 83.2056 58.4863 83.945 57.7501C84.6718 57.0264 85.3323 56.1637 85.9074 55.1873L86.5236 51.2626V51.2594ZM32.9584 45.4324L33.2175 43.7386C33.2586 43.4732 33.1828 43.2046 33.009 43.0023C32.8352 42.8001 32.5824 42.6832 32.3138 42.6832H22.0943C21.6425 42.6832 21.2633 43.0086 21.1937 43.4574L18.4477 60.9195C18.4066 61.185 18.4825 61.4536 18.6563 61.659C18.8301 61.8644 19.0829 61.9813 19.3483 61.9813H21.7057C22.1575 61.9813 22.5367 61.6558 22.6063 61.2071L23.668 54.432H29.514C29.9627 54.432 30.3419 54.1066 30.4115 53.661L30.6516 52.1821C30.6927 51.9167 30.62 51.6481 30.4462 51.4427C30.2724 51.2373 30.0196 51.1204 29.751 51.1204H24.2305L24.9541 46.216H32.0547C32.5065 46.216 32.8857 45.8874 32.9553 45.4387L32.9584 45.4324Z" fill="white"/>
<path d="M39.2247 42.8695C39.3985 43.0749 39.4744 43.3435 39.4333 43.609L37.3161 57.1812C37.2971 57.4118 37.2876 57.5604 37.2876 57.652C37.2876 58.1102 37.373 58.423 37.5468 58.5842C37.7048 58.7359 38.0618 58.818 38.1219 58.8275C38.3146 58.8591 38.4979 58.9539 38.6338 59.0961C38.8202 59.292 38.9119 59.5575 38.8866 59.8261L38.7634 61.0458C38.7381 61.305 38.6306 61.5198 38.4663 61.6368C38.321 61.741 38.1377 61.8327 37.9038 61.9212C37.6763 62.0065 37.0222 62.1961 36.5735 62.1961C35.4327 62.1961 34.5511 61.9306 33.9507 61.4061C33.3534 60.8847 33.0501 60.1231 33.0501 59.1435C33.0501 58.8781 33.0754 58.5842 33.1291 58.2682C33.1512 58.1355 35.4296 43.4889 35.4548 43.3277C35.5244 42.879 35.9036 42.5504 36.3554 42.5504H38.5295C38.7981 42.5504 39.0509 42.6673 39.2247 42.8727V42.8695ZM45.4373 47.7896H43.2916C42.8398 47.7896 42.4606 48.1151 42.391 48.567L40.4698 60.8341C40.4287 61.0996 40.5045 61.3682 40.6783 61.5736C40.8521 61.779 41.1049 61.8959 41.3704 61.8959H43.5192C43.971 61.8959 44.3502 61.5704 44.4198 61.1217L46.341 48.8546C46.3821 48.5891 46.3063 48.3205 46.1325 48.1151C45.9587 47.9097 45.7059 47.7928 45.4373 47.7928V47.7896ZM44.7073 46.5794C45.6111 46.5794 46.2873 46.3424 46.7171 45.8778C47.1532 45.4038 47.368 44.8098 47.368 44.0703C47.368 43.4952 47.2037 43.0591 46.8846 42.7747C46.5622 42.4872 46.0661 42.3418 45.4088 42.3418C44.5051 42.3418 43.8288 42.5788 43.3991 43.0465C42.963 43.5205 42.7481 44.1146 42.7481 44.8572C42.7481 45.4323 42.9093 45.8684 43.2284 46.1528C43.5571 46.4435 44.0406 46.5825 44.7042 46.5825L44.7073 46.5794ZM76.1304 48.1594C75.9566 47.9287 75.6848 47.7896 75.4004 47.7896H73.1347C72.7334 47.7896 72.3731 48.0614 72.2594 48.4501C72.0634 49.1137 71.7 49.8784 71.1723 50.7284C70.4297 51.9261 69.8167 52.6718 69.2984 53.0068L69.2163 53.0479C69.0298 53.1395 68.7486 53.2786 67.7469 53.4555L67.6236 53.4776L69.191 43.609C69.2321 43.3435 69.1562 43.0718 68.9824 42.8695C68.8086 42.6641 68.5558 42.5472 68.2872 42.5472H66.1132C65.6613 42.5472 65.2821 42.8727 65.2126 43.3214L62.4507 60.8341C62.4065 61.0996 62.4823 61.3713 62.6561 61.5736C62.8299 61.779 63.0859 61.8959 63.3513 61.8959H65.5254C65.9773 61.8959 66.3565 61.5704 66.426 61.1217L67.1402 56.5555H68.5021L70.376 61.3144C70.515 61.6684 70.8468 61.8959 71.2229 61.8959H73.5771C74.0795 61.8959 74.4903 61.4851 74.4903 60.9763C74.4903 60.8499 74.465 60.7235 74.4145 60.6066L72.2688 55.045L72.3131 55.0039C73.201 54.1981 74.1111 53.0605 75.018 51.6227C75.6058 50.6905 76.0292 49.7962 76.2726 48.9683C76.3547 48.6934 76.301 48.39 76.1304 48.1594ZM110.66 47.7896H108.963L109.339 45.3533C109.38 45.0878 109.301 44.8192 109.13 44.6138C108.956 44.4084 108.704 44.2915 108.438 44.2915H106.722C106.321 44.2915 105.961 44.5633 105.847 44.9488L105.016 47.7865H104.077C103.626 47.7865 103.249 48.112 103.177 48.5575L102.965 49.8752C102.921 50.1407 102.997 50.4093 103.17 50.6178C103.344 50.8232 103.597 50.9402 103.866 50.9402H104.434L103.423 57.4687C103.351 57.8764 103.316 58.3093 103.316 58.7548C103.316 59.9146 103.619 60.7551 104.245 61.3302C104.861 61.899 105.806 62.1866 107.054 62.1866C107.803 62.1866 108.862 61.8738 108.988 61.8264C109.089 61.7916 109.269 61.7284 109.295 61.7189C109.336 61.7031 109.374 61.6873 109.408 61.6652C109.671 61.523 109.844 61.2607 109.876 60.9668L110.031 59.6144C110.062 59.33 109.961 59.0424 109.756 58.8465C109.696 58.7896 109.63 58.7422 109.557 58.7011C109.509 58.6758 109.462 58.6569 109.418 58.6411C109.383 58.6284 109.301 58.6126 108.979 58.619C108.903 58.619 108.817 58.619 108.735 58.619C108.587 58.619 108.495 58.6158 108.441 58.6032C108.315 58.581 107.999 58.5115 107.844 58.3693C107.768 58.2998 107.531 58.0881 107.531 57.3139C107.531 57.238 107.541 57.1243 107.56 56.9505L108.489 50.937H110.416C110.852 50.937 111.228 50.6242 111.311 50.1944L111.567 48.8767C111.617 48.6081 111.551 48.33 111.374 48.1183C111.2 47.9034 110.941 47.7833 110.669 47.7833L110.66 47.7896ZM60.403 49.0284C61.1614 50.0585 61.5438 51.4173 61.5438 53.0668C61.5438 54.1539 61.3953 55.2156 61.1014 56.2268C60.8075 57.2349 60.3462 58.2145 59.7268 59.1435C59.1106 60.0662 58.2163 60.8152 57.0692 61.3745C55.9222 61.9338 54.557 62.2182 53.015 62.2182C52.4082 62.2182 51.6404 62.155 50.7366 62.0318L50.645 62.0191L50.4775 63.6813C50.4775 63.7002 50.4743 63.716 50.4712 63.7382L49.994 66.658C49.9213 67.1036 49.5421 67.4259 49.0934 67.4259H46.9414C46.676 67.4259 46.4232 67.309 46.2494 67.1036C46.0756 66.8982 45.9998 66.6296 46.0408 66.3641L48.8469 48.567C48.9164 48.1183 49.2988 47.7896 49.7475 47.7896H51.1411C51.3876 47.7896 51.6277 47.8908 51.7984 48.0709C51.969 48.251 52.0606 48.4943 52.0512 48.7408L52.0006 50.2481L52.1681 50.0396C52.1807 50.0238 53.5111 48.3995 55.5461 47.7517C56.1086 47.5748 56.6458 47.4863 57.1925 47.4863C58.5955 47.4863 59.6446 47.9887 60.4062 49.022L60.403 49.0284ZM57.4642 53.7715C57.4642 52.9657 57.3252 52.2895 57.0503 51.7649C56.7659 51.2214 56.3582 50.9465 55.84 50.9465C55.2617 50.9465 54.5918 51.3194 53.8492 52.0588C53.1192 52.7824 52.4588 53.6483 51.8805 54.6247L51.2643 58.5558L51.337 58.5779C51.9722 58.7801 52.7053 58.8812 53.5206 58.8812C54.8414 58.8812 55.84 58.344 56.491 57.2791C57.1324 56.2332 57.4611 55.0545 57.4611 53.7778L57.4642 53.7715ZM101.022 47.6316C100.086 47.8528 99.1731 48.4311 98.5664 48.8767C97.8775 49.3854 96.8852 50.4693 96.8758 50.482L96.7083 50.6621L96.7968 48.7534C96.8094 48.5038 96.7178 48.2573 96.544 48.0772C96.3733 47.8971 96.1332 47.7928 95.8835 47.7928H94.4773C94.0254 47.7928 93.6462 48.1183 93.5767 48.5702L91.6586 60.8373C91.6175 61.1027 91.6934 61.3713 91.8672 61.5767C92.041 61.7821 92.2938 61.8959 92.5592 61.8959H94.7301C95.182 61.8959 95.5612 61.5704 95.6307 61.1185L96.6451 54.5868C97.2234 53.7684 97.9754 53.0637 98.8792 52.4886C99.5586 52.0588 100.254 51.7839 100.946 51.6764C101.325 51.6164 101.632 51.3194 101.701 50.9402L102.121 48.6934C102.178 48.3869 102.08 48.0772 101.856 47.8592C101.635 47.6474 101.316 47.559 101.015 47.6285L101.022 47.6316ZM91.0361 49.1263L89.1622 61.1217C89.0927 61.5704 88.7135 61.8959 88.2616 61.8959H86.8712C86.6247 61.8959 86.3846 61.7948 86.2139 61.6146C86.0433 61.4377 85.9485 61.1912 85.958 60.9447L86.0117 59.4564L85.8474 59.6396C85.8474 59.6396 85.307 60.2432 84.6908 60.7267C83.7712 61.444 82.7569 61.8358 82.6431 61.8769C82.0775 62.0886 81.4644 62.1929 80.823 62.1929C79.4199 62.1929 78.3676 61.6905 77.6092 60.6572C76.8508 59.6302 76.4685 58.2714 76.4685 56.6155C76.4685 55.756 76.5538 54.9091 76.7244 54.1002C76.8919 53.2912 77.1921 52.4696 77.6187 51.6575C78.0422 50.8454 78.5762 50.128 79.205 49.5276C79.8307 48.9241 80.6523 48.428 81.6509 48.0551C82.6494 47.6822 83.7839 47.4926 85.0289 47.4926C86.552 47.4926 88.3311 47.6917 90.3156 48.0804C90.7991 48.1752 91.1182 48.6334 91.0424 49.1232L91.0361 49.1263ZM86.7385 51.1361L86.6658 51.114C86.0306 50.9149 85.2975 50.8138 84.4822 50.8138C83.1645 50.8138 82.1628 51.351 81.5118 52.4159C80.8672 53.465 80.5417 54.6437 80.5417 55.9203C80.5417 56.7261 80.6808 57.3992 80.9557 57.9269C81.2401 58.4704 81.6477 58.7485 82.166 58.7485C82.7442 58.7485 83.411 58.3756 84.1536 57.6362C84.8804 56.9126 85.544 56.0467 86.1191 55.0703L86.7353 51.1392L86.7385 51.1361ZM33.0975 45.2996L33.3566 43.6026C33.3977 43.3372 33.3218 43.0686 33.148 42.8664C32.9742 42.6641 32.7214 42.5472 32.4528 42.5472H22.2176C21.7657 42.5472 21.3865 42.8727 21.317 43.3214L18.5646 60.8057C18.5236 61.0711 18.5994 61.3397 18.7732 61.5451C18.947 61.7505 19.1998 61.8674 19.4652 61.8674H21.8258C22.2776 61.8674 22.6568 61.542 22.7264 61.0932L23.7913 54.3056H29.6468C30.0955 54.3056 30.4747 53.9801 30.5474 53.5345L30.7875 52.0556C30.8286 51.7902 30.7559 51.5184 30.5821 51.313C30.4083 51.1076 30.1555 50.9907 29.8869 50.9907H24.3601L25.0869 46.0801H32.2C32.6551 46.0801 33.0343 45.7514 33.1038 45.2996H33.0975Z" fill="#1642B9"/>
</g>
</g>
<defs>
<clipPath id="clip0_5408_31190">
<rect width="175" height="110" fill="white"/>
</clipPath>
<clipPath id="clip1_5408_31190">
<rect width="158" height="158" fill="white" transform="translate(8.5 -24)"/>
</clipPath>
</defs>
</svg>
