<svg width="175" height="110" viewBox="0 0 175 110" fill="none" xmlns="http://www.w3.org/2000/svg">
<g clip-path="url(#clip0_5408_31355)">
<path fill-rule="evenodd" clip-rule="evenodd" d="M33.2046 66.1126C32.9046 68.5582 31.4043 70.5169 29.0805 71.4977C27.7863 72.0441 26.0486 72.339 24.6732 72.2464C22.5276 72.1654 20.5118 71.65 18.6537 70.7078C17.9899 70.371 17.0004 69.6985 16.2405 69.0687C16.0481 68.9096 16.0252 68.8075 16.1526 68.6291C16.2213 68.5267 16.3481 68.342 16.6283 67.9364C17.0347 67.3482 17.0854 67.2745 17.1312 67.2055C17.2612 67.0084 17.4725 66.9912 17.6809 67.1532C17.7028 67.17 17.7028 67.17 17.7193 67.1828C17.7535 67.209 17.7535 67.209 17.8341 67.2709C17.9158 67.3337 17.9642 67.3708 17.9838 67.3853C19.9876 68.9355 22.3215 69.8296 24.6776 69.919C27.9557 69.8749 30.313 68.419 30.7353 66.1835C31.1998 63.7231 29.2445 61.5978 25.419 60.4132C24.2226 60.0428 21.1984 58.8471 20.6409 58.524C18.0224 57.0065 16.7981 55.0187 16.9721 52.5635C17.2387 49.1602 20.4373 46.6219 24.4788 46.6049C26.2862 46.6012 28.0898 46.9722 29.8224 47.6934C30.4359 47.9488 31.5313 48.5376 31.9095 48.8165C32.1273 48.9745 32.1703 49.1587 32.0455 49.3573C31.9757 49.4725 31.8605 49.6552 31.6175 50.0359L31.6148 50.0401C31.295 50.5416 31.285 50.5572 31.2117 50.6745C31.0849 50.8652 30.9359 50.8829 30.7073 50.7397C28.8532 49.5094 26.7979 48.8904 24.5374 48.8457C21.7232 48.9007 19.6139 50.5551 19.4752 52.8088C19.4383 54.8443 20.9839 56.3303 24.3225 57.4634C31.0993 59.6145 33.6927 62.1364 33.2046 66.1126ZM24.8353 30.9735C29.2474 30.9735 32.8437 35.1092 33.012 40.2863H16.6589C16.8271 35.1092 20.4234 30.9735 24.8353 30.9735ZM47.6691 41.2597C47.6691 40.7221 47.2308 40.2863 46.6903 40.2863H36.0907C35.8306 33.4507 30.8909 28 24.8353 28C18.7799 28 13.8402 33.4507 13.5801 40.2863L2.96535 40.2865C2.43312 40.2961 2.00461 40.7282 2.00461 41.2597C2.00461 41.2851 2.00557 41.3103 2.00749 41.3351H2L3.51314 74.2823C3.51333 74.374 3.51678 74.4664 3.5237 74.5595C3.52524 74.5805 3.52697 74.6013 3.5287 74.6221L3.53196 74.6917L3.53561 74.6953C3.76552 76.9879 5.44998 78.8345 7.74042 78.9197L7.74561 78.9247H41.4166C41.4325 78.9249 41.4485 78.9251 41.4644 78.9251C41.4804 78.9251 41.4963 78.9249 41.5123 78.9247H41.5839L41.5854 78.9233C43.9158 78.8605 45.8035 76.9881 46.0029 74.6672L46.004 74.6661L46.0056 74.6349C46.0075 74.6105 46.0093 74.5862 46.0108 74.5618C46.0145 74.5033 46.0169 74.4451 46.0179 74.3872L47.6689 41.3099H47.6678C47.6688 41.2933 47.6691 41.2765 47.6691 41.2597ZM159.919 62.7328C160.568 60.6426 162.529 59.2491 164.818 59.2491C167.003 59.2491 169.084 60.7148 169.802 62.7288L169.852 62.8672H159.877L159.919 62.7328ZM172.071 65.761C172.085 65.7616 172.085 65.7616 172.105 65.7618C172.124 65.7616 172.124 65.7616 172.145 65.761C172.622 65.7394 173 65.3372 173 64.8479C173 64.8242 172.999 64.8037 172.997 64.7709C172.998 64.7648 172.998 64.7529 172.998 64.7144C172.998 60.0982 169.334 56.3572 164.816 56.3572C160.297 56.3572 156.633 60.0982 156.633 64.7144C156.633 65.0585 156.654 65.4017 156.694 65.7428L156.697 65.761L156.71 65.8511C156.935 67.512 157.652 69.0365 158.785 70.2701C158.785 70.2695 158.786 70.2706 158.792 70.2771C160.048 71.6428 161.754 72.5736 163.646 72.9217L163.671 72.9265V72.924L163.794 72.9442C163.857 72.9549 163.923 72.9653 164.013 72.9789C166.503 73.2747 168.712 72.9202 170.582 71.9898C171.043 71.7605 171.457 71.5076 171.816 71.2404C171.931 71.1544 172.035 71.0711 172.125 70.9932C172.171 70.953 172.208 70.9192 172.228 70.8997C172.65 70.4702 172.676 70.318 172.421 69.9259C172.141 69.4852 171.894 69.1098 171.682 68.799C171.608 68.6902 171.543 68.5975 171.489 68.5205C171.459 68.4782 171.459 68.4782 171.44 68.4515C171.433 68.4411 171.433 68.4411 171.427 68.4344L171.425 68.431C171.194 68.1476 171.036 68.1216 170.78 68.3448C170.753 68.3687 170.662 68.4382 170.645 68.4555C168.846 70.0338 166.389 70.5416 163.935 70.0344C163.478 69.9132 163.051 69.7592 162.657 69.5734C161.12 68.812 160.031 67.4553 159.716 65.885L159.692 65.761L172.071 65.761ZM140.449 62.7328C141.098 60.6426 143.059 59.2491 145.348 59.2491C147.533 59.2491 149.613 60.7148 150.332 62.7288L150.381 62.8672H140.407L140.449 62.7328ZM152.601 65.761C152.615 65.7616 152.615 65.7616 152.635 65.7618C152.654 65.7616 152.654 65.7616 152.674 65.761C153.152 65.7394 153.53 65.3372 153.53 64.8479C153.53 64.8242 153.529 64.8037 153.527 64.7709C153.528 64.7648 153.528 64.7529 153.528 64.7144C153.528 60.0982 149.864 56.3572 145.345 56.3572C140.827 56.3572 137.163 60.0982 137.163 64.7144C137.163 65.0585 137.184 65.4017 137.224 65.7428L137.227 65.761L137.24 65.8511C137.465 67.512 138.182 69.0365 139.315 70.2701C139.315 70.2695 139.316 70.2706 139.322 70.2771C140.578 71.6428 142.284 72.5736 144.176 72.9217L144.201 72.9265V72.924L144.323 72.9442C144.387 72.9549 144.453 72.9653 144.543 72.9789C147.033 73.2747 149.242 72.9202 151.112 71.9898C151.573 71.7605 151.987 71.5076 152.346 71.2404C152.461 71.1544 152.565 71.0711 152.655 70.9932C152.701 70.953 152.738 70.9192 152.757 70.8997C153.179 70.4702 153.206 70.318 152.951 69.9259C152.671 69.4852 152.423 69.1098 152.212 68.799C152.137 68.6902 152.073 68.5975 152.019 68.5205C151.989 68.4782 151.989 68.4782 151.97 68.4515C151.962 68.4411 151.962 68.4411 151.957 68.4344L151.955 68.431C151.725 68.1476 151.567 68.1216 151.311 68.3448C151.284 68.3687 151.192 68.4382 151.176 68.4555C149.377 70.0338 146.919 70.5416 144.466 70.0344C144.009 69.9132 143.581 69.7592 143.188 69.5734C141.65 68.812 140.561 67.4553 140.247 65.885L140.222 65.761L152.601 65.761ZM125.589 70.3638C122.546 70.3638 120.057 67.9805 119.981 64.9939V64.7128C120.056 61.731 122.546 59.3473 125.589 59.3473C128.688 59.3473 131.199 61.8134 131.199 64.8556C131.199 67.8977 128.688 70.3638 125.589 70.3638ZM125.591 56.4252C123.595 56.4252 121.688 57.0967 120.155 58.3283L119.981 58.4682V56.9268C119.981 56.5157 119.892 56.4252 119.47 56.4252H117.512C117.085 56.4252 117.001 56.509 117.001 56.9268V81.4985C117.001 81.9021 117.096 82 117.512 82H119.47C119.888 82 119.981 81.9042 119.981 81.4985V71.2513L120.155 71.3912C121.688 72.623 123.595 73.2945 125.591 73.2945C130.335 73.2945 134.181 69.5181 134.181 64.8598C134.181 60.2016 130.335 56.4252 125.591 56.4252ZM105.417 70.1755C102.313 70.1755 99.796 67.7311 99.796 64.7148C99.796 61.6986 102.313 59.254 105.417 59.254C108.521 59.254 111.038 61.6986 111.038 64.7148C111.038 67.7309 108.521 70.1755 105.417 70.1755ZM105.419 56.3572C100.665 56.3572 96.8123 60.101 96.8123 64.719C96.8123 69.3368 100.665 73.0808 105.419 73.0808C110.173 73.0808 114.025 69.3368 114.025 64.719C114.025 60.101 110.173 56.3572 105.419 56.3572ZM86.2331 56.5429C84.4978 56.5429 82.8186 57.094 81.4255 58.1125L81.2562 58.2364V46.8248C81.2562 46.4466 81.1305 46.3231 80.7477 46.3231H78.6972C78.2832 46.3231 78.1885 46.4209 78.1885 46.8248V72.8574C78.1885 73.2515 78.2907 73.3595 78.6972 73.3595H80.7477C81.128 73.3595 81.2562 73.2299 81.2562 72.8574V64.3544C81.2774 61.6776 83.5 59.5171 86.2331 59.5171C88.9732 59.5171 91.1983 61.6882 91.2099 64.3737V72.8574C91.2099 73.2881 91.2824 73.3593 91.7186 73.3593H93.764C94.1976 73.3593 94.2727 73.286 94.2727 72.8574V64.3488C94.2564 60.0567 90.6331 56.5429 86.2331 56.5429ZM57.6618 68.6374L57.657 68.6446C57.3646 69.0821 57.2422 69.2662 57.1737 69.3718C56.9432 69.7107 56.9719 69.8618 57.3238 70.1556C58.1452 70.8098 59.2012 71.4967 59.9136 71.8407C61.8956 72.7981 64.0365 73.3041 66.3052 73.3498C67.7707 73.4229 69.6113 73.0786 70.9819 72.4749C73.4632 71.3815 75.0437 69.2505 75.3207 66.6258C75.7694 62.3728 72.9678 59.7141 65.7517 57.5715L65.7498 57.5709C62.3878 56.4999 60.8084 55.076 60.8078 53.0881C60.9068 50.8909 62.9693 49.2495 65.7518 49.1471C67.9932 49.1526 69.9748 49.7406 71.9219 50.9783C72.3325 51.2243 72.5219 51.1789 72.7979 50.8251C72.8296 50.7729 72.9179 50.6462 73.287 50.1227L73.2881 50.121C73.6328 49.6321 73.7462 49.4688 73.7745 49.4206C74.0071 48.9882 73.9738 48.8216 73.554 48.5275C73.1405 48.2349 71.9758 47.6363 71.3097 47.3737C69.4572 46.6436 67.542 46.2891 65.6359 46.3257C61.298 46.4188 57.915 49.2055 57.692 52.8612C57.5505 55.5017 58.9073 57.6251 61.7421 59.1948C62.5368 59.6092 65.4425 60.6942 66.7987 61.0865C70.655 62.2019 72.6655 64.254 72.2501 66.675C71.8727 68.8747 69.5395 70.3376 66.2652 70.4377C63.8908 70.3889 61.4985 69.5294 59.4213 67.9875C59.4109 67.98 59.3583 67.9413 59.2612 67.8698C59.1247 67.7693 59.1247 67.7693 59.1043 67.7542C58.6808 67.4655 58.4317 67.4895 58.1732 67.87C58.142 67.9171 57.8203 68.4001 57.6618 68.6374Z" fill="#EE4D2D"/>
</g>
<defs>
<clipPath id="clip0_5408_31355">
<rect width="171" height="54" fill="white" transform="translate(2 28)"/>
</clipPath>
</defs>
</svg>
