<svg width="175" height="110" viewBox="0 0 175 110" fill="none" xmlns="http://www.w3.org/2000/svg">
<g clip-path="url(#clip0_5408_31391)">
<path d="M71.1125 69.3489C71.1125 68.0016 71.1125 67.1931 70.9771 66.1152C71.2479 66.1152 73.5503 66.1152 74.2275 66.1152C75.7173 66.1152 76.8007 66.6542 76.8007 67.8668C76.8007 69.0794 75.5818 69.6184 74.7692 69.7531C75.5818 69.7531 77.0716 70.2921 77.0716 71.7742C77.0716 73.391 75.5818 74.0647 74.092 74.0647C73.4149 74.0647 71.2479 74.0647 70.9771 74.0647C70.9771 72.9868 71.1125 72.1784 71.1125 70.831V69.3489ZM73.6857 66.7889C73.2794 66.7889 73.2794 66.7889 73.0086 66.7889C73.0086 67.3279 73.0086 68.0016 73.0086 68.4058C73.0086 68.81 73.0086 69.2142 73.0086 69.6184H73.5503C74.2275 69.6184 75.0401 69.0794 75.0401 68.1363C75.0401 67.3279 74.6338 66.7889 73.6857 66.7889ZM73.5503 70.2921C73.2794 70.2921 73.144 70.2921 73.0086 70.2921C73.0086 70.5615 73.0086 70.9658 73.0086 71.37C73.0086 72.0437 73.0086 72.9868 73.0086 73.391C73.2794 73.391 73.4149 73.391 73.6857 73.391C74.3629 73.391 75.0401 72.8521 75.0401 71.7742C75.0401 70.831 74.4983 70.2921 73.5503 70.2921Z" fill="#F47D39"/>
<path d="M89.5316 69.3489C89.5316 68.0016 89.5316 67.1931 89.3962 66.1152C90.2088 66.1152 94.0009 66.1152 94.2718 66.1152C94.2718 66.25 94.2718 66.9237 94.2718 67.1931C93.3238 67.0584 91.6986 67.0584 91.2923 67.0584C91.2923 67.8668 91.2923 68.6752 91.2923 69.4837C92.3757 69.4837 93.1883 69.4837 94.1364 69.3489C94.1364 69.6184 94.1364 70.1573 94.1364 70.2921C93.1883 70.2921 92.2403 70.1573 91.2923 70.1573C91.2923 70.6963 91.2923 71.1005 91.2923 71.6394C91.2923 72.1784 91.2923 72.5826 91.2923 72.9868C92.2403 72.9868 93.1883 72.9868 94.1364 72.9868C94.1364 73.1215 94.1364 73.93 94.1364 74.0647C93.7301 74.0647 89.5316 74.0647 89.2607 74.0647C89.3962 72.9868 89.3962 72.1784 89.3962 70.831V69.3489H89.5316Z" fill="#F47D39"/>
<path d="M113.774 74.1994C113.368 74.1994 111.878 74.1994 111.607 74.1994C111.336 73.391 111.066 72.5826 110.659 71.7742C110.117 71.7742 108.221 71.7742 107.68 71.7742C107.273 72.5826 107.002 73.391 106.732 74.1994C106.596 74.1994 105.784 74.1994 105.513 74.1994C106.054 72.8521 107.951 68.6752 109.169 66.1152C109.305 66.1152 109.982 66.1152 110.117 66.1152C111.336 68.6752 112.826 72.3131 113.774 74.1994ZM110.524 71.1005C110.117 70.1573 109.847 69.2142 109.44 68.271C109.034 69.2142 108.628 70.1573 108.221 71.1005H110.524Z" fill="#F47D39"/>
<path d="M123.796 71.2352C123.796 70.0226 123.796 69.3489 123.796 68.5405C123.796 67.3279 123.796 66.5194 123.796 66.1152C124.203 66.1152 124.474 66.1152 124.88 66.1152C125.151 66.1152 125.557 66.1152 125.963 66.1152C125.828 67.5973 125.828 68.81 125.828 70.1573C125.828 72.9868 126.776 73.5258 128.401 73.5258C130.433 73.5258 130.568 71.5047 130.568 69.3489C130.568 68.271 130.568 67.1931 130.433 66.1152C130.704 66.1152 130.839 66.1152 131.11 66.1152C131.381 66.1152 131.516 66.1152 131.787 66.1152C131.652 66.7889 131.652 68.4058 131.652 70.5615C131.652 73.2563 130.433 74.3342 127.995 74.3342C125.422 74.3342 123.796 73.391 123.796 71.2352Z" fill="#F47D39"/>
<path d="M144.653 68.0016C144.653 67.5973 144.653 67.1931 144.653 67.0584C144.247 67.0584 143.164 67.0584 142.351 67.1931C142.351 67.0584 142.351 66.3847 142.351 66.1152C143.435 66.1152 147.768 66.1152 148.852 66.1152C148.852 66.25 148.852 66.9237 148.852 67.1931C148.175 67.1931 147.091 67.1931 146.55 67.1931C146.55 67.3279 146.55 67.7321 146.55 68.1363V71.1005C146.55 72.4479 146.55 73.2563 146.685 74.3342C146.414 74.3342 144.924 74.3342 144.653 74.3342C144.789 73.2563 144.789 72.4479 144.789 71.1005C144.653 70.9658 144.653 68.0016 144.653 68.0016Z" fill="#F47D39"/>
<path d="M163.885 69.6184C164.562 68.6752 165.239 67.3279 165.781 66.1152C166.052 66.1152 166.729 66.1152 167 66.1152C166.458 67.0584 165.104 69.2142 164.291 70.6963C164.291 71.1005 164.291 71.37 164.291 71.7742C164.291 72.5826 164.291 73.391 164.427 74.1994C164.02 74.1994 162.666 74.1994 162.26 74.1994C162.26 73.5258 162.395 72.7173 162.395 71.9089C162.395 71.5047 162.395 71.2352 162.395 70.831C161.447 69.2142 160.093 66.7889 159.687 66.1152C160.093 66.1152 161.583 66.1152 161.989 66.1152C162.531 67.1931 163.479 69.0794 163.885 69.6184Z" fill="#F47D39"/>
<path d="M39.2852 27.7158C39.1498 32.0274 39.1498 37.5516 39.1498 42.5369C39.1498 51.699 39.2852 53.7201 41.0458 56.0106C42.8065 58.3011 46.0569 59.5137 50.1199 59.5137C54.9956 59.5137 58.7877 57.0885 60.1421 53.5853C60.5484 52.3727 60.9547 50.4864 60.9547 45.7706C60.9547 38.2253 60.9547 30.6801 60.413 23.2695C61.2256 23.4043 65.0177 23.4043 65.9658 23.2695L65.6949 25.9643C65.424 30.9495 65.2886 42.8064 65.1532 48.6001C65.0177 55.4716 62.9862 58.5706 59.0586 60.9958C56.2145 62.7474 52.2869 63.4211 49.0365 63.4211C41.8584 63.4211 33.3261 61.2653 31.9717 52.238C31.8363 51.4295 31.8363 49.6779 31.8363 49.139V33.6443C31.8363 30.6801 31.7009 26.2337 31.5654 23.2695C32.9198 23.4043 38.4726 23.4043 39.6915 23.2695L39.2852 27.7158Z" fill="#F47D39"/>
<path d="M74.7688 39.1685C74.7688 36.6085 74.7688 36.0696 74.6334 30.9496C74.4979 29.7369 74.3625 24.4822 74.2271 23.4043C75.7168 23.6738 80.9988 23.6738 82.4885 23.4043C82.0822 32.0275 81.9468 39.3032 81.9468 48.1959C81.9468 52.238 82.0822 56.0106 82.0822 59.1096H83.1657C84.9264 59.1096 93.4587 59.1096 96.98 58.5706C96.7092 59.2443 96.7092 62.0738 96.98 62.8822C93.865 62.7475 88.854 62.6127 85.6035 62.6127C81.8114 62.6127 78.561 62.7475 74.2271 63.0169C74.2271 62.0738 74.6334 48.7348 74.6334 47.3875V39.1685H74.7688Z" fill="#F47D39"/>
<path d="M113.774 54.9326C113.774 59.2442 114.045 61.1305 114.18 62.7473C112.42 62.6126 107.95 62.4779 105.783 62.7473C106.054 58.4358 106.325 53.9894 106.325 49.5431V33.5094C106.325 31.3537 106.325 29.3326 106.19 27.1768H103.21C102.668 27.1768 96.9802 27.3116 93.8652 27.581C94.0007 26.9073 94.1361 23.6737 94.0007 23C98.7409 23.2694 105.242 23.2694 109.846 23.2694C114.858 23.2694 120.14 23.1347 125.828 22.8652C125.692 23.8084 125.557 26.6379 125.828 27.581C122.306 27.1768 118.108 27.1768 113.91 27.1768C113.91 29.1979 113.774 31.4884 113.774 33.6442V54.9326Z" fill="#F47D39"/>
<path d="M149.123 56.5495L146.685 50.4864C144.112 50.3516 134.225 50.3516 131.922 50.4864C130.026 54.9327 128.13 59.6485 127.182 62.8822C126.37 62.7474 122.442 62.7474 121.629 62.8822L128.537 48.0611C134.631 35.1264 138.017 27.7158 139.371 23.2695H143.299C146.143 30.8148 149.664 38.899 151.831 43.7495C154.134 48.7348 158.061 57.358 160.634 62.8822C159.686 62.8822 152.644 62.8822 151.56 62.8822L149.123 56.5495ZM139.236 32.8358L133.141 46.8485C135.308 46.8485 137.204 46.9832 139.371 46.9832C140.59 46.9832 142.351 46.9832 144.924 46.8485L139.236 32.8358Z" fill="#F47D39"/>
<path d="M22.7624 25.0215C13.4174 31.3541 8 39.1689 8 48.8699C8 70.832 34.5451 87.0004 72.4668 87.0004C89.3961 87.0004 103.617 82.6888 114.181 77.2994H113.503C100.908 81.072 88.0417 82.6888 74.7692 82.6888C36.7121 82.5541 10.4378 64.7688 10.4378 48.331C10.4378 39.1689 14.6363 31.3541 22.7624 25.5604V25.0215Z" fill="#F47D39"/>
<path d="M155.894 23.2695C157.113 23.2695 158.197 24.3474 158.197 25.6948C158.197 27.0422 157.113 28.1201 155.894 28.1201C154.54 28.1201 153.457 27.0422 153.457 25.6948C153.457 24.2127 154.675 23.2695 155.894 23.2695ZM155.894 27.5811C156.978 27.5811 157.79 26.638 157.79 25.5601C157.79 24.4822 156.978 23.539 155.894 23.539C154.811 23.539 153.863 24.4822 153.863 25.5601C153.998 26.7727 154.811 27.5811 155.894 27.5811ZM154.946 24.2127H156.03C156.707 24.2127 156.978 24.4822 156.978 25.0211C156.978 25.5601 156.707 25.6948 156.301 25.8295L157.113 27.0422H156.707L156.03 25.8295H155.488V27.0422H155.082V24.2127H154.946ZM155.353 25.4253H155.759C156.165 25.4253 156.436 25.4253 156.436 25.0211C156.436 24.6169 156.03 24.6169 155.759 24.6169H155.217V25.4253H155.353Z" fill="#F47D39"/>
</g>
<defs>
<clipPath id="clip0_5408_31391">
<rect width="159" height="64" fill="white" transform="translate(8 23)"/>
</clipPath>
</defs>
</svg>
