<svg width="175" height="110" viewBox="0 0 175 110" fill="none" xmlns="http://www.w3.org/2000/svg">
<g clip-path="url(#clip0_5408_31402)">
<path d="M111.595 29C100.321 29 90.1975 34.9341 90.1975 45.8235C90.1975 58.3647 108.08 59.2212 108.08 65.4612C108.08 68.0918 105.049 70.4777 99.9569 70.4777C92.6828 70.4777 87.2272 67.1741 87.2272 67.1741L84.9238 78.1859C84.9238 78.1859 91.1674 81 99.5326 81C111.899 81 121.597 74.8212 121.597 63.6871C121.597 50.4729 103.655 49.6165 103.655 43.8047C103.655 41.7247 106.14 39.4612 111.232 39.4612C116.99 39.4612 121.719 41.8471 121.719 41.8471L124.022 31.2024C123.961 31.2024 118.809 29 111.595 29ZM8.30309 29.7953L8 31.3859C8 31.3859 12.7282 32.2424 17.032 34.0165C22.5482 36.0353 22.9119 37.1976 23.8818 40.8071L34.005 80.1435H47.5833L68.3751 29.7953H54.8574L41.4609 64.0541L36.0053 34.9953C35.5204 31.6918 32.9745 29.7953 29.8223 29.7953H8.30309ZM73.8307 29.7953L63.2226 80.1435H76.1342L86.6817 29.7953H73.8307ZM145.723 29.7953C142.632 29.7953 140.995 31.4471 139.783 34.3835L120.87 80.1435H134.388L136.994 72.4965H153.482L155.058 80.1435H167L156.634 29.7953H145.723ZM147.481 43.4376L151.482 62.3412H140.753L147.481 43.4376Z" fill="#1434CB"/>
</g>
<defs>
<clipPath id="clip0_5408_31402">
<rect width="159" height="52" fill="white" transform="translate(8 29)"/>
</clipPath>
</defs>
</svg>
