<svg width="175" height="110" viewBox="0 0 175 110" fill="none" xmlns="http://www.w3.org/2000/svg">
<g clip-path="url(#clip0_5408_31021)">
<path d="M19.5 43H39.5C41.71 43 43.5 44.79 43.5 47V67H23.5C21.29 67 19.5 65.21 19.5 63V53H29.5V61H33.5V49H19.5V43Z" fill="#00D16A"/>
<path d="M131.5 43V67H141.5V49H145.5V67H155.5V47C155.5 44.79 153.71 43 151.5 43H131.5Z" fill="#00D16A"/>
<path d="M75.5 77H95.5C97.71 77 99.5 75.21 99.5 73V43H89.5V61H85.5V43H75.5V63C75.5 65.21 77.29 67 79.5 67H89.5V71H75.5V77Z" fill="#00D16A"/>
<path d="M127.5 67H107.5C105.29 67 103.5 65.21 103.5 63V43H123.5C125.71 43 127.5 44.79 127.5 47V57H117.5V49H113.5V61H127.5V67Z" fill="#00D16A"/>
<path d="M71.5 33V67H51.5C49.29 67 47.5 65.21 47.5 63V47C47.5 44.79 49.29 43 51.5 43H57.5V61H61.5V33H71.5Z" fill="#00D16A"/>
</g>
<defs>
<clipPath id="clip0_5408_31021">
<rect width="175" height="110" fill="white"/>
</clipPath>
</defs>
</svg>
