<svg width="175" height="110" viewBox="0 0 175 110" fill="none" xmlns="http://www.w3.org/2000/svg">
<g clip-path="url(#clip0_5408_31222)">
<path fill-rule="evenodd" clip-rule="evenodd" d="M158.519 64.0391C157.248 64.0391 156.222 65.0586 156.222 66.3217C156.222 67.5847 157.248 68.6043 158.519 68.6043C159.79 68.6043 160.816 67.5847 160.816 66.3217C160.816 65.0586 159.775 64.0391 158.519 64.0391Z" fill="black"/>
<path fill-rule="evenodd" clip-rule="evenodd" d="M125.674 42.3244C126.516 42.857 126.486 44.4701 126.486 44.9875V59.2157L111.433 41.8831L111.403 41.8223H106.242V42.3244C107.529 43.1614 107.529 44.6527 107.529 45.8549V64.7549C107.529 65.2723 107.529 66.9005 106.702 67.4331V67.9353H110.04V67.4331C109.198 66.9005 109.213 65.2723 109.213 64.7549V46.5244L127.067 67.9201H128.155V45.0027C128.155 44.4853 128.17 42.8723 128.981 42.3397V41.8223H125.643L125.674 42.3244Z" fill="black"/>
<path fill-rule="evenodd" clip-rule="evenodd" d="M96.7029 42.3244C97.7135 42.8266 97.7135 44.4244 97.7135 45.6114V64.1005C97.7135 65.2875 97.7135 66.9005 96.7029 67.4027V67.9049H102.966V67.4027C101.955 66.9005 101.955 65.3027 101.955 64.1005V45.6114C101.955 44.4244 101.955 42.8266 102.966 42.3244V41.8223H96.7029V42.3244Z" fill="black"/>
<path fill-rule="evenodd" clip-rule="evenodd" d="M146.79 66.5965C146.775 66.5965 146.775 66.5965 146.759 66.5965C146.744 66.5965 146.729 66.5965 146.713 66.5965C143.559 66.5965 141.308 65.303 139.915 63.9639C138.506 62.5639 137.71 60.3117 137.327 58.6226C137.097 57.4356 136.944 56.1726 136.944 54.5595C136.944 49.4617 138.889 46.4791 140.236 45.2617C141.722 43.7704 143.528 43.0247 146.086 43.0247C149.363 43.0247 152.348 44.7595 154.263 48.1074H154.783V41.8226H154.263C153.818 42.2334 153.022 42.5074 152.195 42.5074C151.43 42.5074 150.924 42.2791 149.745 41.9747C148.505 41.6704 147.418 41.3965 145.978 41.3965C142.809 41.3965 140.037 42.34 137.664 44.1052C136.255 45.1704 132.075 48.29 132.075 55.0465C132.075 61.803 136.255 64.9226 137.664 65.9726C138.843 66.8552 140.144 67.4943 141.568 67.9204C143.161 68.453 144.738 68.6661 146.178 68.6661C146.805 68.6661 147.433 68.59 148.03 68.4834C149.776 68.1487 151.231 67.5247 152.471 66.6574C152.563 66.5965 152.655 66.5204 152.747 66.4595C153.604 65.8204 154.339 65.0595 154.982 64.2074L153.803 63.1421C152.532 64.6487 150.067 66.5965 146.79 66.5965ZM154.217 48.016C154.201 47.9856 154.186 47.9552 154.217 48.016Z" fill="black"/>
<path fill-rule="evenodd" clip-rule="evenodd" d="M74.5151 41.8518H65.0366V42.3539C66.0472 42.8561 66.0472 44.4539 66.0472 45.6561V64.1452C66.0472 65.3322 66.0472 66.9452 65.0366 67.4474V67.9496H71.2994V67.4474C70.2888 66.9452 70.2888 65.3474 70.2888 64.1452V55.8974H74.5304C75.3113 55.8974 83.2585 55.8366 83.2585 49.08C83.2585 42.3235 77.4398 41.7909 74.5151 41.8518ZM74.5151 54.3757H70.2735V43.4496H74.1782C76.6282 43.4496 78.726 45.0626 78.726 49.1105C78.726 53.1583 76.1994 54.3757 74.5151 54.3757Z" fill="black"/>
<path fill-rule="evenodd" clip-rule="evenodd" d="M60.5961 64.7233L60.6114 64.6929L51.7607 41.9124L51.7301 41.8516H49.7395L40.9654 64.6472C40.6439 65.5603 39.7711 67.1429 38.7451 67.432V67.9494H43.247V67.4472C42.3129 67.0059 42.0986 66.245 42.4814 65.2255L44.6864 59.4581H54.0729L56.2473 65.2255C56.6301 66.245 56.4004 67.0211 55.4817 67.4472V67.9494H62.5407V67.4472C61.5761 67.1124 60.8717 65.3624 60.5961 64.7233ZM45.2989 57.8755L49.372 47.2385L53.4604 57.8603H45.2989V57.8755Z" fill="black"/>
<path fill-rule="evenodd" clip-rule="evenodd" d="M38.791 54.574C38.791 54.574 36.3716 54.6349 34.8863 54.6349C33.401 54.6349 30.9663 54.574 30.9663 54.574V54.9088C31.5788 55.2436 32.8497 56.2936 32.911 57.8001C32.9722 59.3218 32.8957 65.5762 32.8957 65.5762C32.8957 65.5762 31.6247 67.1131 28.2253 67.1131C22.5597 67.1131 18.9613 61.9697 18.9613 55.5023C18.9613 45.124 24.29 43.0544 28.1488 43.0544C32.0075 43.0544 33.7225 44.4849 35.7132 47.3153C35.8969 47.5892 36.0653 47.8479 36.2185 48.1371H36.7391V41.8523H36.2185C35.6825 42.3697 34.5188 42.6588 33.5694 42.4914C33.2938 42.4458 32.9263 42.3392 32.4669 42.2175C31.3032 41.8979 29.6494 41.4414 28.0416 41.4414C24.8719 41.4414 21.9778 42.3697 19.635 44.1349C18.2263 45.2001 17.0625 46.5392 16.1591 48.061C14.781 50.3131 14.0613 52.9458 14.0613 55.624C14.0613 63.6284 20.2782 68.6501 28.2407 68.6501C34.9016 68.6501 36.8769 66.0327 36.8769 66.0327C36.8769 66.0327 36.8157 59.3066 36.8769 57.7849C36.9382 56.2631 38.1478 55.2284 38.7757 54.9088L38.791 54.574Z" fill="black"/>
</g>
<defs>
<clipPath id="clip0_5408_31222">
<rect width="147" height="28" fill="white" transform="translate(14 41)"/>
</clipPath>
</defs>
</svg>
