<?xml version="1.0" encoding="UTF-8"?>
<svg xmlns="http://www.w3.org/2000/svg" viewBox="0 0 929.23 483.2">
  <defs>
    <style>
      .cls-1 {
        fill: none;
      }
    </style>
  </defs>
  <g id="Guides">
    <rect class="cls-1" width="117.17" height="117.17"/>
    <rect class="cls-1" x="812.06" y="366.03" width="117.17" height="117.17"/>
  </g>
  <g id="Brandmark">
    <g>
      <path d="M669.27,121.04c-4.8,0-8.6,3.83-8.6,8.6s3.83,8.52,8.6,8.52,8.6-3.72,8.6-8.56-3.72-8.56-8.6-8.56ZM669.27,136.76c-3.95,0-7.05-2.87-7.05-7.13s2.94-7.2,7.05-7.2,7.05,2.94,7.05,7.16-3.06,7.17-7.05,7.17Z"/>
      <path d="M672.56,127.86v-.04c0-1.74-1.28-2.56-3.25-2.56h-2.98v8.48h1.86v-3.29h.89l2.05,3.29h1.94l-2.25-3.6c1.01-.31,1.74-1.01,1.74-2.29ZM670.74,127.93c0,.81-.5,1.24-1.47,1.24h-1.08v-2.48h1.08c.93,0,1.47.31,1.47,1.2v.04Z"/>
      <polygon points="458.47 182.56 380.36 182.56 380.36 119.55 358.91 119.55 358.91 262.78 380.36 262.78 380.36 197.34 458.47 197.34 458.47 262.78 480.09 262.78 480.09 119.55 458.47 119.55 458.47 182.56"/>
      <rect x="273.95" y="119.55" width="21.41" height="143.24"/>
      <path d="M604.44,265.16c23.15,0,41.11-8.87,50.85-11.68v-59.63h-21.64v55.52c-6.06,4.11-16.23,7.36-27.7,7.36-33.53,0-56.47-29.64-56.47-67.07,0-35.27,20.12-64.26,53.66-64.26,23.15,0,36.35,10.82,46.08,22.93h1.08v-24.88c-6.92-1.73-26.18-6.28-46.3-6.28-48.68,0-78.33,35.48-78.33,74.43,0,42.62,32.02,73.56,78.76,73.56Z"/>
      <polygon points="152.28 344.07 122.26 344.07 122.26 326.38 117.17 326.38 117.17 365.54 122.26 365.54 122.26 348.18 152.28 348.18 152.28 365.54 157.37 365.54 157.37 326.38 152.28 326.38 152.28 344.07"/>
      <path d="M194.5,325.88c-15.61,0-25.75,8.76-25.75,19.88v.44c0,10.96,10.13,19.83,25.91,19.83s25.58-8.87,25.58-19.94v-.44c0-11.01-10.13-19.77-25.74-19.77ZM214.94,346.04c0,9.42-7.78,15.99-20.27,15.99s-20.6-6.46-20.6-15.89v-.44c0-9.26,7.39-15.94,20.43-15.94s20.43,7.12,20.43,15.83v.44Z"/>
      <polygon points="225.06 330.32 241.17 330.32 241.17 365.54 246.26 365.54 246.26 330.32 262.36 330.32 262.36 326.38 225.06 326.38 225.06 330.32"/>
      <polygon points="277.64 347.47 301.14 347.47 301.14 343.52 277.64 343.52 277.64 330.32 305.52 330.32 305.52 326.38 272.55 326.38 272.55 365.54 306.84 365.54 306.84 361.6 277.64 361.6 277.64 347.47"/>
      <polygon points="322.55 326.38 317.46 326.38 317.46 365.54 347.8 365.54 347.8 361.6 322.55 361.6 322.55 326.38"/>
      <path d="M374.86,343.03c-10.96-1.26-13.53-3.29-13.53-6.79,0-3.94,3.56-6.46,11.83-6.46,7.61,0,11.89,1.81,13.09,6.9h4.66c-1.04-7.18-7.56-10.79-17.75-10.79s-16.6,4.44-16.6,10.46c0,7.01,6.03,9.59,16.82,10.85,10.74,1.26,14.19,2.74,14.19,7.34s-4.71,7.61-13.09,7.61c-10.46,0-14.13-3.72-14.95-8.55h-4.98c.99,6.9,6.79,12.43,19.94,12.43,11.34,0,18.02-4.87,18.02-11.67,0-7.72-6.14-10.02-17.64-11.34Z"/>
      <path d="M523,338.1v-.22c0-8.27-7.34-11.5-16.05-11.5h-18.62v39.17h5.09v-15.89h12.54l14.02,15.89h6.14l-14.35-16.27c5.48-.99,11.23-4.38,11.23-11.17ZM493.42,345.82v-15.56h13.86c6.19,0,10.63,2.08,10.63,7.67v.22c0,4.98-4.11,7.67-10.63,7.67h-13.86Z"/>
      <polygon points="541.29 347.47 564.79 347.47 564.79 343.52 541.29 343.52 541.29 330.32 569.17 330.32 569.17 326.38 536.2 326.38 536.2 365.54 570.49 365.54 570.49 361.6 541.29 361.6 541.29 347.47"/>
      <path d="M598.36,343.03c-10.96-1.26-13.53-3.29-13.53-6.79,0-3.94,3.56-6.46,11.83-6.46,7.61,0,11.89,1.81,13.09,6.9h4.66c-1.04-7.18-7.56-10.79-17.75-10.79s-16.6,4.44-16.6,10.46c0,7.01,6.03,9.59,16.82,10.85,10.74,1.26,14.19,2.74,14.19,7.34s-4.71,7.61-13.09,7.61c-10.46,0-14.13-3.72-14.95-8.55h-4.98c.99,6.9,6.79,12.43,19.94,12.43,11.34,0,18.02-4.87,18.02-11.67,0-7.72-6.14-10.02-17.64-11.34Z"/>
      <path d="M650.5,325.88c-15.61,0-25.75,8.76-25.75,19.88v.44c0,10.96,10.13,19.83,25.91,19.83s25.58-8.87,25.58-19.94v-.44c0-11.01-10.13-19.77-25.75-19.77ZM670.93,346.04c0,9.42-7.78,15.99-20.27,15.99s-20.6-6.46-20.6-15.89v-.44c0-9.26,7.39-15.94,20.43-15.94s20.43,7.12,20.43,15.83v.44Z"/>
      <path d="M722.52,338.1v-.22c0-8.27-7.34-11.5-16.05-11.5h-18.62v39.17h5.09v-15.89h12.54l14.02,15.89h6.14l-14.35-16.27c5.48-.99,11.23-4.38,11.23-11.17ZM692.94,345.82v-15.56h13.86c6.19,0,10.63,2.08,10.63,7.67v.22c0,4.98-4.11,7.67-10.63,7.67h-13.86Z"/>
      <polygon points="730.79 330.32 746.89 330.32 746.89 365.54 751.99 365.54 751.99 330.32 768.09 330.32 768.09 326.38 730.79 326.38 730.79 330.32"/>
      <path d="M794.43,343.03c-10.96-1.26-13.53-3.29-13.53-6.79,0-3.94,3.56-6.46,11.83-6.46,7.61,0,11.89,1.81,13.09,6.9h4.66c-1.04-7.18-7.56-10.79-17.75-10.79s-16.6,4.44-16.6,10.46c0,7.01,6.03,9.59,16.82,10.85,10.74,1.26,14.19,2.74,14.19,7.34s-4.71,7.61-13.09,7.61c-10.46,0-14.13-3.72-14.95-8.55h-4.98c.99,6.9,6.79,12.43,19.94,12.43,11.34,0,18.02-4.87,18.02-11.67,0-7.72-6.14-10.02-17.64-11.34Z"/>
      <path d="M458.35,345.33h-4.21l-6.17,9.26-9.51-9.64c5.97-2.35,9.03-6.13,9.03-10.02,0-5.26-3.97-9.09-9.89-9.09-5.54,0-10.47,3.4-10.47,9.42,0,3.67,1.72,6.41,4.3,8.71-4.97,1.86-9.8,5.26-9.8,11.5,0,6.57,5.31,10.46,13.34,10.46,5.69,0,9.89-2.52,12.76-5.75l5.21,5.37h5.78l-8.22-8.38,7.84-11.83ZM431.25,335.31c0-3.89,2.77-5.86,6.26-5.86,3.78,0,5.93,2.35,5.93,5.37s-2.06,5.53-7.55,7.89c-2.63-2.14-4.64-4.44-4.64-7.39ZM435.07,362.14c-5.78,0-8.94-2.68-8.94-6.96,0-4.65,3.39-7.23,8.03-8.93l11.28,11.56c-2.34,2.52-5.78,4.33-10.37,4.33Z"/>
    </g>
  </g>
</svg>