<?xml version="1.0" encoding="UTF-8" standalone="no"?>
<svg
   class="sc-87b1da79-0 kllSJL"
   width="108"
   height="45"
   viewBox="0 0 108 45"
   fill="none"
   version="1.1"
   id="svg1"
   sodipodi:docname="Klarna1.svg"
   inkscape:version="1.4.3 (0d15f75, 2025-12-25)"
   xmlns:inkscape="http://www.inkscape.org/namespaces/inkscape"
   xmlns:sodipodi="http://sodipodi.sourceforge.net/DTD/sodipodi-0.dtd"
   xmlns="http://www.w3.org/2000/svg"
   xmlns:svg="http://www.w3.org/2000/svg">
  <defs
     id="defs1" />
  <sodipodi:namedview
     id="namedview1"
     pagecolor="#ffffff"
     bordercolor="#000000"
     borderopacity="0.25"
     inkscape:showpageshadow="2"
     inkscape:pageopacity="0.0"
     inkscape:pagecheckerboard="0"
     inkscape:deskcolor="#d1d1d1"
     inkscape:zoom="15.603841"
     inkscape:cx="45.309357"
     inkscape:cy="21.244769"
     inkscape:window-width="2719"
     inkscape:window-height="1024"
     inkscape:window-x="0"
     inkscape:window-y="25"
     inkscape:window-maximized="0"
     inkscape:current-layer="svg1" />
  <path
     d="m 90.417222,30.903431 c -2.1089,0 -3.7526,-1.7279 -3.7526,-3.8261 0,-2.0981 1.6437,-3.8261 3.7526,-3.8261 2.1089,0 3.7526,1.728 3.7526,3.8261 0,2.0982 -1.6437,3.8261 -3.7526,3.8261 z m -1.0544,4.0421 c 1.7987,0 4.0938,-0.6788 5.3653,-3.3324 l 0.124,0.0617 c -0.5582,1.4502 -0.5582,2.3142 -0.5582,2.5302 v 0.3394 h 4.5279 v -14.9341 h -4.5279 v 0.33941 c 0,0.21599 0,1.07994 0.5582,2.53015 l -0.124,0.06171 c -1.2715,-2.65357 -3.5666,-3.3324 -5.3653,-3.3324 -4.3109,0 -7.3502,3.39411 -7.3502,7.86813 0,4.4741 3.0393,7.8682 7.3502,7.8682 z m -15.2275,-15.73633 c -2.0469,0 -3.6596,0.70968 -4.9622,3.3324 l -0.124,-0.06171 c 0.5582,-1.45021 0.5582,-2.31416 0.5582,-2.53015 v -0.33941 h -4.5279 v 14.9341 h 4.652 v -7.8682 c 0,-2.0673 1.2095,-3.3632 3.1633,-3.3632 1.9539,0 2.9153,1.1108 2.9153,3.3324 v 7.899 h 4.652 v -9.5035 c 0,-3.39414 -2.6672,-5.83173 -6.3267,-5.83173 z m -15.7858,3.3324 -0.1241,-0.06171 c 0.5583,-1.45021 0.5583,-2.31416 0.5583,-2.53015 v -0.33941 h -4.5279 v 14.9341 h 4.6519 l 0.0311,-7.1894 c 0,-2.0981 1.1164,-3.3632 2.9462,-3.3632 0.4962,0 0.8994,0.0617 1.3646,0.1851 v -4.5666 c -2.0469,-0.43198 -3.8767,0.33941 -4.9001,2.93127 z m -14.7933,8.36183 c -2.1089,0 -3.7526,-1.7279 -3.7526,-3.8261 0,-2.0981 1.6437,-3.8261 3.7526,-3.8261 2.1089,0 3.7526,1.728 3.7526,3.8261 0,2.0982 -1.6437,3.8261 -3.7526,3.8261 z m -1.0545,4.0421 c 1.7988,0 4.0938,-0.6788 5.3653,-3.3324 l 0.1241,0.0617 c -0.5583,1.4502 -0.5583,2.3142 -0.5583,2.5302 v 0.3394 h 4.528 v -14.9341 h -4.528 v 0.33941 c 0,0.21599 0,1.07994 0.5583,2.53015 l -0.1241,0.06171 c -1.2715,-2.65357 -3.5665,-3.3324 -5.3653,-3.3324 -4.3108,0 -7.3501,3.39411 -7.3501,7.86813 0,4.4741 3.0393,7.8682 7.3501,7.8682 z m -13.8319,-0.4011 h 4.652 v -21.5989 h -4.652 z m -3.4115,-21.5989 h -4.745 c 0,3.85694 -2.38802,7.31276 -6.01658,9.78121 l -1.42661,0.98739 v -10.7686 H 8.1390216 v 21.5989 h 4.9311104 v -10.7069 l 8.15649,10.7069 h 6.0166 l -7.8464,-10.2441 c 3.5665,-2.56097 5.8925,-6.54134 5.8615,-11.3548 z"
     fill="#000000"
     id="path1" />
</svg>
