<svg width="175" height="110" viewBox="0 0 175 110" fill="none" xmlns="http://www.w3.org/2000/svg">
<g clip-path="url(#clip0_5408_31346)">
<path fill-rule="evenodd" clip-rule="evenodd" d="M11.8848 45.375C11.8848 45.375 11.8159 45.5813 10.8169 48.2281C7.99213 45.9938 3.30709 46.1656 3.30709 49.6031C3.30709 53.625 13.125 53.1094 12.815 60.2938C12.6083 66.0688 5.47736 67.375 0 64.5906C0.482283 63.5594 0.964567 62.5969 1.30906 61.8062C5.47736 64.2469 9.02559 63.1469 9.61122 61.1531C11.2303 55.7563 0.0344488 57.4406 0.0344488 49.775C0.0344488 46.5781 3.78937 41.5594 11.8848 45.375ZM22.4951 44.9281H35.3445C35.3445 44.9281 35.31 46.0969 35.3445 47.7125H25.7333V53.4531H32.5541C32.5197 54.5875 32.5541 55.4813 32.5541 56.1H25.7333V63.25H35.3445C35.3445 64.1781 35.3445 65.0719 35.3445 66H22.5295L22.4951 44.9281ZM53.1201 55.2406C52.3278 55.2406 51.7766 55.2406 50.9843 55.2406C50.9843 51.3219 50.9843 47.6438 50.9843 47.6438C50.9843 47.6438 51.9144 47.6438 52.81 47.6438C53.6713 47.6438 58.5974 47.2656 58.7697 51.1844C58.9419 55.0344 55.0492 55.2406 53.1201 55.2406ZM53.3268 44.9625C52.19 44.9281 49.813 44.9281 47.7805 44.9281V66H51.0187C51.0187 66 51.0187 61.9781 51.0187 58.025C51.811 58.025 53.499 57.9563 54.8425 57.9219C56.7028 57.8531 61.5945 56.925 61.56 51.15C61.4911 44.6531 54.4636 44.9969 53.3268 44.9625ZM136.28 54.6906C135.522 54.6906 134.97 54.6906 134.213 54.6562C134.213 50.9437 134.213 47.5406 134.213 47.5406C134.213 47.5406 135.108 47.5406 135.969 47.5406C136.796 47.5406 141.171 47.3 141.55 50.7375C141.964 54.7594 137.175 54.6906 136.28 54.6906ZM143.41 66H147.441L140.758 56.5469C142.549 55.8938 144.651 54.3469 144.375 50.875C143.893 44.6187 137.761 45.0656 136.452 44.9969C135.349 44.9281 132.972 44.8938 130.906 44.9281V66H134.247C134.247 66 134.247 61.2906 134.247 57.0969C135.349 57.0969 135.763 57.0969 137.416 57.0281C137.382 57.0625 143.41 66 143.41 66ZM85.3642 52.8687V44.9281H88.6368V65.1063H85.3642V55.4813H74.4439V65.0375H71.1713V44.9281H74.4439V52.8687H85.3642ZM110.891 44C104.104 44 99.6604 48.9156 99.6604 55C99.6604 61.0844 104.07 66 110.891 66C117.677 66 122.121 61.0844 122.121 55C122.121 48.9156 117.677 44 110.891 44ZM110.891 46.9906C105.896 46.9906 103.071 50.5656 103.071 55C103.071 59.4344 105.861 63.0094 110.891 63.0094C115.886 63.0094 118.711 59.4344 118.711 55C118.711 50.5656 115.886 46.9906 110.891 46.9906ZM161.944 58.2313L168.903 58.1969L165.354 47.9187H165.32L161.944 58.2313ZM163.46 44.6187H167.318L175 65.4844H171.59C171.59 65.4844 170.832 63.3875 169.833 60.5688L161.186 60.6375C161.186 60.6375 160.842 61.7031 159.808 65.4844H156.501C156.467 65.4844 163.46 44.6187 163.46 44.6187Z" fill="black"/>
</g>
<defs>
<clipPath id="clip0_5408_31346">
<rect width="175" height="22" fill="white" transform="translate(0 44)"/>
</clipPath>
</defs>
</svg>
