<svg width="171" height="62" viewBox="0 0 171 62" fill="none" xmlns="http://www.w3.org/2000/svg">
<path d="M66.99 0H12.92C8.73 0 6.04 4.44 8 8.13L13.41 18.33H3.6C1.61 18.33 0 19.94 0 21.92C0 22.5 0.14 23.08 0.41 23.59L17.81 56.37C18.74 58.12 20.92 58.79 22.68 57.86C23.32 57.52 23.84 57 24.18 56.37L28.91 47.51L34.84 58.68C36.93 62.61 42.58 62.62 44.67 58.69L71.77 7.92C73.69 4.33 71.07 0 66.99 0ZM42.7 21.7L31.01 43.6C30.39 44.77 28.94 45.21 27.76 44.59C27.34 44.37 26.99 44.02 26.76 43.6L15.19 21.8C14.57 20.63 15.02 19.19 16.19 18.57C16.53 18.39 16.92 18.29 17.31 18.29H40.63C41.92 18.29 42.97 19.33 42.97 20.62C42.97 21 42.88 21.37 42.7 21.71V21.7ZM124.5 23.56H118.59V43.74C118.59 44.12 118.28 44.43 117.89 44.43H113.33C112.95 44.43 112.63 44.12 112.63 43.74V23.56H106.68C106.31 23.57 106 23.29 105.98 22.92V19.33C105.98 18.96 106.29 18.67 106.66 18.67H124.5C124.88 18.65 125.21 18.95 125.23 19.33V22.9C125.21 23.29 124.88 23.58 124.5 23.56ZM143.49 44.29C142.27 44.46 140.22 44.74 136.46 44.74C131.97 44.74 128 43.6 128 37.29V25.78C128 19.47 132.01 18.36 136.5 18.36C140.26 18.36 142.27 18.64 143.5 18.81C143.99 18.88 144.2 19.05 144.2 19.5V22.73C144.2 23.11 143.89 23.42 143.5 23.42H136.16C134.52 23.42 133.93 23.97 133.93 25.78V28.93H143.22C143.6 28.93 143.92 29.24 143.92 29.62V32.91C143.92 33.29 143.61 33.6 143.22 33.6H133.93V37.27C133.93 39.07 134.52 39.63 136.16 39.63H143.5C143.88 39.63 144.2 39.94 144.2 40.32V43.54C144.2 43.99 143.99 44.19 143.5 44.26L143.49 44.29ZM169.76 44.43H164.23C163.78 44.43 163.57 44.29 163.33 43.91L158.53 36.32L154.18 43.74C153.94 44.16 153.69 44.43 153.31 44.43H148.16C147.81 44.43 147.64 44.22 147.64 43.98C147.64 43.9 147.67 43.81 147.71 43.74L155.25 31.22L147.63 19.33C147.59 19.27 147.57 19.2 147.56 19.12C147.59 18.85 147.82 18.66 148.08 18.67H153.69C154.07 18.67 154.35 19.02 154.56 19.33L159.01 26.33L163.32 19.33C163.49 19.02 163.81 18.67 164.19 18.67H169.34C169.61 18.66 169.84 18.86 169.86 19.12C169.86 19.19 169.83 19.26 169.79 19.33L162.21 31.29L170.12 43.74C170.18 43.85 170.22 43.96 170.22 44.09C170.22 44.29 170.05 44.43 169.77 44.43H169.76ZM102.59 18.74C102.59 18.74 102.67 18.74 102.71 18.75C103 18.82 103.18 19.1 103.11 19.39C103.11 19.39 97.07 40.68 96.98 40.97C96.15 43.45 94.04 44.72 91.61 44.72C89.07 44.72 87.07 43.5 86.24 40.96C86.17 40.75 80 19.39 80 19.39C80 19.35 79.99 19.31 79.99 19.27C79.99 18.97 80.23 18.74 80.53 18.73H85.5C85.76 18.73 85.98 18.91 86.03 19.16L91.09 37.79C91.16 38.17 91.26 38.31 91.58 38.31C91.9 38.31 92 38.17 92.07 37.79L97.12 19.17C97.17 18.92 97.39 18.74 97.65 18.74H102.6H102.59Z" fill="#F71963"/>
</svg>
