<svg version="1.1" id="Layer_1" xmlns="http://www.w3.org/2000/svg" xmlns:xlink="http://www.w3.org/1999/xlink" x="0px" y="0px"
	 width="100%" viewBox="0 0 2109 559" enable-background="new 0 0 2109 559" xml:space="preserve">
<path fill="#FFFFFF" opacity="1.000000" stroke="none"
	d="
M1426.000000,560.000000
	C950.666687,560.000000 475.833344,560.000000 1.000000,560.000000
	C1.000000,373.666656 1.000000,187.333328 1.000000,1.000000
	C704.000000,1.000000 1407.000000,1.000000 2110.000000,1.000000
	C2110.000000,187.333328 2110.000000,373.666656 2110.000000,560.000000
	C1882.166626,560.000000 1654.333374,560.000000 1426.000000,560.000000
M35.823723,383.955383
	C37.070187,383.637360 38.299442,383.189178 39.565819,383.021759
	C50.094700,381.629730 60.638042,380.345673 71.162048,378.918579
	C82.802689,377.340088 94.411179,375.515869 106.064323,374.040741
	C115.651985,372.827087 125.296768,372.070587 134.894073,370.925690
	C147.875153,369.377197 160.816010,367.477600 173.809677,366.053070
	C185.231766,364.800812 196.715576,364.120941 208.149063,362.960938
	C223.301025,361.423737 238.422089,359.582794 253.572540,358.029541
	C264.676056,356.891174 275.801819,355.961792 286.924347,355.017914
	C303.134583,353.642303 319.347992,352.301331 335.565430,351.013458
	C348.847076,349.958710 362.134125,348.969574 375.423187,348.012451
	C389.873352,346.971802 404.325989,345.961151 418.782379,345.011841
	C434.732605,343.964447 450.687317,342.984894 466.641998,342.007385
	C477.998077,341.311584 489.355682,340.637756 500.715668,340.009277
	C513.404907,339.307281 526.096619,338.647278 538.789185,338.006470
	C552.479126,337.315308 566.169739,336.633057 579.862976,336.009949
	C595.385620,335.303528 610.910339,334.639313 626.436279,334.007782
	C643.626038,333.308624 660.817627,332.651917 678.009521,332.006653
	C687.770386,331.640289 697.533081,331.316223 707.295898,331.005096
	C718.390747,330.651520 729.486389,330.323730 740.582214,330.002808
	C752.510681,329.657776 764.438904,329.305145 776.368591,329.007660
	C790.963135,328.643646 805.558533,328.308472 820.154480,328.006500
	C837.582520,327.645874 855.010498,327.267334 872.440308,327.015594
	C899.534302,326.624268 926.630493,326.007019 953.724548,326.062073
	C1030.651245,326.218384 1107.577637,326.615967 1184.503662,327.033295
	C1205.433228,327.146851 1226.360840,327.654968 1247.289062,328.002991
	C1266.384521,328.320526 1285.480225,328.626465 1304.574341,329.014038
	C1317.337891,329.273102 1330.098633,329.665833 1342.860718,329.999176
	C1355.622803,330.332458 1368.385376,330.644775 1381.146606,331.006622
	C1391.743042,331.307068 1402.338501,331.644775 1412.933105,332.003845
	C1432.124634,332.654266 1451.316772,333.290985 1470.505737,334.012756
	C1486.532471,334.615540 1502.556274,335.307068 1518.579224,336.005005
	C1533.105347,336.637726 1547.629639,337.308777 1562.152710,338.006378
	C1575.345459,338.640076 1588.536743,339.309448 1601.726318,340.005707
	C1613.752563,340.640472 1625.777100,341.307648 1637.799805,342.006348
	C1648.659546,342.637482 1659.516479,343.318390 1670.373413,343.999054
	C1686.160522,344.988861 1701.944214,346.037964 1717.733887,346.986206
	C1729.920776,347.718048 1742.115967,348.311157 1754.304688,349.012543
	C1759.070312,349.286774 1763.832275,349.645569 1768.589844,350.039673
	C1784.306030,351.341583 1800.017090,352.703705 1815.734619,353.989807
	C1824.752808,354.727722 1833.789062,355.256927 1842.800049,356.069824
	C1856.354858,357.292572 1869.892212,358.708405 1883.442017,359.989746
	C1891.291626,360.732056 1899.161377,361.272369 1907.003662,362.080841
	C1918.890625,363.306244 1930.757812,364.721527 1942.640869,365.986633
	C1949.819458,366.750946 1957.023560,367.284149 1964.195923,368.099152
	C1974.915405,369.317200 1985.616455,370.697327 1996.326538,371.998413
	C2005.419434,373.103027 2014.524292,374.116272 2023.605469,375.309631
	C2034.932617,376.798157 2046.244507,378.404816 2057.556152,380.008331
	C2065.789551,381.175507 2074.010742,382.430298 2082.239990,383.627075
	C2087.971436,384.460632 2093.707764,385.261993 2099.441650,386.077759
	C2098.610840,384.944550 2097.654541,384.299225 2096.604004,384.046997
	C2082.260986,380.603210 2067.947998,377.016907 2053.541748,373.858307
	C2033.246704,369.408661 2012.953735,364.885681 1992.523926,361.134338
	C1971.540649,357.281372 1950.397705,354.295532 1929.317749,350.973785
	C1912.253052,348.284821 1895.203125,345.484192 1878.100952,343.055634
	C1860.147705,340.506287 1842.148804,338.270081 1824.153320,336.030365
	C1809.865723,334.252167 1795.562134,332.593781 1781.249390,331.030396
	C1765.121948,329.268768 1748.982178,327.614685 1732.837036,326.022858
	C1718.466431,324.605988 1704.085449,323.290222 1689.701294,322.017151
	C1673.992798,320.626892 1658.278320,319.298950 1642.560791,318.015137
	C1629.613037,316.957489 1616.660645,315.950073 1603.703247,315.018677
	C1588.921265,313.956207 1574.134155,312.958679 1559.344238,312.013306
	C1542.894165,310.961853 1526.439697,309.972992 1509.984253,309.009918
	C1497.795654,308.296661 1485.604248,307.630219 1473.410522,307.012268
	C1459.388184,306.301636 1445.363403,305.636353 1431.337158,305.008362
	C1415.647583,304.305908 1399.957520,303.608154 1384.263550,303.016144
	C1364.908325,302.286011 1345.549561,301.646027 1326.190918,301.007965
	C1314.763672,300.631348 1303.334473,300.302429 1291.904663,300.008606
	C1277.643555,299.641968 1263.381592,299.300781 1249.118774,299.008301
	C1231.190796,298.640625 1213.263062,298.220428 1195.333008,298.023560
	C1157.906006,297.612610 1120.478027,297.144226 1083.049683,297.070038
	C1060.122070,297.024567 1037.193848,297.726624 1014.264587,297.985931
	C980.003906,298.373383 945.741638,298.615082 911.481201,299.020569
	C893.217957,299.236694 874.956543,299.634674 856.695618,300.010498
	C843.099121,300.290283 829.504089,300.645691 815.909424,301.005676
	C804.479797,301.308258 793.051147,301.649323 781.623108,302.004730
	C771.693481,302.313507 761.764221,302.637543 751.836670,303.005829
	C734.478088,303.649750 717.119202,304.291107 699.763733,305.012421
	C685.236572,305.616180 670.712585,306.299957 656.190125,307.008881
	C643.496582,307.628479 630.804932,308.291412 618.116577,309.009186
	C601.160950,309.968384 584.206421,310.953613 567.256775,312.012665
	C552.299622,312.947205 537.346802,313.955383 522.397705,315.010895
	C509.107513,315.949280 495.827789,317.035370 482.538483,317.986694
	C467.923187,319.032959 453.301300,319.986053 438.684357,321.009735
	C434.419495,321.308411 430.155121,321.643433 425.902191,322.076233
	C413.352844,323.353455 400.814880,324.743713 388.261627,325.979889
	C380.250610,326.768738 372.208221,327.245056 364.201630,328.071960
	C352.480621,329.282532 340.780151,330.691742 329.068756,331.996674
	C322.717834,332.704315 316.353241,333.296875 310.011017,334.073792
	C299.796112,335.325012 289.596863,336.703583 279.386749,337.994751
	C270.788208,339.082062 262.170624,340.027039 253.584930,341.205872
	C242.599075,342.714203 231.640747,344.421875 220.663101,345.991577
	C210.644455,347.424164 200.594803,348.652649 190.597214,350.216675
	C179.181961,352.002472 167.805756,354.039978 156.418839,356.004333
	C143.912903,358.161743 131.389618,360.230255 118.918655,362.575500
	C104.714119,365.246826 90.514313,367.976318 76.395172,371.059387
	C62.528778,374.087219 48.766182,377.590393 34.144093,380.984650
	C28.154228,382.545166 22.164364,384.105652 16.174501,385.666168
	C16.289602,386.085754 16.404703,386.505341 16.519804,386.924927
	C22.680056,385.894409 28.840307,384.863892 35.823723,383.955383
M420.068787,114.310402
	C413.685211,94.419891 407.341553,74.516258 400.814758,54.672855
	C400.439362,53.531517 398.587158,52.142513 397.396637,52.118134
	C387.419281,51.913803 377.435944,52.001907 367.479187,52.001907
	C350.589111,103.111359 333.787354,153.953445 316.680878,205.717682
	C315.687653,204.059479 315.240082,203.550827 315.049286,202.959335
	C307.346680,179.081009 299.668762,155.194733 291.984528,131.310501
	C284.002014,106.499275 276.049957,81.678070 267.949097,56.905540
	C267.458374,55.404907 265.796387,53.195728 264.640503,53.171539
	C251.842484,52.903759 239.036774,53.003021 226.015350,53.003021
	C226.162048,54.214840 226.112335,55.064503 226.376999,55.801235
	C230.206818,66.462479 234.217926,77.060516 237.915161,87.767082
	C250.015747,122.808311 261.984467,157.895050 274.045990,192.949814
	C281.894653,215.760696 289.922241,238.510986 297.581635,261.384888
	C298.623444,264.496155 300.002411,265.105957 302.828644,265.046570
	C309.656952,264.903076 316.490326,265.000000 323.321655,265.000000
	C332.104187,265.000000 332.202454,265.033417 334.942352,256.980530
	C345.998657,224.484634 356.970123,191.959885 368.012451,159.459198
	C372.826904,145.288834 377.736603,131.150818 382.755371,116.555107
	C383.398193,117.346184 383.792572,117.638313 383.923798,118.020729
	C390.965363,138.541840 397.984467,159.070663 405.006531,179.598465
	C414.334595,206.867523 423.705048,234.122269 432.923187,261.428436
	C433.790771,263.998383 434.801666,265.120361 437.641205,265.063171
	C446.301819,264.888641 454.969696,264.908630 463.631409,265.052399
	C466.424072,265.098724 467.443695,264.136108 468.377258,261.413239
	C479.456360,229.100235 490.781250,196.871628 501.981079,164.599869
	C511.534943,137.071091 521.019104,109.518105 530.515625,81.969490
	C533.775391,72.513260 536.979614,63.037903 540.330627,53.215363
	C526.667053,53.215363 513.556274,53.215363 500.308594,53.215363
	C484.021271,103.839241 467.744781,154.429504 451.468262,205.019760
	C451.108185,205.039520 450.748108,205.059296 450.388031,205.079056
	C440.425354,175.052704 430.462677,145.026352 420.068787,114.310402
M1889.000000,173.500000
	C1889.000000,133.411301 1889.000000,93.322609 1889.000000,53.000011
	C1876.361938,53.000011 1864.376953,53.161167 1852.401855,52.891434
	C1849.243042,52.820282 1847.619629,54.140709 1846.169922,56.431999
	C1838.445923,68.641594 1830.769043,80.881454 1822.979004,93.048874
	C1810.636353,112.327171 1798.217285,131.556549 1785.677124,151.044937
	C1783.322876,147.441360 1781.121094,144.116333 1778.964478,140.762375
	C1760.954590,112.753853 1742.928711,84.755692 1724.987915,56.703030
	C1723.246338,53.979744 1721.341431,52.691677 1717.931641,52.907143
	C1712.453735,53.253300 1706.938110,53.000000 1701.438354,53.000000
	C1695.014282,53.000000 1688.590210,53.000000 1682.388184,53.000000
	C1682.388184,123.765419 1682.388184,193.824020 1682.388184,263.750458
	C1694.721191,263.750458 1706.664917,263.750458 1719.115723,263.750458
	C1719.115723,214.514709 1719.115723,165.525726 1719.115723,115.383804
	C1741.301392,148.429138 1762.794189,180.442337 1785.082153,213.640015
	C1807.310913,180.417709 1828.746338,148.381302 1851.021606,115.089500
	C1851.021606,165.594040 1851.021606,214.607239 1851.021606,263.705475
	C1863.908813,263.705475 1876.302612,263.705475 1889.000000,263.705475
	C1889.000000,233.774658 1889.000000,204.137329 1889.000000,173.500000
M958.000000,87.500000
	C958.000000,76.074753 958.000000,64.649506 958.000000,53.365665
	C945.276794,53.365665 933.215698,53.365665 920.712219,53.365665
	C920.712219,100.752739 920.712219,147.775208 920.712219,196.143997
	C915.781738,189.738998 911.697266,184.370239 907.546570,179.053177
	C896.391296,164.763519 885.155518,150.536499 874.051514,136.207260
	C864.563416,123.963333 855.234192,111.596474 845.797424,99.312599
	C834.865540,85.082458 823.922974,70.860153 812.893372,56.705883
	C811.742065,55.228355 809.997803,53.216179 808.483704,53.176796
	C797.067505,52.879833 785.640015,53.014759 774.357544,53.014759
	C774.357544,123.718719 774.357544,193.769882 774.357544,263.783020
	C786.991272,263.783020 799.266174,263.783020 812.174438,263.783020
	C812.174438,215.102066 812.174438,166.634064 812.174438,117.717903
	C813.282166,118.262184 813.834167,118.358086 814.091919,118.685585
	C821.259583,127.792557 828.462830,136.872711 835.526428,146.060135
	C849.642334,164.420135 863.611023,182.893524 877.766663,201.222672
	C893.434631,221.510071 909.233093,241.696793 925.026123,261.887177
	C925.734375,262.792603 926.942200,263.887726 927.932251,263.902618
	C937.862000,264.052002 947.794861,263.993439 958.000000,263.993439
	C958.000000,205.093414 958.000000,146.796707 958.000000,87.500000
M1136.981689,63.481060
	C1122.393066,56.968246 1107.211182,53.020664 1091.144653,53.006470
	C1064.322998,52.982773 1037.501465,53.000000 1010.679810,53.000000
	C1008.903931,53.000000 1007.128113,53.000000 1005.273621,53.000000
	C1005.273621,123.573906 1005.273621,193.612930 1005.273621,264.000000
	C1025.003418,264.000000 1044.462524,264.120087 1063.919434,263.956665
	C1076.344238,263.852325 1088.858398,264.165466 1101.167358,262.801819
	C1120.948853,260.610413 1139.358276,253.809082 1155.416504,241.803940
	C1171.094849,230.082794 1182.912231,215.147598 1189.666016,196.627411
	C1194.893311,182.293259 1197.911133,167.493484 1195.939087,152.144516
	C1194.718384,142.645157 1194.031250,132.858902 1191.134155,123.833961
	C1182.239014,96.124504 1164.051514,76.212814 1136.981689,63.481060
M1272.000000,219.500000
	C1272.000000,204.743973 1272.000000,189.987946 1272.000000,175.355957
	C1305.710205,175.355957 1338.764893,175.355957 1372.294067,175.355957
	C1372.294067,205.101303 1372.294067,234.492401 1372.294067,263.755676
	C1384.714600,263.755676 1396.656006,263.755676 1408.738037,263.755676
	C1408.738037,193.464584 1408.738037,123.418015 1408.738037,53.297142
	C1396.415039,53.297142 1384.356445,53.297142 1371.823486,53.297142
	C1371.823486,82.315987 1371.823486,111.040718 1371.823486,139.643951
	C1338.289673,139.643951 1305.234863,139.643951 1271.705566,139.643951
	C1271.705566,110.564934 1271.705566,81.840050 1271.705566,53.244476
	C1258.951660,53.244476 1246.676758,53.244476 1234.262207,53.244476
	C1234.262207,123.535736 1234.262207,193.582306 1234.262207,263.702759
	C1246.918457,263.702759 1259.310303,263.702759 1272.000000,263.702759
	C1272.000000,249.105057 1272.000000,234.802521 1272.000000,219.500000
M1440.936523,263.994324
	C1451.434570,263.996216 1461.938110,263.806549 1472.427979,264.100861
	C1476.251831,264.208130 1477.933960,262.752228 1479.292480,259.414764
	C1485.154907,245.012634 1491.169678,230.670105 1497.385986,216.417999
	C1498.046753,214.903168 1500.383545,213.152802 1501.952515,213.143387
	C1533.768188,212.952576 1565.585327,213.000381 1597.398071,213.000381
	C1604.167603,229.145874 1610.817627,245.122375 1617.630249,261.029266
	C1618.160278,262.266907 1619.814697,263.847961 1620.969116,263.866669
	C1633.555542,264.070374 1646.146484,263.994141 1659.208984,263.994141
	C1657.509644,259.986511 1656.110962,256.567322 1654.619019,253.189224
	C1647.150024,236.277786 1639.600708,219.401581 1632.186401,202.466278
	C1623.216187,181.976974 1614.338745,161.446930 1605.447876,140.922928
	C1599.263794,126.647240 1593.176758,112.329308 1586.950806,98.071960
	C1580.526489,83.360779 1574.069092,68.662193 1567.369263,54.076176
	C1566.704956,52.629955 1564.275024,51.184319 1562.623413,51.135841
	C1553.133423,50.857258 1543.626465,50.850521 1534.137451,51.144695
	C1532.516602,51.194942 1530.162964,52.785645 1529.492188,54.271526
	C1524.560913,65.195374 1520.041016,76.303833 1515.260864,87.297302
	C1502.655884,116.287094 1490.015869,145.261749 1477.330688,174.216537
	C1464.901367,202.587311 1452.375244,230.915771 1440.005859,259.312653
	C1439.441528,260.608398 1440.001221,262.393738 1440.936523,263.994324
M749.998535,60.502407
	C751.550659,58.112122 753.102783,55.721836 754.870117,53.000175
	C740.976685,53.000175 727.651794,52.897537 714.332458,53.122879
	C712.557007,53.152924 710.090698,54.383827 709.157104,55.837509
	C694.946838,77.963936 680.963928,100.236183 666.868958,122.436974
	C662.265320,129.688110 657.492737,136.832016 652.351807,144.707489
	C650.151306,141.067978 648.362183,137.993179 646.463928,134.987305
	C629.907654,108.769745 613.349365,82.553406 596.711853,56.387447
	C595.845154,55.024395 594.268799,53.171803 592.996887,53.151222
	C578.753418,52.920742 564.504700,53.005615 549.668701,53.005615
	C550.525513,54.814911 550.939331,56.032070 551.620605,57.074348
	C558.642517,67.816788 565.694702,78.539490 572.763367,89.251305
	C591.555237,117.728500 610.351990,146.202484 629.167297,174.664215
	C631.730713,178.541901 633.172607,182.498001 633.118225,187.398300
	C632.855652,211.056625 633.000000,234.719467 633.000000,258.380707
	C633.000000,260.151031 633.000000,261.921326 633.000000,263.675171
	C645.973877,263.675171 658.366760,263.675171 671.000000,263.675171
	C671.000000,261.541107 671.000000,259.726105 671.000000,257.911102
	C671.000000,233.416718 670.958923,208.922165 671.070618,184.428284
	C671.080505,182.249878 671.551331,179.729691 672.707092,177.953079
	C685.553406,158.206009 698.601440,138.590347 711.546143,118.907021
	C724.220581,99.634674 736.838623,80.325180 749.998535,60.502407
M1117.000000,448.501892
	C1117.000000,470.256287 1117.000000,492.010651 1117.000000,513.635864
	C1122.722656,513.635864 1127.787476,513.635864 1133.139160,513.635864
	C1133.139160,503.996429 1133.139160,494.717957 1133.139160,485.000000
	C1136.720459,485.000000 1140.027466,485.209717 1143.296631,484.947662
	C1147.512817,484.609619 1150.137695,486.008972 1152.545166,489.781342
	C1157.441772,497.454010 1163.086792,504.652283 1168.513916,511.979004
	C1169.169312,512.863892 1170.363281,513.871094 1171.342163,513.907959
	C1176.450928,514.100525 1181.571045,513.997803 1188.093750,513.997803
	C1183.875977,508.136871 1180.283691,503.219940 1176.772827,498.245422
	C1173.254883,493.260590 1169.818115,488.218353 1166.334106,483.184387
	C1179.011475,476.946930 1181.192749,473.791107 1184.174438,461.887115
	C1186.809448,451.367065 1179.870972,436.461304 1168.063721,433.984497
	C1164.268433,433.188385 1160.427002,432.158905 1156.591431,432.090057
	C1143.496582,431.854980 1130.395020,432.000000 1117.000000,432.000000
	C1117.000000,437.558258 1117.000000,442.530853 1117.000000,448.501892
M977.430725,493.931824
	C979.727295,508.434082 990.285706,514.489685 1003.249878,514.950317
	C1013.126770,515.301208 1021.671509,511.707489 1029.196411,504.642822
	C1032.188354,507.659332 1034.993042,510.694794 1038.054321,513.444336
	C1038.949219,514.247986 1041.038086,514.958252 1041.785767,514.477295
	C1045.133911,512.323425 1048.195435,509.724121 1052.024780,506.773621
	C1047.227539,502.264130 1043.010986,498.300598 1039.079956,494.605377
	C1042.232788,488.978973 1045.272827,483.819305 1047.984131,478.492279
	C1048.529419,477.421204 1048.334106,474.889465 1047.610718,474.444397
	C1044.512451,472.538086 1041.088989,471.160339 1037.979492,469.682770
	C1034.909180,474.997131 1032.206787,479.674835 1029.561523,484.253632
	C1025.060425,479.955139 1021.118469,476.190643 1017.161377,472.411621
	C1021.012085,469.832825 1025.517334,467.940155 1028.328369,464.615143
	C1031.108643,461.326569 1033.311523,456.690643 1033.680176,452.463654
	C1034.049927,448.225800 1032.901611,443.061340 1030.564941,439.529327
	C1023.341125,428.610229 1008.648010,426.822327 996.500427,434.428619
	C987.745483,439.910645 983.431885,452.272369 993.793762,468.090302
	C982.727478,472.751038 976.909058,481.005432 977.430725,493.931824
M1378.910645,461.405609
	C1375.229858,471.715576 1376.755005,481.844757 1381.212524,491.315460
	C1389.641846,509.224518 1406.657715,516.993103 1426.332764,514.845947
	C1434.787964,513.923157 1442.535645,510.492798 1449.055054,504.541748
	C1456.331787,497.899414 1460.866089,489.959808 1462.391602,480.217163
	C1464.500977,466.746002 1461.938599,454.501587 1452.663818,444.225494
	C1441.198364,431.522369 1426.532715,427.564423 1410.296631,431.196655
	C1394.465942,434.738220 1383.395386,444.352844 1378.910645,461.405609
M581.656616,480.831421
	C581.771057,477.520264 581.995361,474.208618 581.981018,470.898041
	C581.919006,456.564636 575.735168,445.467773 563.960022,437.458221
	C553.070801,430.051331 541.014954,428.381287 528.445740,431.353027
	C520.460693,433.240967 512.850647,436.855194 507.544128,443.205475
	C498.781036,453.692169 494.560944,465.726440 496.889740,479.810913
	C498.780273,491.244995 504.046570,500.252228 513.292847,507.044647
	C524.141174,515.013855 536.198669,516.272217 549.166748,514.082886
	C564.660217,511.467194 579.105957,497.081757 581.656616,480.831421
M1504.000000,497.508881
	C1504.000000,493.414215 1504.000000,489.319550 1504.000000,485.000000
	C1508.795654,485.000000 1512.946289,485.108826 1517.087646,484.959564
	C1519.610474,484.868622 1521.150391,485.450928 1522.601807,487.902740
	C1525.821411,493.341919 1530.064697,498.187286 1533.155884,503.687622
	C1537.764526,511.888153 1543.960205,516.031494 1553.571533,514.044739
	C1555.113525,513.725952 1556.778198,514.000000 1559.314941,514.000000
	C1551.756958,503.207520 1544.645996,493.053345 1537.403076,482.710632
	C1550.223145,478.704712 1557.262329,469.541840 1555.901489,455.083557
	C1554.879639,444.228027 1550.264160,434.981750 1535.959351,433.342712
	C1520.638184,431.587158 1504.960205,432.946747 1489.257324,432.946747
	C1489.257324,459.516449 1489.257324,486.568665 1489.257324,513.706360
	C1494.245117,513.706360 1498.970703,513.706360 1504.000000,513.706360
	C1504.000000,508.447021 1504.000000,503.475952 1504.000000,497.508881
M1253.499390,500.000000
	C1244.409546,500.000000 1235.319824,500.000000 1226.359131,500.000000
	C1226.359131,492.617188 1226.359131,485.890015 1226.359131,478.701477
	C1239.776367,478.701477 1252.838257,478.701477 1265.753784,478.701477
	C1265.753784,473.944733 1265.753784,469.667328 1265.753784,464.925232
	C1252.454712,464.925232 1239.393677,464.925232 1226.309814,464.925232
	C1226.309814,458.052460 1226.309814,451.659943 1226.309814,444.801880
	C1241.675293,444.801880 1256.735474,444.801880 1271.626953,444.801880
	C1271.626953,440.261200 1271.626953,436.200958 1271.626953,432.219482
	C1250.987061,432.219482 1230.720947,432.219482 1210.238525,432.219482
	C1210.238525,459.486572 1210.238525,486.534058 1210.238525,513.738159
	C1230.862427,513.738159 1251.247070,513.738159 1271.702637,513.738159
	C1271.702637,509.078827 1271.702637,504.686890 1271.702637,500.000000
	C1265.772705,500.000000 1260.135742,500.000000 1253.499390,500.000000
M742.433228,514.000000
	C744.865845,514.000000 747.298462,514.000000 749.658203,514.000000
	C749.658203,508.990112 749.658203,504.597290 749.658203,499.737000
	C733.927490,499.737000 718.534912,499.737000 703.227234,499.737000
	C703.227234,492.650452 703.227234,486.042511 703.227234,478.964355
	C716.840210,478.964355 730.235413,478.964355 743.708130,478.964355
	C743.708130,474.089478 743.708130,469.696899 743.708130,464.834412
	C730.028076,464.834412 716.633423,464.834412 703.355957,464.834412
	C703.355957,457.957397 703.355957,451.563446 703.355957,444.709625
	C718.769897,444.709625 733.830933,444.709625 748.757996,444.709625
	C748.757996,440.288116 748.757996,436.342621 748.757996,432.267548
	C728.463318,432.267548 708.411499,432.267548 688.287842,432.267548
	C688.287842,459.584503 688.287842,486.632996 688.287842,514.000000
	C706.199646,514.000000 723.825623,514.000000 742.433228,514.000000
M456.773193,513.886597
	C461.385498,513.886597 465.997772,513.886597 470.733154,513.886597
	C470.733154,486.457825 470.733154,459.408722 470.733154,432.302307
	C465.735962,432.302307 461.010986,432.302307 455.811829,432.302307
	C455.811829,443.328125 455.811829,454.059357 455.811829,464.635620
	C442.938660,464.635620 430.547882,464.635620 417.864319,464.635620
	C417.864319,453.665405 417.864319,443.057831 417.864319,432.254272
	C412.835266,432.254272 408.110260,432.254272 403.274841,432.254272
	C403.274841,459.558411 403.274841,486.607544 403.274841,513.689575
	C408.280334,513.689575 413.005463,513.689575 418.203979,513.689575
	C418.203979,502.322327 418.203979,491.258484 418.203979,480.000000
	C424.829803,480.000000 430.978119,480.000000 437.126434,480.000000
	C443.375549,480.000000 449.624664,480.000000 456.108185,480.000000
	C456.108185,491.562286 456.108185,502.380737 456.773193,513.886597
M1347.475586,450.001007
	C1348.953247,447.861664 1350.724609,445.856232 1351.785889,443.527161
	C1352.325439,442.342957 1352.150269,439.745544 1351.341675,439.197052
	C1338.383545,430.407257 1324.325562,427.370026 1309.375854,433.094086
	C1294.803711,438.673615 1291.369995,456.748810 1298.554565,467.279968
	C1303.139893,474.001221 1310.155151,475.688019 1317.020386,477.981934
	C1323.141602,480.027283 1329.530273,481.424011 1335.410767,483.998199
	C1341.832397,486.809204 1341.996582,494.477539 1336.230835,498.373260
	C1329.669922,502.806122 1322.615112,501.643677 1316.002686,499.294586
	C1310.614502,497.380371 1305.768188,493.940247 1300.321899,490.981323
	C1297.598755,494.176819 1294.745850,497.524506 1291.734863,501.057617
	C1292.891235,502.281006 1293.847778,503.402191 1294.924072,504.393066
	C1295.631104,505.043823 1296.510498,505.507599 1297.313843,506.053192
	C1308.946167,513.952332 1321.653320,516.794250 1335.486206,513.983826
	C1347.458740,511.551422 1354.796875,504.682892 1355.836304,491.856384
	C1356.644653,481.881012 1352.645630,472.684937 1339.678101,468.901001
	C1332.230103,466.727661 1324.866943,464.265503 1317.442871,462.007904
	C1313.207642,460.720001 1310.432983,457.467041 1310.497070,453.598572
	C1310.562988,449.629120 1312.791260,445.763855 1317.701050,444.985199
	C1319.616089,444.681396 1321.524292,444.047363 1323.434692,444.050690
	C1330.339600,444.062683 1336.235718,447.068878 1342.063477,450.422272
	C1343.308716,451.138763 1345.310669,450.539978 1347.475586,450.001007
M861.552612,436.962891
	C849.055969,446.678711 850.536438,471.662109 870.689758,476.425568
	C878.513977,478.274902 886.215454,480.989502 893.592468,484.187408
	C896.011414,485.236053 898.506348,488.996765 898.621643,491.620239
	C898.726746,494.010742 896.076050,497.068054 893.851990,498.845520
	C892.017029,500.311951 889.063538,500.702454 886.547058,500.934937
	C877.029846,501.814209 869.132812,497.854797 861.707520,492.383728
	C860.734985,491.667175 858.087952,491.692688 857.351013,492.461609
	C854.690674,495.237640 852.515198,498.478302 850.169434,501.526855
	C862.089172,513.390076 882.844788,518.369751 898.390991,512.776794
	C912.850830,507.574768 918.494385,492.091278 911.177917,478.636078
	C907.305481,471.514526 900.189453,469.334839 893.222839,467.028687
	C887.096497,465.000610 880.805969,463.437042 874.767212,461.187256
	C871.082153,459.814362 867.625122,456.908234 869.233765,452.622742
	C870.343079,449.667572 873.194336,446.593903 876.056885,445.226562
	C882.443420,442.175903 888.797668,444.718170 894.792908,447.408173
	C897.985168,448.840515 900.969360,450.736786 904.070801,452.436462
	C907.010437,448.239563 909.596069,444.548096 912.175781,440.865051
	C910.986267,439.999115 910.069885,439.344177 909.166077,438.672333
	C895.934265,428.835968 873.642395,427.196381 861.552612,436.962891
M1704.877808,432.381714
	C1697.801758,431.921326 1690.670166,430.678741 1683.662109,431.176361
	C1671.947144,432.008301 1663.555176,440.196991 1662.104126,449.876678
	C1660.068481,463.454742 1665.432251,471.903595 1678.021729,476.019440
	C1685.545288,478.479065 1693.213745,480.507233 1700.686279,483.105469
	C1703.876099,484.214630 1706.674683,486.086090 1707.085938,490.277435
	C1707.518555,494.685669 1705.171753,497.062225 1701.922607,499.000366
	C1696.755127,502.082977 1691.034668,501.981110 1685.760864,500.108124
	C1679.441162,497.863708 1673.510742,494.522980 1666.832642,491.384888
	C1664.911499,493.673279 1662.511719,496.585663 1660.050659,499.445282
	C1658.275269,501.508453 1658.964600,502.592133 1661.069702,504.083771
	C1673.310425,512.757446 1686.535034,517.118225 1701.609131,513.992493
	C1718.538086,510.482117 1724.695190,498.461639 1721.472290,483.139099
	C1719.607056,474.271027 1711.973877,470.704315 1704.261353,468.047241
	C1697.547729,465.734314 1690.434570,464.467102 1683.927368,461.720428
	C1681.070312,460.514557 1678.141846,457.069977 1677.388062,454.098450
	C1676.847046,451.965912 1679.239502,447.651367 1681.428833,446.589630
	C1685.023315,444.846344 1689.768677,443.755646 1693.567993,444.561768
	C1699.136475,445.743286 1704.275391,448.898010 1709.653931,451.071899
	C1710.684570,451.488434 1712.633789,451.768005 1713.041138,451.243103
	C1715.657227,447.872009 1717.961670,444.259277 1720.863403,439.999207
	C1715.173218,437.368256 1710.346069,435.136322 1704.877808,432.381714
M606.546753,446.000000
	C611.967834,446.000000 617.388916,446.000000 623.243530,446.000000
	C623.243530,469.058380 623.243530,491.437347 623.243530,513.617188
	C628.769531,513.617188 633.832275,513.617188 639.327637,513.617188
	C639.327637,490.858856 639.327637,468.481598 639.327637,445.814087
	C647.724365,445.814087 655.664001,445.814087 663.723938,445.814087
	C663.723938,441.119110 663.723938,436.728699 663.723938,432.286011
	C641.737183,432.286011 620.027710,432.286011 598.319336,432.286011
	C598.319336,436.968384 598.319336,441.358704 598.319336,446.000000
	C600.946289,446.000000 603.255981,446.000000 606.546753,446.000000
M1625.498047,432.000000
	C1609.087280,432.000000 1592.676514,432.000000 1576.342285,432.000000
	C1576.342285,437.014923 1576.342285,441.405853 1576.342285,446.263550
	C1584.741577,446.263550 1592.804810,446.263550 1601.299316,446.263550
	C1601.299316,469.115479 1601.299316,491.493500 1601.299316,513.767212
	C1606.698364,513.767212 1611.639404,513.767212 1617.026367,513.767212
	C1617.026367,491.162506 1617.026367,468.784760 1617.026367,445.938599
	C1625.531982,445.938599 1633.594238,445.938599 1641.699097,445.938599
	C1641.699097,441.067871 1641.699097,436.677826 1641.699097,432.000000
	C1636.432861,432.000000 1631.464722,432.000000 1625.498047,432.000000
M789.226807,432.113434
	C784.613770,432.113434 780.000793,432.113434 775.274719,432.113434
	C775.274719,459.548492 775.274719,486.601624 775.274719,513.695557
	C794.607361,513.695557 813.663696,513.695557 832.658081,513.695557
	C832.658081,508.991394 832.658081,504.597809 832.658081,499.732178
	C818.257324,499.732178 804.194275,499.732178 789.891846,499.732178
	C789.891846,477.101257 789.891846,454.951019 789.226807,432.113434
z"/>
<path fill="#0071BA" opacity="1.000000" stroke="none"
	d="
M34.958038,380.885010
	C48.766182,377.590393 62.528778,374.087219 76.395172,371.059387
	C90.514313,367.976318 104.714119,365.246826 118.918655,362.575500
	C131.389618,360.230255 143.912903,358.161743 156.418839,356.004333
	C167.805756,354.039978 179.181961,352.002472 190.597214,350.216675
	C200.594803,348.652649 210.644455,347.424164 220.663101,345.991577
	C231.640747,344.421875 242.599075,342.714203 253.584930,341.205872
	C262.170624,340.027039 270.788208,339.082062 279.386749,337.994751
	C289.596863,336.703583 299.796112,335.325012 310.011017,334.073792
	C316.353241,333.296875 322.717834,332.704315 329.068756,331.996674
	C340.780151,330.691742 352.480621,329.282532 364.201630,328.071960
	C372.208221,327.245056 380.250610,326.768738 388.261627,325.979889
	C400.814880,324.743713 413.352844,323.353455 425.902191,322.076233
	C430.155121,321.643433 434.419495,321.308411 438.684357,321.009735
	C453.301300,319.986053 467.923187,319.032959 482.538483,317.986694
	C495.827789,317.035370 509.107513,315.949280 522.397705,315.010895
	C537.346802,313.955383 552.299622,312.947205 567.256775,312.012665
	C584.206421,310.953613 601.160950,309.968384 618.116577,309.009186
	C630.804932,308.291412 643.496582,307.628479 656.190125,307.008881
	C670.712585,306.299957 685.236572,305.616180 699.763733,305.012421
	C717.119202,304.291107 734.478088,303.649750 751.836670,303.005829
	C761.764221,302.637543 771.693481,302.313507 781.623108,302.004730
	C793.051147,301.649323 804.479797,301.308258 815.909424,301.005676
	C829.504089,300.645691 843.099121,300.290283 856.695618,300.010498
	C874.956543,299.634674 893.217957,299.236694 911.481201,299.020569
	C945.741638,298.615082 980.003906,298.373383 1014.264587,297.985931
	C1037.193848,297.726624 1060.122070,297.024567 1083.049683,297.070038
	C1120.478027,297.144226 1157.906006,297.612610 1195.333008,298.023560
	C1213.263062,298.220428 1231.190796,298.640625 1249.118774,299.008301
	C1263.381592,299.300781 1277.643555,299.641968 1291.904663,300.008606
	C1303.334473,300.302429 1314.763672,300.631348 1326.190918,301.007965
	C1345.549561,301.646027 1364.908325,302.286011 1384.263550,303.016144
	C1399.957520,303.608154 1415.647583,304.305908 1431.337158,305.008362
	C1445.363403,305.636353 1459.388184,306.301636 1473.410522,307.012268
	C1485.604248,307.630219 1497.795654,308.296661 1509.984253,309.009918
	C1526.439697,309.972992 1542.894165,310.961853 1559.344238,312.013306
	C1574.134155,312.958679 1588.921265,313.956207 1603.703247,315.018677
	C1616.660645,315.950073 1629.613037,316.957489 1642.560791,318.015137
	C1658.278320,319.298950 1673.992798,320.626892 1689.701294,322.017151
	C1704.085449,323.290222 1718.466431,324.605988 1732.837036,326.022858
	C1748.982178,327.614685 1765.121948,329.268768 1781.249390,331.030396
	C1795.562134,332.593781 1809.865723,334.252167 1824.153320,336.030365
	C1842.148804,338.270081 1860.147705,340.506287 1878.100952,343.055634
	C1895.203125,345.484192 1912.253052,348.284821 1929.317749,350.973785
	C1950.397705,354.295532 1971.540649,357.281372 1992.523926,361.134338
	C2012.953735,364.885681 2033.246704,369.408661 2053.541748,373.858307
	C2067.947998,377.016907 2082.260986,380.603210 2096.604004,384.046997
	C2097.654541,384.299225 2098.610840,384.944550 2099.441650,386.077759
	C2093.707764,385.261993 2087.971436,384.460632 2082.239990,383.627075
	C2074.010742,382.430298 2065.789551,381.175507 2057.556152,380.008331
	C2046.244507,378.404816 2034.932617,376.798157 2023.605469,375.309631
	C2014.524292,374.116272 2005.419434,373.103027 1996.326538,371.998413
	C1985.616455,370.697327 1974.915405,369.317200 1964.195923,368.099152
	C1957.023560,367.284149 1949.819458,366.750946 1942.640869,365.986633
	C1930.757812,364.721527 1918.890625,363.306244 1907.003662,362.080841
	C1899.161377,361.272369 1891.291626,360.732056 1883.442017,359.989746
	C1869.892212,358.708405 1856.354858,357.292572 1842.800049,356.069824
	C1833.789062,355.256927 1824.752808,354.727722 1815.734619,353.989807
	C1800.017090,352.703705 1784.306030,351.341583 1768.589844,350.039673
	C1763.832275,349.645569 1759.070312,349.286774 1754.304688,349.012543
	C1742.115967,348.311157 1729.920776,347.718048 1717.733887,346.986206
	C1701.944214,346.037964 1686.160522,344.988861 1670.373413,343.999054
	C1659.516479,343.318390 1648.659546,342.637482 1637.799805,342.006348
	C1625.777100,341.307648 1613.752563,340.640472 1601.726318,340.005707
	C1588.536743,339.309448 1575.345459,338.640076 1562.152710,338.006378
	C1547.629639,337.308777 1533.105347,336.637726 1518.579224,336.005005
	C1502.556274,335.307068 1486.532471,334.615540 1470.505737,334.012756
	C1451.316772,333.290985 1432.124634,332.654266 1412.933105,332.003845
	C1402.338501,331.644775 1391.743042,331.307068 1381.146606,331.006622
	C1368.385376,330.644775 1355.622803,330.332458 1342.860718,329.999176
	C1330.098633,329.665833 1317.337891,329.273102 1304.574341,329.014038
	C1285.480225,328.626465 1266.384521,328.320526 1247.289062,328.002991
	C1226.360840,327.654968 1205.433228,327.146851 1184.503662,327.033295
	C1107.577637,326.615967 1030.651245,326.218384 953.724548,326.062073
	C926.630493,326.007019 899.534302,326.624268 872.440308,327.015594
	C855.010498,327.267334 837.582520,327.645874 820.154480,328.006500
	C805.558533,328.308472 790.963135,328.643646 776.368591,329.007660
	C764.438904,329.305145 752.510681,329.657776 740.582214,330.002808
	C729.486389,330.323730 718.390747,330.651520 707.295898,331.005096
	C697.533081,331.316223 687.770386,331.640289 678.009521,332.006653
	C660.817627,332.651917 643.626038,333.308624 626.436279,334.007782
	C610.910339,334.639313 595.385620,335.303528 579.862976,336.009949
	C566.169739,336.633057 552.479126,337.315308 538.789185,338.006470
	C526.096619,338.647278 513.404907,339.307281 500.715668,340.009277
	C489.355682,340.637756 477.998077,341.311584 466.641998,342.007385
	C450.687317,342.984894 434.732605,343.964447 418.782379,345.011841
	C404.325989,345.961151 389.873352,346.971802 375.423187,348.012451
	C362.134125,348.969574 348.847076,349.958710 335.565430,351.013458
	C319.347992,352.301331 303.134583,353.642303 286.924347,355.017914
	C275.801819,355.961792 264.676056,356.891174 253.572540,358.029541
	C238.422089,359.582794 223.301025,361.423737 208.149063,362.960938
	C196.715576,364.120941 185.231766,364.800812 173.809677,366.053070
	C160.816010,367.477600 147.875153,369.377197 134.894073,370.925690
	C125.296768,372.070587 115.651985,372.827087 106.064323,374.040741
	C94.411179,375.515869 82.802689,377.340088 71.162048,378.918579
	C60.638042,380.345673 50.094700,381.629730 39.565819,383.021759
	C38.299442,383.189178 37.070187,383.637360 35.411369,383.525787
	C34.985359,382.359131 34.971699,381.622040 34.958038,380.885010
z"/>
<path fill="#0071BA" opacity="1.000000" stroke="none"
	d="
M420.284393,114.655197
	C430.462677,145.026352 440.425354,175.052704 450.388031,205.079056
	C450.748108,205.059296 451.108185,205.039520 451.468262,205.019760
	C467.744781,154.429504 484.021271,103.839241 500.308594,53.215363
	C513.556274,53.215363 526.667053,53.215363 540.330627,53.215363
	C536.979614,63.037903 533.775391,72.513260 530.515625,81.969490
	C521.019104,109.518105 511.534943,137.071091 501.981079,164.599869
	C490.781250,196.871628 479.456360,229.100235 468.377258,261.413239
	C467.443695,264.136108 466.424072,265.098724 463.631409,265.052399
	C454.969696,264.908630 446.301819,264.888641 437.641205,265.063171
	C434.801666,265.120361 433.790771,263.998383 432.923187,261.428436
	C423.705048,234.122269 414.334595,206.867523 405.006531,179.598465
	C397.984467,159.070663 390.965363,138.541840 383.923798,118.020729
	C383.792572,117.638313 383.398193,117.346184 382.755371,116.555107
	C377.736603,131.150818 372.826904,145.288834 368.012451,159.459198
	C356.970123,191.959885 345.998657,224.484634 334.942352,256.980530
	C332.202454,265.033417 332.104187,265.000000 323.321655,265.000000
	C316.490326,265.000000 309.656952,264.903076 302.828644,265.046570
	C300.002411,265.105957 298.623444,264.496155 297.581635,261.384888
	C289.922241,238.510986 281.894653,215.760696 274.045990,192.949814
	C261.984467,157.895050 250.015747,122.808311 237.915161,87.767082
	C234.217926,77.060516 230.206818,66.462479 226.376999,55.801235
	C226.112335,55.064503 226.162048,54.214840 226.015350,53.003021
	C239.036774,53.003021 251.842484,52.903759 264.640503,53.171539
	C265.796387,53.195728 267.458374,55.404907 267.949097,56.905540
	C276.049957,81.678070 284.002014,106.499275 291.984528,131.310501
	C299.668762,155.194733 307.346680,179.081009 315.049286,202.959335
	C315.240082,203.550827 315.687653,204.059479 316.680878,205.717682
	C333.787354,153.953445 350.589111,103.111359 367.479187,52.001907
	C377.435944,52.001907 387.419281,51.913803 397.396637,52.118134
	C398.587158,52.142513 400.439362,53.531517 400.814758,54.672855
	C407.341553,74.516258 413.685211,94.419891 420.284393,114.655197
z"/>
<path fill="#0071BA" opacity="1.000000" stroke="none"
	d="
M1889.000000,174.000000
	C1889.000000,204.137329 1889.000000,233.774658 1889.000000,263.705475
	C1876.302612,263.705475 1863.908813,263.705475 1851.021606,263.705475
	C1851.021606,214.607239 1851.021606,165.594040 1851.021606,115.089500
	C1828.746338,148.381302 1807.310913,180.417709 1785.082153,213.640015
	C1762.794189,180.442337 1741.301392,148.429138 1719.115723,115.383804
	C1719.115723,165.525726 1719.115723,214.514709 1719.115723,263.750458
	C1706.664917,263.750458 1694.721191,263.750458 1682.388184,263.750458
	C1682.388184,193.824020 1682.388184,123.765419 1682.388184,53.000000
	C1688.590210,53.000000 1695.014282,53.000000 1701.438354,53.000000
	C1706.938110,53.000000 1712.453735,53.253300 1717.931641,52.907143
	C1721.341431,52.691677 1723.246338,53.979744 1724.987915,56.703030
	C1742.928711,84.755692 1760.954590,112.753853 1778.964478,140.762375
	C1781.121094,144.116333 1783.322876,147.441360 1785.677124,151.044937
	C1798.217285,131.556549 1810.636353,112.327171 1822.979004,93.048874
	C1830.769043,80.881454 1838.445923,68.641594 1846.169922,56.431999
	C1847.619629,54.140709 1849.243042,52.820282 1852.401855,52.891434
	C1864.376953,53.161167 1876.361938,53.000011 1889.000000,53.000011
	C1889.000000,93.322609 1889.000000,133.411301 1889.000000,174.000000
z"/>
<path fill="#0071BA" opacity="1.000000" stroke="none"
	d="
M958.000000,88.000000
	C958.000000,146.796707 958.000000,205.093414 958.000000,263.993439
	C947.794861,263.993439 937.862000,264.052002 927.932251,263.902618
	C926.942200,263.887726 925.734375,262.792603 925.026123,261.887177
	C909.233093,241.696793 893.434631,221.510071 877.766663,201.222672
	C863.611023,182.893524 849.642334,164.420135 835.526428,146.060135
	C828.462830,136.872711 821.259583,127.792557 814.091919,118.685585
	C813.834167,118.358086 813.282166,118.262184 812.174438,117.717903
	C812.174438,166.634064 812.174438,215.102066 812.174438,263.783020
	C799.266174,263.783020 786.991272,263.783020 774.357544,263.783020
	C774.357544,193.769882 774.357544,123.718719 774.357544,53.014759
	C785.640015,53.014759 797.067505,52.879833 808.483704,53.176796
	C809.997803,53.216179 811.742065,55.228355 812.893372,56.705883
	C823.922974,70.860153 834.865540,85.082458 845.797424,99.312599
	C855.234192,111.596474 864.563416,123.963333 874.051514,136.207260
	C885.155518,150.536499 896.391296,164.763519 907.546570,179.053177
	C911.697266,184.370239 915.781738,189.738998 920.712219,196.143997
	C920.712219,147.775208 920.712219,100.752739 920.712219,53.365665
	C933.215698,53.365665 945.276794,53.365665 958.000000,53.365665
	C958.000000,64.649506 958.000000,76.074753 958.000000,88.000000
z"/>
<path fill="#0071BA" opacity="1.000000" stroke="none"
	d="
M1137.292969,63.707268
	C1164.051514,76.212814 1182.239014,96.124504 1191.134155,123.833961
	C1194.031250,132.858902 1194.718384,142.645157 1195.939087,152.144516
	C1197.911133,167.493484 1194.893311,182.293259 1189.666016,196.627411
	C1182.912231,215.147598 1171.094849,230.082794 1155.416504,241.803940
	C1139.358276,253.809082 1120.948853,260.610413 1101.167358,262.801819
	C1088.858398,264.165466 1076.344238,263.852325 1063.919434,263.956665
	C1044.462524,264.120087 1025.003418,264.000000 1005.273621,264.000000
	C1005.273621,193.612930 1005.273621,123.573906 1005.273621,53.000000
	C1007.128113,53.000000 1008.903931,53.000000 1010.679810,53.000000
	C1037.501465,53.000000 1064.322998,52.982773 1091.144653,53.006470
	C1107.211182,53.020664 1122.393066,56.968246 1137.292969,63.707268
M1043.000000,143.500000
	C1043.000000,171.918259 1043.000000,200.336517 1043.000000,229.000000
	C1057.287109,229.000000 1070.934204,229.201401 1084.570801,228.909256
	C1090.759766,228.776688 1097.045166,228.207886 1103.084106,226.900726
	C1124.113159,222.348892 1139.843750,210.610458 1149.390381,191.120102
	C1156.980225,175.624359 1158.622559,159.461212 1155.080933,142.535202
	C1149.837402,117.475449 1135.629517,100.099251 1111.343140,92.003532
	C1102.514404,89.060547 1092.909546,87.752365 1083.570068,87.201317
	C1070.185791,86.411613 1056.720459,87.000000 1043.000000,87.000000
	C1043.000000,105.897079 1043.000000,124.198540 1043.000000,143.500000
z"/>
<path fill="#0071BA" opacity="1.000000" stroke="none"
	d="
M1272.000000,220.000000
	C1272.000000,234.802521 1272.000000,249.105057 1272.000000,263.702759
	C1259.310303,263.702759 1246.918457,263.702759 1234.262207,263.702759
	C1234.262207,193.582306 1234.262207,123.535736 1234.262207,53.244476
	C1246.676758,53.244476 1258.951660,53.244476 1271.705566,53.244476
	C1271.705566,81.840050 1271.705566,110.564934 1271.705566,139.643951
	C1305.234863,139.643951 1338.289673,139.643951 1371.823486,139.643951
	C1371.823486,111.040718 1371.823486,82.315987 1371.823486,53.297142
	C1384.356445,53.297142 1396.415039,53.297142 1408.738037,53.297142
	C1408.738037,123.418015 1408.738037,193.464584 1408.738037,263.755676
	C1396.656006,263.755676 1384.714600,263.755676 1372.294067,263.755676
	C1372.294067,234.492401 1372.294067,205.101303 1372.294067,175.355957
	C1338.764893,175.355957 1305.710205,175.355957 1272.000000,175.355957
	C1272.000000,189.987946 1272.000000,204.743973 1272.000000,220.000000
z"/>
<path fill="#0071BA" opacity="1.000000" stroke="none"
	d="
M1440.486938,263.972687
	C1440.001221,262.393738 1439.441528,260.608398 1440.005859,259.312653
	C1452.375244,230.915771 1464.901367,202.587311 1477.330688,174.216537
	C1490.015869,145.261749 1502.655884,116.287094 1515.260864,87.297302
	C1520.041016,76.303833 1524.560913,65.195374 1529.492188,54.271526
	C1530.162964,52.785645 1532.516602,51.194942 1534.137451,51.144695
	C1543.626465,50.850521 1553.133423,50.857258 1562.623413,51.135841
	C1564.275024,51.184319 1566.704956,52.629955 1567.369263,54.076176
	C1574.069092,68.662193 1580.526489,83.360779 1586.950806,98.071960
	C1593.176758,112.329308 1599.263794,126.647240 1605.447876,140.922928
	C1614.338745,161.446930 1623.216187,181.976974 1632.186401,202.466278
	C1639.600708,219.401581 1647.150024,236.277786 1654.619019,253.189224
	C1656.110962,256.567322 1657.509644,259.986511 1659.208984,263.994141
	C1646.146484,263.994141 1633.555542,264.070374 1620.969116,263.866669
	C1619.814697,263.847961 1618.160278,262.266907 1617.630249,261.029266
	C1610.817627,245.122375 1604.167603,229.145874 1597.398071,213.000381
	C1565.585327,213.000381 1533.768188,212.952576 1501.952515,213.143387
	C1500.383545,213.152802 1498.046753,214.903168 1497.385986,216.417999
	C1491.169678,230.670105 1485.154907,245.012634 1479.292480,259.414764
	C1477.933960,262.752228 1476.251831,264.208130 1472.427979,264.100861
	C1461.938110,263.806549 1451.434570,263.996216 1440.486938,263.972687
M1556.060059,116.351219
	C1553.554565,110.348297 1551.049194,104.345375 1548.101440,97.282677
	C1536.215698,125.024292 1524.726807,151.839493 1513.170898,178.811035
	C1536.781494,178.811035 1559.735229,178.811035 1583.278687,178.811035
	C1574.244751,157.959183 1565.371826,137.479095 1556.060059,116.351219
z"/>
<path fill="#0071BA" opacity="1.000000" stroke="none"
	d="
M749.739990,60.767200
	C736.838623,80.325180 724.220581,99.634674 711.546143,118.907021
	C698.601440,138.590347 685.553406,158.206009 672.707092,177.953079
	C671.551331,179.729691 671.080505,182.249878 671.070618,184.428284
	C670.958923,208.922165 671.000000,233.416718 671.000000,257.911102
	C671.000000,259.726105 671.000000,261.541107 671.000000,263.675171
	C658.366760,263.675171 645.973877,263.675171 633.000000,263.675171
	C633.000000,261.921326 633.000000,260.151031 633.000000,258.380707
	C633.000000,234.719467 632.855652,211.056625 633.118225,187.398300
	C633.172607,182.498001 631.730713,178.541901 629.167297,174.664215
	C610.351990,146.202484 591.555237,117.728500 572.763367,89.251305
	C565.694702,78.539490 558.642517,67.816788 551.620605,57.074348
	C550.939331,56.032070 550.525513,54.814911 549.668701,53.005615
	C564.504700,53.005615 578.753418,52.920742 592.996887,53.151222
	C594.268799,53.171803 595.845154,55.024395 596.711853,56.387447
	C613.349365,82.553406 629.907654,108.769745 646.463928,134.987305
	C648.362183,137.993179 650.151306,141.067978 652.351807,144.707489
	C657.492737,136.832016 662.265320,129.688110 666.868958,122.436974
	C680.963928,100.236183 694.946838,77.963936 709.157104,55.837509
	C710.090698,54.383827 712.557007,53.152924 714.332458,53.122879
	C727.651794,52.897537 740.976685,53.000175 754.870117,53.000175
	C753.102783,55.721836 751.550659,58.112122 749.739990,60.767200
z"/>
<path fill="#0071BA" opacity="1.000000" stroke="none"
	d="
M1117.000000,448.002655
	C1117.000000,442.530853 1117.000000,437.558258 1117.000000,432.000000
	C1130.395020,432.000000 1143.496582,431.854980 1156.591431,432.090057
	C1160.427002,432.158905 1164.268433,433.188385 1168.063721,433.984497
	C1179.870972,436.461304 1186.809448,451.367065 1184.174438,461.887115
	C1181.192749,473.791107 1179.011475,476.946930 1166.334106,483.184387
	C1169.818115,488.218353 1173.254883,493.260590 1176.772827,498.245422
	C1180.283691,503.219940 1183.875977,508.136871 1188.093750,513.997803
	C1181.571045,513.997803 1176.450928,514.100525 1171.342163,513.907959
	C1170.363281,513.871094 1169.169312,512.863892 1168.513916,511.979004
	C1163.086792,504.652283 1157.441772,497.454010 1152.545166,489.781342
	C1150.137695,486.008972 1147.512817,484.609619 1143.296631,484.947662
	C1140.027466,485.209717 1136.720459,485.000000 1133.139160,485.000000
	C1133.139160,494.717957 1133.139160,503.996429 1133.139160,513.635864
	C1127.787476,513.635864 1122.722656,513.635864 1117.000000,513.635864
	C1117.000000,492.010651 1117.000000,470.256287 1117.000000,448.002655
M1146.470703,471.999969
	C1151.123657,471.381073 1155.902832,471.233551 1160.398682,470.028748
	C1166.567871,468.375519 1169.411377,463.712738 1168.998901,457.534027
	C1168.645630,452.242218 1163.917114,446.432800 1158.608398,446.142242
	C1150.207642,445.682434 1141.763306,446.019745 1133.295410,446.019745
	C1133.295410,454.933960 1133.295410,463.317322 1133.295410,471.625641
	C1133.894043,471.791290 1134.199829,471.947357 1134.506836,471.949890
	C1138.165894,471.979797 1141.825195,471.986908 1146.470703,471.999969
z"/>
<path fill="#0071BA" opacity="1.000000" stroke="none"
	d="
M977.244507,493.541870
	C976.909058,481.005432 982.727478,472.751038 993.793762,468.090302
	C983.431885,452.272369 987.745483,439.910645 996.500427,434.428619
	C1008.648010,426.822327 1023.341125,428.610229 1030.564941,439.529327
	C1032.901611,443.061340 1034.049927,448.225800 1033.680176,452.463654
	C1033.311523,456.690643 1031.108643,461.326569 1028.328369,464.615143
	C1025.517334,467.940155 1021.012085,469.832825 1017.161377,472.411621
	C1021.118469,476.190643 1025.060425,479.955139 1029.561523,484.253632
	C1032.206787,479.674835 1034.909180,474.997131 1037.979492,469.682770
	C1041.088989,471.160339 1044.512451,472.538086 1047.610718,474.444397
	C1048.334106,474.889465 1048.529419,477.421204 1047.984131,478.492279
	C1045.272827,483.819305 1042.232788,488.978973 1039.079956,494.605377
	C1043.010986,498.300598 1047.227539,502.264130 1052.024780,506.773621
	C1048.195435,509.724121 1045.133911,512.323425 1041.785767,514.477295
	C1041.038086,514.958252 1038.949219,514.247986 1038.054321,513.444336
	C1034.993042,510.694794 1032.188354,507.659332 1029.196411,504.642822
	C1021.671509,511.707489 1013.126770,515.301208 1003.249878,514.950317
	C990.285706,514.489685 979.727295,508.434082 977.244507,493.541870
M993.265503,487.252228
	C991.860840,493.261383 994.343018,498.081055 999.474792,500.742584
	C1005.438232,503.835388 1013.479004,501.677673 1019.809814,495.554810
	C1014.059937,489.823761 1008.309998,484.092712 1001.601624,477.406372
	C998.975098,480.531128 996.397949,483.597107 993.265503,487.252228
M1004.353088,458.848358
	C1005.536499,460.639771 1006.719910,462.431152 1007.903320,464.222565
	C1011.494690,461.721497 1013.752014,460.446594 1015.891113,458.997223
	C1019.456848,456.581268 1020.968872,451.583801 1019.379333,447.868195
	C1017.556824,443.607971 1014.175720,441.980438 1009.258118,442.996307
	C1002.974365,444.294373 1000.880615,450.362457 1004.353088,458.848358
z"/>
<path fill="#0071BA" opacity="1.000000" stroke="none"
	d="
M1378.949219,460.986938
	C1383.395386,444.352844 1394.465942,434.738220 1410.296631,431.196655
	C1426.532715,427.564423 1441.198364,431.522369 1452.663818,444.225494
	C1461.938599,454.501587 1464.500977,466.746002 1462.391602,480.217163
	C1460.866089,489.959808 1456.331787,497.899414 1449.055054,504.541748
	C1442.535645,510.492798 1434.787964,513.923157 1426.332764,514.845947
	C1406.657715,516.993103 1389.641846,509.224518 1381.212524,491.315460
	C1376.755005,481.844757 1375.229858,471.715576 1378.949219,460.986938
M1407.470215,447.920502
	C1396.705933,452.938599 1390.509277,467.234741 1394.117676,480.007416
	C1397.349854,491.448730 1404.933594,499.035461 1416.856934,500.762817
	C1426.713867,502.190796 1434.953247,498.244415 1441.177612,490.337585
	C1449.574219,479.671051 1449.028809,465.859955 1441.172241,454.899872
	C1434.644287,445.793121 1420.875610,440.260101 1407.470215,447.920502
z"/>
<path fill="#0071BA" opacity="1.000000" stroke="none"
	d="
M581.380249,481.178070
	C579.105957,497.081757 564.660217,511.467194 549.166748,514.082886
	C536.198669,516.272217 524.141174,515.013855 513.292847,507.044647
	C504.046570,500.252228 498.780273,491.244995 496.889740,479.810913
	C494.560944,465.726440 498.781036,453.692169 507.544128,443.205475
	C512.850647,436.855194 520.460693,433.240967 528.445740,431.353027
	C541.014954,428.381287 553.070801,430.051331 563.960022,437.458221
	C575.735168,445.467773 581.919006,456.564636 581.981018,470.898041
	C581.995361,474.208618 581.771057,477.520264 581.380249,481.178070
M516.404846,487.898254
	C521.478455,495.928680 529.024719,500.214661 538.232483,500.890991
	C549.502625,501.718750 558.987488,495.045746 564.067383,483.718872
	C568.259216,474.372467 565.805664,461.047424 559.069702,453.501160
	C546.190979,439.073151 525.640991,442.394348 516.575378,457.094513
	C510.617035,466.756134 510.959991,477.085907 516.404846,487.898254
z"/>
<path fill="#0071BA" opacity="1.000000" stroke="none"
	d="
M1504.000000,498.006897
	C1504.000000,503.475952 1504.000000,508.447021 1504.000000,513.706360
	C1498.970703,513.706360 1494.245117,513.706360 1489.257324,513.706360
	C1489.257324,486.568665 1489.257324,459.516449 1489.257324,432.946747
	C1504.960205,432.946747 1520.638184,431.587158 1535.959351,433.342712
	C1550.264160,434.981750 1554.879639,444.228027 1555.901489,455.083557
	C1557.262329,469.541840 1550.223145,478.704712 1537.403076,482.710632
	C1544.645996,493.053345 1551.756958,503.207520 1559.314941,514.000000
	C1556.778198,514.000000 1555.113525,513.725952 1553.571533,514.044739
	C1543.960205,516.031494 1537.764526,511.888153 1533.155884,503.687622
	C1530.064697,498.187286 1525.821411,493.341919 1522.601807,487.902740
	C1521.150391,485.450928 1519.610474,484.868622 1517.087646,484.959564
	C1512.946289,485.108826 1508.795654,485.000000 1504.000000,485.000000
	C1504.000000,489.319550 1504.000000,493.414215 1504.000000,498.006897
M1538.647339,452.147003
	C1536.446411,450.416077 1534.380249,447.428741 1532.020874,447.175995
	C1522.788330,446.186920 1513.463257,446.061859 1504.000000,445.607391
	C1504.000000,450.899506 1504.000000,455.050018 1504.000000,459.200500
	C1504.000000,463.438354 1504.000000,467.676208 1504.000000,471.999756
	C1511.431152,471.999756 1518.103271,472.358307 1524.722778,471.922211
	C1536.981689,471.114502 1542.692749,463.924622 1538.647339,452.147003
z"/>
<path fill="#0071BA" opacity="1.000000" stroke="none"
	d="
M1253.999023,500.000000
	C1260.135742,500.000000 1265.772705,500.000000 1271.702637,500.000000
	C1271.702637,504.686890 1271.702637,509.078827 1271.702637,513.738159
	C1251.247070,513.738159 1230.862427,513.738159 1210.238525,513.738159
	C1210.238525,486.534058 1210.238525,459.486572 1210.238525,432.219482
	C1230.720947,432.219482 1250.987061,432.219482 1271.626953,432.219482
	C1271.626953,436.200958 1271.626953,440.261200 1271.626953,444.801880
	C1256.735474,444.801880 1241.675293,444.801880 1226.309814,444.801880
	C1226.309814,451.659943 1226.309814,458.052460 1226.309814,464.925232
	C1239.393677,464.925232 1252.454712,464.925232 1265.753784,464.925232
	C1265.753784,469.667328 1265.753784,473.944733 1265.753784,478.701477
	C1252.838257,478.701477 1239.776367,478.701477 1226.359131,478.701477
	C1226.359131,485.890015 1226.359131,492.617188 1226.359131,500.000000
	C1235.319824,500.000000 1244.409546,500.000000 1253.999023,500.000000
z"/>
<path fill="#0071BA" opacity="1.000000" stroke="none"
	d="
M741.942383,514.000000
	C723.825623,514.000000 706.199646,514.000000 688.287842,514.000000
	C688.287842,486.632996 688.287842,459.584503 688.287842,432.267548
	C708.411499,432.267548 728.463318,432.267548 748.757996,432.267548
	C748.757996,436.342621 748.757996,440.288116 748.757996,444.709625
	C733.830933,444.709625 718.769897,444.709625 703.355957,444.709625
	C703.355957,451.563446 703.355957,457.957397 703.355957,464.834412
	C716.633423,464.834412 730.028076,464.834412 743.708130,464.834412
	C743.708130,469.696899 743.708130,474.089478 743.708130,478.964355
	C730.235413,478.964355 716.840210,478.964355 703.227234,478.964355
	C703.227234,486.042511 703.227234,492.650452 703.227234,499.737000
	C718.534912,499.737000 733.927490,499.737000 749.658203,499.737000
	C749.658203,504.597290 749.658203,508.990112 749.658203,514.000000
	C747.298462,514.000000 744.865845,514.000000 741.942383,514.000000
z"/>
<path fill="#0071BA" opacity="1.000000" stroke="none"
	d="
M456.440674,513.542908
	C456.108185,502.380737 456.108185,491.562286 456.108185,480.000000
	C449.624664,480.000000 443.375549,480.000000 437.126434,480.000000
	C430.978119,480.000000 424.829803,480.000000 418.203979,480.000000
	C418.203979,491.258484 418.203979,502.322327 418.203979,513.689575
	C413.005463,513.689575 408.280334,513.689575 403.274841,513.689575
	C403.274841,486.607544 403.274841,459.558411 403.274841,432.254272
	C408.110260,432.254272 412.835266,432.254272 417.864319,432.254272
	C417.864319,443.057831 417.864319,453.665405 417.864319,464.635620
	C430.547882,464.635620 442.938660,464.635620 455.811829,464.635620
	C455.811829,454.059357 455.811829,443.328125 455.811829,432.302307
	C461.010986,432.302307 465.735962,432.302307 470.733154,432.302307
	C470.733154,459.408722 470.733154,486.457825 470.733154,513.886597
	C465.997772,513.886597 461.385498,513.886597 456.440674,513.542908
z"/>
<path fill="#0071BA" opacity="1.000000" stroke="none"
	d="
M1347.219727,450.274048
	C1345.310669,450.539978 1343.308716,451.138763 1342.063477,450.422272
	C1336.235718,447.068878 1330.339600,444.062683 1323.434692,444.050690
	C1321.524292,444.047363 1319.616089,444.681396 1317.701050,444.985199
	C1312.791260,445.763855 1310.562988,449.629120 1310.497070,453.598572
	C1310.432983,457.467041 1313.207642,460.720001 1317.442871,462.007904
	C1324.866943,464.265503 1332.230103,466.727661 1339.678101,468.901001
	C1352.645630,472.684937 1356.644653,481.881012 1355.836304,491.856384
	C1354.796875,504.682892 1347.458740,511.551422 1335.486206,513.983826
	C1321.653320,516.794250 1308.946167,513.952332 1297.313843,506.053192
	C1296.510498,505.507599 1295.631104,505.043823 1294.924072,504.393066
	C1293.847778,503.402191 1292.891235,502.281006 1291.734863,501.057617
	C1294.745850,497.524506 1297.598755,494.176819 1300.321899,490.981323
	C1305.768188,493.940247 1310.614502,497.380371 1316.002686,499.294586
	C1322.615112,501.643677 1329.669922,502.806122 1336.230835,498.373260
	C1341.996582,494.477539 1341.832397,486.809204 1335.410767,483.998199
	C1329.530273,481.424011 1323.141602,480.027283 1317.020386,477.981934
	C1310.155151,475.688019 1303.139893,474.001221 1298.554565,467.279968
	C1291.369995,456.748810 1294.803711,438.673615 1309.375854,433.094086
	C1324.325562,427.370026 1338.383545,430.407257 1351.341675,439.197052
	C1352.150269,439.745544 1352.325439,442.342957 1351.785889,443.527161
	C1350.724609,445.856232 1348.953247,447.861664 1347.219727,450.274048
z"/>
<path fill="#0071BA" opacity="1.000000" stroke="none"
	d="
M861.804382,436.693115
	C873.642395,427.196381 895.934265,428.835968 909.166077,438.672333
	C910.069885,439.344177 910.986267,439.999115 912.175781,440.865051
	C909.596069,444.548096 907.010437,448.239563 904.070801,452.436462
	C900.969360,450.736786 897.985168,448.840515 894.792908,447.408173
	C888.797668,444.718170 882.443420,442.175903 876.056885,445.226562
	C873.194336,446.593903 870.343079,449.667572 869.233765,452.622742
	C867.625122,456.908234 871.082153,459.814362 874.767212,461.187256
	C880.805969,463.437042 887.096497,465.000610 893.222839,467.028687
	C900.189453,469.334839 907.305481,471.514526 911.177917,478.636078
	C918.494385,492.091278 912.850830,507.574768 898.390991,512.776794
	C882.844788,518.369751 862.089172,513.390076 850.169434,501.526855
	C852.515198,498.478302 854.690674,495.237640 857.351013,492.461609
	C858.087952,491.692688 860.734985,491.667175 861.707520,492.383728
	C869.132812,497.854797 877.029846,501.814209 886.547058,500.934937
	C889.063538,500.702454 892.017029,500.311951 893.851990,498.845520
	C896.076050,497.068054 898.726746,494.010742 898.621643,491.620239
	C898.506348,488.996765 896.011414,485.236053 893.592468,484.187408
	C886.215454,480.989502 878.513977,478.274902 870.689758,476.425568
	C850.536438,471.662109 849.055969,446.678711 861.804382,436.693115
z"/>
<path fill="#0071BA" opacity="1.000000" stroke="none"
	d="
M1705.198242,432.643036
	C1710.346069,435.136322 1715.173218,437.368256 1720.863403,439.999207
	C1717.961670,444.259277 1715.657227,447.872009 1713.041138,451.243103
	C1712.633789,451.768005 1710.684570,451.488434 1709.653931,451.071899
	C1704.275391,448.898010 1699.136475,445.743286 1693.567993,444.561768
	C1689.768677,443.755646 1685.023315,444.846344 1681.428833,446.589630
	C1679.239502,447.651367 1676.847046,451.965912 1677.388062,454.098450
	C1678.141846,457.069977 1681.070312,460.514557 1683.927368,461.720428
	C1690.434570,464.467102 1697.547729,465.734314 1704.261353,468.047241
	C1711.973877,470.704315 1719.607056,474.271027 1721.472290,483.139099
	C1724.695190,498.461639 1718.538086,510.482117 1701.609131,513.992493
	C1686.535034,517.118225 1673.310425,512.757446 1661.069702,504.083771
	C1658.964600,502.592133 1658.275269,501.508453 1660.050659,499.445282
	C1662.511719,496.585663 1664.911499,493.673279 1666.832642,491.384888
	C1673.510742,494.522980 1679.441162,497.863708 1685.760864,500.108124
	C1691.034668,501.981110 1696.755127,502.082977 1701.922607,499.000366
	C1705.171753,497.062225 1707.518555,494.685669 1707.085938,490.277435
	C1706.674683,486.086090 1703.876099,484.214630 1700.686279,483.105469
	C1693.213745,480.507233 1685.545288,478.479065 1678.021729,476.019440
	C1665.432251,471.903595 1660.068481,463.454742 1662.104126,449.876678
	C1663.555176,440.196991 1671.947144,432.008301 1683.662109,431.176361
	C1690.670166,430.678741 1697.801758,431.921326 1705.198242,432.643036
z"/>
<path fill="#0071BA" opacity="1.000000" stroke="none"
	d="
M606.056213,446.000000
	C603.255981,446.000000 600.946289,446.000000 598.319336,446.000000
	C598.319336,441.358704 598.319336,436.968384 598.319336,432.286011
	C620.027710,432.286011 641.737183,432.286011 663.723938,432.286011
	C663.723938,436.728699 663.723938,441.119110 663.723938,445.814087
	C655.664001,445.814087 647.724365,445.814087 639.327637,445.814087
	C639.327637,468.481598 639.327637,490.858856 639.327637,513.617188
	C633.832275,513.617188 628.769531,513.617188 623.243530,513.617188
	C623.243530,491.437347 623.243530,469.058380 623.243530,446.000000
	C617.388916,446.000000 611.967834,446.000000 606.056213,446.000000
z"/>
<path fill="#0071BA" opacity="1.000000" stroke="none"
	d="
M1625.997314,432.000000
	C1631.464722,432.000000 1636.432861,432.000000 1641.699097,432.000000
	C1641.699097,436.677826 1641.699097,441.067871 1641.699097,445.938599
	C1633.594238,445.938599 1625.531982,445.938599 1617.026367,445.938599
	C1617.026367,468.784760 1617.026367,491.162506 1617.026367,513.767212
	C1611.639404,513.767212 1606.698364,513.767212 1601.299316,513.767212
	C1601.299316,491.493500 1601.299316,469.115479 1601.299316,446.263550
	C1592.804810,446.263550 1584.741577,446.263550 1576.342285,446.263550
	C1576.342285,441.405853 1576.342285,437.014923 1576.342285,432.000000
	C1592.676514,432.000000 1609.087280,432.000000 1625.997314,432.000000
z"/>
<path fill="#0071BA" opacity="1.000000" stroke="none"
	d="
M789.559326,432.457123
	C789.891846,454.951019 789.891846,477.101257 789.891846,499.732178
	C804.194275,499.732178 818.257324,499.732178 832.658081,499.732178
	C832.658081,504.597809 832.658081,508.991394 832.658081,513.695557
	C813.663696,513.695557 794.607361,513.695557 775.274719,513.695557
	C775.274719,486.601624 775.274719,459.548492 775.274719,432.113434
	C780.000793,432.113434 784.613770,432.113434 789.559326,432.457123
z"/>
<path fill="#0071BA" opacity="1.000000" stroke="none"
	d="
M34.551064,380.934814
	C34.971699,381.622040 34.985359,382.359131 34.999786,383.464783
	C28.840307,384.863892 22.680056,385.894409 16.519804,386.924927
	C16.404703,386.505341 16.289602,386.085754 16.174501,385.666168
	C22.164364,384.105652 28.154228,382.545166 34.551064,380.934814
z"/>
<path fill="#FFFFFF" opacity="1.000000" stroke="none"
	d="
M1043.000000,143.000000
	C1043.000000,124.198540 1043.000000,105.897079 1043.000000,87.000000
	C1056.720459,87.000000 1070.185791,86.411613 1083.570068,87.201317
	C1092.909546,87.752365 1102.514404,89.060547 1111.343140,92.003532
	C1135.629517,100.099251 1149.837402,117.475449 1155.080933,142.535202
	C1158.622559,159.461212 1156.980225,175.624359 1149.390381,191.120102
	C1139.843750,210.610458 1124.113159,222.348892 1103.084106,226.900726
	C1097.045166,228.207886 1090.759766,228.776688 1084.570801,228.909256
	C1070.934204,229.201401 1057.287109,229.000000 1043.000000,229.000000
	C1043.000000,200.336517 1043.000000,171.918259 1043.000000,143.000000
z"/>
<path fill="#FFFFFF" opacity="1.000000" stroke="none"
	d="
M1556.279541,116.675125
	C1565.371826,137.479095 1574.244751,157.959183 1583.278687,178.811035
	C1559.735229,178.811035 1536.781494,178.811035 1513.170898,178.811035
	C1524.726807,151.839493 1536.215698,125.024292 1548.101440,97.282677
	C1551.049194,104.345375 1553.554565,110.348297 1556.279541,116.675125
z"/>
<path fill="#FFFFFF" opacity="1.000000" stroke="none"
	d="
M1145.977539,472.000000
	C1141.825195,471.986908 1138.165894,471.979797 1134.506836,471.949890
	C1134.199829,471.947357 1133.894043,471.791290 1133.295410,471.625641
	C1133.295410,463.317322 1133.295410,454.933960 1133.295410,446.019745
	C1141.763306,446.019745 1150.207642,445.682434 1158.608398,446.142242
	C1163.917114,446.432800 1168.645630,452.242218 1168.998901,457.534027
	C1169.411377,463.712738 1166.567871,468.375519 1160.398682,470.028748
	C1155.902832,471.233551 1151.123657,471.381073 1145.977539,472.000000
z"/>
<path fill="#FFFFFF" opacity="1.000000" stroke="none"
	d="
M993.543152,486.957642
	C996.397949,483.597107 998.975098,480.531128 1001.601624,477.406372
	C1008.309998,484.092712 1014.059937,489.823761 1019.807739,495.556854
	C1013.479004,501.677673 1005.438232,503.835388 999.474792,500.742584
	C994.343018,498.081055 991.860840,493.261383 993.543152,486.957642
z"/>
<path fill="#FFFFFF" opacity="1.000000" stroke="none"
	d="
M1004.190247,458.502197
	C1000.880615,450.362457 1002.974365,444.294373 1009.258118,442.996307
	C1014.175720,441.980438 1017.556824,443.607971 1019.379333,447.868195
	C1020.968872,451.583801 1019.456848,456.581268 1015.891113,458.997223
	C1013.752014,460.446594 1011.494690,461.721497 1007.903320,464.222565
	C1006.719910,462.431152 1005.536499,460.639771 1004.190247,458.502197
z"/>
<path fill="#FFFFFF" opacity="1.000000" stroke="none"
	d="
M1407.769287,447.675537
	C1420.875610,440.260101 1434.644287,445.793121 1441.172241,454.899872
	C1449.028809,465.859955 1449.574219,479.671051 1441.177612,490.337585
	C1434.953247,498.244415 1426.713867,502.190796 1416.856934,500.762817
	C1404.933594,499.035461 1397.349854,491.448730 1394.117676,480.007416
	C1390.509277,467.234741 1396.705933,452.938599 1407.769287,447.675537
z"/>
<path fill="#FFFFFF" opacity="1.000000" stroke="none"
	d="
M516.221558,487.562073
	C510.959991,477.085907 510.617035,466.756134 516.575378,457.094513
	C525.640991,442.394348 546.190979,439.073151 559.069702,453.501160
	C565.805664,461.047424 568.259216,474.372467 564.067383,483.718872
	C558.987488,495.045746 549.502625,501.718750 538.232483,500.890991
	C529.024719,500.214661 521.478455,495.928680 516.221558,487.562073
z"/>
<path fill="#FFFFFF" opacity="1.000000" stroke="none"
	d="
M1538.815674,452.520752
	C1542.692749,463.924622 1536.981689,471.114502 1524.722778,471.922211
	C1518.103271,472.358307 1511.431152,471.999756 1504.000000,471.999756
	C1504.000000,467.676208 1504.000000,463.438354 1504.000000,459.200500
	C1504.000000,455.050018 1504.000000,450.899506 1504.000000,445.607391
	C1513.463257,446.061859 1522.788330,446.186920 1532.020874,447.175995
	C1534.380249,447.428741 1536.446411,450.416077 1538.815674,452.520752
z"/>
</svg>
