<?xml version="1.0" encoding="UTF-8"?>
<svg id="Layer_1" data-name="Layer 1" xmlns="http://www.w3.org/2000/svg" viewBox="0 0 1920 646">
  <defs>
    <style>
      .cls-1 {
        fill: #000835;
      }
    </style>
  </defs>
  <path class="cls-1" d="M1648.3,304.21c-27.09-9.38-39.07-15.63-39.07-29.69,0-8.86,5.73-22.4,32.82-22.4,25.52,0,52.61,11.46,52.61,11.46v-39.07c-11.46-4.69-31.78-9.37-54.7-9.37-39.07,0-76.57,20.83-76.57,61.99s37.51,52.61,63.04,60.95c23.96,7.81,40.11,15.63,40.11,31.25,0,13.55-9.38,23.96-40.11,23.96-26.05,0-57.31-10.41-57.31-10.41v39.06s30.21,8.34,59.39,8.34c38.55,0,83.87-13.55,83.87-64.08,0-34.38-28.13-49.49-64.07-61.99Z"/>
  <path class="cls-1" d="M666.38,427.66v-212.53h-58.86l-57.82,158.36-57.82-158.36h-58.86v212.53h40.11v-160.43l58.34,160.43h33.86l60.95-160.43v160.43h40.11Z"/>
  <path class="cls-1" d="M807.02,215.14h-77.61v41.15c36.99-1.56,47.4-2.08,63.55-2.08,25.52,0,40.63,9.37,40.63,34.38v16.15h-40.63c-68.24,0-89.07,27.61-89.07,63.55,0,46.36,34.38,61.99,68.76,61.99s55.22-16.15,61.99-20.84v18.23h44.8v-145.33c0-48.97-26.56-67.19-72.41-67.19ZM833.59,382.35c-11.46,4.17-32.3,11.46-52.09,11.46-18.75,0-33.86-8.33-33.86-28.65,0-18.24,11.46-27.61,36.46-28.65l49.49-2.09v47.93Z"/>
  <path class="cls-1" d="M1198.23,251.6h107.3v-36.46h-153.15v212.53h153.15v-36.46h-107.3v-51.58h91.15v-35.94h-91.15v-52.09Z"/>
  <path class="cls-1" d="M1526.41,427.66v-212.53h-46.88v162c-11.46,5.21-27.61,13.55-51.05,13.55-29.17,0-38.02-16.15-38.02-50.53v-125.02h-46.89v130.75c0,54.7,17.71,84.39,73.45,84.39,31.26,0,46.89-11.46,63.55-20.84v18.23h45.84Z"/>
  <path class="cls-1" d="M1010.18,215.14h-84.38v212.53h84.38c71.37,0,107.31-32.82,107.31-108.34,0-66.16-39.07-104.18-107.31-104.18ZM1008.09,390.68h-35.42v-138.56h35.42c35.43,0,61.47,17.19,61.47,67.2s-17.19,71.36-61.47,71.36Z"/>
  <path class="cls-1" d="M309.03,215.14h-77.62v41.15c36.98-1.56,47.4-2.08,63.55-2.08,25.52,0,40.63,9.37,40.63,34.38v16.15h-40.63c-68.24,0-89.08,27.61-89.08,63.55,0,46.36,34.38,61.99,68.76,61.99s55.22-16.15,61.99-20.84v18.23h44.8v-145.33c0-48.97-26.57-67.19-72.41-67.19ZM335.59,382.35c-11.46,4.17-32.3,11.46-52.09,11.46-18.75,0-33.86-8.33-33.86-28.65,0-18.24,11.46-27.61,36.46-28.65l49.49-2.09v47.93Z"/>
</svg>
