<svg version="1.1" id="Layer_1" xmlns="http://www.w3.org/2000/svg" xmlns:xlink="http://www.w3.org/1999/xlink" x="0px" y="0px"
	 width="100%" viewBox="0 0 912 472" enable-background="new 0 0 912 472" xml:space="preserve">
<path fill="#FFFFFF" opacity="1.000000" stroke="none" 
	d="
M603.000000,473.000000 
	C402.000031,473.000000 201.500076,473.000000 1.000081,473.000000 
	C1.000054,315.666718 1.000054,158.333466 1.000027,1.000144 
	C304.999878,1.000096 608.999756,1.000096 912.999756,1.000048 
	C912.999817,158.333191 912.999817,315.666382 912.999878,472.999786 
	C809.833313,473.000000 706.666687,473.000000 603.000000,473.000000 
M567.500000,8.000000 
	C381.081818,8.000000 194.663620,8.000000 8.293770,8.000000 
	C8.293770,115.639191 8.293770,222.703186 8.293770,329.712524 
	C296.976501,329.712524 585.365356,329.712524 873.706177,329.712524 
	C873.706177,222.360764 873.706177,115.296761 873.706177,8.000000 
	C771.775024,8.000000 670.137512,8.000000 567.500000,8.000000 
M167.004730,416.684204 
	C163.845718,405.643677 157.166321,397.500244 146.870316,392.398224 
	C137.949402,387.977570 128.417648,386.991974 118.910461,389.203125 
	C110.664162,391.120972 103.474419,395.395172 97.936089,402.197083 
	C90.863190,410.883698 88.173538,420.773376 89.006905,431.771362 
	C89.802757,442.274200 94.093163,451.388641 101.891998,458.188965 
	C115.468025,470.026794 136.775604,471.739868 152.643738,460.226898 
	C165.628174,450.806183 171.387039,432.356750 167.004730,416.684204 
M185.000000,408.501831 
	C185.000000,423.493774 185.000000,438.485748 185.000000,453.477692 
	C185.000000,467.697723 184.998276,467.658936 199.159821,467.028870 
	C202.434830,466.883148 204.239288,465.979279 204.077271,462.147675 
	C203.798203,455.547882 203.999985,448.927734 203.999985,442.182007 
	C208.240234,442.182007 211.997070,442.182007 215.591904,442.182007 
	C219.124298,449.690338 222.538513,456.996246 226.018829,464.270538 
	C226.371414,465.007507 227.031601,465.979309 227.702667,466.122620 
	C234.212219,467.512604 240.693420,467.799927 247.643555,465.439087 
	C242.754105,455.558594 238.191635,446.338837 233.564926,436.989288 
	C239.862381,433.106964 243.424927,427.770050 244.604324,420.906952 
	C247.205994,405.767578 238.968765,391.976044 223.503342,390.253540 
	C211.985840,388.970734 200.210312,390.054840 188.550644,389.963898 
	C185.551178,389.940521 184.904709,391.414124 184.969193,394.010895 
	C185.080841,398.505707 185.000076,403.005280 185.000000,408.501831 
M396.000000,459.368469 
	C396.000000,451.283295 396.000000,443.198090 396.000000,435.355713 
	C406.429382,435.355713 416.166992,435.355713 425.862335,435.355713 
	C425.928436,436.038818 425.987366,436.366791 425.987854,436.694824 
	C425.996094,442.526611 425.999115,448.358368 425.999634,454.190155 
	C426.000824,467.213928 426.000000,467.083923 439.247467,467.082794 
	C443.001373,467.082458 444.102264,465.879333 444.070984,462.190308 
	C443.915436,443.863129 444.000000,425.533875 444.000000,407.205353 
	C444.000000,401.588928 444.000000,395.972534 444.000000,390.238281 
	C437.810730,390.238281 432.076050,390.238281 425.922546,390.238281 
	C425.922546,399.542267 425.922546,408.616364 425.922546,417.739441 
	C415.764740,417.739441 406.030548,417.739441 395.878357,417.739441 
	C395.878357,408.412140 395.878357,399.338013 395.878357,390.000000 
	C390.989807,390.000000 386.501831,390.235535 382.050995,389.929749 
	C378.081024,389.657043 376.878601,391.020630 376.915466,395.016235 
	C377.100067,415.009277 377.031067,435.005035 376.988953,454.999695 
	C376.961456,468.055878 376.016327,467.062653 389.110748,467.005188 
	C395.991180,466.975006 395.991272,466.999146 396.000000,459.368469 
M470.000000,429.500000 
	C470.000031,440.498322 470.032043,451.496765 469.976318,462.494812 
	C469.963257,465.070831 470.076263,467.061707 473.558105,467.041382 
	C489.888397,466.946014 506.220062,467.051605 522.549194,466.886292 
	C523.703430,466.874634 525.763062,465.323486 525.831360,464.375153 
	C526.171753,459.645752 525.986938,454.878571 525.986938,449.720673 
	C512.915833,449.720673 500.508453,449.720673 488.364197,449.720673 
	C488.364197,444.552307 488.364197,439.810913 488.364197,434.848145 
	C498.013031,434.848145 507.299042,434.848145 517.000000,434.848145 
	C517.000000,430.993866 516.788574,427.356201 517.058044,423.754486 
	C517.340637,419.977234 515.879456,418.821930 512.185608,418.929199 
	C504.244049,419.159790 496.291168,419.000000 488.243835,419.000000 
	C488.243835,414.797272 488.243835,411.061920 488.243835,406.999969 
	C499.115021,406.999969 509.745605,407.003693 520.376221,406.996826 
	C522.525024,406.995453 524.983521,407.418701 524.993591,404.060913 
	C525.007446,399.455566 524.997131,394.850159 524.997131,390.288818 
	C506.375061,390.288818 488.307556,390.288818 470.000000,390.288818 
	C470.000000,403.217529 470.000000,415.858765 470.000000,429.500000 
M778.473755,433.979187 
	C774.326782,423.357178 770.154419,412.744965 766.046204,402.107971 
	C764.539062,398.205597 764.268799,392.507904 761.476257,390.763306 
	C758.209412,388.722382 752.804626,390.103333 748.327332,390.000549 
	C748.160828,389.996735 747.937866,389.929626 747.836243,390.010925 
	C746.537354,391.049438 744.608337,391.850159 744.066101,393.203033 
	C734.572266,416.888733 725.248535,440.642670 715.920166,464.299988 
	C718.497192,466.807251 727.314941,468.651093 732.433411,466.733429 
	C734.491577,465.962341 736.219421,462.535461 736.815430,460.014191 
	C737.965637,455.148407 740.371033,453.514374 745.310974,453.892090 
	C751.271423,454.347870 757.305054,454.222595 763.283752,453.907654 
	C766.345276,453.746399 767.847839,454.982971 768.843018,457.524292 
	C772.554688,467.001648 772.558350,467.000183 782.579468,466.999969 
	C783.745239,466.999939 784.913452,466.950226 786.076233,467.008972 
	C789.938721,467.204041 790.769287,465.270630 789.526794,462.020355 
	C786.031372,452.877136 782.483215,443.754120 778.473755,433.979187 
M604.526001,434.000580 
	C606.048096,434.518951 607.590515,434.985168 609.087219,435.568665 
	C611.026978,436.324860 612.905457,437.240814 614.854614,437.969574 
	C618.461121,439.318085 620.770935,441.541656 619.676270,445.668060 
	C618.835632,448.836365 612.468262,451.755188 608.642029,450.912445 
	C602.083862,449.467987 595.752075,447.549286 591.018799,441.202850 
	C587.874146,444.093079 585.078979,446.795898 582.137207,449.328491 
	C579.184265,451.870667 579.366638,454.022217 582.135803,456.706329 
	C592.439575,466.693573 604.622070,469.878998 618.468262,466.969513 
	C629.478882,464.655884 636.772339,459.683167 638.825439,446.706573 
	C640.191589,438.071991 637.378296,429.068176 625.908386,424.019592 
	C618.862244,420.918213 611.615234,418.264984 604.631958,415.035309 
	C603.099304,414.326477 601.103394,411.665253 601.441528,410.541229 
	C601.981506,408.746674 604.197205,406.376312 605.883789,406.222961 
	C609.866882,405.860840 614.062439,406.209442 617.968506,407.132172 
	C621.192322,407.893768 624.585754,411.586884 627.068604,410.911133 
	C630.169006,410.067322 632.412659,406.077240 635.028198,403.447479 
	C635.262634,403.211792 635.544067,403.016510 635.749023,402.758942 
	C637.586731,400.449432 637.613708,398.964050 634.808838,396.858673 
	C624.408142,389.051788 612.874451,386.398743 600.388794,389.130096 
	C590.441956,391.306091 583.610901,397.395935 582.498230,408.098145 
	C581.707825,415.700653 583.616394,422.612427 590.543335,426.952850 
	C594.747925,429.587402 599.315308,431.642975 604.526001,434.000580 
M69.000000,428.585907 
	C68.933479,427.144501 68.866951,425.703125 68.781830,423.858826 
	C60.058937,423.858826 51.648830,423.858826 43.295540,423.858826 
	C43.295540,418.028564 43.295540,412.626038 43.295540,406.999939 
	C53.233807,406.999939 62.880596,407.111115 72.519440,406.884338 
	C74.026772,406.848877 76.687279,405.390717 76.783234,404.394684 
	C77.237236,399.682709 76.985847,394.902740 76.985847,390.000214 
	C60.187168,390.000214 44.033466,389.926941 27.883497,390.137939 
	C26.576670,390.155029 24.176708,392.110809 24.166677,393.183319 
	C23.950016,416.345917 23.924160,439.511871 24.185083,462.673523 
	C24.201498,464.130493 26.674166,466.461884 28.331890,466.805573 
	C31.527637,467.468140 34.975441,466.785339 38.286362,467.056183 
	C42.115261,467.369324 43.183651,465.788696 43.068211,462.143799 
	C42.837952,454.873749 42.999981,447.591309 42.999981,440.000000 
	C48.456196,440.000000 53.422909,440.000000 58.389618,440.000000 
	C69.000000,440.000000 69.000000,440.000000 69.000000,428.585907 
M816.956970,400.614563 
	C815.165527,397.165161 813.374084,393.715729 811.444519,390.000366 
	C806.013123,390.000366 800.355408,390.074829 794.700867,389.974396 
	C790.896057,389.906769 790.436829,391.478180 792.132935,394.467407 
	C796.987610,403.023590 801.471558,411.814148 806.748596,420.100342 
	C812.803955,429.608887 818.146484,439.099274 816.014954,450.969299 
	C815.899048,451.614868 815.998901,452.299408 816.000183,452.965790 
	C816.032104,469.137054 814.255188,466.749420 830.570374,467.064148 
	C834.201050,467.134155 835.142578,465.740143 835.058289,462.366364 
	C834.871094,454.874146 834.958801,447.373535 835.036560,439.877411 
	C835.051208,438.467957 835.201050,436.874146 835.863647,435.686127 
	C841.909790,424.844055 848.122803,414.095215 854.198975,403.269684 
	C856.490234,399.187439 858.550720,394.975616 861.145569,390.000000 
	C854.514343,390.000000 849.351685,390.239960 844.224915,389.914825 
	C840.863464,389.701660 839.305725,391.011353 837.936401,393.921234 
	C834.111816,402.048309 829.947876,410.015656 825.763306,418.354126 
	C822.651611,412.297089 819.846924,406.837646 816.956970,400.614563 
M319.407745,465.906464 
	C323.781952,466.270935 328.164124,466.560455 332.527893,467.023315 
	C336.103821,467.402588 337.089233,465.837280 337.061066,462.415436 
	C336.925293,445.937500 336.999969,429.457886 337.000000,412.978851 
	C337.000031,411.052460 337.000000,409.126038 337.000000,406.795593 
	C344.342712,406.795593 351.081421,406.795593 357.684021,406.795593 
	C357.684021,400.977325 357.684021,395.577789 357.684021,390.000000 
	C341.238892,390.000000 325.109039,390.000000 308.979187,390.000000 
	C296.863770,390.000000 297.034729,390.001831 296.904907,402.054230 
	C296.860992,406.132874 298.239563,407.269135 302.111176,407.072327 
	C307.682404,406.789124 313.278717,407.000000 319.035950,407.000000 
	C319.035950,426.791229 319.035950,445.921143 319.407745,465.906464 
M660.543091,390.000000 
	C657.771240,390.000000 654.999390,390.000000 652.297729,390.000000 
	C652.297729,395.976135 652.297729,401.378632 652.297729,407.197693 
	C659.332642,407.197693 666.077026,407.197693 673.000000,407.197693 
	C673.000000,423.267365 673.000000,438.914459 673.000000,454.561554 
	C673.000000,467.066620 673.004333,466.854462 685.620239,467.110962 
	C690.257446,467.205292 691.136169,465.495270 691.084656,461.313782 
	C690.879211,444.651672 690.994141,427.985565 691.010498,411.320923 
	C691.011902,409.901215 691.161865,408.481628 691.246399,407.000000 
	C694.889648,407.000000 698.052917,407.000000 701.216187,407.000000 
	C713.110229,407.000000 712.960632,406.998444 713.085449,395.092255 
	C713.126221,391.201324 712.085571,389.855347 708.027649,389.912231 
	C692.532593,390.129486 677.032654,390.000000 660.543091,390.000000 
M886.000000,17.639301 
	C886.017090,24.989132 890.197632,29.742836 896.870178,29.999866 
	C902.889343,30.231731 908.487854,26.110386 908.989624,20.997242 
	C909.855469,12.175065 905.993164,7.725357 900.843384,7.120678 
	C891.534668,6.027672 887.708252,8.097107 886.000000,17.639301 
M875.000000,399.479431 
	C875.000000,397.495148 875.000000,395.510864 875.000000,393.360809 
	C876.712585,393.051666 878.234497,392.776947 880.085876,392.442780 
	C880.085876,396.599731 880.085876,400.725159 880.085876,405.217804 
	C883.879822,403.870422 887.277405,402.663788 889.522400,401.866486 
	C891.370117,403.280518 892.714539,404.309326 894.695312,405.825165 
	C894.695312,399.580505 894.695312,394.844818 894.695312,390.763092 
	C888.841980,386.839172 889.880127,394.571808 887.180359,395.011475 
	C885.706665,393.047577 884.674072,390.329254 883.405945,390.214539 
	C878.000916,389.725555 872.526123,390.006592 867.076843,390.006592 
	C866.928284,390.492462 866.779785,390.978302 866.631226,391.464172 
	C868.007935,392.214844 869.384644,392.965515 871.045532,393.871124 
	C871.045532,397.243774 871.045532,400.870514 871.045532,404.932159 
	C872.477600,404.867249 873.644531,404.814392 875.000000,404.752960 
	C875.000000,403.058319 875.000000,401.740356 875.000000,399.479431 
z"/>
<path fill="#1E1E1E" opacity="1.000000" stroke="none" 
	d="
M568.000000,8.000000 
	C670.137512,8.000000 771.775024,8.000000 873.706177,8.000000 
	C873.706177,115.296761 873.706177,222.360764 873.706177,329.712524 
	C585.365356,329.712524 296.976501,329.712524 8.293770,329.712524 
	C8.293770,222.703186 8.293770,115.639191 8.293770,8.000000 
	C194.663620,8.000000 381.081818,8.000000 568.000000,8.000000 
M464.500000,24.000000 
	C317.746979,24.000000 170.993958,24.000000 24.296288,24.000000 
	C24.296288,120.977142 24.296288,217.374756 24.296288,313.710327 
	C302.314636,313.710327 580.036621,313.710327 857.703613,313.710327 
	C857.703613,217.022797 857.703613,120.625191 857.703613,24.000000 
	C726.771606,24.000000 596.135803,24.000000 464.500000,24.000000 
z"/>
<path fill="#1E1E1E" opacity="1.000000" stroke="none" 
	d="
M167.042267,417.109375 
	C171.387039,432.356750 165.628174,450.806183 152.643738,460.226898 
	C136.775604,471.739868 115.468025,470.026794 101.891998,458.188965 
	C94.093163,451.388641 89.802757,442.274200 89.006905,431.771362 
	C88.173538,420.773376 90.863190,410.883698 97.936089,402.197083 
	C103.474419,395.395172 110.664162,391.120972 118.910461,389.203125 
	C128.417648,386.991974 137.949402,387.977570 146.870316,392.398224 
	C157.166321,397.500244 163.845718,405.643677 167.042267,417.109375 
M149.058273,431.599854 
	C152.559189,423.606720 143.970093,409.932983 134.370453,406.928497 
	C120.841980,402.694397 107.283508,415.811279 107.713387,427.988831 
	C108.114464,439.350464 116.500557,448.522705 126.007133,449.984009 
	C135.985886,451.517914 147.837952,443.381622 149.058273,431.599854 
z"/>
<path fill="#1E1E1E" opacity="1.000000" stroke="none" 
	d="
M185.000000,408.002350 
	C185.000076,403.005280 185.080841,398.505707 184.969193,394.010895 
	C184.904709,391.414124 185.551178,389.940521 188.550644,389.963898 
	C200.210312,390.054840 211.985840,388.970734 223.503342,390.253540 
	C238.968765,391.976044 247.205994,405.767578 244.604324,420.906952 
	C243.424927,427.770050 239.862381,433.106964 233.564926,436.989288 
	C238.191635,446.338837 242.754105,455.558594 247.643555,465.439087 
	C240.693420,467.799927 234.212219,467.512604 227.702667,466.122620 
	C227.031601,465.979309 226.371414,465.007507 226.018829,464.270538 
	C222.538513,456.996246 219.124298,449.690338 215.591904,442.182007 
	C211.997070,442.182007 208.240234,442.182007 203.999985,442.182007 
	C203.999985,448.927734 203.798203,455.547882 204.077271,462.147675 
	C204.239288,465.979279 202.434830,466.883148 199.159821,467.028870 
	C184.998276,467.658936 185.000000,467.697723 185.000000,453.477692 
	C185.000000,438.485748 185.000000,423.493774 185.000000,408.002350 
M220.070679,424.995392 
	C224.704956,422.484985 226.698257,418.557739 225.954880,413.396637 
	C225.328674,409.049042 221.735764,406.928925 218.228409,406.302917 
	C213.650421,405.485901 208.816498,406.102936 204.327911,406.102936 
	C204.327911,413.092194 204.327911,419.475250 204.327911,426.369659 
	C209.545166,425.965240 214.403900,425.588562 220.070679,424.995392 
z"/>
<path fill="#1E1E1E" opacity="1.000000" stroke="none" 
	d="
M396.000000,459.848633 
	C395.991272,466.999146 395.991180,466.975006 389.110748,467.005188 
	C376.016327,467.062653 376.961456,468.055878 376.988953,454.999695 
	C377.031067,435.005035 377.100067,415.009277 376.915466,395.016235 
	C376.878601,391.020630 378.081024,389.657043 382.050995,389.929749 
	C386.501831,390.235535 390.989807,390.000000 395.878357,390.000000 
	C395.878357,399.338013 395.878357,408.412140 395.878357,417.739441 
	C406.030548,417.739441 415.764740,417.739441 425.922546,417.739441 
	C425.922546,408.616364 425.922546,399.542267 425.922546,390.238281 
	C432.076050,390.238281 437.810730,390.238281 444.000000,390.238281 
	C444.000000,395.972534 444.000000,401.588928 444.000000,407.205353 
	C444.000000,425.533875 443.915436,443.863129 444.070984,462.190308 
	C444.102264,465.879333 443.001373,467.082458 439.247467,467.082794 
	C426.000000,467.083923 426.000824,467.213928 425.999634,454.190155 
	C425.999115,448.358368 425.996094,442.526611 425.987854,436.694824 
	C425.987366,436.366791 425.928436,436.038818 425.862335,435.355713 
	C416.166992,435.355713 406.429382,435.355713 396.000000,435.355713 
	C396.000000,443.198090 396.000000,451.283295 396.000000,459.848633 
z"/>
<path fill="#1E1E1E" opacity="1.000000" stroke="none" 
	d="
M470.000000,429.000000 
	C470.000000,415.858765 470.000000,403.217529 470.000000,390.288818 
	C488.307556,390.288818 506.375061,390.288818 524.997131,390.288818 
	C524.997131,394.850159 525.007446,399.455566 524.993591,404.060913 
	C524.983521,407.418701 522.525024,406.995453 520.376221,406.996826 
	C509.745605,407.003693 499.115021,406.999969 488.243835,406.999969 
	C488.243835,411.061920 488.243835,414.797272 488.243835,419.000000 
	C496.291168,419.000000 504.244049,419.159790 512.185608,418.929199 
	C515.879456,418.821930 517.340637,419.977234 517.058044,423.754486 
	C516.788574,427.356201 517.000000,430.993866 517.000000,434.848145 
	C507.299042,434.848145 498.013031,434.848145 488.364197,434.848145 
	C488.364197,439.810913 488.364197,444.552307 488.364197,449.720673 
	C500.508453,449.720673 512.915833,449.720673 525.986938,449.720673 
	C525.986938,454.878571 526.171753,459.645752 525.831360,464.375153 
	C525.763062,465.323486 523.703430,466.874634 522.549194,466.886292 
	C506.220062,467.051605 489.888397,466.946014 473.558105,467.041382 
	C470.076263,467.061707 469.963257,465.070831 469.976318,462.494812 
	C470.032043,451.496765 470.000031,440.498322 470.000000,429.000000 
z"/>
<path fill="#1E1E1E" opacity="1.000000" stroke="none" 
	d="
M778.714844,434.301147 
	C782.483215,443.754120 786.031372,452.877136 789.526794,462.020355 
	C790.769287,465.270630 789.938721,467.204041 786.076233,467.008972 
	C784.913452,466.950226 783.745239,466.999939 782.579468,466.999969 
	C772.558350,467.000183 772.554688,467.001648 768.843018,457.524292 
	C767.847839,454.982971 766.345276,453.746399 763.283752,453.907654 
	C757.305054,454.222595 751.271423,454.347870 745.310974,453.892090 
	C740.371033,453.514374 737.965637,455.148407 736.815430,460.014191 
	C736.219421,462.535461 734.491577,465.962341 732.433411,466.733429 
	C727.314941,468.651093 718.497192,466.807251 715.920166,464.299988 
	C725.248535,440.642670 734.572266,416.888733 744.066101,393.203033 
	C744.608337,391.850159 746.537354,391.049438 747.836243,390.010925 
	C747.937866,389.929626 748.160828,389.996735 748.327332,390.000549 
	C752.804626,390.103333 758.209412,388.722382 761.476257,390.763306 
	C764.268799,392.507904 764.539062,398.205597 766.046204,402.107971 
	C770.154419,412.744965 774.326782,423.357178 778.714844,434.301147 
M759.966858,432.720306 
	C757.879028,426.903564 755.791199,421.086853 753.703430,415.270142 
	C753.331055,415.280457 752.958618,415.290741 752.586243,415.301056 
	C749.999023,422.714386 747.411804,430.127716 744.725098,437.826172 
	C750.520691,437.826172 755.624939,437.826172 761.285828,437.826172 
	C760.832581,436.211945 760.459412,434.882904 759.966858,432.720306 
z"/>
<path fill="#1E1E1E" opacity="1.000000" stroke="none" 
	d="
M604.122803,433.979614 
	C599.315308,431.642975 594.747925,429.587402 590.543335,426.952850 
	C583.616394,422.612427 581.707825,415.700653 582.498230,408.098145 
	C583.610901,397.395935 590.441956,391.306091 600.388794,389.130096 
	C612.874451,386.398743 624.408142,389.051788 634.808838,396.858673 
	C637.613708,398.964050 637.586731,400.449432 635.749023,402.758942 
	C635.544067,403.016510 635.262634,403.211792 635.028198,403.447479 
	C632.412659,406.077240 630.169006,410.067322 627.068604,410.911133 
	C624.585754,411.586884 621.192322,407.893768 617.968506,407.132172 
	C614.062439,406.209442 609.866882,405.860840 605.883789,406.222961 
	C604.197205,406.376312 601.981506,408.746674 601.441528,410.541229 
	C601.103394,411.665253 603.099304,414.326477 604.631958,415.035309 
	C611.615234,418.264984 618.862244,420.918213 625.908386,424.019592 
	C637.378296,429.068176 640.191589,438.071991 638.825439,446.706573 
	C636.772339,459.683167 629.478882,464.655884 618.468262,466.969513 
	C604.622070,469.878998 592.439575,466.693573 582.135803,456.706329 
	C579.366638,454.022217 579.184265,451.870667 582.137207,449.328491 
	C585.078979,446.795898 587.874146,444.093079 591.018799,441.202850 
	C595.752075,447.549286 602.083862,449.467987 608.642029,450.912445 
	C612.468262,451.755188 618.835632,448.836365 619.676270,445.668060 
	C620.770935,441.541656 618.461121,439.318085 614.854614,437.969574 
	C612.905457,437.240814 611.026978,436.324860 609.087219,435.568665 
	C607.590515,434.985168 606.048096,434.518951 604.122803,433.979614 
z"/>
<path fill="#1E1E1E" opacity="1.000000" stroke="none" 
	d="
M69.000000,429.067139 
	C69.000000,440.000000 69.000000,440.000000 58.389618,440.000000 
	C53.422909,440.000000 48.456196,440.000000 42.999981,440.000000 
	C42.999981,447.591309 42.837952,454.873749 43.068211,462.143799 
	C43.183651,465.788696 42.115261,467.369324 38.286362,467.056183 
	C34.975441,466.785339 31.527637,467.468140 28.331890,466.805573 
	C26.674166,466.461884 24.201498,464.130493 24.185083,462.673523 
	C23.924160,439.511871 23.950016,416.345917 24.166677,393.183319 
	C24.176708,392.110809 26.576670,390.155029 27.883497,390.137939 
	C44.033466,389.926941 60.187168,390.000214 76.985847,390.000214 
	C76.985847,394.902740 77.237236,399.682709 76.783234,404.394684 
	C76.687279,405.390717 74.026772,406.848877 72.519440,406.884338 
	C62.880596,407.111115 53.233807,406.999939 43.295540,406.999939 
	C43.295540,412.626038 43.295540,418.028564 43.295540,423.858826 
	C51.648830,423.858826 60.058937,423.858826 68.781830,423.858826 
	C68.866951,425.703125 68.933479,427.144501 69.000000,429.067139 
z"/>
<path fill="#1E1E1E" opacity="1.000000" stroke="none" 
	d="
M816.999634,400.996399 
	C819.846924,406.837646 822.651611,412.297089 825.763306,418.354126 
	C829.947876,410.015656 834.111816,402.048309 837.936401,393.921234 
	C839.305725,391.011353 840.863464,389.701660 844.224915,389.914825 
	C849.351685,390.239960 854.514343,390.000000 861.145569,390.000000 
	C858.550720,394.975616 856.490234,399.187439 854.198975,403.269684 
	C848.122803,414.095215 841.909790,424.844055 835.863647,435.686127 
	C835.201050,436.874146 835.051208,438.467957 835.036560,439.877411 
	C834.958801,447.373535 834.871094,454.874146 835.058289,462.366364 
	C835.142578,465.740143 834.201050,467.134155 830.570374,467.064148 
	C814.255188,466.749420 816.032104,469.137054 816.000183,452.965790 
	C815.998901,452.299408 815.899048,451.614868 816.014954,450.969299 
	C818.146484,439.099274 812.803955,429.608887 806.748596,420.100342 
	C801.471558,411.814148 796.987610,403.023590 792.132935,394.467407 
	C790.436829,391.478180 790.896057,389.906769 794.700867,389.974396 
	C800.355408,390.074829 806.013123,390.000366 811.444519,390.000366 
	C813.374084,393.715729 815.165527,397.165161 816.999634,400.996399 
z"/>
<path fill="#1E1E1E" opacity="1.000000" stroke="none" 
	d="
M319.221863,465.478760 
	C319.035950,445.921143 319.035950,426.791229 319.035950,407.000000 
	C313.278717,407.000000 307.682404,406.789124 302.111176,407.072327 
	C298.239563,407.269135 296.860992,406.132874 296.904907,402.054230 
	C297.034729,390.001831 296.863770,390.000000 308.979187,390.000000 
	C325.109039,390.000000 341.238892,390.000000 357.684021,390.000000 
	C357.684021,395.577789 357.684021,400.977325 357.684021,406.795593 
	C351.081421,406.795593 344.342712,406.795593 337.000000,406.795593 
	C337.000000,409.126038 337.000031,411.052460 337.000000,412.978851 
	C336.999969,429.457886 336.925293,445.937500 337.061066,462.415436 
	C337.089233,465.837280 336.103821,467.402588 332.527893,467.023315 
	C328.164124,466.560455 323.781952,466.270935 319.221863,465.478760 
z"/>
<path fill="#1E1E1E" opacity="1.000000" stroke="none" 
	d="
M661.038818,390.000000 
	C677.032654,390.000000 692.532593,390.129486 708.027649,389.912231 
	C712.085571,389.855347 713.126221,391.201324 713.085449,395.092255 
	C712.960632,406.998444 713.110229,407.000000 701.216187,407.000000 
	C698.052917,407.000000 694.889648,407.000000 691.246399,407.000000 
	C691.161865,408.481628 691.011902,409.901215 691.010498,411.320923 
	C690.994141,427.985565 690.879211,444.651672 691.084656,461.313782 
	C691.136169,465.495270 690.257446,467.205292 685.620239,467.110962 
	C673.004333,466.854462 673.000000,467.066620 673.000000,454.561554 
	C673.000000,438.914459 673.000000,423.267365 673.000000,407.197693 
	C666.077026,407.197693 659.332642,407.197693 652.297729,407.197693 
	C652.297729,401.378632 652.297729,395.976135 652.297729,390.000000 
	C654.999390,390.000000 657.771240,390.000000 661.038818,390.000000 
z"/>
<path fill="#1E1E1E" opacity="1.000000" stroke="none" 
	d="
M886.000000,17.209557 
	C887.708252,8.097107 891.534668,6.027672 900.843384,7.120678 
	C905.993164,7.725357 909.855469,12.175065 908.989624,20.997242 
	C908.487854,26.110386 902.889343,30.231731 896.870178,29.999866 
	C890.197632,29.742836 886.017090,24.989132 886.000000,17.209557 
M900.686401,25.815279 
	C901.317993,25.391703 901.949524,24.968126 903.843628,23.697803 
	C899.520264,23.437464 896.411011,23.250233 892.940430,23.041245 
	C892.940430,19.924706 892.940430,16.207655 892.940430,11.230621 
	C889.987488,14.826917 888.593689,17.160633 889.872437,21.086395 
	C891.671021,26.607687 895.786804,25.948404 900.686401,25.815279 
M902.248779,13.705253 
	C902.248779,16.444582 902.248779,19.183912 902.248779,21.923243 
	C902.624084,22.101406 902.999390,22.279570 903.374695,22.457733 
	C904.242554,21.245796 906.017822,19.818501 905.791809,18.866211 
	C905.302856,16.805986 903.788513,14.989137 902.248779,13.705253 
z"/>
<path fill="#1E1E1E" opacity="1.000000" stroke="none" 
	d="
M875.000000,399.950928 
	C875.000000,401.740356 875.000000,403.058319 875.000000,404.752960 
	C873.644531,404.814392 872.477600,404.867249 871.045532,404.932159 
	C871.045532,400.870514 871.045532,397.243774 871.045532,393.871124 
	C869.384644,392.965515 868.007935,392.214844 866.631226,391.464172 
	C866.779785,390.978302 866.928284,390.492462 867.076843,390.006592 
	C872.526123,390.006592 878.000916,389.725555 883.405945,390.214539 
	C884.674072,390.329254 885.706665,393.047577 887.180359,395.011475 
	C889.880127,394.571808 888.841980,386.839172 894.695312,390.763092 
	C894.695312,394.844818 894.695312,399.580505 894.695312,405.825165 
	C892.714539,404.309326 891.370117,403.280518 889.522400,401.866486 
	C887.277405,402.663788 883.879822,403.870422 880.085876,405.217804 
	C880.085876,400.725159 880.085876,396.599731 880.085876,392.442780 
	C878.234497,392.776947 876.712585,393.051666 875.000000,393.360809 
	C875.000000,395.510864 875.000000,397.495148 875.000000,399.950928 
z"/>
<path fill="#FFFFFF" opacity="1.000000" stroke="none" 
	d="
M465.000000,24.000000 
	C596.135803,24.000000 726.771606,24.000000 857.703613,24.000000 
	C857.703613,120.625191 857.703613,217.022797 857.703613,313.710327 
	C580.036621,313.710327 302.314636,313.710327 24.296288,313.710327 
	C24.296288,217.374756 24.296288,120.977142 24.296288,24.000000 
	C170.993958,24.000000 317.746979,24.000000 465.000000,24.000000 
M130.000000,232.486450 
	C130.000000,213.727600 130.000000,194.968735 130.000000,176.312683 
	C155.339798,176.312683 180.073837,176.312683 204.861664,176.312683 
	C204.861664,199.251251 204.861664,221.876907 204.861664,244.702164 
	C202.588745,245.145157 200.335297,246.124832 198.216141,245.890427 
	C193.010025,245.314545 191.201309,247.377930 191.966919,252.358704 
	C192.183441,253.767365 192.000000,255.237503 192.000000,256.744873 
	C212.225021,256.744873 231.962967,256.744873 251.741516,256.744873 
	C251.741516,253.072968 251.741516,249.661942 251.741516,246.441940 
	C247.675827,245.878418 243.881927,245.352554 240.166550,244.837585 
	C240.166550,194.013397 240.166550,143.725342 240.166550,93.234886 
	C244.106857,92.677528 247.916733,92.138626 251.732086,91.598946 
	C251.732086,88.418312 251.732086,85.346100 251.732086,82.270798 
	C231.719849,82.270798 211.976700,82.270798 192.000000,82.270798 
	C192.000000,83.845238 192.157654,85.179649 191.971359,86.464180 
	C191.332184,90.871437 193.102417,92.430428 197.533325,92.112251 
	C199.974579,91.936951 202.497787,92.902832 204.788467,93.318718 
	C204.788467,114.718834 204.788467,135.661514 204.788467,156.778076 
	C179.843399,156.778076 155.110123,156.778076 130.196808,156.778076 
	C130.196808,135.465134 130.196808,114.374214 130.196808,93.314224 
	C143.103302,91.292389 143.299805,91.093002 141.370758,82.325256 
	C121.592140,82.325256 101.847359,82.325256 82.118515,82.325256 
	C81.849571,90.464897 81.855103,90.439903 89.185959,92.062157 
	C90.726173,92.402992 92.209244,93.001999 93.780602,93.501747 
	C93.780602,143.920563 93.780602,194.358795 93.780602,244.765305 
	C81.326462,246.539124 81.326462,246.539124 82.382622,256.778961 
	C102.100487,256.778961 121.841537,256.778961 141.562592,256.778961 
	C142.650269,247.685547 142.645233,247.707520 134.723129,245.891296 
	C133.192963,245.540512 131.719360,244.943039 130.000000,244.388519 
	C130.000000,240.780991 130.000000,237.129791 130.000000,232.486450 
M743.124512,130.357040 
	C730.827148,133.077927 720.535095,139.834335 709.938843,147.849731 
	C709.938843,141.922729 709.938843,137.159531 709.938843,132.209885 
	C694.858704,132.209885 680.124817,132.209885 665.211853,132.209885 
	C665.211853,135.497162 665.211853,138.573334 665.211853,141.563736 
	C668.888428,142.126755 672.360229,142.658432 675.770935,143.180740 
	C675.770935,177.675613 675.770935,211.775497 675.770935,246.078308 
	C672.500671,246.500809 668.460449,245.863754 666.640503,247.580551 
	C664.783325,249.332520 665.107422,253.396820 664.405579,256.791809 
	C683.805664,256.791809 702.211853,256.791809 720.595154,256.791809 
	C721.523438,248.306168 721.516968,248.340240 714.180969,246.941818 
	C712.803650,246.679260 711.501343,246.023621 710.000000,245.491074 
	C710.000000,220.608749 710.000000,195.799789 710.000000,170.990845 
	C710.000000,156.260574 709.995972,156.249924 723.679321,151.113098 
	C725.473633,150.439484 727.311646,149.854660 729.167480,149.376602 
	C740.213074,146.531357 750.723572,150.369568 754.371643,161.056076 
	C756.072205,166.037659 756.780212,171.552979 756.886169,176.847427 
	C757.202942,192.667786 757.000000,208.498535 757.000000,224.325226 
	C757.000000,231.463821 757.000000,238.602432 757.000000,245.906662 
	C753.457947,246.458679 749.316040,245.932983 747.356689,247.754745 
	C745.568848,249.416992 746.146179,253.622986 745.684753,256.683289 
	C764.729065,256.683289 782.803284,256.683289 800.860046,256.683289 
	C801.173279,248.557159 801.167175,248.584152 793.847107,246.930496 
	C792.621643,246.653656 791.475098,246.027863 790.000000,245.448608 
	C790.000000,243.926346 790.000000,242.276733 790.000000,240.627106 
	C790.000000,217.136978 790.284668,193.641312 789.829041,170.160034 
	C789.689819,162.984650 788.019409,155.714355 786.153259,148.727097 
	C783.524109,138.883087 776.197388,133.028183 766.593506,131.209106 
	C759.235168,129.815369 751.511108,130.352493 743.124512,130.357040 
M642.041016,234.436417 
	C644.020142,230.936661 646.479736,227.620300 647.897400,223.906250 
	C655.079102,205.090759 655.188843,185.901550 648.846497,166.982407 
	C642.813293,148.985565 630.466980,137.066223 611.817017,131.888260 
	C601.693848,129.077682 591.576599,127.374428 581.110413,129.017761 
	C574.403137,130.070908 567.355652,130.303925 561.094421,132.618713 
	C533.439392,142.842804 521.716187,164.682831 520.256592,190.400970 
	C519.690063,200.381851 520.922302,210.787186 523.261658,220.536926 
	C527.000488,236.119736 535.871948,248.091965 551.594238,254.339188 
	C567.305176,260.581909 583.359863,261.137207 599.751831,258.987427 
	C616.953613,256.731384 631.104980,249.065842 642.041016,234.436417 
M366.000000,146.500000 
	C366.000000,177.472214 365.934509,208.444702 366.068573,239.416336 
	C366.089355,244.217590 366.166595,248.144211 359.523071,247.113647 
	C358.142639,246.899506 356.559418,247.992462 355.169220,248.450241 
	C355.169220,251.313660 355.169220,253.929153 355.169220,256.663025 
	C373.863831,256.663025 392.387482,256.663025 410.845184,256.663025 
	C410.845184,253.685257 410.845184,251.045654 410.845184,248.272476 
	C409.036102,247.831177 407.272400,246.900574 405.645477,247.097916 
	C400.761749,247.690231 399.897522,245.509201 399.909760,241.086685 
	C400.051117,189.966370 400.000000,138.845535 400.000000,87.724831 
	C400.000000,85.941307 400.000000,84.157791 400.000000,82.211548 
	C384.826904,82.211548 370.092682,82.211548 355.380737,82.211548 
	C354.605316,89.707787 354.611908,89.673462 361.828461,91.058418 
	C363.204437,91.322487 364.505554,91.976715 366.000000,92.507324 
	C366.000000,110.225708 366.000000,127.862854 366.000000,146.500000 
M478.001801,229.118225 
	C478.001801,200.807114 478.001801,172.496017 478.001801,143.769516 
	C487.373291,143.769516 497.111847,143.769516 506.666748,143.769516 
	C506.666748,139.616196 506.666748,135.880875 506.666748,131.742523 
	C496.601349,131.742523 486.865021,131.742523 476.780334,131.742523 
	C476.780334,119.920944 476.780334,108.512718 476.780334,96.641426 
	C475.091339,97.099686 473.853424,97.400581 472.636841,97.771324 
	C464.797943,100.160080 457.064606,103.032654 449.082458,104.752113 
	C445.458405,105.532776 444.903992,106.840080 444.958344,109.894958 
	C445.087646,117.161301 445.000000,124.431503 445.000000,132.106201 
	C436.756714,132.106201 429.016571,132.106201 421.270508,132.106201 
	C421.270508,136.261505 421.270508,139.996033 421.270508,144.137344 
	C428.937775,144.137344 436.342224,144.137344 444.000000,144.137344 
	C444.000000,146.186600 444.000000,147.827835 444.000000,149.469055 
	C444.000000,177.277023 443.964325,205.085037 444.015106,232.892914 
	C444.040375,246.750092 453.807556,257.166565 467.534027,257.980133 
	C481.546478,258.810608 495.255646,256.930634 508.617432,252.710876 
	C516.428650,250.244064 516.387085,250.108429 515.931885,241.859467 
	C515.924194,241.719681 515.762512,241.588379 516.035828,242.000000 
	C509.143951,242.000000 502.624054,242.200195 496.120941,241.955032 
	C485.244507,241.545029 481.086151,238.905212 478.001801,229.118225 
M288.000000,146.658661 
	C288.000000,179.606476 288.000000,212.554306 288.000000,245.963699 
	C284.643433,246.435089 280.553131,245.850662 278.580536,247.623108 
	C276.728851,249.286911 277.115601,253.441940 276.461945,256.784180 
	C295.841827,256.784180 314.239044,256.784180 332.613251,256.784180 
	C333.497498,248.312012 333.490906,248.346588 326.165741,246.947296 
	C324.472260,246.623779 322.840881,245.975418 320.825134,245.369629 
	C320.825134,207.681946 320.825134,169.969299 320.825134,132.271683 
	C306.040039,132.271683 291.642303,132.271683 277.255981,132.271683 
	C277.255981,135.305206 277.255981,138.060760 277.255981,140.738525 
	C280.869843,141.293335 284.222656,141.808060 288.000000,142.387970 
	C288.000000,143.436325 288.000000,144.569305 288.000000,146.658661 
M321.688385,106.829025 
	C321.809296,106.183495 321.866547,105.518120 322.060669,104.895416 
	C324.972595,95.554131 321.406281,86.969437 312.076477,83.139679 
	C304.508118,80.032982 294.752380,81.363037 289.526276,90.090637 
	C284.455719,98.558464 285.974213,110.128113 296.776276,115.864906 
	C304.717651,120.082428 317.758850,117.169739 321.688385,106.829025 
z"/>
<path fill="#FFFFFF" opacity="1.000000" stroke="none" 
	d="
M149.031860,432.022644 
	C147.837952,443.381622 135.985886,451.517914 126.007133,449.984009 
	C116.500557,448.522705 108.114464,439.350464 107.713387,427.988831 
	C107.283508,415.811279 120.841980,402.694397 134.370453,406.928497 
	C143.970093,409.932983 152.559189,423.606720 149.031860,432.022644 
z"/>
<path fill="#FFFFFF" opacity="1.000000" stroke="none" 
	d="
M219.666656,425.103638 
	C214.403900,425.588562 209.545166,425.965240 204.327911,426.369659 
	C204.327911,419.475250 204.327911,413.092194 204.327911,406.102936 
	C208.816498,406.102936 213.650421,405.485901 218.228409,406.302917 
	C221.735764,406.928925 225.328674,409.049042 225.954880,413.396637 
	C226.698257,418.557739 224.704956,422.484985 219.666656,425.103638 
z"/>
<path fill="#FFFFFF" opacity="1.000000" stroke="none" 
	d="
M760.026489,433.137085 
	C760.459412,434.882904 760.832581,436.211945 761.285828,437.826172 
	C755.624939,437.826172 750.520691,437.826172 744.725098,437.826172 
	C747.411804,430.127716 749.999023,422.714386 752.586243,415.301056 
	C752.958618,415.290741 753.331055,415.280457 753.703430,415.270142 
	C755.791199,421.086853 757.879028,426.903564 760.026489,433.137085 
z"/>
<path fill="#FFFFFF" opacity="1.000000" stroke="none" 
	d="
M900.286133,25.900097 
	C895.786804,25.948404 891.671021,26.607687 889.872437,21.086395 
	C888.593689,17.160633 889.987488,14.826917 892.940430,11.230621 
	C892.940430,16.207655 892.940430,19.924706 892.940430,23.041245 
	C896.411011,23.250233 899.520264,23.437464 903.843628,23.697803 
	C901.949524,24.968126 901.317993,25.391703 900.286133,25.900097 
z"/>
<path fill="#FFFFFF" opacity="1.000000" stroke="none" 
	d="
M902.471191,13.388996 
	C903.788513,14.989137 905.302856,16.805986 905.791809,18.866211 
	C906.017822,19.818501 904.242554,21.245796 903.374695,22.457733 
	C902.999390,22.279570 902.624084,22.101406 902.248779,21.923243 
	C902.248779,19.183912 902.248779,16.444582 902.471191,13.388996 
z"/>
<path fill="#1E1E1E" opacity="1.000000" stroke="none" 
	d="
M130.000000,232.982529 
	C130.000000,237.129791 130.000000,240.780991 130.000000,244.388519 
	C131.719360,244.943039 133.192963,245.540512 134.723129,245.891296 
	C142.645233,247.707520 142.650269,247.685547 141.562592,256.778961 
	C121.841537,256.778961 102.100487,256.778961 82.382622,256.778961 
	C81.326462,246.539124 81.326462,246.539124 93.780602,244.765305 
	C93.780602,194.358795 93.780602,143.920563 93.780602,93.501747 
	C92.209244,93.001999 90.726173,92.402992 89.185959,92.062157 
	C81.855103,90.439903 81.849571,90.464897 82.118515,82.325256 
	C101.847359,82.325256 121.592140,82.325256 141.370758,82.325256 
	C143.299805,91.093002 143.103302,91.292389 130.196808,93.314224 
	C130.196808,114.374214 130.196808,135.465134 130.196808,156.778076 
	C155.110123,156.778076 179.843399,156.778076 204.788467,156.778076 
	C204.788467,135.661514 204.788467,114.718834 204.788467,93.318718 
	C202.497787,92.902832 199.974579,91.936951 197.533325,92.112251 
	C193.102417,92.430428 191.332184,90.871437 191.971359,86.464180 
	C192.157654,85.179649 192.000000,83.845238 192.000000,82.270798 
	C211.976700,82.270798 231.719849,82.270798 251.732086,82.270798 
	C251.732086,85.346100 251.732086,88.418312 251.732086,91.598946 
	C247.916733,92.138626 244.106857,92.677528 240.166550,93.234886 
	C240.166550,143.725342 240.166550,194.013397 240.166550,244.837585 
	C243.881927,245.352554 247.675827,245.878418 251.741516,246.441940 
	C251.741516,249.661942 251.741516,253.072968 251.741516,256.744873 
	C231.962967,256.744873 212.225021,256.744873 192.000000,256.744873 
	C192.000000,255.237503 192.183441,253.767365 191.966919,252.358704 
	C191.201309,247.377930 193.010025,245.314545 198.216141,245.890427 
	C200.335297,246.124832 202.588745,245.145157 204.861664,244.702164 
	C204.861664,221.876907 204.861664,199.251251 204.861664,176.312683 
	C180.073837,176.312683 155.339798,176.312683 130.000000,176.312683 
	C130.000000,194.968735 130.000000,213.727600 130.000000,232.982529 
z"/>
<path fill="#1E1E1E" opacity="1.000000" stroke="none" 
	d="
M743.537109,130.193939 
	C751.511108,130.352493 759.235168,129.815369 766.593506,131.209106 
	C776.197388,133.028183 783.524109,138.883087 786.153259,148.727097 
	C788.019409,155.714355 789.689819,162.984650 789.829041,170.160034 
	C790.284668,193.641312 790.000000,217.136978 790.000000,240.627106 
	C790.000000,242.276733 790.000000,243.926346 790.000000,245.448608 
	C791.475098,246.027863 792.621643,246.653656 793.847107,246.930496 
	C801.167175,248.584152 801.173279,248.557159 800.860046,256.683289 
	C782.803284,256.683289 764.729065,256.683289 745.684753,256.683289 
	C746.146179,253.622986 745.568848,249.416992 747.356689,247.754745 
	C749.316040,245.932983 753.457947,246.458679 757.000000,245.906662 
	C757.000000,238.602432 757.000000,231.463821 757.000000,224.325226 
	C757.000000,208.498535 757.202942,192.667786 756.886169,176.847427 
	C756.780212,171.552979 756.072205,166.037659 754.371643,161.056076 
	C750.723572,150.369568 740.213074,146.531357 729.167480,149.376602 
	C727.311646,149.854660 725.473633,150.439484 723.679321,151.113098 
	C709.995972,156.249924 710.000000,156.260574 710.000000,170.990845 
	C710.000000,195.799789 710.000000,220.608749 710.000000,245.491074 
	C711.501343,246.023621 712.803650,246.679260 714.180969,246.941818 
	C721.516968,248.340240 721.523438,248.306168 720.595154,256.791809 
	C702.211853,256.791809 683.805664,256.791809 664.405579,256.791809 
	C665.107422,253.396820 664.783325,249.332520 666.640503,247.580551 
	C668.460449,245.863754 672.500671,246.500809 675.770935,246.078308 
	C675.770935,211.775497 675.770935,177.675613 675.770935,143.180740 
	C672.360229,142.658432 668.888428,142.126755 665.211853,141.563736 
	C665.211853,138.573334 665.211853,135.497162 665.211853,132.209885 
	C680.124817,132.209885 694.858704,132.209885 709.938843,132.209885 
	C709.938843,137.159531 709.938843,141.922729 709.938843,147.849731 
	C720.535095,139.834335 730.827148,133.077927 743.537109,130.193939 
z"/>
<path fill="#1E1E1E" opacity="1.000000" stroke="none" 
	d="
M641.788330,234.706451 
	C631.104980,249.065842 616.953613,256.731384 599.751831,258.987427 
	C583.359863,261.137207 567.305176,260.581909 551.594238,254.339188 
	C535.871948,248.091965 527.000488,236.119736 523.261658,220.536926 
	C520.922302,210.787186 519.690063,200.381851 520.256592,190.400970 
	C521.716187,164.682831 533.439392,142.842804 561.094421,132.618713 
	C567.355652,130.303925 574.403137,130.070908 581.110413,129.017761 
	C591.576599,127.374428 601.693848,129.077682 611.817017,131.888260 
	C630.466980,137.066223 642.813293,148.985565 648.846497,166.982407 
	C655.188843,185.901550 655.079102,205.090759 647.897400,223.906250 
	C646.479736,227.620300 644.020142,230.936661 641.788330,234.706451 
M557.000000,204.322098 
	C557.333252,206.904892 557.743774,209.480469 557.986084,212.071762 
	C558.913391,221.989639 561.308105,231.288315 567.101379,239.725479 
	C576.882874,253.971100 598.744263,252.942459 607.993103,237.780014 
	C613.609863,228.572098 615.670593,218.288193 615.953247,207.660400 
	C616.183411,199.003830 616.274658,190.325394 615.933044,181.676178 
	C615.467773,169.895752 612.783325,158.604630 605.912964,148.788895 
	C601.692688,142.759216 595.542725,139.510315 588.162292,139.025711 
	C575.033508,138.163727 566.250244,146.730774 561.938843,158.730179 
	C556.720337,173.253983 556.851379,188.285202 557.000000,204.322098 
z"/>
<path fill="#1E1E1E" opacity="1.000000" stroke="none" 
	d="
M366.000000,146.000000 
	C366.000000,127.862854 366.000000,110.225708 366.000000,92.507324 
	C364.505554,91.976715 363.204437,91.322487 361.828461,91.058418 
	C354.611908,89.673462 354.605316,89.707787 355.380737,82.211548 
	C370.092682,82.211548 384.826904,82.211548 400.000000,82.211548 
	C400.000000,84.157791 400.000000,85.941307 400.000000,87.724831 
	C400.000000,138.845535 400.051117,189.966370 399.909760,241.086685 
	C399.897522,245.509201 400.761749,247.690231 405.645477,247.097916 
	C407.272400,246.900574 409.036102,247.831177 410.845184,248.272476 
	C410.845184,251.045654 410.845184,253.685257 410.845184,256.663025 
	C392.387482,256.663025 373.863831,256.663025 355.169220,256.663025 
	C355.169220,253.929153 355.169220,251.313660 355.169220,248.450241 
	C356.559418,247.992462 358.142639,246.899506 359.523071,247.113647 
	C366.166595,248.144211 366.089355,244.217590 366.068573,239.416336 
	C365.934509,208.444702 366.000000,177.472214 366.000000,146.000000 
z"/>
<path fill="#1E1E1E" opacity="1.000000" stroke="none" 
	d="
M478.011963,229.546600 
	C481.086151,238.905212 485.244507,241.545029 496.120941,241.955032 
	C502.624054,242.200195 509.143951,242.000000 516.035828,242.000000 
	C515.762512,241.588379 515.924194,241.719681 515.931885,241.859467 
	C516.387085,250.108429 516.428650,250.244064 508.617432,252.710876 
	C495.255646,256.930634 481.546478,258.810608 467.534027,257.980133 
	C453.807556,257.166565 444.040375,246.750092 444.015106,232.892914 
	C443.964325,205.085037 444.000000,177.277023 444.000000,149.469055 
	C444.000000,147.827835 444.000000,146.186600 444.000000,144.137344 
	C436.342224,144.137344 428.937775,144.137344 421.270508,144.137344 
	C421.270508,139.996033 421.270508,136.261505 421.270508,132.106201 
	C429.016571,132.106201 436.756714,132.106201 445.000000,132.106201 
	C445.000000,124.431503 445.087646,117.161301 444.958344,109.894958 
	C444.903992,106.840080 445.458405,105.532776 449.082458,104.752113 
	C457.064606,103.032654 464.797943,100.160080 472.636841,97.771324 
	C473.853424,97.400581 475.091339,97.099686 476.780334,96.641426 
	C476.780334,108.512718 476.780334,119.920944 476.780334,131.742523 
	C486.865021,131.742523 496.601349,131.742523 506.666748,131.742523 
	C506.666748,135.880875 506.666748,139.616196 506.666748,143.769516 
	C497.111847,143.769516 487.373291,143.769516 478.001801,143.769516 
	C478.001801,172.496017 478.001801,200.807114 478.011963,229.546600 
z"/>
<path fill="#1E1E1E" opacity="1.000000" stroke="none" 
	d="
M288.000000,146.180481 
	C288.000000,144.569305 288.000000,143.436325 288.000000,142.387970 
	C284.222656,141.808060 280.869843,141.293335 277.255981,140.738525 
	C277.255981,138.060760 277.255981,135.305206 277.255981,132.271683 
	C291.642303,132.271683 306.040039,132.271683 320.825134,132.271683 
	C320.825134,169.969299 320.825134,207.681946 320.825134,245.369629 
	C322.840881,245.975418 324.472260,246.623779 326.165741,246.947296 
	C333.490906,248.346588 333.497498,248.312012 332.613251,256.784180 
	C314.239044,256.784180 295.841827,256.784180 276.461945,256.784180 
	C277.115601,253.441940 276.728851,249.286911 278.580536,247.623108 
	C280.553131,245.850662 284.643433,246.435089 288.000000,245.963699 
	C288.000000,212.554306 288.000000,179.606476 288.000000,146.180481 
z"/>
<path fill="#1E1E1E" opacity="1.000000" stroke="none" 
	d="
M321.400787,107.112968 
	C317.758850,117.169739 304.717651,120.082428 296.776276,115.864906 
	C285.974213,110.128113 284.455719,98.558464 289.526276,90.090637 
	C294.752380,81.363037 304.508118,80.032982 312.076477,83.139679 
	C321.406281,86.969437 324.972595,95.554131 322.060669,104.895416 
	C321.866547,105.518120 321.809296,106.183495 321.400787,107.112968 
z"/>
<path fill="#FFFFFF" opacity="1.000000" stroke="none" 
	d="
M557.000000,203.839874 
	C556.851379,188.285202 556.720337,173.253983 561.938843,158.730179 
	C566.250244,146.730774 575.033508,138.163727 588.162292,139.025711 
	C595.542725,139.510315 601.692688,142.759216 605.912964,148.788895 
	C612.783325,158.604630 615.467773,169.895752 615.933044,181.676178 
	C616.274658,190.325394 616.183411,199.003830 615.953247,207.660400 
	C615.670593,218.288193 613.609863,228.572098 607.993103,237.780014 
	C598.744263,252.942459 576.882874,253.971100 567.101379,239.725479 
	C561.308105,231.288315 558.913391,221.989639 557.986084,212.071762 
	C557.743774,209.480469 557.333252,206.904892 557.000000,203.839874 
z"/>
</svg>