<svg version="1.1" id="Layer_1" xmlns="http://www.w3.org/2000/svg" xmlns:xlink="http://www.w3.org/1999/xlink" x="0px" y="0px"
	 width="100%" viewBox="0 0 2614 810" enable-background="new 0 0 2614 810" xml:space="preserve">
<path fill="#FFFFFF" opacity="1.000000" stroke="none"
	d="
M1725.000000,811.000000
	C1150.452515,811.000000 575.905151,811.000000 1.000000,811.000000
	C1.000000,731.636108 1.000000,652.271667 1.394436,572.453735
	C9.352613,574.609741 16.844610,577.455017 24.493834,579.783813
	C45.594891,586.207825 67.230637,589.627930 89.271103,589.880859
	C96.762283,589.966736 104.265503,588.621277 111.769974,588.013000
	C125.792969,586.876465 138.791595,582.175354 151.300995,576.176758
	C172.586670,565.969604 189.617432,550.457397 204.908493,532.703064
	C222.434891,512.353333 236.286072,489.680969 247.958572,465.660645
	C261.573700,437.642670 274.705811,409.389374 287.962494,381.198181
	C294.245758,367.836395 300.308929,354.371216 306.525116,340.977661
	C307.825256,338.176361 309.359802,335.483887 311.212708,331.921509
	C318.313690,347.319305 324.890594,361.764771 331.622162,376.137756
	C344.356384,403.327454 357.250305,430.442474 369.945740,457.650208
	C382.634491,484.843567 395.248138,512.073059 407.664185,539.391479
	C409.481659,543.390381 411.255737,545.338318 416.096985,545.151672
	C428.078400,544.689636 440.089630,545.000000 452.088867,545.000000
	C487.223480,545.000000 522.358093,545.000000 557.828796,545.000000
	C543.904663,515.071594 530.113098,485.401886 516.296875,455.743683
	C510.194305,442.643799 503.973602,429.598328 497.968933,416.453979
	C496.761566,413.810974 495.436981,410.748749 495.704224,408.031006
	C496.002228,405.000519 498.013275,402.123474 499.350891,399.212830
	C505.314606,386.235748 511.238586,373.239746 517.306396,360.311371
	C521.633606,351.091492 526.166565,341.968140 531.068359,331.850983
	C532.950317,336.032745 534.343994,339.210846 535.802979,342.358643
	C547.545593,367.693542 559.265137,393.039154 571.063049,418.348297
	C579.948730,437.410156 588.958557,456.414124 597.878784,475.459930
	C608.706665,498.578888 619.498474,521.714722 630.302551,544.835999
	C679.190063,544.835999 727.989563,544.835999 777.479126,544.835999
	C774.529724,538.201294 771.844788,531.903503 768.952271,525.702576
	C760.061707,506.642822 751.046143,487.641327 742.163574,468.577850
	C730.369690,443.266022 718.692688,417.899719 706.894836,392.589722
	C698.009705,373.528412 688.962219,354.542816 680.079468,335.480377
	C668.284302,310.167725 656.617310,284.795288 644.823059,259.482208
	C635.669556,239.836807 626.357971,220.265091 617.202454,200.620590
	C605.677246,175.891541 594.262085,151.111313 582.755737,126.373451
	C575.984924,111.816582 569.121460,97.302841 562.313904,82.763031
	C550.265137,57.028927 538.116760,31.340273 526.299683,5.500137
	C524.449951,1.455308 522.654541,1.633138 519.357605,3.195810
	C506.885651,9.107247 494.316498,14.813272 481.811371,20.655298
	C455.641388,32.881145 429.488983,45.144524 403.142242,57.480103
	C406.229218,64.276970 409.276001,71.113510 412.428070,77.901138
	C421.148682,96.680077 429.899170,115.445190 438.663910,134.203583
	C450.758606,160.088867 462.898651,185.952957 474.977386,211.845688
	C482.035675,226.976273 489.069214,242.119293 495.936188,257.336884
	C496.607635,258.824890 496.617157,261.146149 495.941376,262.627930
	C484.629303,287.432343 473.159058,312.164642 461.451477,337.502747
	C460.449219,335.589722 459.657227,334.214508 458.988739,332.781647
	C448.404572,310.095306 437.837799,287.400909 427.263733,264.709869
	C420.280304,249.724030 413.283447,234.744476 406.307220,219.755280
	C394.726288,194.872208 383.176361,169.974670 371.576843,145.100281
	C362.486420,125.606514 353.345917,106.136070 344.218323,86.659653
	C331.545990,59.619537 318.757782,32.632675 306.303284,5.492659
	C304.442047,1.436779 302.641205,1.635709 299.355804,3.199439
	C286.168274,9.476234 272.894806,15.572277 259.672180,21.775732
	C236.996246,32.414249 214.314270,43.040257 191.677231,53.761047
	C182.949005,57.894691 183.094330,57.962013 187.233185,66.665588
	C194.127594,81.163795 200.914749,95.713242 207.702911,110.261719
	C221.818573,140.514557 235.885056,170.790359 250.011627,201.038116
	C258.369202,218.933365 266.893066,236.751923 275.092865,254.718735
	C276.164215,257.066132 276.818878,260.571503 275.854340,262.731201
	C265.777649,285.294128 255.587830,307.814972 244.903610,330.095398
	C236.567413,347.479340 227.975311,364.777679 218.611374,381.621796
	C208.123810,400.487122 196.044250,418.229462 179.762131,432.930115
	C162.072968,448.901154 141.313950,457.108337 117.996971,458.870422
	C98.292618,460.359497 78.807137,458.262848 60.066597,451.474579
	C56.961418,450.349792 55.594597,451.450378 54.385990,454.102692
	C44.872982,474.979431 35.340626,495.847626 25.714350,516.672302
	C18.978813,531.243408 12.126727,545.761169 5.223174,560.253418
	C4.089668,562.632935 2.421213,564.757568 0.999994,567.000000
	C1.000000,378.357025 1.000000,189.714081 1.000000,1.050190
	C872.333313,1.050190 1743.666626,1.050190 2615.000000,1.050190
	C2615.000000,21.097832 2615.000000,41.095284 2614.632812,61.431786
	C2611.417480,56.254280 2609.476562,49.956547 2605.535156,45.382324
	C2597.091064,35.582077 2586.192139,31.527407 2572.855225,33.820065
	C2565.209473,35.134438 2558.702881,38.378876 2554.001221,43.798508
	C2542.487061,57.070652 2540.057617,72.435181 2545.960449,89.101959
	C2550.944092,103.172577 2561.145996,111.288185 2575.548828,112.769707
	C2589.010010,114.154411 2600.387695,108.877785 2608.192139,97.315269
	C2610.651367,93.671860 2612.740967,89.778770 2615.000000,85.999969
	C2615.000000,327.605408 2615.000000,569.210815 2615.000000,811.000000
	C2321.302490,811.000000 2027.604858,811.000000 1733.609863,810.599243
	C1750.887207,809.753662 1766.512573,803.728210 1778.836182,791.421692
	C1799.542236,770.744263 1804.603516,745.802490 1795.540894,718.160156
	C1789.785522,700.605103 1777.670044,688.138000 1761.320557,680.249268
	C1746.350464,673.026001 1730.168213,672.270874 1713.985352,675.086243
	C1697.536377,677.947876 1683.749146,686.254883 1673.513794,699.236694
	C1660.999023,715.109619 1656.834595,733.420837 1659.893188,753.639771
	C1663.958252,780.512573 1683.373779,801.828369 1709.637573,807.981567
	C1714.715332,809.171204 1719.877075,810.003113 1725.000000,811.000000
M1010.441101,168.999100
	C995.993530,166.332779 981.625427,162.063690 967.081482,161.342926
	C939.166687,159.959518 911.270935,160.888687 883.607910,166.776321
	C859.885925,171.825165 837.128113,179.185913 815.398621,189.189651
	C815.398621,215.552216 815.398621,241.725449 815.398621,267.978638
	C822.159241,263.850891 828.392212,259.545227 835.057800,256.069000
	C855.330505,245.496460 876.470154,237.872971 899.574158,235.799011
	C914.612305,234.449097 929.260925,234.938126 943.741821,239.044373
	C953.534363,241.821167 962.651123,246.283310 969.338989,254.033066
	C977.852783,263.898773 980.404358,275.805359 978.719177,288.283569
	C963.239807,290.869293 947.849670,293.096436 932.603271,296.062195
	C905.220947,301.388733 878.812500,309.686279 854.262390,323.277679
	C837.033020,332.816223 821.677612,344.483246 808.722473,359.567413
	C789.662354,381.759888 781.233704,407.815857 779.107666,436.295776
	C778.202209,448.424438 779.360229,460.519196 781.916931,472.522247
	C787.562073,499.024414 800.664795,520.626831 822.894470,536.337585
	C836.443787,545.913513 851.774170,551.629211 868.171875,552.753479
	C882.715942,553.750732 897.387878,553.634338 911.891418,550.132629
	C927.903992,546.266663 942.810913,540.120300 955.953918,530.345825
	C965.169006,523.492676 973.549133,515.516846 981.920593,508.368134
	C983.676147,519.880615 985.573975,532.326538 987.464050,544.721313
	C1019.960571,544.721313 1052.363037,544.721313 1085.000000,544.721313
	C1085.000000,542.635742 1085.000000,540.826721 1085.000000,539.017761
	C1085.000000,458.367401 1085.038574,377.717041 1084.955444,297.066772
	C1084.943848,285.816925 1084.485962,274.560638 1083.965210,263.319824
	C1083.123535,245.147720 1078.558350,228.065765 1069.084839,212.329132
	C1061.517578,199.758972 1051.758301,189.348236 1039.078857,182.151489
	C1030.190796,177.106689 1020.565735,173.360001 1010.441101,168.999100
M2078.006836,210.509491
	C2070.678467,203.176971 2064.080811,194.875290 2055.882812,188.696686
	C2032.853149,171.339432 2006.183350,162.974930 1977.656982,161.199142
	C1964.316406,160.368668 1950.769409,160.918091 1937.453125,162.232254
	C1926.447998,163.318329 1915.374023,165.576370 1904.808350,168.854797
	C1883.175049,175.567337 1864.411499,187.092377 1849.095947,204.226486
	C1836.511230,218.305389 1827.376953,234.194656 1820.991089,251.813049
	C1812.357788,275.632812 1809.408203,300.386536 1809.015259,325.544220
	C1808.913818,332.040924 1808.911865,338.541962 1809.015381,345.038605
	C1809.441772,371.802734 1807.737427,398.605957 1811.876709,425.288300
	C1814.736694,443.725159 1819.519165,461.475006 1827.730103,478.182556
	C1835.434570,493.859680 1845.332275,507.899872 1858.779419,519.455872
	C1871.445068,530.340332 1885.340576,538.648499 1901.122437,544.078918
	C1922.740112,551.517395 1944.887085,554.636414 1967.666138,552.960632
	C1978.089844,552.193787 1988.583740,551.606506 1998.868286,549.879700
	C2022.360474,545.935242 2043.452515,536.247437 2061.610107,520.781616
	C2079.324463,505.693359 2091.556641,486.555664 2099.892334,465.038452
	C2109.268311,440.835693 2112.436035,415.336182 2112.843262,389.616821
	C2113.235107,364.882355 2112.852051,340.105438 2111.804199,315.389771
	C2111.185059,300.785919 2109.825684,285.993500 2106.640869,271.769135
	C2101.695312,249.683609 2092.847168,228.974991 2078.006836,210.509491
M2208.001709,75.497017
	C2195.360840,81.417633 2182.720215,87.338249 2169.827881,93.376663
	C2169.827881,118.554314 2169.827881,143.643219 2169.827881,169.124329
	C2158.410156,169.124329 2147.335205,169.124329 2136.256592,169.124329
	C2136.256592,191.255280 2136.256592,212.988266 2136.256592,235.116364
	C2147.581787,235.116364 2158.656250,235.116364 2170.080566,235.116364
	C2170.080566,338.558105 2170.080566,441.603485 2170.080566,544.788391
	C2205.504639,544.788391 2240.567139,544.788391 2276.167480,544.788391
	C2276.167480,441.414276 2276.167480,338.250488 2276.167480,234.694580
	C2294.108154,234.694580 2311.512695,234.694580 2328.653809,234.694580
	C2328.653809,212.564682 2328.653809,190.830200 2328.653809,168.707489
	C2310.904785,168.707489 2293.500488,168.707489 2275.756348,168.707489
	C2275.756348,126.935692 2275.756348,85.557838 2275.756348,43.946560
	C2253.127930,54.426048 2230.877686,64.730286 2208.001709,75.497017
M2392.000000,238.651627
	C2392.000000,340.730988 2392.000000,442.810333 2392.000000,544.655029
	C2427.755615,544.655029 2462.828125,544.655029 2498.296387,544.655029
	C2498.296387,441.239014 2498.296387,338.167664 2498.296387,234.697021
	C2516.103516,234.697021 2533.512695,234.697021 2550.643555,234.697021
	C2550.643555,212.554947 2550.643555,190.814850 2550.643555,168.680420
	C2532.879639,168.680420 2515.470459,168.680420 2497.699951,168.680420
	C2497.699951,127.228668 2497.699951,86.177605 2497.699951,44.278152
	C2462.070068,60.882729 2427.070801,77.193436 2391.733398,93.661720
	C2391.733398,118.727898 2391.733398,143.806717 2391.733398,169.279541
	C2380.585693,169.279541 2369.840820,169.279541 2359.344727,169.279541
	C2359.344727,191.421570 2359.344727,213.161392 2359.344727,235.000092
	C2369.349121,235.000092 2379.009033,235.023239 2388.669189,234.980637
	C2390.614258,234.972061 2392.489014,234.799728 2392.000000,238.651627
M1254.000000,458.500000
	C1254.000000,402.345886 1254.101929,346.191376 1253.891235,290.038055
	C1253.859253,281.527710 1254.049927,273.671173 1261.525635,267.888306
	C1264.169922,265.842834 1266.194458,263.015289 1268.732422,260.810211
	C1286.285034,245.560562 1306.726440,240.843277 1329.104492,245.748611
	C1340.579224,248.263901 1351.662354,252.566437 1362.857910,256.041260
	C1362.857910,226.596878 1362.857910,196.475708 1362.857910,166.148895
	C1316.238892,152.043198 1279.292725,165.549850 1251.652344,205.177887
	C1250.762573,204.231934 1250.178467,203.906937 1250.119873,203.505280
	C1248.712524,193.862350 1247.114502,184.236557 1246.119629,174.549255
	C1245.710815,170.568268 1244.885132,168.862595 1240.388916,168.894165
	C1211.063599,169.100052 1181.736206,168.996674 1152.409424,169.010040
	C1150.981445,169.010696 1149.553467,169.157959 1148.295288,169.227554
	C1148.295288,294.693573 1148.295288,419.745667 1148.295288,544.708740
	C1183.657959,544.708740 1218.724487,544.708740 1254.000000,544.708740
	C1254.000000,516.111938 1254.000000,487.805969 1254.000000,458.500000
M1503.000000,434.500000
	C1503.000000,383.339844 1502.992554,332.179718 1503.031860,281.019592
	C1503.033203,279.282379 1502.886719,276.999756 1503.859253,275.898743
	C1509.460449,269.557251 1514.625366,262.472351 1521.333374,257.535217
	C1539.630005,244.068848 1560.288940,240.638840 1582.220703,246.725769
	C1592.192139,249.493286 1601.941895,253.059830 1611.820312,256.273010
	C1611.820312,226.642975 1611.820312,196.538116 1611.820312,166.175049
	C1565.302979,152.174347 1528.269043,165.399490 1499.862915,206.167847
	C1497.753296,192.860245 1495.869507,180.976685 1494.019043,169.303314
	C1461.333130,169.303314 1429.258667,169.303314 1397.290161,169.303314
	C1397.290161,294.667023 1397.290161,419.727264 1397.290161,544.710327
	C1432.650024,544.710327 1467.718872,544.710327 1503.000000,544.710327
	C1503.000000,508.114075 1503.000000,471.807037 1503.000000,434.500000
M1751.380859,545.000000
	C1752.823120,545.000000 1754.265381,545.000000 1755.752930,545.000000
	C1755.752930,419.437012 1755.752930,294.368134 1755.752930,169.250244
	C1720.434326,169.250244 1685.363281,169.250244 1650.250488,169.250244
	C1650.250488,294.569672 1650.250488,419.638672 1650.250488,545.000000
	C1683.800171,545.000000 1717.100342,545.000000 1751.380859,545.000000
M657.000000,743.500000
	C657.000000,721.070557 657.000000,698.641052 657.000000,676.292603
	C646.680725,676.292603 636.940918,676.292603 626.850647,676.292603
	C626.850647,701.980591 626.850647,727.377747 626.850647,753.581543
	C625.397705,752.478394 624.372253,751.984497 623.745239,751.180054
	C616.860413,742.346863 609.955383,733.527405 603.216980,724.582764
	C592.498657,710.355225 581.954285,695.996460 571.201294,681.795410
	C569.528687,679.586548 567.252075,676.430298 565.062561,676.265503
	C556.505005,675.621338 547.870239,676.002441 539.262939,676.002441
	C539.262939,720.257690 539.262939,763.995544 539.262939,807.732910
	C548.933899,807.732910 558.339722,807.732910 568.159119,807.732910
	C568.159119,780.780762 568.159119,754.093018 568.159119,726.056763
	C569.905518,728.133972 570.901306,729.206482 571.772095,730.372314
	C577.486816,738.023682 583.112122,745.742493 588.883850,753.350403
	C601.625061,770.144958 614.409485,786.906982 627.257874,803.619568
	C628.549072,805.299072 630.338013,807.714233 632.000000,807.801331
	C640.243896,808.233215 648.522766,807.998230 657.000000,807.998230
	C657.000000,786.453735 657.000000,765.476868 657.000000,743.500000
M1889.985962,697.476135
	C1885.654297,691.805725 1881.358521,686.107361 1876.968018,680.482849
	C1875.717896,678.881104 1874.246338,676.275452 1872.782593,676.209595
	C1863.888916,675.809204 1854.968140,676.009949 1846.345947,676.009949
	C1846.345947,720.446045 1846.345947,764.173706 1846.345947,807.653564
	C1856.100464,807.653564 1865.507202,807.653564 1875.325317,807.653564
	C1875.325317,780.331848 1875.325317,753.355530 1875.325317,725.462402
	C1876.583496,727.355103 1877.230103,728.450012 1877.993164,729.456604
	C1887.493164,741.987549 1897.014893,754.502014 1906.521118,767.028259
	C1915.927368,779.422791 1925.287720,791.852356 1934.767578,804.190247
	C1935.925659,805.697327 1937.654053,807.748535 1939.193848,807.815918
	C1947.425537,808.175781 1955.681152,807.985657 1963.661865,807.985657
	C1963.661865,763.569214 1963.661865,719.841675 1963.661865,676.338684
	C1953.582031,676.338684 1943.842651,676.338684 1933.757080,676.338684
	C1933.757080,702.055847 1933.757080,727.435486 1933.757080,752.815063
	C1933.385010,753.010315 1933.013062,753.205566 1932.640991,753.400757
	C1918.594238,734.934021 1904.547363,716.467224 1889.985962,697.476135
M1168.253784,807.943115
	C1168.502563,806.373535 1168.959106,804.804993 1168.966919,803.234131
	C1169.027222,791.236633 1169.000000,779.238708 1169.000000,767.240906
	C1169.000000,753.988281 1169.000000,740.735718 1169.000000,726.476990
	C1171.513794,729.405579 1173.484497,731.484741 1175.213135,733.748657
	C1193.417480,757.590027 1211.570557,781.470398 1229.798218,805.293884
	C1230.657715,806.417175 1232.061279,807.844604 1233.248657,807.880005
	C1241.029419,808.111938 1248.820312,807.999512 1256.800537,807.999512
	C1256.800537,763.872620 1256.800537,720.139832 1256.800537,676.203491
	C1247.209839,676.203491 1237.806030,676.203491 1227.847656,676.203491
	C1227.847656,702.209595 1227.847656,728.033203 1227.847656,753.856812
	C1219.843384,745.011780 1212.947388,735.748840 1205.921509,726.585571
	C1193.380249,710.229248 1180.770386,693.925415 1168.140991,677.637085
	C1167.572021,676.903198 1166.534058,676.082214 1165.703979,676.070862
	C1157.256104,675.955750 1148.806030,676.000488 1140.210693,676.000488
	C1140.210693,720.162598 1140.210693,763.895386 1140.210693,807.996094
	C1149.373047,807.996094 1158.329590,807.996094 1168.253784,807.943115
M982.000000,755.500000
	C982.000000,772.927063 982.000000,790.354126 982.000000,807.713928
	C992.309143,807.713928 1002.047180,807.713928 1012.176086,807.713928
	C1012.176086,793.691040 1012.176086,779.950012 1012.176086,766.000000
	C1018.715210,766.000000 1024.864746,765.851990 1030.996948,766.111206
	C1032.410522,766.170959 1034.246948,767.294006 1035.072266,768.490845
	C1043.492920,780.701050 1051.694214,793.062500 1060.118408,805.270203
	C1060.999512,806.547119 1062.904297,807.850952 1064.360107,807.880798
	C1075.078979,808.100708 1085.804565,807.999634 1097.306885,807.999634
	C1086.470337,792.120422 1076.088745,776.907898 1065.848877,761.902771
	C1071.031616,758.414062 1076.176392,755.796387 1080.269409,752.034363
	C1091.681519,741.545227 1094.371704,727.676819 1092.775269,713.099609
	C1091.852173,704.671448 1088.802734,696.499023 1082.588867,690.092041
	C1073.397583,680.615295 1061.737549,676.433167 1048.973145,676.132385
	C1028.156616,675.641968 1007.320007,675.995422 986.491882,676.009949
	C985.056946,676.010986 983.622131,676.154419 982.000000,676.241760
	C982.000000,702.554871 982.000000,728.527466 982.000000,755.500000
M934.000000,682.573486
	C934.000000,680.468445 934.000000,678.363403 934.000000,676.260376
	C900.406616,676.260376 867.339050,676.260376 834.255981,676.260376
	C834.255981,720.253906 834.255981,763.986694 834.255981,807.746277
	C867.913452,807.746277 901.314270,807.746277 934.743530,807.746277
	C934.743530,799.085632 934.743530,790.680847 934.743530,781.884155
	C911.085205,781.884155 887.680481,781.884155 864.258728,781.884155
	C864.258728,772.414062 864.258728,763.342896 864.258728,753.879028
	C884.919678,753.879028 905.325439,753.879028 925.738281,753.879028
	C925.738281,745.074768 925.738281,736.669800 925.738281,727.872925
	C905.074219,727.872925 884.668457,727.872925 864.264832,727.872925
	C864.264832,719.401794 864.264832,711.329956 864.264832,702.867310
	C887.598389,702.867310 910.669983,702.867310 934.000000,702.867310
	C934.000000,696.169495 934.000000,689.864746 934.000000,682.573486
M1408.960815,753.567932
	C1397.769653,727.404053 1386.578369,701.240173 1375.409790,675.128906
	C1365.961792,675.128906 1356.653931,675.128906 1347.608154,675.128906
	C1328.751953,719.472534 1309.981934,763.613586 1291.107666,808.000000
	C1300.609741,808.000000 1309.603516,807.928284 1318.594604,808.043945
	C1321.278198,808.078491 1322.384766,807.322327 1323.350830,804.523926
	C1325.958496,796.971130 1329.127075,789.594910 1332.448242,782.319885
	C1333.128418,780.830200 1335.431152,779.164673 1337.008179,779.142334
	C1353.326904,778.910950 1369.650635,778.939453 1385.970825,779.112793
	C1387.306885,779.126953 1389.334717,780.440491 1389.838135,781.650574
	C1393.093140,789.476196 1395.928345,797.475769 1399.137939,805.321411
	C1399.610840,806.477356 1401.322998,807.857361 1402.489380,807.882874
	C1411.942383,808.090515 1421.401978,807.999451 1431.448730,807.999451
	C1430.785034,805.773499 1430.420898,804.058350 1429.767822,802.461548
	C1428.251953,798.754883 1426.584839,795.110291 1424.999268,791.431824
	C1419.672974,779.075073 1414.355347,766.714478 1408.960815,753.567932
M2034.503540,720.997864
	C2022.246338,749.838501 2009.989014,778.679138 1997.588135,807.857544
	C2008.436890,807.857544 2018.574951,807.857544 2028.378174,807.857544
	C2032.436646,798.046265 2036.395508,788.475769 2040.315186,779.000061
	C2057.800049,779.000061 2074.791504,779.021362 2091.782959,778.975708
	C2094.172363,778.969299 2095.289551,779.454285 2096.229736,782.194519
	C2098.876221,789.908264 2102.235107,797.385132 2105.513916,804.867371
	C2106.068604,806.133423 2107.598633,807.831055 2108.713623,807.858093
	C2118.424316,808.093872 2128.143311,807.994202 2138.439697,807.994202
	C2119.353271,763.169800 2100.597168,719.121826 2081.810059,675.000366
	C2073.244873,675.000366 2064.918457,674.904114 2056.599609,675.106262
	C2055.382568,675.135864 2053.572998,676.315430 2053.096436,677.419739
	C2046.940918,691.682556 2040.977539,706.028320 2034.503540,720.997864
M1547.268188,676.057678
	C1510.864990,676.057678 1474.461792,676.057678 1438.191528,676.057678
	C1438.191528,685.685486 1438.191528,694.639832 1438.191528,703.988892
	C1451.450684,703.988892 1464.526611,703.988892 1477.990845,703.988892
	C1477.990845,738.788879 1477.990845,773.192749 1477.990845,807.796814
	C1488.124390,807.796814 1497.861938,807.796814 1507.995850,807.796814
	C1507.995850,773.206055 1507.995850,738.802246 1507.995850,704.002075
	C1521.459839,704.002075 1534.535767,704.002075 1547.943726,704.002075
	C1547.943726,694.654663 1547.943726,685.701477 1547.268188,676.057678
M760.000000,725.500122
	C760.000000,718.401428 760.000000,711.302734 760.000000,703.820618
	C773.645447,703.820618 786.720520,703.820618 799.708801,703.820618
	C799.708801,694.347534 799.708801,685.275696 799.708801,676.287598
	C763.350037,676.287598 727.283264,676.287598 691.289978,676.287598
	C691.289978,685.649963 691.289978,694.721985 691.289978,704.184692
	C704.650818,704.184692 717.725891,704.184692 731.182983,704.184692
	C731.182983,738.983337 731.182983,773.385376 731.182983,807.709473
	C740.984375,807.709473 750.389648,807.709473 760.000000,807.709473
	C760.000000,780.446350 760.000000,753.473145 760.000000,725.500122
M2244.500000,808.000000
	C2251.265625,808.000000 2258.031250,808.000000 2264.709229,808.000000
	C2264.709229,798.682495 2264.709229,789.943542 2264.709229,780.814941
	C2243.015137,780.814941 2221.609375,780.814941 2199.815674,780.814941
	C2199.815674,745.682800 2199.815674,710.946594 2199.815674,676.292236
	C2189.679199,676.292236 2179.940430,676.292236 2170.289062,676.292236
	C2170.289062,720.318604 2170.289062,764.052063 2170.289062,808.000000
	C2194.884766,808.000000 2219.192383,808.000000 2244.500000,808.000000
M464.521149,676.000000
	C461.082275,676.000000 457.643433,676.000000 454.278839,676.000000
	C454.278839,720.296875 454.278839,764.031189 454.278839,807.718262
	C464.298889,807.718262 474.037567,807.718262 483.720367,807.718262
	C483.720367,763.701538 483.720367,719.967224 483.720367,676.000000
	C477.467194,676.000000 471.491852,676.000000 464.521149,676.000000
M1615.000000,779.500000
	C1615.000000,745.074585 1615.000000,710.649231 1615.000000,676.286072
	C1604.692017,676.286072 1594.953369,676.286072 1585.283203,676.286072
	C1585.283203,720.306641 1585.283203,764.040588 1585.283203,807.713989
	C1595.307739,807.713989 1605.046509,807.713989 1615.000000,807.713989
	C1615.000000,798.453064 1615.000000,789.476562 1615.000000,779.500000
z"/>
<path fill="#000000" opacity="1.000000" stroke="none"
	d="
M0.999994,567.416626
	C2.421213,564.757568 4.089668,562.632935 5.223174,560.253418
	C12.126727,545.761169 18.978813,531.243408 25.714350,516.672302
	C35.340626,495.847626 44.872982,474.979431 54.385990,454.102692
	C55.594597,451.450378 56.961418,450.349792 60.066597,451.474579
	C78.807137,458.262848 98.292618,460.359497 117.996971,458.870422
	C141.313950,457.108337 162.072968,448.901154 179.762131,432.930115
	C196.044250,418.229462 208.123810,400.487122 218.611374,381.621796
	C227.975311,364.777679 236.567413,347.479340 244.903610,330.095398
	C255.587830,307.814972 265.777649,285.294128 275.854340,262.731201
	C276.818878,260.571503 276.164215,257.066132 275.092865,254.718735
	C266.893066,236.751923 258.369202,218.933365 250.011627,201.038116
	C235.885056,170.790359 221.818573,140.514557 207.702911,110.261719
	C200.914749,95.713242 194.127594,81.163795 187.233185,66.665588
	C183.094330,57.962013 182.949005,57.894691 191.677231,53.761047
	C214.314270,43.040257 236.996246,32.414249 259.672180,21.775732
	C272.894806,15.572277 286.168274,9.476234 299.355804,3.199439
	C302.641205,1.635709 304.442047,1.436779 306.303284,5.492659
	C318.757782,32.632675 331.545990,59.619537 344.218323,86.659653
	C353.345917,106.136070 362.486420,125.606514 371.576843,145.100281
	C383.176361,169.974670 394.726288,194.872208 406.307220,219.755280
	C413.283447,234.744476 420.280304,249.724030 427.263733,264.709869
	C437.837799,287.400909 448.404572,310.095306 458.988739,332.781647
	C459.657227,334.214508 460.449219,335.589722 461.451477,337.502747
	C473.159058,312.164642 484.629303,287.432343 495.941376,262.627930
	C496.617157,261.146149 496.607635,258.824890 495.936188,257.336884
	C489.069214,242.119293 482.035675,226.976273 474.977386,211.845688
	C462.898651,185.952957 450.758606,160.088867 438.663910,134.203583
	C429.899170,115.445190 421.148682,96.680077 412.428070,77.901138
	C409.276001,71.113510 406.229218,64.276970 403.142242,57.480103
	C429.488983,45.144524 455.641388,32.881145 481.811371,20.655298
	C494.316498,14.813272 506.885651,9.107247 519.357605,3.195810
	C522.654541,1.633138 524.449951,1.455308 526.299683,5.500137
	C538.116760,31.340273 550.265137,57.028927 562.313904,82.763031
	C569.121460,97.302841 575.984924,111.816582 582.755737,126.373451
	C594.262085,151.111313 605.677246,175.891541 617.202454,200.620590
	C626.357971,220.265091 635.669556,239.836807 644.823059,259.482208
	C656.617310,284.795288 668.284302,310.167725 680.079468,335.480377
	C688.962219,354.542816 698.009705,373.528412 706.894836,392.589722
	C718.692688,417.899719 730.369690,443.266022 742.163574,468.577850
	C751.046143,487.641327 760.061707,506.642822 768.952271,525.702576
	C771.844788,531.903503 774.529724,538.201294 777.479126,544.835999
	C727.989563,544.835999 679.190063,544.835999 630.302551,544.835999
	C619.498474,521.714722 608.706665,498.578888 597.878784,475.459930
	C588.958557,456.414124 579.948730,437.410156 571.063049,418.348297
	C559.265137,393.039154 547.545593,367.693542 535.802979,342.358643
	C534.343994,339.210846 532.950317,336.032745 531.068359,331.850983
	C526.166565,341.968140 521.633606,351.091492 517.306396,360.311371
	C511.238586,373.239746 505.314606,386.235748 499.350891,399.212830
	C498.013275,402.123474 496.002228,405.000519 495.704224,408.031006
	C495.436981,410.748749 496.761566,413.810974 497.968933,416.453979
	C503.973602,429.598328 510.194305,442.643799 516.296875,455.743683
	C530.113098,485.401886 543.904663,515.071594 557.828796,545.000000
	C522.358093,545.000000 487.223480,545.000000 452.088867,545.000000
	C440.089630,545.000000 428.078400,544.689636 416.096985,545.151672
	C411.255737,545.338318 409.481659,543.390381 407.664185,539.391479
	C395.248138,512.073059 382.634491,484.843567 369.945740,457.650208
	C357.250305,430.442474 344.356384,403.327454 331.622162,376.137756
	C324.890594,361.764771 318.313690,347.319305 311.212708,331.921509
	C309.359802,335.483887 307.825256,338.176361 306.525116,340.977661
	C300.308929,354.371216 294.245758,367.836395 287.962494,381.198181
	C274.705811,409.389374 261.573700,437.642670 247.958572,465.660645
	C236.286072,489.680969 222.434891,512.353333 204.908493,532.703064
	C189.617432,550.457397 172.586670,565.969604 151.300995,576.176758
	C138.791595,582.175354 125.792969,586.876465 111.769974,588.013000
	C104.265503,588.621277 96.762283,589.966736 89.271103,589.880859
	C67.230637,589.627930 45.594891,586.207825 24.493834,579.783813
	C16.844610,577.455017 9.352613,574.609741 1.394436,572.000122
	C1.000000,570.611084 1.000000,569.222229 0.999994,567.416626
z"/>
<path fill="#000000" opacity="1.000000" stroke="none"
	d="
M1725.444092,811.000000
	C1719.877075,810.003113 1714.715332,809.171204 1709.637573,807.981567
	C1683.373779,801.828369 1663.958252,780.512573 1659.893188,753.639771
	C1656.834595,733.420837 1660.999023,715.109619 1673.513794,699.236694
	C1683.749146,686.254883 1697.536377,677.947876 1713.985352,675.086243
	C1730.168213,672.270874 1746.350464,673.026001 1761.320557,680.249268
	C1777.670044,688.138000 1789.785522,700.605103 1795.540894,718.160156
	C1804.603516,745.802490 1799.542236,770.744263 1778.836182,791.421692
	C1766.512573,803.728210 1750.887207,809.753662 1733.156250,810.599243
	C1730.629395,811.000000 1728.258911,811.000000 1725.444092,811.000000
M1713.473267,779.045227
	C1716.812500,780.070679 1720.100342,781.329285 1723.500122,782.080872
	C1737.619995,785.202393 1749.231201,779.753662 1758.374634,769.800293
	C1765.646362,761.884460 1768.214966,751.788513 1768.175415,740.666809
	C1768.096680,718.489563 1747.495239,697.871033 1723.355347,701.847961
	C1702.762085,705.240662 1690.879395,721.744080 1690.195312,739.579956
	C1689.531128,756.899658 1696.389160,770.871704 1713.473267,779.045227
z"/>
<path fill="#000000" opacity="1.000000" stroke="none"
	d="
M2615.000000,85.531334
	C2612.740967,89.778770 2610.651367,93.671860 2608.192139,97.315269
	C2600.387695,108.877785 2589.010010,114.154411 2575.548828,112.769707
	C2561.145996,111.288185 2550.944092,103.172577 2545.960449,89.101959
	C2540.057617,72.435181 2542.487061,57.070652 2554.001221,43.798508
	C2558.702881,38.378876 2565.209473,35.134438 2572.855225,33.820065
	C2586.192139,31.527407 2597.091064,35.582077 2605.535156,45.382324
	C2609.476562,49.956547 2611.417480,56.254280 2614.632812,61.885418
	C2615.000000,69.687576 2615.000000,77.375153 2615.000000,85.531334
M2564.029053,43.449596
	C2562.969971,44.179962 2561.823242,44.810726 2560.865479,45.655830
	C2549.190918,55.955410 2546.898682,69.180176 2550.141602,83.484306
	C2552.722168,94.866539 2559.725098,103.398193 2571.262207,106.552979
	C2582.335693,109.580956 2592.601074,106.871445 2600.320068,98.059090
	C2610.325684,86.636040 2611.896240,73.661316 2607.160645,59.223473
	C2601.580566,42.211220 2580.296387,32.917965 2564.029053,43.449596
z"/>
<path fill="#000000" opacity="1.000000" stroke="none"
	d="
M1010.855469,169.016357
	C1020.565735,173.360001 1030.190796,177.106689 1039.078857,182.151489
	C1051.758301,189.348236 1061.517578,199.758972 1069.084839,212.329132
	C1078.558350,228.065765 1083.123535,245.147720 1083.965210,263.319824
	C1084.485962,274.560638 1084.943848,285.816925 1084.955444,297.066772
	C1085.038574,377.717041 1085.000000,458.367401 1085.000000,539.017761
	C1085.000000,540.826721 1085.000000,542.635742 1085.000000,544.721313
	C1052.363037,544.721313 1019.960571,544.721313 987.464050,544.721313
	C985.573975,532.326538 983.676147,519.880615 981.920593,508.368134
	C973.549133,515.516846 965.169006,523.492676 955.953918,530.345825
	C942.810913,540.120300 927.903992,546.266663 911.891418,550.132629
	C897.387878,553.634338 882.715942,553.750732 868.171875,552.753479
	C851.774170,551.629211 836.443787,545.913513 822.894470,536.337585
	C800.664795,520.626831 787.562073,499.024414 781.916931,472.522247
	C779.360229,460.519196 778.202209,448.424438 779.107666,436.295776
	C781.233704,407.815857 789.662354,381.759888 808.722473,359.567413
	C821.677612,344.483246 837.033020,332.816223 854.262390,323.277679
	C878.812500,309.686279 905.220947,301.388733 932.603271,296.062195
	C947.849670,293.096436 963.239807,290.869293 978.719177,288.283569
	C980.404358,275.805359 977.852783,263.898773 969.338989,254.033066
	C962.651123,246.283310 953.534363,241.821167 943.741821,239.044373
	C929.260925,234.938126 914.612305,234.449097 899.574158,235.799011
	C876.470154,237.872971 855.330505,245.496460 835.057800,256.069000
	C828.392212,259.545227 822.159241,263.850891 815.398621,267.978638
	C815.398621,241.725449 815.398621,215.552216 815.398621,189.189651
	C837.128113,179.185913 859.885925,171.825165 883.607910,166.776321
	C911.270935,160.888687 939.166687,159.959518 967.081482,161.342926
	C981.625427,162.063690 995.993530,166.332779 1010.855469,169.016357
M917.633179,377.032898
	C917.072693,377.356659 916.514404,377.684235 915.951477,378.003723
	C892.757935,391.165222 881.755493,412.072235 887.137390,438.419281
	C889.728088,451.102356 896.683411,461.431824 908.407227,467.737488
	C926.766418,477.612000 954.548279,470.637390 967.067749,451.055450
	C975.182983,438.362335 978.153076,424.275879 978.850830,409.717224
	C979.535339,395.434448 979.007629,381.093170 978.986755,366.777618
	C978.984924,365.529114 978.795593,364.280853 978.674316,362.800690
	C971.625916,363.562469 964.966248,364.196838 958.329590,365.017334
	C944.352783,366.745300 930.753662,369.791168 917.633179,377.032898
z"/>
<path fill="#000000" opacity="1.000000" stroke="none"
	d="
M2078.267090,210.763092
	C2092.847168,228.974991 2101.695312,249.683609 2106.640869,271.769135
	C2109.825684,285.993500 2111.185059,300.785919 2111.804199,315.389771
	C2112.852051,340.105438 2113.235107,364.882355 2112.843262,389.616821
	C2112.436035,415.336182 2109.268311,440.835693 2099.892334,465.038452
	C2091.556641,486.555664 2079.324463,505.693359 2061.610107,520.781616
	C2043.452515,536.247437 2022.360474,545.935242 1998.868286,549.879700
	C1988.583740,551.606506 1978.089844,552.193787 1967.666138,552.960632
	C1944.887085,554.636414 1922.740112,551.517395 1901.122437,544.078918
	C1885.340576,538.648499 1871.445068,530.340332 1858.779419,519.455872
	C1845.332275,507.899872 1835.434570,493.859680 1827.730103,478.182556
	C1819.519165,461.475006 1814.736694,443.725159 1811.876709,425.288300
	C1807.737427,398.605957 1809.441772,371.802734 1809.015381,345.038605
	C1808.911865,338.541962 1808.913818,332.040924 1809.015259,325.544220
	C1809.408203,300.386536 1812.357788,275.632812 1820.991089,251.813049
	C1827.376953,234.194656 1836.511230,218.305389 1849.095947,204.226486
	C1864.411499,187.092377 1883.175049,175.567337 1904.808350,168.854797
	C1915.374023,165.576370 1926.447998,163.318329 1937.453125,162.232254
	C1950.769409,160.918091 1964.316406,160.368668 1977.656982,161.199142
	C2006.183350,162.974930 2032.853149,171.339432 2055.882812,188.696686
	C2064.080811,194.875290 2070.678467,203.176971 2078.267090,210.763092
M1929.992798,464.491760
	C1932.494019,466.992310 1934.870850,469.634125 1937.518433,471.968719
	C1948.434082,481.593811 1970.354004,481.029419 1981.529907,473.898529
	C1990.980225,467.868835 1997.350586,459.106110 1999.810791,448.383514
	C2002.626587,436.111511 2005.430176,423.542236 2005.724976,411.042816
	C2006.526245,377.069244 2006.344360,343.058990 2005.816528,309.074677
	C2005.627441,296.905792 2004.295532,284.565460 2001.775146,272.665588
	C1997.850098,254.133957 1988.831055,239.101990 1968.055664,235.566818
	C1953.126099,233.026398 1938.670044,237.421326 1929.007446,251.120239
	C1919.277588,264.914185 1916.279907,281.171967 1916.336548,297.160645
	C1916.495361,341.980011 1913.571655,386.868134 1918.038452,431.626251
	C1919.202026,443.285461 1922.537109,454.295868 1929.992798,464.491760
z"/>
<path fill="#000000" opacity="1.000000" stroke="none"
	d="
M2208.314697,75.265778
	C2230.877686,64.730286 2253.127930,54.426048 2275.756348,43.946560
	C2275.756348,85.557838 2275.756348,126.935692 2275.756348,168.707489
	C2293.500488,168.707489 2310.904785,168.707489 2328.653809,168.707489
	C2328.653809,190.830200 2328.653809,212.564682 2328.653809,234.694580
	C2311.512695,234.694580 2294.108154,234.694580 2276.167480,234.694580
	C2276.167480,338.250488 2276.167480,441.414276 2276.167480,544.788391
	C2240.567139,544.788391 2205.504639,544.788391 2170.080566,544.788391
	C2170.080566,441.603485 2170.080566,338.558105 2170.080566,235.116364
	C2158.656250,235.116364 2147.581787,235.116364 2136.256592,235.116364
	C2136.256592,212.988266 2136.256592,191.255280 2136.256592,169.124329
	C2147.335205,169.124329 2158.410156,169.124329 2169.827881,169.124329
	C2169.827881,143.643219 2169.827881,118.554314 2169.827881,93.376663
	C2182.720215,87.338249 2195.360840,81.417633 2208.314697,75.265778
z"/>
<path fill="#000000" opacity="1.000000" stroke="none"
	d="
M2392.000000,238.166138
	C2392.489014,234.799728 2390.614258,234.972061 2388.669189,234.980637
	C2379.009033,235.023239 2369.349121,235.000092 2359.344727,235.000092
	C2359.344727,213.161392 2359.344727,191.421570 2359.344727,169.279541
	C2369.840820,169.279541 2380.585693,169.279541 2391.733398,169.279541
	C2391.733398,143.806717 2391.733398,118.727898 2391.733398,93.661720
	C2427.070801,77.193436 2462.070068,60.882729 2497.699951,44.278152
	C2497.699951,86.177605 2497.699951,127.228668 2497.699951,168.680420
	C2515.470459,168.680420 2532.879639,168.680420 2550.643555,168.680420
	C2550.643555,190.814850 2550.643555,212.554947 2550.643555,234.697021
	C2533.512695,234.697021 2516.103516,234.697021 2498.296387,234.697021
	C2498.296387,338.167664 2498.296387,441.239014 2498.296387,544.655029
	C2462.828125,544.655029 2427.755615,544.655029 2392.000000,544.655029
	C2392.000000,442.810333 2392.000000,340.730988 2392.000000,238.166138
z"/>
<path fill="#000000" opacity="1.000000" stroke="none"
	d="
M1254.000000,459.000000
	C1254.000000,487.805969 1254.000000,516.111938 1254.000000,544.708740
	C1218.724487,544.708740 1183.657959,544.708740 1148.295288,544.708740
	C1148.295288,419.745667 1148.295288,294.693573 1148.295288,169.227554
	C1149.553467,169.157959 1150.981445,169.010696 1152.409424,169.010040
	C1181.736206,168.996674 1211.063599,169.100052 1240.388916,168.894165
	C1244.885132,168.862595 1245.710815,170.568268 1246.119629,174.549255
	C1247.114502,184.236557 1248.712524,193.862350 1250.119873,203.505280
	C1250.178467,203.906937 1250.762573,204.231934 1251.652344,205.177887
	C1279.292725,165.549850 1316.238892,152.043198 1362.857910,166.148895
	C1362.857910,196.475708 1362.857910,226.596878 1362.857910,256.041260
	C1351.662354,252.566437 1340.579224,248.263901 1329.104492,245.748611
	C1306.726440,240.843277 1286.285034,245.560562 1268.732422,260.810211
	C1266.194458,263.015289 1264.169922,265.842834 1261.525635,267.888306
	C1254.049927,273.671173 1253.859253,281.527710 1253.891235,290.038055
	C1254.101929,346.191376 1254.000000,402.345886 1254.000000,459.000000
z"/>
<path fill="#000000" opacity="1.000000" stroke="none"
	d="
M1503.000000,435.000000
	C1503.000000,471.807037 1503.000000,508.114075 1503.000000,544.710327
	C1467.718872,544.710327 1432.650024,544.710327 1397.290161,544.710327
	C1397.290161,419.727264 1397.290161,294.667023 1397.290161,169.303314
	C1429.258667,169.303314 1461.333130,169.303314 1494.019043,169.303314
	C1495.869507,180.976685 1497.753296,192.860245 1499.862915,206.167847
	C1528.269043,165.399490 1565.302979,152.174347 1611.820312,166.175049
	C1611.820312,196.538116 1611.820312,226.642975 1611.820312,256.273010
	C1601.941895,253.059830 1592.192139,249.493286 1582.220703,246.725769
	C1560.288940,240.638840 1539.630005,244.068848 1521.333374,257.535217
	C1514.625366,262.472351 1509.460449,269.557251 1503.859253,275.898743
	C1502.886719,276.999756 1503.033203,279.282379 1503.031860,281.019592
	C1502.992554,332.179718 1503.000000,383.339844 1503.000000,435.000000
z"/>
<path fill="#000000" opacity="1.000000" stroke="none"
	d="
M1750.890625,545.000000
	C1717.100342,545.000000 1683.800171,545.000000 1650.250488,545.000000
	C1650.250488,419.638672 1650.250488,294.569672 1650.250488,169.250244
	C1685.363281,169.250244 1720.434326,169.250244 1755.752930,169.250244
	C1755.752930,294.368134 1755.752930,419.437012 1755.752930,545.000000
	C1754.265381,545.000000 1752.823120,545.000000 1750.890625,545.000000
z"/>
<path fill="#000000" opacity="1.000000" stroke="none"
	d="
M657.000000,744.000000
	C657.000000,765.476868 657.000000,786.453735 657.000000,807.998230
	C648.522766,807.998230 640.243896,808.233215 632.000000,807.801331
	C630.338013,807.714233 628.549072,805.299072 627.257874,803.619568
	C614.409485,786.906982 601.625061,770.144958 588.883850,753.350403
	C583.112122,745.742493 577.486816,738.023682 571.772095,730.372314
	C570.901306,729.206482 569.905518,728.133972 568.159119,726.056763
	C568.159119,754.093018 568.159119,780.780762 568.159119,807.732910
	C558.339722,807.732910 548.933899,807.732910 539.262939,807.732910
	C539.262939,763.995544 539.262939,720.257690 539.262939,676.002441
	C547.870239,676.002441 556.505005,675.621338 565.062561,676.265503
	C567.252075,676.430298 569.528687,679.586548 571.201294,681.795410
	C581.954285,695.996460 592.498657,710.355225 603.216980,724.582764
	C609.955383,733.527405 616.860413,742.346863 623.745239,751.180054
	C624.372253,751.984497 625.397705,752.478394 626.850647,753.581543
	C626.850647,727.377747 626.850647,701.980591 626.850647,676.292603
	C636.940918,676.292603 646.680725,676.292603 657.000000,676.292603
	C657.000000,698.641052 657.000000,721.070557 657.000000,744.000000
z"/>
<path fill="#000000" opacity="1.000000" stroke="none"
	d="
M1890.243286,697.738281
	C1904.547363,716.467224 1918.594238,734.934021 1932.640991,753.400757
	C1933.013062,753.205566 1933.385010,753.010315 1933.757080,752.815063
	C1933.757080,727.435486 1933.757080,702.055847 1933.757080,676.338684
	C1943.842651,676.338684 1953.582031,676.338684 1963.661865,676.338684
	C1963.661865,719.841675 1963.661865,763.569214 1963.661865,807.985657
	C1955.681152,807.985657 1947.425537,808.175781 1939.193848,807.815918
	C1937.654053,807.748535 1935.925659,805.697327 1934.767578,804.190247
	C1925.287720,791.852356 1915.927368,779.422791 1906.521118,767.028259
	C1897.014893,754.502014 1887.493164,741.987549 1877.993164,729.456604
	C1877.230103,728.450012 1876.583496,727.355103 1875.325317,725.462402
	C1875.325317,753.355530 1875.325317,780.331848 1875.325317,807.653564
	C1865.507202,807.653564 1856.100464,807.653564 1846.345947,807.653564
	C1846.345947,764.173706 1846.345947,720.446045 1846.345947,676.009949
	C1854.968140,676.009949 1863.888916,675.809204 1872.782593,676.209595
	C1874.246338,676.275452 1875.717896,678.881104 1876.968018,680.482849
	C1881.358521,686.107361 1885.654297,691.805725 1890.243286,697.738281
z"/>
<path fill="#000000" opacity="1.000000" stroke="none"
	d="
M1167.770020,807.969604
	C1158.329590,807.996094 1149.373047,807.996094 1140.210693,807.996094
	C1140.210693,763.895386 1140.210693,720.162598 1140.210693,676.000488
	C1148.806030,676.000488 1157.256104,675.955750 1165.703979,676.070862
	C1166.534058,676.082214 1167.572021,676.903198 1168.140991,677.637085
	C1180.770386,693.925415 1193.380249,710.229248 1205.921509,726.585571
	C1212.947388,735.748840 1219.843384,745.011780 1227.847656,753.856812
	C1227.847656,728.033203 1227.847656,702.209595 1227.847656,676.203491
	C1237.806030,676.203491 1247.209839,676.203491 1256.800537,676.203491
	C1256.800537,720.139832 1256.800537,763.872620 1256.800537,807.999512
	C1248.820312,807.999512 1241.029419,808.111938 1233.248657,807.880005
	C1232.061279,807.844604 1230.657715,806.417175 1229.798218,805.293884
	C1211.570557,781.470398 1193.417480,757.590027 1175.213135,733.748657
	C1173.484497,731.484741 1171.513794,729.405579 1169.000000,726.476990
	C1169.000000,740.735718 1169.000000,753.988281 1169.000000,767.240906
	C1169.000000,779.238708 1169.027222,791.236633 1168.966919,803.234131
	C1168.959106,804.804993 1168.502563,806.373535 1167.770020,807.969604
z"/>
<path fill="#000000" opacity="1.000000" stroke="none"
	d="
M982.000000,755.000000
	C982.000000,728.527466 982.000000,702.554871 982.000000,676.241760
	C983.622131,676.154419 985.056946,676.010986 986.491882,676.009949
	C1007.320007,675.995422 1028.156616,675.641968 1048.973145,676.132385
	C1061.737549,676.433167 1073.397583,680.615295 1082.588867,690.092041
	C1088.802734,696.499023 1091.852173,704.671448 1092.775269,713.099609
	C1094.371704,727.676819 1091.681519,741.545227 1080.269409,752.034363
	C1076.176392,755.796387 1071.031616,758.414062 1065.848877,761.902771
	C1076.088745,776.907898 1086.470337,792.120422 1097.306885,807.999634
	C1085.804565,807.999634 1075.078979,808.100708 1064.360107,807.880798
	C1062.904297,807.850952 1060.999512,806.547119 1060.118408,805.270203
	C1051.694214,793.062500 1043.492920,780.701050 1035.072266,768.490845
	C1034.246948,767.294006 1032.410522,766.170959 1030.996948,766.111206
	C1024.864746,765.851990 1018.715210,766.000000 1012.176086,766.000000
	C1012.176086,779.950012 1012.176086,793.691040 1012.176086,807.713928
	C1002.047180,807.713928 992.309143,807.713928 982.000000,807.713928
	C982.000000,790.354126 982.000000,772.927063 982.000000,755.000000
M1038.342285,740.000000
	C1041.406128,739.663635 1044.494507,739.472412 1047.529297,738.963135
	C1056.189331,737.510010 1063.263672,729.982605 1062.880859,721.663818
	C1062.484009,713.039185 1058.443726,705.290771 1048.520508,704.284485
	C1036.526611,703.068115 1024.315063,703.996155 1012.267456,703.996155
	C1012.267456,715.651917 1012.267456,727.699219 1012.267456,740.000000
	C1020.814087,740.000000 1029.095825,740.000000 1038.342285,740.000000
z"/>
<path fill="#000000" opacity="1.000000" stroke="none"
	d="
M934.000000,683.066772
	C934.000000,689.864746 934.000000,696.169495 934.000000,702.867310
	C910.669983,702.867310 887.598389,702.867310 864.264832,702.867310
	C864.264832,711.329956 864.264832,719.401794 864.264832,727.872925
	C884.668457,727.872925 905.074219,727.872925 925.738281,727.872925
	C925.738281,736.669800 925.738281,745.074768 925.738281,753.879028
	C905.325439,753.879028 884.919678,753.879028 864.258728,753.879028
	C864.258728,763.342896 864.258728,772.414062 864.258728,781.884155
	C887.680481,781.884155 911.085205,781.884155 934.743530,781.884155
	C934.743530,790.680847 934.743530,799.085632 934.743530,807.746277
	C901.314270,807.746277 867.913452,807.746277 834.255981,807.746277
	C834.255981,763.986694 834.255981,720.253906 834.255981,676.260376
	C867.339050,676.260376 900.406616,676.260376 934.000000,676.260376
	C934.000000,678.363403 934.000000,680.468445 934.000000,683.066772
z"/>
<path fill="#000000" opacity="1.000000" stroke="none"
	d="
M1408.997681,753.961670
	C1414.355347,766.714478 1419.672974,779.075073 1424.999268,791.431824
	C1426.584839,795.110291 1428.251953,798.754883 1429.767822,802.461548
	C1430.420898,804.058350 1430.785034,805.773499 1431.448730,807.999451
	C1421.401978,807.999451 1411.942383,808.090515 1402.489380,807.882874
	C1401.322998,807.857361 1399.610840,806.477356 1399.137939,805.321411
	C1395.928345,797.475769 1393.093140,789.476196 1389.838135,781.650574
	C1389.334717,780.440491 1387.306885,779.126953 1385.970825,779.112793
	C1369.650635,778.939453 1353.326904,778.910950 1337.008179,779.142334
	C1335.431152,779.164673 1333.128418,780.830200 1332.448242,782.319885
	C1329.127075,789.594910 1325.958496,796.971130 1323.350830,804.523926
	C1322.384766,807.322327 1321.278198,808.078491 1318.594604,808.043945
	C1309.603516,807.928284 1300.609741,808.000000 1291.107666,808.000000
	C1309.981934,763.613586 1328.751953,719.472534 1347.608154,675.128906
	C1356.653931,675.128906 1365.961792,675.128906 1375.409790,675.128906
	C1386.578369,701.240173 1397.769653,727.404053 1408.997681,753.961670
M1364.486084,752.000000
	C1368.601929,752.000000 1372.717773,752.000000 1377.695557,752.000000
	C1372.202637,738.752441 1366.997681,726.199585 1361.792847,713.646790
	C1361.322266,713.721985 1360.851562,713.797180 1360.380859,713.872375
	C1355.250732,726.390503 1350.120483,738.908691 1344.755249,752.000000
	C1351.298462,752.000000 1357.394287,752.000000 1364.486084,752.000000
z"/>
<path fill="#000000" opacity="1.000000" stroke="none"
	d="
M2034.734619,720.675537
	C2040.977539,706.028320 2046.940918,691.682556 2053.096436,677.419739
	C2053.572998,676.315430 2055.382568,675.135864 2056.599609,675.106262
	C2064.918457,674.904114 2073.244873,675.000366 2081.810059,675.000366
	C2100.597168,719.121826 2119.353271,763.169800 2138.439697,807.994202
	C2128.143311,807.994202 2118.424316,808.093872 2108.713623,807.858093
	C2107.598633,807.831055 2106.068604,806.133423 2105.513916,804.867371
	C2102.235107,797.385132 2098.876221,789.908264 2096.229736,782.194519
	C2095.289551,779.454285 2094.172363,778.969299 2091.782959,778.975708
	C2074.791504,779.021362 2057.800049,779.000061 2040.315186,779.000061
	C2036.395508,788.475769 2032.436646,798.046265 2028.378174,807.857544
	C2018.574951,807.857544 2008.436890,807.857544 1997.588135,807.857544
	C2009.989014,778.679138 2022.246338,749.838501 2034.734619,720.675537
M2058.034424,734.644653
	C2055.814697,740.367615 2053.595215,746.090515 2051.336670,751.913940
	C2062.310791,751.913940 2072.929688,751.913940 2083.985596,751.913940
	C2078.596191,738.802979 2073.301270,725.921814 2067.605225,712.065247
	C2064.254639,720.137024 2061.377197,727.068542 2058.034424,734.644653
z"/>
<path fill="#000000" opacity="1.000000" stroke="none"
	d="
M1547.605957,676.402954
	C1547.943726,685.701477 1547.943726,694.654663 1547.943726,704.002075
	C1534.535767,704.002075 1521.459839,704.002075 1507.995850,704.002075
	C1507.995850,738.802246 1507.995850,773.206055 1507.995850,807.796814
	C1497.861938,807.796814 1488.124390,807.796814 1477.990845,807.796814
	C1477.990845,773.192749 1477.990845,738.788879 1477.990845,703.988892
	C1464.526611,703.988892 1451.450684,703.988892 1438.191528,703.988892
	C1438.191528,694.639832 1438.191528,685.685486 1438.191528,676.057678
	C1474.461792,676.057678 1510.864990,676.057678 1547.605957,676.402954
z"/>
<path fill="#000000" opacity="1.000000" stroke="none"
	d="
M760.000000,726.000061
	C760.000000,753.473145 760.000000,780.446350 760.000000,807.709473
	C750.389648,807.709473 740.984375,807.709473 731.182983,807.709473
	C731.182983,773.385376 731.182983,738.983337 731.182983,704.184692
	C717.725891,704.184692 704.650818,704.184692 691.289978,704.184692
	C691.289978,694.721985 691.289978,685.649963 691.289978,676.287598
	C727.283264,676.287598 763.350037,676.287598 799.708801,676.287598
	C799.708801,685.275696 799.708801,694.347534 799.708801,703.820618
	C786.720520,703.820618 773.645447,703.820618 760.000000,703.820618
	C760.000000,711.302734 760.000000,718.401428 760.000000,726.000061
z"/>
<path fill="#000000" opacity="1.000000" stroke="none"
	d="
M2244.000000,808.000000
	C2219.192383,808.000000 2194.884766,808.000000 2170.289062,808.000000
	C2170.289062,764.052063 2170.289062,720.318604 2170.289062,676.292236
	C2179.940430,676.292236 2189.679199,676.292236 2199.815674,676.292236
	C2199.815674,710.946594 2199.815674,745.682800 2199.815674,780.814941
	C2221.609375,780.814941 2243.015137,780.814941 2264.709229,780.814941
	C2264.709229,789.943542 2264.709229,798.682495 2264.709229,808.000000
	C2258.031250,808.000000 2251.265625,808.000000 2244.000000,808.000000
z"/>
<path fill="#000000" opacity="1.000000" stroke="none"
	d="
M465.018799,676.000000
	C471.491852,676.000000 477.467194,676.000000 483.720367,676.000000
	C483.720367,719.967224 483.720367,763.701538 483.720367,807.718262
	C474.037567,807.718262 464.298889,807.718262 454.278839,807.718262
	C454.278839,764.031189 454.278839,720.296875 454.278839,676.000000
	C457.643433,676.000000 461.082275,676.000000 465.018799,676.000000
z"/>
<path fill="#000000" opacity="1.000000" stroke="none"
	d="
M1615.000000,780.000000
	C1615.000000,789.476562 1615.000000,798.453064 1615.000000,807.713989
	C1605.046509,807.713989 1595.307739,807.713989 1585.283203,807.713989
	C1585.283203,764.040588 1585.283203,720.306641 1585.283203,676.286072
	C1594.953369,676.286072 1604.692017,676.286072 1615.000000,676.286072
	C1615.000000,710.649231 1615.000000,745.074585 1615.000000,780.000000
z"/>
<path fill="#FFFFFF" opacity="1.000000" stroke="none"
	d="
M1713.082520,779.008545
	C1696.389160,770.871704 1689.531128,756.899658 1690.195312,739.579956
	C1690.879395,721.744080 1702.762085,705.240662 1723.355347,701.847961
	C1747.495239,697.871033 1768.096680,718.489563 1768.175415,740.666809
	C1768.214966,751.788513 1765.646362,761.884460 1758.374634,769.800293
	C1749.231201,779.753662 1737.619995,785.202393 1723.500122,782.080872
	C1720.100342,781.329285 1716.812500,780.070679 1713.082520,779.008545
z"/>
<path fill="#FFFFFF" opacity="1.000000" stroke="none"
	d="
M2564.311035,43.194138
	C2580.296387,32.917965 2601.580566,42.211220 2607.160645,59.223473
	C2611.896240,73.661316 2610.325684,86.636040 2600.320068,98.059090
	C2592.601074,106.871445 2582.335693,109.580956 2571.262207,106.552979
	C2559.725098,103.398193 2552.722168,94.866539 2550.141602,83.484306
	C2546.898682,69.180176 2549.190918,55.955410 2560.865479,45.655830
	C2561.823242,44.810726 2562.969971,44.179962 2564.311035,43.194138
M2564.000000,85.438278
	C2564.000000,87.875824 2564.000000,90.313370 2564.000000,92.745346
	C2567.592285,92.745346 2570.661621,92.745346 2574.058594,92.745346
	C2574.058594,88.395439 2574.058594,84.290695 2574.058594,80.185959
	C2574.475098,79.806473 2574.891357,79.426987 2575.307861,79.047501
	C2577.181396,80.527946 2580.090576,81.650452 2580.747559,83.551353
	C2583.457275,91.390099 2588.396240,94.675606 2596.556396,92.997330
	C2596.862305,92.934441 2597.175781,92.909531 2597.927246,92.806221
	C2594.977539,87.838020 2592.113525,83.014030 2589.235107,78.165985
	C2595.158203,74.807549 2597.558594,69.559677 2596.841309,63.441467
	C2596.190918,57.893795 2593.122559,53.020218 2587.116455,52.182068
	C2579.566406,51.128525 2571.876709,51.076324 2564.000000,50.576344
	C2564.000000,62.540897 2564.000000,73.498131 2564.000000,85.438278
z"/>
<path fill="#FFFFFF" opacity="1.000000" stroke="none"
	d="
M918.015503,376.998047
	C930.753662,369.791168 944.352783,366.745300 958.329590,365.017334
	C964.966248,364.196838 971.625916,363.562469 978.674316,362.800690
	C978.795593,364.280853 978.984924,365.529114 978.986755,366.777618
	C979.007629,381.093170 979.535339,395.434448 978.850830,409.717224
	C978.153076,424.275879 975.182983,438.362335 967.067749,451.055450
	C954.548279,470.637390 926.766418,477.612000 908.407227,467.737488
	C896.683411,461.431824 889.728088,451.102356 887.137390,438.419281
	C881.755493,412.072235 892.757935,391.165222 915.951477,378.003723
	C916.514404,377.684235 917.072693,377.356659 918.015503,376.998047
z"/>
<path fill="#FFFFFF" opacity="1.000000" stroke="none"
	d="
M1929.728638,464.234680
	C1922.537109,454.295868 1919.202026,443.285461 1918.038452,431.626251
	C1913.571655,386.868134 1916.495361,341.980011 1916.336548,297.160645
	C1916.279907,281.171967 1919.277588,264.914185 1929.007446,251.120239
	C1938.670044,237.421326 1953.126099,233.026398 1968.055664,235.566818
	C1988.831055,239.101990 1997.850098,254.133957 2001.775146,272.665588
	C2004.295532,284.565460 2005.627441,296.905792 2005.816528,309.074677
	C2006.344360,343.058990 2006.526245,377.069244 2005.724976,411.042816
	C2005.430176,423.542236 2002.626587,436.111511 1999.810791,448.383514
	C1997.350586,459.106110 1990.980225,467.868835 1981.529907,473.898529
	C1970.354004,481.029419 1948.434082,481.593811 1937.518433,471.968719
	C1934.870850,469.634125 1932.494019,466.992310 1929.728638,464.234680
z"/>
<path fill="#FFFFFF" opacity="1.000000" stroke="none"
	d="
M1037.859863,740.000000
	C1029.095825,740.000000 1020.814087,740.000000 1012.267456,740.000000
	C1012.267456,727.699219 1012.267456,715.651917 1012.267456,703.996155
	C1024.315063,703.996155 1036.526611,703.068115 1048.520508,704.284485
	C1058.443726,705.290771 1062.484009,713.039185 1062.880859,721.663818
	C1063.263672,729.982605 1056.189331,737.510010 1047.529297,738.963135
	C1044.494507,739.472412 1041.406128,739.663635 1037.859863,740.000000
z"/>
<path fill="#FFFFFF" opacity="1.000000" stroke="none"
	d="
M1363.988037,752.000000
	C1357.394287,752.000000 1351.298462,752.000000 1344.755249,752.000000
	C1350.120483,738.908691 1355.250732,726.390503 1360.380859,713.872375
	C1360.851562,713.797180 1361.322266,713.721985 1361.792847,713.646790
	C1366.997681,726.199585 1372.202637,738.752441 1377.695557,752.000000
	C1372.717773,752.000000 1368.601929,752.000000 1363.988037,752.000000
z"/>
<path fill="#FFFFFF" opacity="1.000000" stroke="none"
	d="
M2058.267090,734.322327
	C2061.377197,727.068542 2064.254639,720.137024 2067.605225,712.065247
	C2073.301270,725.921814 2078.596191,738.802979 2083.985596,751.913940
	C2072.929688,751.913940 2062.310791,751.913940 2051.336670,751.913940
	C2053.595215,746.090515 2055.814697,740.367615 2058.267090,734.322327
z"/>
<path fill="#000000" opacity="1.000000" stroke="none"
	d="
M2564.000000,84.946823
	C2564.000000,73.498131 2564.000000,62.540897 2564.000000,50.576344
	C2571.876709,51.076324 2579.566406,51.128525 2587.116455,52.182068
	C2593.122559,53.020218 2596.190918,57.893795 2596.841309,63.441467
	C2597.558594,69.559677 2595.158203,74.807549 2589.235107,78.165985
	C2592.113525,83.014030 2594.977539,87.838020 2597.927246,92.806221
	C2597.175781,92.909531 2596.862305,92.934441 2596.556396,92.997330
	C2588.396240,94.675606 2583.457275,91.390099 2580.747559,83.551353
	C2580.090576,81.650452 2577.181396,80.527946 2575.307861,79.047501
	C2574.891357,79.426987 2574.475098,79.806473 2574.058594,80.185959
	C2574.058594,84.290695 2574.058594,88.395439 2574.058594,92.745346
	C2570.661621,92.745346 2567.592285,92.745346 2564.000000,92.745346
	C2564.000000,90.313370 2564.000000,87.875824 2564.000000,84.946823
M2585.998535,67.602478
	C2587.110840,61.654469 2582.773438,59.059452 2574.244141,60.567749
	C2574.244141,64.309967 2574.244141,68.052185 2574.244141,71.982025
	C2578.707031,71.984993 2583.016846,72.487968 2585.998535,67.602478
z"/>
<path fill="#FFFFFF" opacity="1.000000" stroke="none"
	d="
M2585.978027,67.991699
	C2583.016846,72.487968 2578.707031,71.984993 2574.244141,71.982025
	C2574.244141,68.052185 2574.244141,64.309967 2574.237305,60.564926
	C2582.773438,59.059452 2587.110840,61.654469 2585.978027,67.991699
z"/>
</svg>
