<svg width="175" height="110" viewBox="0 0 175 110" fill="none" xmlns="http://www.w3.org/2000/svg">
<g clip-path="url(#clip0_5408_31292)">
<path d="M172.451 58.1419C171.132 57.1685 169.55 56.726 167.968 56.2835L167.792 56.195C166.21 55.7526 165.243 55.3101 164.628 54.7791C164.013 54.2481 163.661 53.5402 163.661 52.3897C163.661 51.8588 163.749 51.4163 163.837 50.9738C164.013 50.5313 164.189 50.1773 164.54 49.8234C164.892 49.4694 165.331 49.1154 165.859 48.9384C166.386 48.7614 167.001 48.5844 167.617 48.5844C168.144 48.5844 168.671 48.6729 169.199 48.8499C169.638 49.0269 170.078 49.2924 170.341 49.5579C170.605 49.8234 170.869 50.2658 171.045 50.7083C171.22 51.1508 171.308 51.6818 171.308 52.3012V53.3632H174.297V52.3012C174.297 50.3543 173.594 48.6729 172.363 47.5225C171.132 46.372 169.462 45.6641 167.529 45.6641C165.771 45.6641 164.013 46.2835 162.782 47.257C161.288 48.4959 160.585 50.2658 160.585 52.4782C160.673 54.6021 161.288 56.018 162.695 57.1685C163.925 58.1419 165.595 58.6729 167.265 59.2039C169.023 59.5579 170.166 60.0888 170.869 60.8853C171.572 61.5933 171.836 62.4782 171.924 63.7172V63.8941C171.924 64.5136 171.836 65.0446 171.572 65.5756C171.396 66.1065 171.045 66.549 170.693 66.9915C170.341 67.434 169.814 67.6995 169.287 67.9649C168.759 68.2304 168.144 68.3189 167.529 68.3189C166.122 68.3189 164.98 67.8765 164.101 67.08C163.31 66.2835 162.782 65.0446 162.782 63.7172V62.6552H159.794L159.706 63.9826C159.706 64.8676 159.882 65.7526 160.146 66.549C160.497 67.3455 160.937 68.1419 161.552 68.7614C162.255 69.5579 163.222 70.1773 164.189 70.6198C165.156 71.0623 166.298 71.2393 167.441 71.2393C168.496 71.2393 169.462 71.0623 170.429 70.6198C171.396 70.1773 172.187 69.6464 172.89 68.8499C173.594 68.1419 174.121 67.257 174.385 66.372C174.736 65.4871 174.824 64.4251 174.824 63.4517C174.824 61.1508 174.033 59.3809 172.451 58.1419Z" fill="black"/>
<path d="M159.53 33.8053H155.575L158.739 36.1062L157.509 39.9115L160.673 37.6106L163.837 39.9115L162.607 36.1062L165.771 33.8053H161.816L160.761 30L159.53 33.8053Z" fill="black"/>
<path d="M147.753 65.8404L139.842 45.752H136.59L137.469 47.9643C137.557 48.1413 139.754 53.7166 141.864 59.2918L145.995 69.9997L141.688 80.0882H145.028L158.652 48.0528L159.531 45.8404H156.191L147.753 65.8404Z" fill="black"/>
<path d="M117.868 51.5042C119.011 50.4422 119.977 49.8227 121.12 49.3803C122.175 48.9378 123.318 48.7608 124.9 48.7608C126.658 48.7608 128.415 49.2918 129.91 50.1767C131.668 51.2387 132.898 52.8316 133.601 54.7785L133.865 55.4865H137.117L136.59 54.0705C135.623 51.3272 133.865 49.0263 131.404 47.6104C129.382 46.3714 127.097 45.752 124.724 45.752C121.296 45.752 118.044 47.0794 115.759 49.4688C113.385 51.8581 112.155 55.044 112.155 58.5838C112.155 61.8581 113.385 65.044 115.407 67.3449C117.78 69.9997 121.032 71.3272 124.988 71.3272C127.624 71.3272 130.085 70.5307 132.107 69.1148C134.129 67.6989 135.711 65.6635 136.59 63.1856L137.117 61.7697H133.865L133.601 62.4776C133.074 63.8935 132.019 65.398 130.613 66.3714C128.943 67.6104 126.921 68.2298 124.812 68.3183C123.493 68.3183 122.263 68.0528 121.12 67.6104C119.977 67.1679 118.923 66.4599 118.044 65.575C117.165 64.69 116.462 63.6281 115.934 62.3891C115.407 61.1502 115.231 59.8228 115.231 58.4953C115.231 57.1679 115.495 55.752 116.022 54.513C116.374 53.2741 116.989 52.2121 117.868 51.5042Z" fill="black"/>
<path d="M106.09 60.1773C106.002 60.7968 105.826 61.4163 105.651 61.9472C104.947 63.8941 103.805 65.4871 102.223 66.6375C100.641 67.788 98.7948 68.3189 96.7732 68.3189C93.7847 68.3189 91.3237 67.257 89.5657 65.3101C87.9836 63.5402 87.1047 61.0623 87.1047 58.5844C87.1047 55.8411 88.0715 53.3632 89.8294 51.5933C91.5873 49.8234 94.0484 48.7614 96.6853 48.7614C98.619 48.7614 100.553 49.2924 102.135 50.3543C103.717 51.4163 104.947 52.9207 105.563 54.6906C105.826 55.2216 105.914 55.7526 106.09 56.372C106.178 56.9915 106.266 57.611 106.266 58.2304C106.178 58.9384 106.178 59.5579 106.09 60.1773ZM106.09 45.7526V49.9118C105.475 49.2039 104.684 48.4959 103.805 47.8765C101.695 46.4605 99.2343 45.6641 96.5974 45.6641C91.851 45.6641 88.8626 47.8765 87.1926 49.7349C85.171 52.0357 83.9404 55.2216 83.9404 58.4074C83.9404 61.5933 85.0831 64.7791 87.1926 67.08C88.8626 68.9384 91.7631 71.1508 96.5974 71.1508C99.0585 71.1508 101.344 70.5313 103.277 69.3809C104.332 68.7614 105.299 67.8765 106.09 66.903V71.1508H109.079V45.7526H106.09Z" fill="black"/>
<path d="M78.2269 48.2295C77.4358 47.3446 76.3811 46.7251 75.2385 46.2826C73.0411 45.4862 70.0526 45.3977 67.5036 46.4596C66.2731 46.9906 65.1305 47.7871 64.3394 48.7605C63.9878 49.1145 63.7241 49.557 63.4604 49.9994C63.1089 49.4685 62.8452 49.026 62.6694 48.849C61.8783 47.8756 60.7357 47.0791 59.5052 46.5481C58.2746 46.0171 56.8683 45.7517 55.3741 45.7517C54.4072 45.7517 53.0009 45.9286 51.5067 46.6366C50.5398 47.0791 49.6609 47.6986 48.8698 48.495V45.7517H45.8813V71.3269H48.8698V56.9021C48.8698 55.4862 49.0456 54.3357 49.3093 53.3623C49.573 52.3888 50.1003 51.5924 50.7156 50.7959C51.1551 50.1764 51.8582 49.6455 52.7372 49.203C53.6162 48.849 54.4951 48.5835 55.3741 48.672C56.5167 48.672 57.5715 48.9375 58.4504 49.2915C59.3294 49.6455 59.9446 50.2649 60.5599 50.9729C61.0873 51.6809 61.351 52.3003 61.6146 53.0083C61.8783 53.8933 61.9662 54.9552 61.9662 56.4596V71.2384H64.9547V57.0791C64.9547 55.5747 65.0426 54.3357 65.2184 53.3623C65.3942 52.4773 65.8336 51.7694 66.4489 50.8844C66.9763 50.1764 67.7673 49.557 68.7342 49.203C70.4921 48.495 72.6016 48.5835 74.0958 49.1145C74.799 49.38 75.4142 49.8225 75.9416 50.3534C76.5569 50.9729 77.0843 51.8579 77.4358 52.9198C77.7874 54.0702 77.9632 55.4862 77.9632 57.0791V71.2384H80.9517V57.0791C80.9517 55.1322 80.688 53.3623 80.2485 51.9463C79.8969 50.4419 79.1059 49.203 78.2269 48.2295Z" fill="black"/>
<path d="M21.4465 30L16.4365 45.7522H0L13.2722 55.4867L8.26218 71.2389L21.4465 61.5044L34.7187 71.3274L29.6208 55.4867L42.8051 45.7522H26.4566L21.4465 30Z" fill="#E01A2B"/>
</g>
<defs>
<clipPath id="clip0_5408_31292">
<rect width="175" height="50" fill="white" transform="translate(0 30)"/>
</clipPath>
</defs>
</svg>
