<svg width="175" height="110" viewBox="0 0 175 110" fill="none" xmlns="http://www.w3.org/2000/svg">
<g clip-path="url(#clip0_5408_31314)">
<path d="M103.25 26.7012H71.75V83.3012H103.25V26.7012Z" fill="#FF5F00"/>
<path d="M73.75 55.0005C73.75 44.0005 78.85 33.5005 87.45 26.7005C71.85 14.4005 49.25 17.1005 36.95 32.8005C24.65 48.4005 27.35 71.0005 43.05 83.3005C56.15 93.6005 74.45 93.6005 87.55 83.3005C78.85 76.5005 73.75 66.0005 73.75 55.0005Z" fill="#EB001B"/>
<path d="M145.75 55.0005C145.75 74.9005 129.65 91.0005 109.75 91.0005C101.65 91.0005 93.8498 88.3005 87.5498 83.3005C103.15 71.0005 105.85 48.4005 93.5498 32.7005C91.7498 30.5005 89.7498 28.4005 87.5498 26.7005C103.15 14.4005 125.85 17.1005 138.05 32.8005C143.05 39.1005 145.75 46.9005 145.75 55.0005Z" fill="#F79E1B"/>
<path d="M142.35 77.3004V76.1004H142.85V75.9004H141.65V76.1004H142.15V77.3004H142.35ZM144.65 77.3004V75.9004H144.25L143.85 76.9004L143.45 75.9004H143.05V77.3004H143.35V76.2004L143.75 77.1004H144.05L144.45 76.2004V77.3004H144.65Z" fill="#F79E1B"/>
</g>
<defs>
<clipPath id="clip0_5408_31314">
<rect width="116.5" height="72" fill="white" transform="translate(29.25 19)"/>
</clipPath>
</defs>
</svg>
