<svg width="175" height="110" viewBox="0 0 175 110" fill="none" xmlns="http://www.w3.org/2000/svg">
<g clip-path="url(#clip0_5408_31333)">
<path d="M112.559 31.78C112.559 42.4325 102.78 55 87.9857 55H73.7348L73.0352 59.4376L69.7106 80.8H52L62.6545 12H91.3484C101.011 12 108.612 17.4142 111.412 24.9382C112.22 27.1258 112.609 29.4472 112.559 31.78Z" fill="#002991"/>
<path d="M122.766 51.5593C121.821 57.3336 118.863 62.5812 114.421 66.3628C109.979 70.1445 104.343 72.2134 98.5224 72.1993H88.6264L84.5071 97.9993H66.8916L69.7106 80.7993L73.0372 59.4369L73.7348 54.9993H87.9858C102.761 54.9993 112.559 42.4318 112.559 31.7793C119.829 35.5518 124.068 43.1753 122.766 51.5593Z" fill="#60CDFF"/>
<path d="M112.559 31.7792C109.51 30.1758 105.812 29.1992 101.788 29.1992H77.7609L73.7349 54.9992H87.9858C102.761 54.9992 112.559 42.4318 112.559 31.7792Z" fill="#008CFF"/>
</g>
<defs>
<clipPath id="clip0_5408_31333">
<rect width="71" height="86" fill="white" transform="translate(52 12)"/>
</clipPath>
</defs>
</svg>
