<svg width="175" height="110" viewBox="0 0 175 110" fill="none" xmlns="http://www.w3.org/2000/svg">
<path d="M46.5103 44.2533C40.7231 44.2533 36.1912 49.0049 36.1912 55.0721C36.1912 61.1393 40.7231 65.7431 46.5103 65.7431C52.2975 65.7431 56.8293 61.0545 56.8293 55.0721C56.8293 49.0896 52.2975 44.2533 46.5103 44.2533ZM46.5103 61.3836C43.4391 61.3836 41.1254 58.6715 41.1254 55.0745C41.1254 51.4775 43.4415 48.6176 46.5103 48.6176C49.579 48.6176 51.9326 51.3929 51.9326 55.0745C51.9326 58.7562 49.6009 61.3836 46.5103 61.3836ZM81.8835 35.6348H78.0294C77.711 35.6348 77.4531 35.8932 77.4531 36.2121V64.5473C77.4531 64.865 77.7122 65.1247 78.0294 65.1247H81.8835C82.2019 65.1247 82.4598 64.8662 82.4598 64.5473V36.2121C82.4598 35.8944 82.2019 35.6348 81.8835 35.6348ZM73.5337 44.7784C72.6231 44.5906 71.1173 44.2556 68.84 44.2556C64.8627 44.2556 60.8671 45.4893 60.8671 51.7872V64.5496C60.8671 64.8685 61.125 65.1269 61.4434 65.1269H65.3012C65.6196 65.1269 65.8775 64.8685 65.8775 64.5496V51.8985C65.8775 50.9776 66.0378 48.6804 69.4815 48.6804C70.912 48.6804 72.3002 48.9141 72.5877 48.9586C72.8925 49.0081 73.1615 48.8845 73.2429 48.5878L74.0782 45.4639C74.1769 45.1066 73.9545 44.8625 73.5337 44.7784ZM33.9222 44.8775H29.8071C29.5517 44.8775 29.3283 45.0491 29.2629 45.2964L25.3461 59.1591L21.7578 46.8262C21.4419 45.6828 20.3901 44.8788 19.2 44.8788H17.9303C16.7395 44.8788 15.6878 45.6798 15.3726 46.8262L11.7842 59.1591L7.86737 45.2964C7.80567 45.0504 7.57856 44.8775 7.32314 44.8775H3.20802C2.82303 44.8775 2.54042 45.2544 2.66011 45.6289L8.27576 63.2495C8.63483 64.3743 9.66516 65.1279 10.842 65.1279H12.4997C13.6843 65.1279 14.7457 64.3331 15.0839 63.1952L18.5683 51.3985L22.0526 63.1952C22.3895 64.3324 23.4505 65.1279 24.6369 65.1279H26.2946C27.4717 65.1279 28.5019 64.3738 28.8608 63.2495L34.4764 45.6289C34.5998 45.2519 34.3047 44.8775 33.9222 44.8775ZM171.776 44.8775H167.843C167.843 44.8775 167.382 44.8773 167.229 45.263L161.833 59.5457L156.433 45.2364C156.346 45.0127 156.107 44.8743 155.867 44.8743H151.934C151.394 44.8743 151.22 45.3155 151.349 45.6604L159.243 65.4994L156.052 73.5709C155.895 73.9713 156.065 74.3606 156.588 74.3606H160.474C160.711 74.3606 160.922 74.2197 161.01 73.996L172.307 45.709C172.51 45.2196 172.168 44.8775 171.776 44.8775ZM104.527 35.638H100.673C100.355 35.638 100.097 35.8964 100.097 36.2153V44.7117C99.3491 44.5535 98.0248 44.2567 95.867 44.2567C88.1962 44.2567 86.5929 51.1712 86.5929 54.9497C86.5929 63.3031 91.6058 65.749 96.2923 65.749C100.29 65.749 103.01 64.7947 104.316 64.2191C105.103 63.8792 105.103 63.4194 105.103 63.0152V36.2159C105.103 35.8982 104.844 35.638 104.527 35.638ZM100.098 60.9403C100.098 60.9403 98.5733 61.3915 96.8553 61.3915C92.8236 61.3915 91.8509 58.5327 91.8509 55.1415C91.8509 53.9326 91.7251 48.6604 96.6644 48.6604C98.3474 48.6604 100.097 49.1239 100.097 49.1239L100.098 60.9403ZM140.859 44.2566C137.439 44.2566 135.517 44.7052 133.653 45.2305C133.156 45.3727 132.946 45.7162 133.088 46.2787L133.664 48.6208C133.738 48.9583 134.049 49.4179 134.604 49.277C135.802 48.9803 137.64 48.3945 140.335 48.3945C143.029 48.3945 143.727 49.3995 143.727 51.8087H140.398C133.314 51.8087 131.343 55.5534 131.343 58.6191C131.343 62.4859 133.222 65.7475 139.887 65.7475C144.906 65.7475 147.407 64.4779 147.968 64.1839C148.422 63.9465 148.696 63.7635 148.696 62.9724V51.2908C148.696 46.0104 145.578 44.2566 140.859 44.2566ZM143.688 61.2415C143.688 61.2415 142.146 61.7559 140.049 61.7559C137.16 61.7559 136.334 60.3071 136.334 58.8039C136.334 56.8892 137.593 55.6536 140.351 55.6536H143.686L143.688 61.2415ZM118.594 44.2566C114.596 44.2566 111.877 45.2107 110.571 45.7862C109.783 46.1261 109.783 46.5861 109.783 46.9903V73.787C109.783 74.1047 110.041 74.3643 110.36 74.3643H114.214C114.531 74.3643 114.79 74.1047 114.79 73.787V65.2908C115.538 65.4491 116.862 65.7458 119.02 65.7458C126.691 65.7458 128.294 58.8314 128.294 55.0528C128.294 46.6995 123.281 44.2566 118.594 44.2566ZM118.223 61.3434C116.54 61.3434 114.789 60.8798 114.789 60.8798V49.0626C114.789 49.0626 116.314 48.6114 118.032 48.6114C122.064 48.6114 123.036 51.4701 123.036 54.8614C123.036 56.0703 123.162 61.3434 118.223 61.3434Z" fill="#FF1F3E"/>
</svg>
