<?xml version="1.0" encoding="UTF-8"?><svg id="Layer_1" xmlns="http://www.w3.org/2000/svg" viewBox="0 0 132 126"><defs><style>.cls-1{fill:#ff4d00;}</style></defs><path class="cls-1" d="m89.04,51.98c5.89-3.43-.41-10.33-3.66-12.33-10.42-6.42-25.83-6.92-36.83-1.92-3.14,1.43-8.9,5.57-6.59,10.47.61,1.31,1.7,1.81,2.6,2.76-.09-.1-1.87,1.77-3.08,4.89-.84,2.17-1.62,4.38-1.98,6.69-.56,3.57-1.11,7.64-1.07,11.26.04,4.17.65,9.14,4.02,12.05,3.04,2.63,7.73.66,11.1-.09,4.5-1,9.06-1.89,13.68-1.75,5.21.16,10.32,1.43,15.5,1.88,3.47.3,8.44.75,10.19-3.27.24-.55.43-1.19.55-1.92,1-5.92,1.17-12.01.53-17.99-.4-3.74-1.32-8.99-4.95-10.73Z"/><path class="cls-1" d="m66.76,5.95c-31.99,0-57.92,25.93-57.92,57.92s25.93,57.92,57.92,57.92,57.92-25.93,57.92-57.92S98.75,5.95,66.76,5.95Zm34.23,69.97c-.05,4.85-.08,9.81-1.13,14.56-1.11,5-7.32,4.64-11.05,4.6-7.07-.07-14.07-1.78-21.13-1.96-5-.13-9.99.8-14.95,1.39-4.48.54-9.37,2.04-13.87,1.41,0,0-.02,0-.03,0-5.52-.79-7.11-8.05-7.57-12.92-.76-7.87-1.21-14.16,1.54-23.95.92-3.26,2.33-5.67,4.29-8.35,0,0-1.01-1.06-1.44-1.52-.93-1-1.78-2.12-2.26-3.42-1.91-5.13,2.44-9.76,6.21-12.13,14.5-9.11,34.53-9.78,49.49-1.78,4.16,2.23,8.37,5.57,10.14,10.3,1.35,3.61,1.64,8.59-2.17,10.62-.28.15-.91.14-1.28.04,3.28.8,4.31,4.74,4.64,7.83.48,4.54.61,9.16.59,13.73,0,.51,0,1.03-.01,1.54Z"/></svg>