<svg width="175" height="110" viewBox="0 0 175 110" fill="none" xmlns="http://www.w3.org/2000/svg">
<g clip-path="url(#clip0_5408_31035)">
<path d="M142.688 110H86.4683H32V54.104V0H87.3418H142.688V54.8052V110Z" fill="white"/>
<path d="M101.939 76.64L99.7111 73.9166V76.64H92.4251V71.9916C91.4834 72.4225 90.4512 72.6452 89.3637 72.6452H86.7893V76.64H75.7925L73.7798 74.023L71.7783 76.64H53.5305V59.3665H71.8631L73.8656 61.9606L75.8681 59.3665H142.688V0H32V46.3903L36.1701 36.714H43.3353L45.6616 42.1122V36.714H54.6291L56.0136 40.6272L57.3898 36.714H97.4291V38.7133C98.8865 37.4409 100.853 36.714 103.176 36.714H115.921L118.248 42.1131V36.714H125.796L127.792 39.7885V36.714H135.331V53.9876H127.835L125.823 50.8663V53.9876H114.874L113.79 51.3402H110.79L109.723 53.9876H102.923C100.696 53.9876 98.8247 53.3184 97.4291 52.1203V53.9876H86.1907L83.964 51.2642V53.9876H42.2875L41.2027 51.3402H38.2022L37.1359 53.9876H32V109.999H142.688V75.3668C141.569 76.1762 140.132 76.64 138.481 76.64H101.94H101.939Z" fill="#006FCF"/>
<path d="M141.463 64.4302L142.765 61.5234H135.878C133.04 61.5234 131.359 63.2449 131.359 65.5971C131.359 67.9492 132.95 69.448 135.426 69.448H138.517C139.203 69.448 139.692 69.8742 139.692 70.5223C139.692 71.1704 139.203 71.5774 138.517 71.5774H131.757V74.4841H138.481C141.319 74.4841 143 72.7809 143 70.2812C143 67.93 141.518 66.5596 138.932 66.5596H135.842C135.155 66.5596 134.667 66.1333 134.667 65.4852C134.667 64.8372 135.155 64.4302 135.842 64.4302H141.463ZM122.72 65.4862C122.72 64.8381 123.207 64.4311 123.894 64.4311H129.516L130.818 61.5244H123.931C121.093 61.5244 119.413 63.2458 119.413 65.598C119.413 67.9501 121.003 69.4489 123.478 69.4489H126.57C127.257 69.4489 127.745 69.8751 127.745 70.5232C127.745 71.1713 127.257 71.5783 126.57 71.5783H119.809V74.485H126.534C129.372 74.485 131.052 72.7818 131.052 70.2821C131.052 67.9309 129.57 66.5605 126.985 66.5605H123.894C123.207 66.5605 122.72 66.1342 122.72 65.4862ZM107.7 74.4841H118.329V71.5774H111.008V69.3737H118.148V66.5412H111.008V64.4302H118.329V61.5234H107.7V74.4841ZM107.176 74.4841L102.947 69.7624C105.079 69.3178 106.363 67.7256 106.363 65.708C106.363 63.2266 104.628 61.5234 101.845 61.5234H94.5965V74.4841H97.9042V69.8925H99.1872L103.092 74.4841H107.176ZM101.501 67.0784H97.9033V64.4311H101.501C102.512 64.4311 103.037 65.0425 103.037 65.7639C103.037 66.4853 102.512 67.0784 101.501 67.0784ZM93.1695 65.8932C93.1695 63.3008 91.4345 61.5234 88.6507 61.5234H81.3121V74.4841H84.6199V70.2619H88.5419C91.3976 70.2619 93.1695 68.392 93.1695 65.8922V65.8932ZM89.8434 65.9115C89.8434 66.7071 89.3185 67.3552 88.3067 67.3552H84.6189V64.4302H88.3067C89.3185 64.4302 89.8434 65.0966 89.8434 65.9115ZM81.0234 74.4841L75.7815 67.9483L80.9865 61.5234H76.9382L73.8657 65.5036L70.7932 61.5234H66.6359L71.8595 68.0226L66.6544 74.4841H70.7028L73.7753 70.4664L76.8662 74.4841H81.0234ZM55.7554 74.4841H66.3832V71.5774H59.0631V69.3737H66.2024V66.5412H59.0631V64.4302H66.3832V61.5234H55.7554V74.4841Z" fill="#006FCF"/>
<path d="M133.104 51.8317V38.8711H129.815V46.9065L124.609 38.8711H120.416V51.8317H123.724V43.4993L129.092 51.8317H133.104ZM116.333 51.8317H120.075L114.489 38.8711H110.188L104.603 51.8317H108.253L109.32 49.1844H115.249L116.333 51.8317ZM114.092 46.3694H110.476L112.284 41.9254L114.092 46.3694ZM103.424 41.8704H106.931V38.8711H103.171C99.0682 38.8711 96.8627 41.5743 96.8627 45.2584V45.4435C96.8627 49.4246 99.1761 51.8308 102.917 51.8308H103.188L104.544 48.9241H103.478C101.4 48.9241 100.17 47.6646 100.17 45.4435V45.2584C100.17 43.3141 101.255 41.8704 103.424 41.8704ZM91.95 51.8317H95.2577V38.8711H91.95V51.8317ZM91.4261 51.8317L87.1969 47.11C89.3295 46.6654 90.6135 45.0732 90.6135 43.0556C90.6135 40.5742 88.8785 38.8711 86.0947 38.8711H78.8465V51.8317H82.1542V47.2402H83.4373L87.3408 51.8317H91.4261ZM85.7506 44.4251H82.1533V41.7778H85.7506C86.7625 41.7778 87.2873 42.3892 87.2873 43.1106C87.2873 43.8321 86.7634 44.4251 85.7506 44.4251ZM66.3388 51.8317H76.9667V48.925H69.6465V46.7214H76.7859V43.8889H69.6465V41.7778H76.9667V38.8711H66.3388V51.8317ZM60.8626 51.8317H64.1343V38.8711H58.9292L56.0191 47.1476L53.0905 38.8711H47.831V51.8317H51.1027V42.2407L54.5368 51.8317H57.4294L60.8635 42.2407V51.8317H60.8626ZM43.7466 51.8317H47.4879L41.9028 38.8711H37.6007L32.0156 51.8317H35.6665L36.7327 49.1844H42.6619L43.7466 51.8317ZM41.5052 46.3694H37.8904L39.6982 41.9254L41.5061 46.3694H41.5052Z" fill="#006FCF"/>
</g>
<defs>
<clipPath id="clip0_5408_31035">
<rect width="111" height="110" fill="white" transform="translate(32)"/>
</clipPath>
</defs>
</svg>
