<svg width="175" height="110" viewBox="0 0 175 110" fill="none" xmlns="http://www.w3.org/2000/svg">
<g clip-path="url(#clip0_5408_31145)">
<path d="M66.4548 23.0357C66.6369 22.853 66.819 22.7617 66.9556 22.7617C67.2288 22.7617 67.4109 22.99 67.4109 23.3097C67.4109 23.4924 67.3198 23.675 67.1832 23.8577C60.5589 32.1002 55.7557 41.7356 55.7557 55.0698C55.7557 68.404 60.5589 77.8795 67.1832 86.0992C67.3654 86.2819 67.4109 86.4646 67.4109 86.6472C67.4109 86.9212 67.2288 87.1952 66.9556 87.1952C66.819 87.1952 66.6369 87.1039 66.4548 86.9212L38.3185 59.6363C36.9071 58.4033 35.9966 57.0334 35.9966 55.0013C35.9966 52.992 36.9071 51.5764 38.3185 50.412L66.4548 23.0357Z" fill="#EE161F"/>
<path d="M88.1034 20.752C77.0857 20.752 72.7605 36.4151 72.7605 55.115C72.7605 73.7692 77.0629 89.2496 88.1034 89.2496C94.7277 89.2496 100.35 85.3909 100.35 82.1487C100.35 81.4637 100.077 80.7788 99.4854 80.1851C96.344 77.1255 95.1375 74.1345 95.1375 71.4402C95.1375 66.3486 99.5309 62.5127 103.628 62.5127C109.251 62.5127 112.529 66.9194 112.529 72.6732C112.529 78.0845 110.207 82.6054 107.726 86.2357C107.635 86.3727 107.589 86.5554 107.589 86.6924C107.589 86.9664 107.772 87.1947 107.999 87.1947C108.136 87.1947 108.318 87.1034 108.545 86.9207L136.727 59.613C138.139 58.38 139.049 57.0101 139.049 54.978C139.049 52.9687 138.139 51.5531 136.727 50.3886L108.523 23.0809C108.341 22.8982 108.158 22.8069 107.976 22.8069C107.703 22.8069 107.567 23.0352 107.567 23.3092C107.567 23.4462 107.612 23.6289 107.703 23.7659C110.207 27.3506 112.506 31.9171 112.506 37.3284C112.506 43.0594 109.183 47.4889 103.606 47.4889C99.5309 47.4889 95.1147 43.6758 95.1147 38.5614C95.1147 35.8671 96.344 32.8304 99.4627 29.8165C100.055 29.2228 100.328 28.5379 100.328 27.8529C100.35 24.6335 94.6822 20.752 88.1034 20.752Z" fill="#005BAD"/>
</g>
<defs>
<clipPath id="clip0_5408_31145">
<rect width="175" height="110" fill="white"/>
</clipPath>
</defs>
</svg>
