<svg width="394" height="68" viewBox="0 0 394 68" fill="none" xmlns="http://www.w3.org/2000/svg">
<g clip-path="url(#clip0_6053_67)">
<path d="M59 1H9C4.6 1 1 4.6 1 9V59C1 63.4 4.6 67 9 67H59C63.4 67 67 63.4 67 59V9C67 4.6 63.4 1 59 1Z" fill="#006CFF"/>
<path d="M40.2 34.5C39.961 34.021 39.9476 33.7086 40.2 33.2L50.2 16.1C50.7 15.2 50.1 13.9 48.9 13.9H26.7C26.2 13.9 25.7758 14.1453 25.5 14.6L14.3 33.1C14.0327 33.5575 14.0425 34.1437 14.3 34.6L25.5 53.1C25.7465 53.5559 26.1568 53.8 26.7 53.8H48.9C50 53.8 50.7 52.6 50.2 51.6L40.2 34.5ZM45.1 17.7L37.8 30.2L30.5 17.7H45.1ZM18.3 34L26.9 19.6L35.3 34L26.9 48.4L18.3 34ZM30.6 50.3L37.9 37.8L45.2 50.3H30.6Z" fill="white"/>
<path d="M100.47 21.2283C104.912 21.2283 107.786 23.3259 109.257 27.6414L109.37 27.9734L115.167 26.4236L115.077 26.0652C113.35 19.2097 108.027 15.2771 100.473 15.2761C96.0294 15.2166 91.8707 16.8836 88.8126 19.947C85.4146 23.3494 83.6573 28.1179 83.731 33.7273C83.6573 39.3465 85.4146 44.116 88.8126 47.5183C91.8253 50.5359 95.8878 52.1902 100.268 52.1902C100.336 52.1902 100.403 52.1902 100.47 52.1892C108.026 52.1892 113.35 48.2566 115.077 41.4002L115.167 41.0418L109.37 39.492L109.257 39.824C107.786 44.1394 104.912 46.2371 100.47 46.2371C94.128 46.2371 90.188 41.4451 90.188 33.7322C90.188 26.0193 94.128 21.2283 100.47 21.2283Z" fill="#272932"/>
<path d="M132.254 25.1755C128.995 25.1755 126.086 26.658 124.245 29.2V15.2761H118.142V51.7849H124.245V40.6013C124.245 33.7107 127.533 30.572 130.587 30.572C133.226 30.572 134.455 32.0095 134.455 35.0964V51.7849H140.559V33.4294C140.559 28.1843 137.532 25.1755 132.254 25.1755Z" fill="#272932"/>
<path d="M155.621 25.1755C147.174 25.1755 143.326 32.1775 143.326 38.6824C143.326 45.1873 147.174 52.1892 155.621 52.1892C161.237 52.1892 164.941 49.7927 167.276 44.6462L167.439 44.2859L162.37 42.3044L162.211 42.5925C160.571 45.5759 158.734 46.7927 155.873 46.7927C152.396 46.7927 150.119 44.4958 149.578 40.4714H167.663V37.8738C167.663 31.5632 163.527 25.1755 155.621 25.1755ZM155.621 30.572C158.624 30.572 160.652 32.2742 161.372 35.3777H149.889C150.725 32.3582 152.84 30.572 155.621 30.572Z" fill="#272932"/>
<path d="M189.374 42.5115C187.969 45.4724 186.095 46.7927 183.299 46.7927C179.454 46.7927 177.158 43.7605 177.158 38.6824C177.158 33.6042 179.454 30.572 183.299 30.572C186.108 30.572 188.037 31.9304 189.372 34.8484L189.523 35.1775L194.946 32.9275L194.81 32.5837C192.881 27.7371 188.9 25.1755 183.299 25.1755C175.855 25.1755 170.853 30.6033 170.853 38.6824C170.853 46.7615 175.855 52.1892 183.299 52.1892C188.887 52.1892 192.868 49.6101 194.81 44.7302L194.947 44.3835L189.526 42.1921L189.374 42.5115Z" fill="#272932"/>
<path d="M219.405 25.5798H211.833L203.388 35.3044V15.2761H197.284V51.7849H203.388V40.071L212.579 51.7849H220.116L208.658 37.6824L219.405 25.5798Z" fill="#272932"/>
<path d="M232.15 25.1755C224.495 25.1755 219.149 30.7302 219.149 38.6824C219.149 46.6345 224.495 52.1892 232.15 52.1892C239.805 52.1892 245.151 46.6345 245.151 38.6824C245.151 30.7302 239.805 25.1755 232.15 25.1755ZM237.003 44.4656C235.817 46.032 234.23 46.7927 232.15 46.7927C230.066 46.7927 228.416 46.0095 227.246 44.4656C226.04 42.8748 225.454 40.9832 225.454 38.6824C225.454 36.3826 226.04 34.49 227.246 32.8982C228.416 31.3542 230.066 30.572 232.15 30.572C234.229 30.572 235.817 31.3328 237.003 32.8982C238.209 34.49 238.795 36.3826 238.795 38.6824C238.795 40.9832 238.209 42.8748 237.003 44.4656Z" fill="#272932"/>
<path d="M264.279 36.4099C264.279 42.5232 261.733 46.7927 258.088 46.7927C255.588 46.7927 254.372 45.3787 254.372 42.4705V25.5798H248.268V43.9353C248.268 49.0261 251.412 52.1892 256.471 52.1892C259.421 52.1892 262.214 50.7205 264.279 48.1208V51.7849H270.332V25.5798H264.279V36.4099Z" fill="#272932"/>
<path d="M288.393 46.1892C287.726 46.5896 286.891 46.7927 285.909 46.7927C283.8 46.7927 282.9 45.6667 282.9 43.0261V30.9763H289.668V25.5798H282.9V14.9705L276.796 18.8279V25.5798H272.705V30.9763H276.796V42.9246C276.796 48.8992 279.942 52.1892 285.656 52.1892C287.289 52.1892 288.756 51.8699 290.017 51.241L290.295 51.1013L288.811 45.9373L288.393 46.1892Z" fill="#272932"/>
<path d="M296.246 43.8123C293.893 43.8123 292.185 45.5417 292.185 47.9246C292.185 50.2693 293.931 52.0378 296.246 52.0378C298.659 52.0378 300.41 50.3083 300.41 47.9246C300.41 45.5417 298.659 43.8123 296.246 43.8123Z" fill="#272932"/>
<path d="M320.721 42.5115C319.316 45.4724 317.442 46.7927 314.645 46.7927C310.801 46.7927 308.506 43.7605 308.506 38.6824C308.506 33.6042 310.801 30.572 314.645 30.572C317.454 30.572 319.384 31.9304 320.72 34.8484L320.87 35.1775L326.293 32.9275L326.156 32.5837C324.228 27.7371 320.248 25.1755 314.645 25.1755C307.201 25.1755 302.2 30.6033 302.2 38.6824C302.2 46.7615 307.201 52.1892 314.645 52.1892C320.235 52.1892 324.215 49.6101 326.156 44.7302L326.294 44.3835L320.873 42.1921L320.721 42.5115Z" fill="#272932"/>
<path d="M341.098 25.1755C333.444 25.1755 328.097 30.7302 328.097 38.6824C328.097 46.6345 333.444 52.1892 341.098 52.1892C348.753 52.1892 354.1 46.6345 354.1 38.6824C354.1 30.7302 348.753 25.1755 341.098 25.1755ZM345.952 44.4656C344.765 46.032 343.178 46.7927 341.098 46.7927C339.014 46.7927 337.365 46.0095 336.195 44.4656C334.989 42.8748 334.403 40.9832 334.403 38.6824C334.403 36.3826 334.989 34.49 336.195 32.8982C337.365 31.3542 339.014 30.572 341.098 30.572C343.177 30.572 344.765 31.3328 345.952 32.8982C347.158 34.49 347.744 36.3826 347.744 38.6824C347.744 40.9832 347.158 42.8748 345.952 44.4656Z" fill="#272932"/>
<path d="M385.602 25.1755C382.586 25.1755 379.708 26.9646 377.773 30.0027C376.603 26.8816 374.085 25.1755 370.602 25.1755C367.741 25.1755 365.341 26.5076 363.451 29.1384V25.5798H357.348V51.7849H363.451V41.5105C363.451 34.866 365.703 30.572 369.188 30.572C371.408 30.572 372.399 31.7498 372.399 34.3894V51.7849H378.451V41.1062C378.451 34.8054 380.757 30.572 384.188 30.572C386.408 30.572 387.399 31.7498 387.399 34.3894V51.7849H393.452V33.531C393.452 28.2214 390.591 25.1755 385.602 25.1755Z" fill="#272932"/>
</g>
<defs>
<clipPath id="clip0_6053_67">
<rect width="394" height="68" fill="white"/>
</clipPath>
</defs>
</svg>
