<svg width="175" height="110" viewBox="0 0 175 110" fill="none" xmlns="http://www.w3.org/2000/svg">
<g clip-path="url(#clip0_5408_31162)">
<path d="M89.2852 54.2768C88.3427 56.2563 87.9515 58.2673 84.6418 59.6085C81.4115 60.9167 78.4597 59.0048 77.4811 57.2007C77.4811 57.2007 88.1767 52.2787 91.3291 50.3841C92.2803 49.812 93.0106 49.1536 93.4942 48.4118C93.881 49.3908 94.3486 50.548 94.8654 51.7986C92.7768 50.9979 90.4471 51.8374 89.2852 54.2768ZM77.7525 44.808C82.1693 42.7265 84.6303 47.0017 84.6303 47.0017L74.9321 51.57C74.9321 51.57 73.3357 46.8881 77.7525 44.808ZM160.468 41.1367C157.689 40.2052 155.081 41.7562 154.241 44.3567L149.561 58.8423L149.445 58.8366C147.958 52.5806 145.927 44.016 145.927 44.016C145.295 41.3566 142.818 39.5971 139.974 40.2986C138.928 40.5465 137.99 41.1255 137.301 41.9488C137.013 39.8817 135.449 38.197 133.141 37.9008C130.294 37.5357 128.055 39.541 127.708 42.2191L125.786 57.1375L125.67 57.149L121.689 46.1622C120.07 41.693 118.745 39.3772 114.721 39.8314C110.694 40.2871 109.904 42.8415 109.291 47.5623L107.784 59.1701L107.668 59.183L102.566 45.0582C101.649 42.5238 99.031 41.0677 96.3319 42.0581C95.2504 42.4404 94.3401 43.1922 93.7626 44.1798C91.7476 38.933 83.9374 33.8873 74.3475 39.1141C69.3505 41.8382 67.0252 45.5929 66.2688 49.3663C64.8687 46.1233 62.0007 43.8463 58.1786 43.5013C53.0257 43.0356 50.1302 46.0587 50.1302 46.0587L50.0263 46.05L50.7768 37.4753C51.0164 34.7225 49.205 32.2888 46.2518 32.0229C43.2972 31.7555 41.0758 33.8629 40.8391 36.5798L39.0521 57.0052C38.1644 56.0536 36.8192 55.4915 35.2488 55.8897C32.0834 56.6602 31.2737 60.4768 27.9106 61.1797C24.0942 61.9775 21.6794 58.9545 20.9433 55.319C20.34 52.3333 20.8567 47.9346 25.0974 47.2877C28.8213 46.7185 29.6932 50.6601 33.8371 49.8292C36.2909 49.3362 37.4745 47.3754 36.9015 44.8698C35.9979 41.072 30.0641 38.2832 23.5501 39.6431C15.1711 41.394 9.50582 48.9825 11.349 58.5017C13.2543 68.3399 22.4083 71.5283 29.6499 69.9197C34.1345 68.9235 36.8351 66.8535 38.3766 64.7275L38.2785 65.8387C38.0389 68.5915 39.8503 71.0252 42.8035 71.2911C45.7582 71.5585 47.9795 69.4511 48.2163 66.7342L49.2367 55.0718C49.5139 51.8101 51.6862 50.6127 53.5785 50.7837C55.4693 50.9533 57.3674 52.7603 57.1148 55.7833L56.0958 67.4458C55.8547 70.2 57.6676 72.6323 60.6208 72.8997C63.574 73.1656 65.7954 71.0597 66.0335 68.3428L66.9342 58.0359C67.1363 58.6282 67.3586 59.1902 67.5996 59.7178C72.0121 69.3749 81.0477 69.9916 88.0915 66.6724C92.1864 64.7433 94.5969 62.403 96.0259 60.2525C96.6653 59.2894 97.0795 58.3924 97.3163 57.5673C97.8474 58.7791 98.3815 59.9708 98.8968 61.082C102.293 68.3988 103.477 70.2029 108.892 69.7328C114.276 68.9825 114.8 66.7428 116.241 54.2409L116.298 54.2352L116.356 54.228C120.465 66.1032 121.461 68.1717 126.876 67.7017C132.259 66.9513 133.024 64.9273 134.757 57.0311C135.45 53.8028 136.078 50.5611 136.642 47.3078L137.84 51.2408C140.735 60.6996 143.739 66.9728 141.929 67.8871C140.319 68.6978 139.388 65.8487 136.289 66.0428C134.158 66.1765 132.272 68.4434 132.96 71.2422C133.908 75.1077 139.869 79.2132 146.718 77.1561C153.617 75.0832 155.632 69.418 163.584 47.5033C164.498 44.89 163.246 42.0696 160.468 41.1367Z" fill="#1C49C2"/>
</g>
<defs>
<clipPath id="clip0_5408_31162">
<rect width="153" height="46" fill="white" transform="translate(11 32)"/>
</clipPath>
</defs>
</svg>
