<svg width="175" height="110" viewBox="0 0 175 110" fill="none" xmlns="http://www.w3.org/2000/svg">
<g clip-path="url(#clip0_5408_31169)">
<path d="M24.1578 52.7066L33.2924 50.672C31.4224 43.441 24.8705 38.0851 17.1331 38C15.115 40.8605 13.6155 44.4299 12.811 48.4141C14.0142 47.6166 15.4431 47.1239 16.9496 47.1239C20.3403 47.1239 23.2616 49.3924 24.1543 52.7066H24.1578Z" fill="#6058FF"/>
<path d="M33.2923 59.3276L24.1577 57.293C23.2651 60.6072 20.3437 62.8757 16.9531 62.8757C15.4465 62.8757 14.0176 62.3866 12.8145 61.5855C13.6189 65.5697 15.1184 69.1391 17.1365 71.9996C24.8739 71.9145 31.4258 66.5586 33.2958 59.3276H33.2923Z" fill="#6058FF"/>
<path d="M7.55746 40.8574C3.00605 43.9023 0 49.0916 0 55.0005C0 60.9093 3.00605 66.0987 7.55746 69.1435C9.61089 65.1664 10.8352 60.289 10.8352 55.0005C10.8352 49.7119 9.61089 44.8345 7.55746 40.8574Z" fill="#6058FF"/>
<path d="M63.5928 61.2213C63.5928 61.2213 60.9608 64.9219 55.8307 64.9219C50.3055 64.9219 45.9658 60.562 45.9658 55.2735C45.9658 49.9849 50.3055 45.625 55.8307 45.625C60.9608 45.625 63.4623 49.3256 63.4623 49.3256L61.2254 51.4417C61.2254 51.4417 59.3837 48.7974 55.8307 48.7974C52.2778 48.7974 49.3847 51.704 49.3847 55.2735C49.3847 58.8429 52.2778 61.7495 55.8307 61.7495C59.3837 61.7495 61.3559 58.974 61.3559 58.974L63.5928 61.2213Z" fill="#160245"/>
<path d="M70.6985 51.3105C74.3819 51.3105 77.4092 54.3518 77.4092 58.0524C77.4092 61.753 74.3819 64.7907 70.6985 64.7907C67.015 64.7907 63.9878 61.7495 63.9878 58.0524C63.9878 54.3554 67.015 51.3105 70.6985 51.3105ZM74.3819 58.0489C74.3819 55.8016 72.8048 54.2171 70.6985 54.2171C68.5921 54.2171 67.015 55.8016 67.015 58.0489C67.015 60.2962 68.5921 61.8806 70.6985 61.8806C72.8048 61.8806 74.3819 60.2962 74.3819 58.0489Z" fill="#160245"/>
<path d="M79.2474 51.5725H82.2746V53.4228H82.4052C82.4052 53.4228 83.3261 51.3066 85.9581 51.3066C88.7207 51.3066 89.7721 53.5539 89.7721 53.5539H89.9027C89.9027 53.5539 91.2187 51.3066 94.1118 51.3066C96.7439 51.3066 98.5856 53.3413 98.5856 56.5917V64.521H95.5584V56.9887C95.5584 55.2695 94.6375 54.3444 93.3215 54.3444C91.6103 54.3444 90.4284 55.5354 90.4284 57.3857V64.521H87.4012V56.8292C87.4012 55.2695 86.4803 54.3444 85.1643 54.3444C83.4531 54.3444 82.2711 55.5354 82.2711 57.3857V64.521H79.2439V51.5689L79.2474 51.5725Z" fill="#160245"/>
<path d="M100.823 51.5725H103.85V53.4228H103.98C103.98 53.4228 104.901 51.3066 107.533 51.3066C110.296 51.3066 111.347 53.5539 111.347 53.5539H111.478C111.478 53.5539 112.794 51.3066 115.687 51.3066C118.319 51.3066 120.161 53.3413 120.161 56.5917V64.521H117.134V56.9887C117.134 55.2695 116.213 54.3444 114.897 54.3444C113.186 54.3444 112.004 55.5354 112.004 57.3857V64.521H108.976V56.8292C108.976 55.2695 108.055 54.3444 106.739 54.3444C105.028 54.3444 103.846 55.5354 103.846 57.3857V64.521H100.819V51.5689L100.823 51.5725Z" fill="#160245"/>
<path d="M134.238 62.5434C134.238 62.5434 132.527 64.7907 128.844 64.7907C125.16 64.7907 122.002 61.7495 122.002 58.0524C122.002 54.3554 125.03 51.3105 128.713 51.3105C132.397 51.3105 135.029 54.2171 135.029 57.7866C135.029 58.5806 134.898 59.2399 134.898 59.2399H125.294C125.612 60.6932 126.871 62.0153 128.978 62.0153C131.215 62.0153 132.531 60.4025 132.531 60.4025L134.242 62.5434H134.238ZM131.737 56.7267C131.342 55.2734 130.29 54.2171 128.579 54.2171C126.737 54.2171 125.686 55.2734 125.291 56.7267H131.737Z" fill="#160245"/>
<path d="M136.867 51.5725H139.894V53.4228H140.025C140.025 53.4228 141.341 51.3066 143.708 51.3066H144.234V54.6102C144.234 54.6102 143.839 54.4791 143.182 54.4791C141.341 54.4791 139.894 55.9324 139.894 58.1797V64.5245H136.867V51.5725Z" fill="#160245"/>
<path d="M156.6 62.1465C156.6 62.1465 154.917 64.7907 151.206 64.7907C147.494 64.7907 144.495 61.7495 144.495 58.0524C144.495 54.3554 147.522 51.3105 151.206 51.3105C154.889 51.3105 156.6 53.9548 156.6 53.9548L154.628 55.9363C154.628 55.9363 153.312 54.2171 151.209 54.2171C149.106 54.2171 147.526 55.8016 147.526 58.0489C147.526 60.2962 149.103 61.8806 151.209 61.8806C153.315 61.8806 154.628 60.1615 154.628 60.1615L156.6 62.1429V62.1465Z" fill="#160245"/>
<path d="M169.228 62.5434C169.228 62.5434 167.517 64.7907 163.833 64.7907C160.15 64.7907 156.992 61.7495 156.992 58.0524C156.992 54.3554 160.019 51.3105 163.703 51.3105C167.386 51.3105 170.018 54.2171 170.018 57.7866C170.018 58.5806 169.888 59.2399 169.888 59.2399H160.284C160.601 60.6932 161.861 62.0153 163.967 62.0153C166.204 62.0153 167.52 60.4025 167.52 60.4025L169.231 62.5434H169.228ZM166.73 56.7267C166.335 55.2734 165.283 54.2171 163.572 54.2171C161.73 54.2171 160.679 55.2734 160.284 56.7267H166.73Z" fill="#160245"/>
<path d="M172.128 51.8066H170.29V52.1292H171.038V54.2737H171.384V52.1292H172.128V51.8066Z" fill="#160245"/>
<path d="M175 54.2737V51.8066H174.637L173.772 53.1961L172.904 51.8066H172.541V54.2737H172.89V52.3702L173.765 53.7774H173.776L174.654 52.3702V54.2737H175Z" fill="#160245"/>
</g>
<defs>
<clipPath id="clip0_5408_31169">
<rect width="175" height="34" fill="white" transform="translate(0 38)"/>
</clipPath>
</defs>
</svg>
