<svg width="175" height="110" viewBox="0 0 175 110" fill="none" xmlns="http://www.w3.org/2000/svg">
<g clip-path="url(#clip0_5408_31432)">
<mask id="mask0_5408_31432" style="mask-type:luminance" maskUnits="userSpaceOnUse" x="1" y="39" width="173" height="32">
<path d="M174 39H1V70.7538H174V39Z" fill="white"/>
</mask>
<g mask="url(#mask0_5408_31432)">
<path d="M1 65.4362L18.0965 49.3869H1.45794V45.3008H24.7112V49.9777L7.61471 66.0269H25.1182V70.1131H1V65.4362Z" fill="black"/>
<path d="M25.9321 63.3698C25.9321 57.856 30.8168 56.3298 35.1418 55.7883L43.1812 54.8036C45.1148 54.5575 45.6745 53.7206 45.6745 52.5883V52.539C45.6745 50.3236 43.6901 48.699 39.3651 48.699C35.1927 48.699 32.8521 50.2252 32.4451 52.7852H27.0515C27.6621 47.7636 32.1907 44.6621 39.5177 44.6621C47.7098 44.6621 51.068 48.0098 51.068 53.5236V70.1144H45.9289V66.176C43.741 69.2283 39.823 70.7544 35.3962 70.7544C29.5448 70.7544 25.9321 67.899 25.9321 63.3698ZM45.6745 58.8898V57.7083C44.8095 58.0529 43.8427 58.2498 42.7742 58.3975L36.363 59.2344C33.0557 59.6775 31.5292 60.859 31.5292 63.0252C31.5292 65.339 33.5645 66.7175 36.8718 66.7175C42.3162 66.7175 45.6745 63.1236 45.6745 58.8898Z" fill="black"/>
<path d="M53.4595 39H58.853V70.1138H53.4595V39Z" fill="black"/>
<path d="M60.6343 63.3698C60.6343 57.856 65.519 56.3298 69.844 55.7883L77.8834 54.8036C79.8169 54.5575 80.3766 53.7206 80.3766 52.5883V52.539C80.3766 50.3236 78.3922 48.699 74.0672 48.699C69.8949 48.699 67.5543 50.2252 67.1472 52.7852H61.7537C62.3643 47.7636 66.8928 44.6621 74.2199 44.6621C82.4119 44.6621 85.7702 48.0098 85.7702 53.5236V70.1144H80.631V66.176C78.4431 69.2283 74.5252 70.7544 70.0984 70.7544C64.2469 70.7544 60.6343 67.899 60.6343 63.3698ZM80.3766 58.8898V57.7083C79.5116 58.0529 78.5449 58.2498 77.4763 58.3975L71.0652 59.2344C67.7578 59.6775 66.2313 60.859 66.2313 63.0252C66.2313 65.339 68.2666 66.7175 71.574 66.7175C77.0184 66.7175 80.3766 63.1236 80.3766 58.8898Z" fill="black"/>
<path d="M88.1616 45.3021H93.5552V49.339C95.4887 46.3852 99.1522 44.6621 103.63 44.6621C110.346 44.6621 114.315 48.4036 114.315 55.296V70.1144H108.922V56.0344C108.922 51.456 106.428 48.9452 101.849 48.9452C96.9134 48.9452 93.5552 52.1452 93.5552 56.6744V70.1144H88.1616V45.3021Z" fill="black"/>
<path d="M116.096 57.6092C116.096 49.5846 121.845 44.6615 128.715 44.6615C132.836 44.6615 136.398 46.0892 138.535 49.0431V39H143.928V70.1138H138.535V66.3231C136.194 69.3754 132.836 70.7538 128.715 70.7538C121.845 70.7538 116.096 65.7323 116.096 57.6092ZM138.687 57.6585C138.687 52.4892 135.533 48.8954 130.19 48.8954C124.898 48.8954 121.693 52.44 121.693 57.6092C121.693 62.8277 124.898 66.52 130.19 66.52C135.533 66.52 138.687 62.8277 138.687 57.6585Z" fill="black"/>
<path d="M145.709 57.659C145.709 50.0283 151.052 44.6621 159.855 44.6621C168.708 44.6621 174 50.0283 174 57.659C174 65.2898 168.708 70.7544 159.855 70.7544C151.052 70.7544 145.709 65.2898 145.709 57.659ZM168.403 57.659C168.403 52.8344 165.655 48.896 159.855 48.896C154.054 48.896 151.307 52.8344 151.307 57.659C151.307 62.5329 154.054 66.5206 159.855 66.5206C165.655 66.5206 168.403 62.5329 168.403 57.659Z" fill="black"/>
</g>
</g>
<defs>
<clipPath id="clip0_5408_31432">
<rect width="173" height="32" fill="white" transform="translate(1 39)"/>
</clipPath>
</defs>
</svg>
