<svg width="48" height="48" viewBox="0 0 48 48" fill="none" xmlns="http://www.w3.org/2000/svg">
<rect width="48" height="48" rx="8" fill="white"/>
<path d="M40.1753 22.2215C40.0838 22.1788 39.9909 22.1382 39.895 22.1013L19.3233 14.1314L13.8537 7.33412L14.4201 6.87831C14.5359 6.79722 14.6338 6.69321 14.7078 6.57273C14.7818 6.45224 14.8302 6.31784 14.8502 6.17787C14.8701 6.0379 14.861 5.89533 14.8236 5.75899C14.7861 5.62266 14.7211 5.49546 14.6325 5.38529C14.5439 5.27512 14.4336 5.18433 14.3084 5.11853C14.1833 5.05273 14.046 5.01332 13.905 5.00276C13.764 4.9922 13.6223 5.01071 13.4888 5.05714C13.3553 5.10357 13.2327 5.17692 13.1286 5.27266L6.32992 10.7438C6.13715 10.9212 6.01903 11.1652 5.99947 11.4265C5.9799 11.6877 6.06035 11.9466 6.22454 12.1507C6.38873 12.3549 6.62437 12.489 6.88373 12.5259C7.14308 12.5628 7.40677 12.4997 7.62136 12.3494L8.18781 11.8929L13.6575 18.6909L14.69 25.3458H42.4145C42.3375 24.6777 42.0915 24.0402 41.6997 23.4935C41.308 22.9469 40.7833 22.5091 40.1753 22.2215Z" fill="white" stroke="#1F1F1F" stroke-linecap="round" stroke-linejoin="round"/>
<path d="M14.6924 25.3465L15.3783 29.7718L17.043 40.495C17.5143 43.5308 21.095 44.9203 23.4877 42.9924L40.9565 28.9354C41.4871 28.5134 41.9002 27.9619 42.156 27.3339C42.4117 26.706 42.5016 26.0229 42.4168 25.3502L14.6924 25.3465Z" fill="#F8F9FA" stroke="#1F1F1F" stroke-linecap="round" stroke-linejoin="round"/>
<path d="M18.1836 19.6118C18.9767 19.6118 19.6196 18.9688 19.6196 18.1758C19.6196 17.3827 18.9767 16.7397 18.1836 16.7397C17.3905 16.7397 16.7476 17.3827 16.7476 18.1758C16.7476 18.9688 17.3905 19.6118 18.1836 19.6118Z" fill="#1F1F1F"/>
<path d="M25.5644 22.9726C26.3575 22.9726 27.0004 22.3297 27.0004 21.5366C27.0004 20.7435 26.3575 20.1006 25.5644 20.1006C24.7713 20.1006 24.1284 20.7435 24.1284 21.5366C24.1284 22.3297 24.7713 22.9726 25.5644 22.9726Z" fill="#1F1F1F"/>
<path d="M36.8218 9.74367C35.1732 9.13558 33.8644 7.82637 33.2563 6.17817C33.1685 5.94061 32.8315 5.94061 32.7437 6.17817C32.1356 7.82677 30.8264 9.13558 29.1782 9.74367C28.9406 9.83151 28.9406 10.1685 29.1782 10.2563C30.8268 10.8644 32.1356 12.1736 32.7437 13.8218C32.8315 14.0594 33.1685 14.0594 33.2563 13.8218C33.8644 12.1732 35.1736 10.8644 36.8218 10.2563C37.0594 10.1685 37.0594 9.83151 36.8218 9.74367Z" fill="white" stroke="#1F1F1F" stroke-linecap="round" stroke-linejoin="round"/>
</svg>
