<svg width="48" height="48" viewBox="0 0 48 48" fill="none" xmlns="http://www.w3.org/2000/svg">
<rect width="48" height="48" rx="8" fill="white"/>
<path d="M37.5223 41.6798L41.8113 27.6064C42.1617 26.4571 41.3016 25.2963 40.1004 25.2963H20.8489C20.0288 25.2963 19.3143 25.8537 19.1145 26.6493L14.6323 44.4866L36.002 44.5622C36.7876 44.5622 36.8648 43.8192 37.5223 41.6804V41.6798Z" fill="white" stroke="#1F1F1F" stroke-linecap="round" stroke-linejoin="round"/>
<path d="M35.5405 25.7994C33.0796 28.8843 29.2887 30.8619 25.0356 30.8619C20.7826 30.8618 16.9917 28.8844 14.5308 25.7994H35.5405Z" fill="#D9D9D9"/>
<path d="M30.6557 16.5309L24.8276 22.359L18.9995 16.5309" stroke="#1F1F1F" stroke-width="2" stroke-linecap="round" stroke-linejoin="round"/>
<path d="M24.8276 9.99963V22.3601" stroke="#1F1F1F" stroke-width="2" stroke-linecap="round" stroke-linejoin="round"/>
<path d="M25.0752 30.9023C32.5044 30.9023 38.5269 24.8798 38.5269 17.4506C38.5269 10.0214 32.5044 3.9989 25.0752 3.9989" stroke="#1F1F1F" stroke-width="2" stroke-linecap="round" stroke-dasharray="0.08 4"/>
<path d="M25.043 30.9023C17.6138 30.9023 11.5913 24.8798 11.5913 17.4506C11.5913 11.0679 16.0367 5.72342 22.0004 4.34448" stroke="#1F1F1F" stroke-linecap="round"/>
<path d="M8.89815 23.1536H18.2934C19.0845 23.1536 19.7814 23.6732 20.0076 24.4316L20.3853 25.7008C20.6109 26.4592 21.3084 26.9788 22.0995 26.9788H28.8203C29.6114 26.9788 30.3083 27.4985 30.5344 28.2568L34.5951 41.8949C35.3008 44.3967 35.5143 44.5637 36.0092 44.5637H14.0138C13.3382 44.5637 12.7425 44.1197 12.5498 43.4719L7.184 25.4528C6.84238 24.3056 7.70137 23.1536 8.89815 23.1536Z" fill="#F8F9FA" stroke="#1F1F1F" stroke-linecap="round" stroke-linejoin="round"/>
</svg>
