<svg width="48" height="48" viewBox="0 0 48 48" fill="none" xmlns="http://www.w3.org/2000/svg">
<rect width="48" height="48" rx="8" fill="white"/>
<path d="M10.9966 37.9166H5.75928V27.4378C5.75928 24.7715 7.17884 22.6016 8.9246 22.6016C10.8009 22.6016 10.9966 24.5522 10.9966 26.1953V37.9166Z" fill="#1F1F1F" stroke="#1F1F1F" stroke-linecap="round" stroke-linejoin="round"/>
<path d="M24.4181 26.8867C24.4181 26.8867 29.6448 15.997 30.6864 14.303C31.7279 12.609 33.6438 13.0871 33.1476 15.5781C32.6515 18.0691 29.9731 25.7509 29.0306 28.2119C28.0882 30.673 23.302 29.4445 24.4175 26.8867H24.4181Z" fill="#F8F9FA" stroke="#1F1F1F" stroke-linecap="round" stroke-linejoin="round"/>
<path d="M34.8115 10.1509C35.0163 10.642 35.6157 10.6614 35.918 10.3608C36.0522 10.2274 36.2148 10.1167 36.4014 10.0386C37.1722 9.71598 38.0589 10.0804 38.3818 10.855C38.7051 11.6303 38.3399 12.52 37.5684 12.8433C37.3818 12.9214 37.1898 12.9595 37.001 12.9614C36.5743 12.9659 36.1695 13.4069 36.373 13.896L37.9648 17.7163L34.8066 19.0396C34.9169 18.5292 34.8792 17.9808 34.6631 17.4624C34.1013 16.1149 32.5552 15.4776 31.209 16.0415C29.8635 16.6052 29.2296 18.1546 29.791 19.5015C30.0073 20.0202 30.371 20.4332 30.8115 20.7134L27.75 21.9956L26.0381 17.8901L25.9893 17.7935C25.8601 17.5846 25.6396 17.4893 25.4473 17.48C25.259 17.4709 25.0488 17.5391 24.8984 17.7026L24.8379 17.7788C24.679 18.009 24.4552 18.1976 24.1777 18.314C23.4068 18.6369 22.5194 18.2731 22.1963 17.4985C21.873 16.7231 22.2381 15.8325 23.0098 15.5093C23.2875 15.3929 23.5787 15.3661 23.8535 15.4146C24.1152 15.4607 24.3509 15.3501 24.4941 15.1899C24.6402 15.0264 24.7328 14.7584 24.6182 14.4829L23.1309 10.9185L26.3193 9.5835C26.2545 10.0026 26.3005 10.4449 26.4756 10.8647C26.9816 12.0779 28.3737 12.6519 29.5859 12.144C30.7976 11.6364 31.3677 10.2415 30.8623 9.02881C30.687 8.6084 30.4046 8.26465 30.0605 8.01611L33.3467 6.63916L34.8115 10.1509Z" fill="white" stroke="#1F1F1F" stroke-linejoin="round"/>
<path d="M10.9966 28.6014H5.75928V39.0803C5.75928 41.7466 7.17884 43.9165 8.9246 43.9165C10.8009 43.9165 10.9966 41.9658 10.9966 40.3228V28.6014Z" fill="#1F1F1F" stroke="#1F1F1F" stroke-linecap="round" stroke-linejoin="round"/>
<path d="M5.75928 28.5194C5.75928 28.5194 9.42384 27.4795 11.8003 26.6873C14.1774 25.8951 17.5938 23.0723 19.3766 21.3883C21.1594 19.7044 23.5691 16.9685 24.7078 16.2255C25.8466 15.4825 27.6168 16.4497 26.9236 18.3316C26.2304 20.2134 21.6044 26.5386 21.6044 26.5386C21.6044 26.5386 26.2098 24.3598 28.0916 24.1613C29.9733 23.9634 31.5502 24.866 31.4015 26.7479C31.3031 27.9908 29.5278 31.4737 29.5278 31.4737C29.5278 31.4737 30.1712 32.1338 29.1812 33.7188C28.1905 35.3032 27.6712 36.0462 26.4329 37.1851C25.1946 38.3239 22.3119 39.5634 19.567 39.7745C18.7388 39.838 17.2351 39.8906 15.5158 39.9164H5.75928V28.5194Z" fill="#F8F9FA" stroke="#1F1F1F" stroke-linecap="round" stroke-linejoin="round"/>
<path d="M21.5779 26.5565C21.5779 26.5565 21.0116 26.7913 20.201 27.3078C19.1755 27.9608 18.9493 28.685 19.2316 29.3764C19.5207 30.0836 20.526 30.0836 20.526 30.0836" stroke="#1F1F1F" stroke-linecap="round" stroke-linejoin="round"/>
<path d="M30.2486 29.8965C30.4652 29.4229 30.366 27.9523 29.3217 27.4563C27.9867 26.8224 26.5828 27.4661 24.6578 28.1802C22.7335 28.8943 20.2847 30.2 19.3117 30.795C18.3386 31.39 18.2788 32.5136 18.818 33.1086C19.3573 33.7036 20.2163 33.6045 20.2163 33.6045" stroke="#1F1F1F" stroke-linecap="round" stroke-linejoin="round"/>
<path d="M29.4872 31.4903C28.9924 30.7688 27.5743 30.4574 26.0905 30.9983C24.6067 31.5392 21.2107 33.0511 19.8583 33.7869C18.2922 34.6386 18.8036 36.2812 20.3313 36.046C22.587 35.6982 24.1085 35.3221 24.1085 35.3221" stroke="#1F1F1F" stroke-linecap="round" stroke-linejoin="round"/>
</svg>
