<svg width="50" height="56" viewBox="0 0 50 56" fill="none" xmlns="http://www.w3.org/2000/svg">
<g clip-path="url(#clip0_4845_3372)">
<rect width="49.7278" height="55.7554" fill="#1F1F1F"/>
<path d="M19.0781 26.1479L14.5087 28.9126L14.4311 42.0729L9.44933 38.9948L9.43963 20.4193L4.71496 17.7251L0 20.3465V43.8561L18.8914 55.7165L23.6427 53.0417V28.9151L19.0781 26.1528V26.1479ZM19.0418 26.9254L22.6459 29.0997L19.0975 31.172L15.5104 29.0487L19.0418 26.9278V26.9254ZM14.3632 46.9269L5.13213 41.4266L9.26015 39.5705L14.4262 42.8649L14.3632 46.9269ZM4.71496 18.4977L8.41369 20.6015L4.58157 22.6836L1.01624 20.553L4.71496 18.4952V18.4977ZM0.674259 21.1384L4.21291 23.2521L4.23474 23.2642L4.23959 41.6987L15.0738 48.2193L15.1805 29.639L18.758 31.7575L18.7313 54.6549L0.674259 43.4698V21.1384Z" fill="white"/>
<path d="M44.6324 16.4691L44.7755 11.4839L40.1479 9.08601L23.8784 17.815L17.9944 14.4672L30.8635 7.24693V2.4731L26.7403 -6.10352e-05L4.71533 11.5859V16.5905L23.842 28.0137L44.63 16.4691H44.6324ZM26.7306 0.777357L29.8448 2.63344L12.5445 12.1252L23.8299 18.5948L40.1382 9.79541L43.7326 11.7049L23.5073 22.5936L5.7437 11.7997L26.7306 0.777357ZM5.39202 12.3779L23.4782 23.2399L23.4903 24.7704L23.5073 27.0444L5.38959 16.1702V12.3779H5.39202Z" fill="white"/>
<path d="M49.7114 19.4524L45.1953 17.1104L24.7153 28.4365L24.7857 52.9956L29.2363 55.7554L33.9415 53.0952L33.9561 47.437L49.7284 38.6328L49.7114 19.4548V19.4524ZM40.9194 34.1553L44.2422 36.0479L34.2738 41.5602V37.7825L40.9194 34.1553ZM44.572 35.4551L43.6261 34.9157L41.2614 33.5698V30.1638L44.5866 28.0502L44.572 35.4551ZM40.5847 33.5674L34.2471 37.0245V33.8638L40.5847 30.2804V33.5674ZM45.1662 17.8854L48.7097 19.761L29.3891 30.6983L25.7413 28.6259L45.1638 17.8854H45.1662ZM25.392 29.2042L29.0277 31.2716L29.0398 54.6622L25.4599 52.6044L25.392 29.2042Z" fill="white"/>
</g>
<defs>
<clipPath id="clip0_4845_3372">
<rect width="49.7278" height="55.7554" fill="white"/>
</clipPath>
</defs>
</svg>
