<svg width="330" height="192" viewBox="0 0 330 192" fill="none" xmlns="http://www.w3.org/2000/svg">
<g clip-path="url(#clip0_4466_3735)">
<path d="M0 36C0 16.1178 16.1178 0 36 0H294C313.882 0 330 16.1178 330 36V156C330 175.882 313.882 192 294 192H36C16.1178 192 0 175.882 0 156V36Z" fill="white"/>
<path d="M197.41 152.323C184.863 147.377 184.863 129.62 197.41 124.673L199.484 123.856C203.314 122.346 206.346 119.314 207.856 115.484L208.677 113.41C213.627 100.863 231.38 100.863 236.327 113.41L237.144 115.484C238.654 119.314 241.686 122.346 245.516 123.856L247.59 124.673C260.137 129.62 260.137 147.377 247.59 152.323L245.516 153.144C241.69 154.654 238.654 157.686 237.144 161.516L236.327 163.59C231.38 176.137 213.623 176.137 208.677 163.59L207.86 161.516C206.349 157.686 203.318 154.654 199.487 153.144L197.413 152.327L197.41 152.323Z" fill="#F2F2F2" stroke="#F2F2F2" stroke-width="1.5" stroke-linecap="round" stroke-linejoin="round"/>
<ellipse cx="236.166" cy="151.172" rx="4.01608" ry="4.0517" fill="#1F1F1F"/>
<ellipse cx="214.699" cy="151.172" rx="4.01608" ry="4.0517" fill="#1F1F1F"/>
<path d="M236.326 151.393H214.517L214.517 145.979L214.517 124.078C214.517 122.93 213.587 122 212.439 122H208" stroke="#1F1F1F" stroke-width="1.5" stroke-linecap="round" stroke-linejoin="round"/>
<path d="M237.519 144.431L242.886 128.187H214.518V144.431H237.519Z" fill="white" stroke="#1F1F1F" stroke-width="1.5" stroke-linecap="round" stroke-linejoin="round"/>
<rect x="131" y="46" width="68" height="102" rx="5" fill="white" stroke="#D9D9D9" stroke-width="1.5" stroke-linecap="round" stroke-linejoin="round"/>
<path d="M142.024 129.464C142.174 129.003 142.826 129.003 142.976 129.464L143.623 131.455C143.69 131.661 143.881 131.8 144.098 131.8H146.192C146.676 131.8 146.878 132.42 146.486 132.705L144.792 133.936C144.617 134.063 144.543 134.289 144.61 134.495L145.257 136.486C145.407 136.947 144.88 137.33 144.488 137.045L142.794 135.814C142.619 135.687 142.381 135.687 142.206 135.814L140.512 137.045C140.12 137.33 139.593 136.947 139.743 136.486L140.39 134.495C140.457 134.289 140.383 134.063 140.208 133.936L138.514 132.705C138.122 132.42 138.324 131.8 138.808 131.8H140.902C141.119 131.8 141.31 131.661 141.377 131.455L142.024 129.464Z" fill="#D9D9D9"/>
<path d="M153.024 129.464C153.174 129.003 153.826 129.003 153.976 129.464L154.623 131.455C154.69 131.661 154.881 131.8 155.098 131.8H157.192C157.676 131.8 157.878 132.42 157.486 132.705L155.792 133.936C155.617 134.063 155.543 134.289 155.61 134.495L156.257 136.486C156.407 136.947 155.88 137.33 155.488 137.045L153.794 135.814C153.619 135.687 153.381 135.687 153.206 135.814L151.512 137.045C151.12 137.33 150.593 136.947 150.743 136.486L151.39 134.495C151.457 134.289 151.383 134.063 151.208 133.936L149.514 132.705C149.122 132.42 149.324 131.8 149.808 131.8H151.902C152.119 131.8 152.31 131.661 152.377 131.455L153.024 129.464Z" fill="#D9D9D9"/>
<path d="M175.024 129.464C175.174 129.003 175.826 129.003 175.976 129.464L176.623 131.455C176.69 131.661 176.881 131.8 177.098 131.8H179.192C179.676 131.8 179.878 132.42 179.486 132.705L177.792 133.936C177.617 134.063 177.543 134.289 177.61 134.495L178.257 136.486C178.407 136.947 177.88 137.33 177.488 137.045L175.794 135.814C175.619 135.687 175.381 135.687 175.206 135.814L173.512 137.045C173.12 137.33 172.593 136.947 172.743 136.486L173.39 134.495C173.457 134.289 173.383 134.063 173.208 133.936L171.514 132.705C171.122 132.42 171.324 131.8 171.808 131.8H173.902C174.119 131.8 174.31 131.661 174.377 131.455L175.024 129.464Z" fill="#D9D9D9"/>
<path d="M164.024 129.464C164.174 129.003 164.826 129.003 164.976 129.464L165.623 131.455C165.69 131.661 165.881 131.8 166.098 131.8H168.192C168.676 131.8 168.878 132.42 168.486 132.705L166.792 133.936C166.617 134.063 166.543 134.289 166.61 134.495L167.257 136.486C167.407 136.947 166.88 137.33 166.488 137.045L164.794 135.814C164.619 135.687 164.381 135.687 164.206 135.814L162.512 137.045C162.12 137.33 161.593 136.947 161.743 136.486L162.39 134.495C162.457 134.289 162.383 134.063 162.208 133.936L160.514 132.705C160.122 132.42 160.324 131.8 160.808 131.8H162.902C163.119 131.8 163.31 131.661 163.377 131.455L164.024 129.464Z" fill="#D9D9D9"/>
<path d="M186.024 129.464C186.174 129.003 186.826 129.003 186.976 129.464L187.623 131.455C187.69 131.661 187.881 131.8 188.098 131.8H190.192C190.676 131.8 190.878 132.42 190.486 132.705L188.792 133.936C188.617 134.063 188.543 134.289 188.61 134.495L189.257 136.486C189.407 136.947 188.88 137.33 188.488 137.045L186.794 135.814C186.619 135.687 186.381 135.687 186.206 135.814L184.512 137.045C184.12 137.33 183.593 136.947 183.743 136.486L184.39 134.495C184.457 134.289 184.383 134.063 184.208 133.936L182.514 132.705C182.122 132.42 182.324 131.8 182.808 131.8H184.902C185.119 131.8 185.31 131.661 185.377 131.455L186.024 129.464Z" fill="#D9D9D9"/>
<rect x="139" y="54" width="52" height="47" rx="2" fill="#F2F2F2"/>
<path d="M191 108H139.243" stroke="#D9D9D9" stroke-width="1.5" stroke-linecap="round" stroke-linejoin="round"/>
<path d="M177.054 115.568H139.243" stroke="#D9D9D9" stroke-width="1.5" stroke-linecap="round" stroke-linejoin="round"/>
<path d="M167.757 123.135H139.242" stroke="#D9D9D9" stroke-width="1.5" stroke-linecap="round" stroke-linejoin="round"/>
<path d="M112.702 35.595C115.628 35.595 118 33.2232 118 30.2975C118 27.3718 115.628 25 112.702 25C109.777 25 107.405 27.3718 107.405 30.2975C107.405 33.2232 109.777 35.595 112.702 35.595Z" fill="#F2F2F2"/>
<path d="M225.483 73.9961C222.726 80.2517 205.26 105.699 184.98 95.7887C179.646 93.179 176.752 88.1351 178.518 84.5261C180.285 80.9171 185.704 78.6043 191.376 82.7183C194.706 85.1352 207.789 93.4889 182.864 130.849" stroke="#1F1F1F" stroke-width="1.5" stroke-linecap="round" stroke-linejoin="round"/>
<path d="M256.82 31.0547L235.331 66.1496C233.555 63.4553 231.269 62.2198 228.618 62.0378L250.107 26.9429L256.82 31.0547Z" fill="white" stroke="#1F1F1F" stroke-width="1.5" stroke-linecap="round" stroke-linejoin="round"/>
<path d="M256.822 31.055C254.08 35.5332 247.352 31.4452 250.107 26.9432C252.862 22.4433 259.564 26.5769 256.822 31.055Z" fill="#1F1F1F" stroke="#1F1F1F" stroke-width="1.5" stroke-linecap="round" stroke-linejoin="round"/>
<path d="M235.331 66.1497L227.293 71.7377L228.616 62.04C231.267 62.2221 233.553 63.4576 235.329 66.1519L235.331 66.1497Z" fill="#1F1F1F" stroke="#1F1F1F" stroke-width="1.5" stroke-linecap="round" stroke-linejoin="round"/>
<path d="M106.662 53.8467C97.0378 57.3971 89.3971 65.0399 85.8467 74.6617C85.3351 76.049 83.367 76.049 82.8555 74.6617C79.305 65.0378 71.6622 57.3971 62.0404 53.8467C60.6532 53.3351 60.6532 51.367 62.0404 50.8555C71.6644 47.305 79.305 39.6622 82.8555 30.0404C83.367 28.6532 85.3351 28.6532 85.8467 30.0404C89.3971 39.6644 97.04 47.305 106.662 50.8555C108.049 51.367 108.049 53.3351 106.662 53.8467Z" fill="#F2F2F2"/>
<rect x="107.75" y="63.75" width="51.5" height="51.5" rx="7.25" fill="white" stroke="#1F1F1F" stroke-width="1.5"/>
<path d="M126.147 80.3027L132.131 76.8943C132.432 76.7127 132.773 76.6091 133.124 76.593C133.474 76.5769 133.824 76.6487 134.14 76.802L140.855 80.2306V82.3798L134.14 78.9479C133.824 78.795 133.475 78.7232 133.125 78.7392C132.775 78.7552 132.434 78.8584 132.134 79.0394L126.149 82.4478L126.147 80.3027Z" fill="#1F1F1F"/>
<path d="M140.852 80.2305C149.806 85.0795 149.324 82.8347 151.132 94.9492H144.548V108.409H122.584V94.9492H116C117.807 82.8347 117.326 85.0795 126.279 80.2305C130.104 83.5935 136.725 83.8559 140.852 80.2305Z" fill="#F2F2F2" stroke="#1F1F1F" stroke-width="1.5" stroke-linecap="round" stroke-linejoin="round"/>
<path d="M122.583 94.9485V89.2282" stroke="#1F1F1F" stroke-width="1.5" stroke-linecap="round" stroke-linejoin="round"/>
<path d="M144.548 94.9485V87.8378" stroke="#1F1F1F" stroke-width="1.5" stroke-linecap="round" stroke-linejoin="round"/>
<path d="M133.241 76.4416V75.2229C133.241 74.4334 135.142 73.6438 135.142 72.1732C135.142 70.02 131.842 69.9131 131.842 72.4243" stroke="#1F1F1F" stroke-width="1.5" stroke-linecap="round" stroke-linejoin="round"/>
<path d="M80.2424 103.539C79.4844 102.568 78.3211 102 77.0891 102H72.6669C71.4349 102 70.2716 102.568 69.5136 103.539L61.8467 113.362C61.298 114.065 61 114.932 61 115.823V145.278C61 147.487 62.7909 149.278 65 149.278H84.756C86.9651 149.278 88.756 147.487 88.756 145.278V115.823C88.756 114.932 88.458 114.065 87.9093 113.362L80.2424 103.539Z" fill="#D9D9D9" stroke="#D9D9D9" stroke-width="1.5" stroke-linecap="round" stroke-linejoin="round"/>
<path d="M79.7423 137.899C81.3218 137.899 82.6023 136.618 82.6023 135.039C82.6023 133.459 81.3218 132.179 79.7423 132.179C78.1628 132.179 76.8823 133.459 76.8823 135.039C76.8823 136.618 78.1628 137.899 79.7423 137.899Z" stroke="#1F1F1F" stroke-width="1.5" stroke-linecap="round" stroke-linejoin="round"/>
<path d="M69.1632 127.317C70.7427 127.317 72.0232 126.036 72.0232 124.457C72.0232 122.877 70.7427 121.597 69.1632 121.597C67.5837 121.597 66.3032 122.877 66.3032 124.457C66.3032 126.036 67.5837 127.317 69.1632 127.317Z" stroke="#1F1F1F" stroke-width="1.5" stroke-linecap="round" stroke-linejoin="round"/>
<path d="M69 138.77L80.4273 122" stroke="#1F1F1F" stroke-width="1.5" stroke-linecap="round" stroke-linejoin="round"/>
<circle cx="75" cy="109" r="2" fill="white"/>
</g>
<defs>
<clipPath id="clip0_4466_3735">
<path d="M0 36C0 16.1178 16.1178 0 36 0H294C313.882 0 330 16.1178 330 36V156C330 175.882 313.882 192 294 192H36C16.1178 192 0 175.882 0 156V36Z" fill="white"/>
</clipPath>
</defs>
</svg>
