<svg width="80" height="80" viewBox="0 0 80 80" fill="none" xmlns="http://www.w3.org/2000/svg">
<rect width="80" height="80" rx="8" fill="white"/>
<path d="M14.5029 22.88H66.9372V47.4057C66.9372 49.7411 65.044 51.6343 62.7086 51.6343H18.7315C16.3961 51.6343 14.5029 49.7411 14.5029 47.4057V22.88Z" fill="white" stroke="#1F1F1F" stroke-linecap="round" stroke-linejoin="round"/>
<path d="M14.5029 18.2286C14.5029 15.8932 16.3961 14 18.7315 14H62.7086C65.044 14 66.9372 15.8932 66.9372 18.2286V22.88H14.5029V18.2286Z" fill="white" stroke="#1F1F1F" stroke-linecap="round" stroke-linejoin="round"/>
<circle cx="19.0135" cy="18.5105" r="1.83238" fill="#1F1F1F"/>
<circle cx="24.7923" cy="18.5105" r="1.83238" fill="#1F1F1F"/>
<circle cx="30.5716" cy="18.5105" r="1.83238" fill="#1F1F1F"/>
<path d="M6 36.9752H58.4343V61.5009C58.4343 63.8363 56.5411 65.7295 54.2057 65.7295H10.2286C7.89319 65.7295 6 63.8363 6 61.5009V36.9752Z" fill="white" stroke="#1F1F1F" stroke-linecap="round" stroke-linejoin="round"/>
<path d="M6 32.3238C6 29.9884 7.8932 28.0952 10.2286 28.0952H54.2057C56.5411 28.0952 58.4343 29.9884 58.4343 32.3238V36.9752H6V32.3238Z" fill="white" stroke="#1F1F1F" stroke-linecap="round" stroke-linejoin="round"/>
<circle cx="10.5106" cy="32.6057" r="1.83238" fill="#1F1F1F"/>
<circle cx="16.2894" cy="32.6057" r="1.83238" fill="#1F1F1F"/>
<circle cx="22.0687" cy="32.6057" r="1.83238" fill="#1F1F1F"/>
<rect x="30.8076" y="42.8951" width="14.8" height="2.81905" rx="1.40952" fill="#D9D9D9"/>
<rect x="9.66455" y="52.1979" width="34.5333" height="2.81905" rx="1.40952" fill="#D9D9D9"/>
<rect x="9.66455" y="58.9637" width="38.0571" height="2.81905" rx="1.40952" fill="#D9D9D9"/>
<path d="M13.4689 40.6601C13.6802 40.4487 14.0229 40.4487 14.2342 40.6601C14.4456 40.8714 14.4456 41.2141 14.2342 41.4254L11.3698 44.2899L14.2342 47.1543C14.4456 47.3657 14.4456 47.7083 14.2342 47.9197C14.0229 48.131 13.6802 48.131 13.4689 47.9197L10.5619 45.0127C10.1627 44.6135 10.1627 43.9663 10.5619 43.567L13.4689 40.6601Z" fill="#1F1F1F"/>
<path d="M23.3627 47.9197C23.1513 48.131 22.8086 48.131 22.5973 47.9197C22.386 47.7083 22.386 47.3657 22.5973 47.1543L25.4617 44.2899L22.5973 41.4254C22.386 41.2141 22.386 40.8714 22.5973 40.6601C22.8086 40.4487 23.1513 40.4487 23.3627 40.6601L26.2696 43.567C26.6688 43.9663 26.6688 44.6135 26.2696 45.0127L23.3627 47.9197Z" fill="#1F1F1F"/>
<path d="M19.9303 40.7086C20.0817 40.4508 20.4133 40.3645 20.6711 40.5158C20.9288 40.6672 21.0151 40.9988 20.8638 41.2566L17.0153 47.811C16.864 48.0687 16.5324 48.155 16.2746 48.0037C16.0169 47.8524 15.9306 47.5207 16.0819 47.263L19.9303 40.7086Z" fill="#1F1F1F"/>
<path d="M60.8662 62.4876C68.3975 62.4876 74.5028 56.3822 74.5028 48.8509C74.5028 41.3196 68.3975 35.2142 60.8662 35.2142C53.3348 35.2142 47.2295 41.3196 47.2295 48.8509C47.2295 56.3822 53.3348 62.4876 60.8662 62.4876Z" fill="#D9D9D9" stroke="#D9D9D9" stroke-linecap="round" stroke-linejoin="round"/>
<path d="M47.2295 48.8509C47.2295 41.3192 53.3345 35.2142 60.8662 35.2142C63.5689 35.2142 66.0887 36.0014 68.2088 37.3574" stroke="#1F1F1F" stroke-linecap="round" stroke-linejoin="round"/>
<path d="M62.457 44.2472C62.457 43.0117 61.4555 42.0102 60.22 42.0102C58.9845 42.0102 57.983 43.0117 57.983 44.2472V50.0979C57.983 50.573 57.5978 50.9583 57.1226 50.9583C56.6474 50.9583 56.2622 50.573 56.2622 50.0979V44.2472C56.2622 42.0613 58.0342 40.2894 60.22 40.2894C62.4059 40.2894 64.1778 42.0613 64.1778 44.2472C64.1778 44.7224 63.7926 45.1076 63.3174 45.1076C62.8423 45.1076 62.457 44.7224 62.457 44.2472Z" fill="#1F1F1F"/>
<rect x="54.0254" y="47.5167" width="12.3897" height="8.9481" rx="1.40952" fill="white" stroke="#1F1F1F" stroke-linecap="round" stroke-linejoin="round"/>
</svg>
