<svg width="80" height="80" viewBox="0 0 80 80" fill="none" xmlns="http://www.w3.org/2000/svg">
<rect width="80" height="80" rx="8" fill="white"/>
<path d="M30.738 13.5388L8 32.1778C8 48.5485 19.369 62.9637 30.738 69C42.107 62.9637 53.476 48.5485 53.476 32.1778L30.738 13.5388Z" fill="white" stroke="#1F1F1F" stroke-linecap="round" stroke-linejoin="round"/>
<path d="M38.3426 37.4311H23.2765C21.2334 37.4311 19.5771 39.0873 19.5771 41.1304V52.9857C19.5771 55.0288 21.2334 56.685 23.2765 56.685H38.3426C40.3857 56.685 42.042 55.0288 42.042 52.9857V41.1304C42.042 39.0873 40.3857 37.4311 38.3426 37.4311Z" fill="#F8F9FA" stroke="#1F1F1F" stroke-linecap="round" stroke-linejoin="round"/>
<path d="M26.3599 37.4311V33.0458C26.3599 30.5921 28.3551 28.5968 30.8089 28.5968C33.2626 28.5968 35.2579 30.5921 35.2579 33.0458V37.4311H38.0152V33.0458C38.0152 29.0666 34.7894 25.8395 30.8089 25.8395C26.8297 25.8395 23.6025 29.0653 23.6025 33.0458V37.4311H26.3599Z" fill="#F8F9FA" stroke="#1F1F1F" stroke-linecap="round" stroke-linejoin="round"/>
<path d="M30.7926 41.0342C32.3999 41.0342 33.7029 42.3227 33.7029 43.9122C33.7029 44.9508 33.1464 45.8609 32.3123 46.3669L34.7722 52.7922H26.813L29.2728 46.3669C28.4387 45.8609 27.8823 44.9508 27.8823 43.9122C27.8823 42.3227 29.1853 41.0342 30.7926 41.0342Z" fill="#1F1F1F" stroke="#1F1F1F" stroke-linecap="round" stroke-linejoin="round"/>
<path d="M57.1619 41.0894C65.4709 41.0894 72.2066 34.3537 72.2066 26.0447C72.2066 17.7357 65.4709 11 57.1619 11C52.9601 11 49.1605 12.7225 46.431 15.5C43.763 18.2148 42.1172 21.9376 42.1172 26.0447C42.1172 34.3537 48.8529 41.0894 57.1619 41.0894Z" fill="#D9D9D9" stroke="#D9D9D9" stroke-linecap="round" stroke-linejoin="round"/>
<path d="M57.1619 11C65.4709 11 72.2066 17.7357 72.2066 26.0447C72.2066 34.3537 65.4709 41.0894 57.1619 41.0894C52.7965 41.0894 48.8654 39.2302 46.1172 36.2604" stroke="#1F1F1F" stroke-linecap="round" stroke-linejoin="round"/>
<path d="M55.0547 32.6988C54.659 33.0789 54.0309 33.0691 53.6472 32.6768L48.5561 27.4721C48.17 27.0773 48.1769 26.4442 48.5717 26.058L50.1503 24.5136C50.5451 24.1273 51.1783 24.1343 51.5645 24.5291L53.7395 26.7527C54.1231 27.1449 54.7512 27.1547 55.147 26.7747L62.8299 19.3966C63.2282 19.0141 63.8611 19.0268 64.2437 19.4251L65.7741 21.0181C66.1568 21.4164 66.144 22.0496 65.7456 22.4322L55.0547 32.6988Z" fill="white" stroke="#1F1F1F" stroke-linecap="round" stroke-linejoin="round"/>
</svg>
