<svg width="80" height="80" viewBox="0 0 80 80" fill="none" xmlns="http://www.w3.org/2000/svg">
<rect x="20.2175" y="21.2859" width="48.1257" height="42.4266" rx="5.28004" fill="white" stroke="#1F1F1F" stroke-linecap="round" stroke-linejoin="round"/>
<rect x="24" y="44.29" width="19.3136" height="2.11078" rx="1.05539" fill="#D9D9D9"/>
<rect x="24" y="49.2538" width="34.9334" height="2.11078" rx="1.05539" fill="#D9D9D9"/>
<path d="M53.6892 28.5129L56.375 26.9832C56.5099 26.9017 56.663 26.8552 56.8204 26.848C56.9779 26.8407 57.1346 26.873 57.2764 26.9418L60.2904 28.4806V29.4452L57.2764 27.9049C57.1348 27.8362 56.9782 27.804 56.821 27.8112C56.6638 27.8184 56.5109 27.8647 56.3761 27.946L53.6903 29.4757L53.6892 28.5129Z" fill="#1F1F1F"/>
<path d="M60.2892 28.4805C64.3078 30.6567 64.0915 29.6493 64.9027 35.0863H61.948V41.1274H52.09V35.0863H49.1353C49.9461 29.6493 49.7302 30.6567 53.7484 28.4805C55.4653 29.9898 58.4368 30.1076 60.2892 28.4805Z" fill="#F8F9FA" stroke="#1F1F1F" stroke-width="0.5" stroke-linecap="round" stroke-linejoin="round"/>
<path d="M52.0898 35.0862V32.5189" stroke="#1F1F1F" stroke-width="0.5" stroke-linecap="round" stroke-linejoin="round"/>
<path d="M61.948 35.0862V31.8948" stroke="#1F1F1F" stroke-width="0.5" stroke-linecap="round" stroke-linejoin="round"/>
<path d="M56.8731 26.7801V26.2331C56.8731 25.8787 57.7265 25.5244 57.7265 24.8644C57.7265 23.898 56.2451 23.85 56.2451 24.977" stroke="#1F1F1F" stroke-width="0.5" stroke-linecap="round" stroke-linejoin="round"/>
<path d="M7 13.6487H46.2605V38.3165C46.2605 40.139 44.783 41.6165 42.9605 41.6165H10.3C8.47747 41.6165 7 40.139 7 38.3165V13.6487Z" fill="white" stroke="#1F1F1F" stroke-linecap="round" stroke-linejoin="round"/>
<path d="M20.5136 21.3868C20.8395 21.0609 21.368 21.0609 21.694 21.3868C22.0199 21.7128 22.0199 22.2413 21.694 22.5672L17.2762 26.985L21.694 31.4028C22.0199 31.7287 22.0199 32.2572 21.694 32.5832C21.368 32.9091 20.8395 32.9091 20.5136 32.5832L16.0302 28.0998C15.4145 27.4841 15.4145 26.4859 16.0302 25.8702L20.5136 21.3868Z" fill="#1F1F1F"/>
<path d="M32.8229 32.5831C32.4969 32.909 31.9684 32.909 31.6425 32.5831C31.3165 32.2571 31.3165 31.7286 31.6425 31.4027L36.0602 26.9849L31.6425 22.5671C31.3165 22.2412 31.3166 21.7127 31.6425 21.3867C31.9684 21.0608 32.4969 21.0608 32.8229 21.3867L37.3062 25.8701C37.9219 26.4858 37.9219 27.484 37.3062 28.0997L32.8229 32.5831Z" fill="#1F1F1F"/>
<path d="M29.1017 21.4619C29.3351 21.0644 29.8466 20.9312 30.2441 21.1646C30.6416 21.398 30.7747 21.9095 30.5413 22.307L24.6059 32.4158C24.3725 32.8133 23.861 32.9464 23.4635 32.713C23.066 32.4796 22.9329 31.9681 23.1663 31.5706L29.1017 21.4619Z" fill="#1F1F1F"/>
<path d="M7 10.3C7 8.47747 8.47747 7 10.3 7H42.9605C44.783 7 46.2605 8.47747 46.2605 10.3V13.649H7V10.3Z" fill="white" stroke="#1F1F1F" stroke-linecap="round" stroke-linejoin="round"/>
<circle cx="10.3774" cy="10.3773" r="1.37201" fill="#1F1F1F"/>
<circle cx="14.7045" cy="10.3771" r="1.37201" fill="#1F1F1F"/>
<circle cx="19.0317" cy="10.3771" r="1.37201" fill="#1F1F1F"/>
<rect x="24" y="55.1641" width="22.5853" height="4.85479" rx="2.4274" fill="#1F1F1F"/>
<path d="M68.0675 65.3735C68.0673 65.3735 68.0672 65.3734 68.067 65.3733L59.9698 57.8235C59.4057 57.2977 58.4909 57.7259 58.5295 58.4983L59.0826 69.5822C59.1216 70.3632 60.0925 70.6923 60.5944 70.095L61.7246 68.7508C62.1955 68.1906 63.0889 68.3094 63.397 68.9732L65.0535 72.5415C65.2378 72.939 65.7082 73.1106 66.104 72.9254C66.4997 72.7403 66.6706 72.2678 66.4862 71.8702L64.8256 68.2931C64.5185 67.6315 65.0001 66.8744 65.7295 66.872L67.4866 66.8664C68.265 66.8639 68.6377 65.9056 68.0679 65.3736C68.0678 65.3735 68.0676 65.3735 68.0675 65.3735Z" fill="white" stroke="#1F1F1F" stroke-linecap="round" stroke-linejoin="round"/>
</svg>
