<svg width="80" height="80" viewBox="0 0 80 80" fill="none" xmlns="http://www.w3.org/2000/svg">
<rect width="80" height="80" rx="8" fill="white"/>
<path d="M40 59C50.4934 59 59 50.4934 59 40C59 29.5066 50.4934 21 40 21C29.5066 21 21 29.5066 21 40C21 50.4934 29.5066 59 40 59Z" fill="#F8F9FA"/>
<path d="M40 69C56.0163 69 69 56.0163 69 40C69 23.9837 56.0163 11 40 11C23.9837 11 11 23.9837 11 40C11 56.0163 23.9837 69 40 69Z" stroke="#1F1F1F" stroke-width="2" stroke-linecap="round" stroke-dasharray="0.08 6"/>
<path d="M39.6993 38.8694C42.858 38.8694 45.4186 36.3087 45.4186 33.15C45.4186 29.9913 42.858 27.4307 39.6993 27.4307C36.5406 27.4307 33.98 29.9913 33.98 33.15C33.98 36.3087 36.5406 38.8694 39.6993 38.8694Z" fill="white" stroke="#1F1F1F" stroke-linecap="round" stroke-linejoin="round"/>
<path d="M39.7013 58.7938C42.5142 58.7963 45.2924 58.1735 47.8349 56.9705C50.3775 55.7674 52.6209 54.0143 54.4027 51.8378C52.8953 49.279 50.7462 47.1579 48.1679 45.6843C45.5895 44.2106 42.6711 43.4355 39.7013 43.4355C36.7316 43.4355 33.8132 44.2106 31.2348 45.6843C28.6564 47.1579 26.5073 49.279 25 51.8378C26.7816 54.0145 29.0249 55.7679 31.5675 56.9709C34.1101 58.174 36.8885 58.7966 39.7013 58.7938Z" fill="white" stroke="#1F1F1F" stroke-linecap="round" stroke-linejoin="round"/>
</svg>
