<?xml version="1.0" encoding="UTF-8"?>
<svg id="Cexélque_1" data-name="Cexélque 1" xmlns="http://www.w3.org/2000/svg" viewBox="0 0 474.94 124.76">
  <defs>
    <style>
      .cls-1 {
        fill: none;
      }

      .cls-2 {
        fill: #050033;
      }
    </style>
  </defs>
  <rect class="cls-1" width="474.94" height="124.76"/>
  <g>
    <g>
      <path class="cls-2" d="M434.24,82.12l-13.03-15.5c6.86-1.58,11.05-5.52,11.05-12.37,0-7.74-6.56-11.62-14.87-11.62h-26.04v39.49h6.9v-14.94h15.49s11.93,14.94,11.93,14.94h8.57ZM398.26,48.76h19.33c4.76,0,7.6,2.23,7.6,5.97s-2.98,6.32-7.6,6.32h-19.33v-12.29Z"/>
      <path class="cls-2" d="M156.49,42.63l-20.37,39.49h7.81l4.34-8.79h23.19l4.34,8.79h7.99l-20.37-39.49h-6.95ZM151.31,67.2l8.57-17.35,8.57,17.35h-17.14Z"/>
      <path class="cls-2" d="M220.33,47.83c6.49,0,11.85,2.45,14.59,6.75l5.57-3.75c-3.9-5.47-10.8-9.25-20.16-9.25-15.13,0-23.83,9.88-23.83,20.79s8.69,20.79,23.83,20.79c9.36,0,16.26-3.78,20.16-9.25l-5.57-3.75c-2.75,4.3-8.1,6.75-14.59,6.75-10.17,0-16.75-5.71-16.75-14.55s6.57-14.55,16.75-14.55Z"/>
      <path class="cls-2" d="M283.04,47.83c6.49,0,11.85,2.45,14.59,6.75l5.57-3.75c-3.9-5.47-10.8-9.25-20.16-9.25-15.13,0-23.83,9.88-23.83,20.79s8.69,20.79,23.83,20.79c9.36,0,16.26-3.78,20.16-9.25l-5.57-3.75c-2.75,4.3-8.1,6.75-14.59,6.75-10.17,0-16.75-5.71-16.75-14.55s6.57-14.55,16.75-14.55Z"/>
      <path class="cls-2" d="M345.75,41.58c-15.13,0-23.83,9.88-23.83,20.79s8.69,20.79,23.83,20.79,23.83-9.88,23.83-20.79-8.69-20.79-23.83-20.79ZM345.75,77c-10.17,0-16.75-5.74-16.75-14.62s6.57-14.62,16.75-14.62,16.75,5.74,16.75,14.62-6.57,14.62-16.75,14.62Z"/>
    </g>
    <path class="cls-2" d="M110.81,102.48h-18.97l-13.94-29.06c-7.61,4.14-11.95,13.72-19.67,20.05-3.93,3.22-8.53,6.1-14.27,8.04-2.6.88-7.01,2.02-8.67,2.18-.69.07-1.18.04-1.28-.21-.08-.19.11-.34.85-.7.84-.41,4.33-1.85,6.51-3.37,2.72-1.9,4.29-3.95,4.41-5.54-.75-2.64-6.08-8.5-.63-19.26,1.96-3.86,3.65-6.64,4.87-9.43,1.39-3.21,2.38-7.72,2.72-11.08.02-.2.05-.19.16-.08,2.66,2.69,12.96,13.29,11.47,23.83,3.42-1.32,9.36-5.31,12.1-7.44,2.89-2.25,4.78-4.6,7.84-4.65,2.74-.05,2.98,1.26,5.16,1.55.54.07,1.34-.03,1.76-.24.17-.08.13-.27-.13-.33-2.98-.7-3.69-3.13-7.54-3.13-3.45,0-6.2,3.18-8.19,4.49l-9.74-20.3c-4.07-8.49-2.83-14.66,6.11-26.79l39.08,81.45Z"/>
  </g>
</svg>