<?xml version="1.0" encoding="utf-8"?>
<!-- Generator: Adobe Illustrator 22.0.1, SVG Export Plug-In . SVG Version: 6.00 Build 0)  -->
<svg version="1.1" id="Layer_1" xmlns="http://www.w3.org/2000/svg" xmlns:xlink="http://www.w3.org/1999/xlink" x="0px" y="0px"
	 viewBox="0 0 600 67.9" style="enable-background:new 0 0 600 67.9;" xml:space="preserve">
<style type="text/css">
	.st0{fill:#231F20;}
</style>
<g>
	<path class="st0" d="M125.8,14.3c-2.9-2.7-6.1-4.5-9.7-5.6c-3.3-1.1-7.8-1.7-13.6-1.7H90.7v35H72.6L55.3,3.4L27.2,63.8h9.2L42.8,50
		h24.3l6,13.8h9.4L76.2,50h14.4v13.8h11.8c5.8,0,10.2-0.5,13.4-1.6c3.4-1.1,6.6-2.9,9.6-5.6c6.1-5.4,9.2-12.5,9.2-21.2
		C134.6,26.7,131.7,19.7,125.8,14.3z M46.3,42l8.8-19.3L63.6,42H46.3z M119.7,50.5c-2.1,1.9-4.4,3.2-6.9,4.1
		c-2.6,0.8-5.8,1.2-9.6,1.2h-3.9V15h3.9c7.3,0,12.9,1.7,16.6,5.2c4.2,3.9,6.3,8.9,6.3,15.2C126,41.6,123.9,46.6,119.7,50.5z"/>
	<path class="st0" d="M171,5.9c-8.2,0-15.2,2.9-21.1,8.6c-5.9,5.7-8.8,12.6-8.8,20.6c0,9.1,3.2,16.5,9.6,22.1
		c5.8,5.1,12.4,7.6,19.8,7.6c8.3,0,15.4-2.9,21.2-8.6c5.8-5.7,8.8-12.6,8.8-20.8c0-8.1-2.9-15.1-8.7-20.9C186,8.8,179.1,5.9,171,5.9
		z M185.7,50.7c-4.1,4.1-9.1,6.2-15.1,6.2c-5.5,0-10.3-2-14.5-6.1c-4.2-4.1-6.3-9.2-6.3-15.5c0-6,2-11,6.1-15.1
		c4.1-4.1,9.1-6.2,15-6.2c5.9,0,10.9,2.1,14.9,6.2c4.1,4.1,6.1,9.2,6.1,15.2C191.9,41.4,189.8,46.5,185.7,50.7z"/>
	<path class="st0" d="M236.7,34c2.3-2.9,3.5-6.4,3.5-10.4c0-5.2-1.8-9.3-5.5-12.4c-3.3-2.8-8.8-4.2-16.3-4.2h-10.1v56.9h8.6V40.6
		h1.5l16.2,23.3h10.5l-17.6-24.2C231.3,38.8,234.4,36.9,236.7,34z M216.9,33.1V15h3.1c7.9,0,11.9,2.9,11.9,8.7
		c0,6.2-4.1,9.3-12.2,9.3H216.9z"/>
	<polygon class="st0" points="253.7,63.8 285.1,63.8 285.1,55.8 262.3,55.8 262.3,36.8 284.4,36.8 284.4,28.7 262.3,28.7 262.3,15 
		285.1,15 285.1,7 253.7,7 	"/>
	<path class="st0" d="M320.3,33.2c3.1-2.8,4.7-6.3,4.7-10.3c0-2.2-0.5-4.4-1.4-6.6c-0.9-2.2-2.2-4-3.8-5.4c-1.6-1.4-3.5-2.4-5.8-3
		c-2.3-0.6-5.3-0.9-9.1-0.9h-8.5v56.9h13c3.9,0,7.1-0.4,9.7-1.1c2.4-0.7,4.5-2,6.4-3.9c3.1-3.1,4.7-6.8,4.7-11.3
		c0-3.4-0.9-6.4-2.7-8.9C325.7,36.1,323.3,34.3,320.3,33.2z M304.9,14.9h3c2.9,0,5.1,0.7,6.6,2.1c1.5,1.4,2.3,3.4,2.3,6.1
		c0,2.7-0.7,4.8-2.2,6.2c-1.5,1.4-3.8,2.1-7,2.1h-2.7V14.9z M318.8,53.5c-1.8,1.5-4.7,2.3-8.5,2.3h-5.3V38.6h4.3
		c4.6,0,7.8,0.8,9.6,2.5c1.8,1.7,2.8,3.7,2.8,6.2C321.6,49.8,320.7,51.8,318.8,53.5z"/>
	<polygon class="st0" points="337.5,63.8 368.9,63.8 368.9,55.8 346.1,55.8 346.1,36.8 368.2,36.8 368.2,28.7 346.1,28.7 346.1,15 
		368.9,15 368.9,7 337.5,7 	"/>
	<path class="st0" d="M468.9,41.2c0,5-0.8,8.5-2.4,10.7c-2.4,3.3-5.7,4.9-10.1,4.9c-4.3,0-7.7-1.6-10.1-4.9
		c-1.6-2.3-2.4-5.8-2.4-10.7V7h-8.6v35h-14.7L403.3,3.4l-28.1,60.4h9.2l6.3-13.8h24.3l6,13.8h9.4L424.2,50h12c0.9,3.2,2.5,6,4.8,8.4
		c4.2,4.3,9.3,6.5,15.4,6.5c6.1,0,11.3-2.2,15.5-6.5c3.7-3.9,5.6-8.8,5.6-14.8V7h-8.6V41.2z M394.3,42l8.8-19.3l8.4,19.3H394.3z"/>
	<polygon class="st0" points="485.1,15 498.2,15 498.2,63.8 506.7,63.8 506.7,15 519.8,15 519.8,7 485.1,7 	"/>
	<polygon class="st0" points="561.5,7 548.4,29.7 535.4,7 525.6,7 544.1,39.3 544.1,63.8 552.7,63.8 552.7,39.3 571.3,7 	"/>
</g>
</svg>
