<svg width="175" height="110" viewBox="0 0 175 110" fill="none" xmlns="http://www.w3.org/2000/svg">
<g clip-path="url(#clip0_5408_31094)">
<path d="M123.826 70.8574H148V90.0012H123.822L117.807 84.3999V76.4998L123.826 70.8574Z" fill="#FFF200"/>
<path d="M48.6939 35.11L49.1627 34.9418C49.4614 34.8009 49.8196 34.5589 50.2386 34.2143C50.6576 33.8697 51.0766 33.4731 51.4957 33.0232C51.9147 32.5733 52.277 31.9729 52.5826 31.2208C52.8883 30.4687 53.0404 29.6796 53.0404 28.8495C53.0404 26.6725 52.0461 24.7962 50.0574 23.2236C48.0688 21.6496 45.3555 20.8633 41.9162 20.8633H27V51.0825H42.7916C46.8394 51.0825 55.224 50.3372 55.224 42.4426C55.224 36.405 48.8363 35.1647 48.6939 35.1086M36.8851 27.947H40.5263C41.2551 27.947 41.8512 28.1589 42.3131 28.5842C42.775 29.0095 43.0059 29.5333 43.0059 30.1582C43.0059 30.7832 42.775 31.3083 42.3131 31.7322C41.8512 32.1562 41.2551 32.3695 40.5263 32.3695H36.8851V27.947ZM43.6849 43.2959C43.1152 43.8265 42.4002 44.0918 41.5386 44.0918H36.8837V38.6669H41.5386C42.4002 38.6669 43.1152 38.9281 43.6849 39.4505C44.2547 39.9728 44.5382 40.6115 44.5382 41.3677C44.5382 42.1239 44.2533 42.7667 43.6849 43.2973" fill="#1D252C"/>
<path d="M56.5503 68.5612L57.0191 68.3929C57.3178 68.2521 57.676 68.01 58.095 67.6654C58.5141 67.3208 58.9331 66.9242 59.3521 66.4743C59.7711 66.0244 60.1335 65.4241 60.4391 64.672C60.7447 63.9198 60.8968 63.1294 60.8968 62.3007C60.8968 60.1223 59.9025 58.2474 57.9139 56.6748C55.9252 55.1008 53.2106 54.3145 49.7726 54.3145H34.8855V84.5336H50.648C54.6958 84.5336 63.0805 83.7884 63.0805 75.8937C63.0805 69.8562 56.6928 68.6159 56.5503 68.5598M44.7692 61.3968H48.3828C49.113 61.3968 49.7076 61.6087 50.1709 62.034C50.6328 62.4593 50.8638 62.9845 50.8638 63.6094C50.8638 64.2344 50.6328 64.7595 50.1709 65.1848C49.709 65.6101 49.113 65.822 48.3828 65.822H44.7692V61.3968ZM51.5414 76.7484C50.9716 77.279 50.2567 77.5443 49.3951 77.5443H44.7692V72.1194H49.3951C50.2567 72.1194 50.9716 72.3806 51.5414 72.903C52.1112 73.4254 52.3947 74.064 52.3947 74.8202C52.3947 75.5765 52.1098 76.2192 51.5414 76.7498" fill="#1D252C"/>
<path d="M80.53 43.7505H65.7577V39.0093H77.8195V32.0966H65.7577V28.2197H80.566V20.8652H55.8726V51.0844H80.53V43.7505Z" fill="#1D252C"/>
<path d="M105.8 20.8652V28.2197H113.878V51.0844H123.702V28.2197H131.778V20.8652H105.8Z" fill="#1D252C"/>
<path d="M94.6305 43.266C94.0897 43.7296 93.3416 43.9621 92.3818 43.9621C91.4221 43.9621 90.425 43.7022 89.3878 43.1826C88.3506 42.6629 87.6578 42.2445 87.3093 41.9286C87.1115 41.7494 86.9414 41.5922 86.7921 41.4513L80.9617 46.9268L81.3309 47.2919C81.6863 47.6571 82.2326 48.0933 82.9724 48.5979C83.7109 49.1039 84.5669 49.6099 85.5405 50.1158C86.5141 50.6218 87.7283 51.054 89.1845 51.4122C90.6407 51.7705 92.1426 51.9497 93.6914 51.9497C97.5567 51.9497 100.632 50.9596 102.92 48.9781C105.207 46.9966 106.351 44.6089 106.351 41.8137C106.351 40.1987 106.02 38.7792 105.361 37.5567C104.699 36.3341 103.875 35.4138 102.888 34.7957C101.9 34.1775 100.831 33.6223 99.6809 33.1314C98.6312 32.6829 97.6507 32.3437 96.7366 32.1112C96.6481 32.0894 96.5596 32.0661 96.4725 32.0456C95.4851 31.8131 94.665 31.5191 94.0109 31.1608C93.3582 30.8025 93.0304 30.3909 93.0304 29.9273C93.0304 29.3653 93.2586 28.9017 93.7122 28.5366C94.1672 28.1714 94.813 27.9882 95.651 27.9882C97.6466 27.9882 98.8677 28.8743 99.4969 29.5171L105.347 24.0224L105.24 23.9007C104.984 23.578 104.545 23.2088 103.92 22.7944C103.294 22.38 102.567 21.9616 101.736 21.5404C100.905 21.1192 99.8247 20.7568 98.4971 20.4546C97.1681 20.1524 95.7797 20.002 94.3304 20.002C90.6642 20.002 87.7131 20.9606 85.4755 22.8792C83.238 24.7964 82.1192 27.0487 82.1192 29.6333C82.1192 31.0104 82.3681 32.2466 82.8646 33.342C83.3624 34.4374 83.9944 35.3085 84.7619 35.9553C85.5295 36.6021 86.3855 37.171 87.33 37.6619C88.1238 38.0749 88.9218 38.4168 89.7252 38.6958C89.8787 38.7491 90.0322 38.8038 90.1857 38.8531C91.1441 39.1553 92.0112 39.4356 92.7856 39.6954C93.5601 39.9553 94.1962 40.2329 94.6927 40.5282C95.1905 40.8236 95.4381 41.1737 95.4381 41.5826C95.4381 42.2431 95.1684 42.8051 94.6277 43.2687" fill="#1D252C"/>
<path d="M80.5661 72.2733C80.5661 74.2685 78.9384 75.889 76.9207 75.9041C74.8823 75.9191 73.2214 74.2891 73.2214 72.2733V54.3262H63.3293V71.8166C63.3293 79.0302 69.2427 84.8777 76.5376 84.8777H77.1572C84.4521 84.8777 90.3654 79.0302 90.3654 71.8166V54.3262H80.5661V72.2733Z" fill="#1D252C"/>
<path d="M107.26 64.6044L100.783 54.3262H90.8784L102.318 73.7557V84.5454H112.203V73.7557L123.641 54.3262H113.738L107.26 64.6044Z" fill="#1D252C"/>
<path d="M122.614 80.4134C122.614 81.067 122.078 81.5963 121.417 81.5963C120.756 81.5963 120.221 81.067 120.221 80.4134C120.221 79.7597 120.756 79.2305 121.417 79.2305C122.078 79.2305 122.614 79.7597 122.614 80.4134Z" fill="#1D252C"/>
<path d="M123.52 64.0642C123.52 63.1685 124.241 62.4492 125.153 62.4492C126.064 62.4492 126.786 63.1631 126.786 64.0574C126.786 64.9518 126.064 65.6656 125.153 65.6656C124.241 65.6656 123.52 64.9736 123.52 64.0642ZM126.574 64.0574C126.574 63.2424 125.971 62.6461 125.154 62.6461C124.337 62.6461 123.741 63.2506 123.741 64.0656C123.741 64.8806 124.366 65.47 125.154 65.47C125.942 65.47 126.574 64.8806 126.574 64.0588V64.0574ZM124.609 63.1918H125.161C125.529 63.1918 125.772 63.3518 125.772 63.68V63.6868C125.772 63.9412 125.611 64.0793 125.375 64.123L125.869 64.8656H125.597L125.125 64.16H124.868V64.8656H124.611V63.1918H124.609ZM125.161 63.9781C125.396 63.9781 125.514 63.8837 125.514 63.6936V63.6868C125.514 63.4762 125.388 63.4024 125.161 63.4024H124.866V63.9767H125.161V63.9781Z" fill="#1D252C"/>
</g>
<defs>
<clipPath id="clip0_5408_31094">
<rect width="121" height="70" fill="white" transform="translate(27 20)"/>
</clipPath>
</defs>
</svg>
