<?xml version="1.0" encoding="UTF-8"?>
<svg id="Layer_1" data-name="Layer 1" xmlns="http://www.w3.org/2000/svg" xmlns:xlink="http://www.w3.org/1999/xlink" viewBox="0 0 841.89 595.28">
  <defs>
    <style>
      .cls-1 {
        fill: none;
      }

      .cls-2 {
        fill: #025157;
      }

      .cls-3 {
        fill: #ee3224;
      }

      .cls-4 {
        clip-path: url(#clippath);
      }
    </style>
    <clipPath id="clippath">
      <rect class="cls-1" width="841.89" height="595.28"/>
    </clipPath>
  </defs>
  <g class="cls-4">
    <path class="cls-2" d="M781.46,365.46c17.2,0,32.08-13.94,32.08-31.15,0-31.85-43.83-29.72-43.83-46.05,0-7.42,5.6-11.06,11.71-11.06s12.38,2.66,17.25,7.98l12.36-15.54c-7.4-7.71-17.29-12.53-30.77-12.53-17.2,0-31.15,13.94-31.15,31.15,0,29.39,44.51,29.82,44.51,46.19,0,7.74-5.89,12.13-11.82,12.13-10.19,0-17.53-5.53-22.16-10.16l-12.1,15.28c7.4,7.71,19.62,13.76,33.91,13.76"/>
    <polygon class="cls-2" points="329.97 258.61 352 258.61 352.05 362.86 276.75 302.97 276.75 362.8 254.73 362.8 254.78 258.61 329.97 318.41 329.97 258.61"/>
    <path class="cls-2" d="M216.36,258.61h21.97v64.88c0,22.74-19.62,41.19-42.37,41.19s-42.37-18.42-42.37-41.16l.05-64.91h21.97v65.04c0,10.58,9.76,19.16,20.35,19.16s20.36-8.58,20.36-19.16l.04-65.04Z"/>
    <polygon class="cls-2" points="503.22 258.61 503.22 362.8 481.19 362.8 481.25 258.61 503.22 258.61"/>
    <polygon class="cls-2" points="443.29 258.61 465.31 258.61 465.37 362.86 390.07 302.97 390.07 362.8 368.05 362.8 368.1 258.61 443.29 318.41 443.29 258.61"/>
    <polygon class="cls-2" points="594.69 258.61 616.71 258.61 616.76 362.86 541.47 302.97 541.47 362.8 519.44 362.8 519.5 258.61 594.69 318.41 594.69 258.61"/>
    <path class="cls-2" d="M740.02,307.41c.06,1.26.13,2.39.13,3.64,0,29.92-24.29,54.18-54.26,54.18s-54.26-24.26-54.26-54.18,24.29-54.18,54.26-54.18c20.4,0,38.09,11.24,47.43,27.85l-16.71,14.81c-4.74-12.43-16.66-21.28-30.72-21.28-18.12,0-32.8,14.69-32.8,32.8s14.69,32.8,32.8,32.8c12.95,0,24.14-7.5,29.48-18.39l-28.24.04v-18.08h52.89Z"/>
    <path class="cls-2" d="M126.98,346.86c-5.83,4.11-23.12,15.93-23.12,15.93h-51.58l68.29-48.18v-28.06l-79.99,56.43v-113.16s57.77,0,58.73,0c17.87,0,32.36,14.36,32.36,32.24,0,9.11-3.76,17.34-9.82,23.22,12.02,5.78,20.32,18.07,20.32,32.3,0,12.1-6.08,22.8-15.19,29.29"/>
    <polygon class="cls-3" points="28.35 289.26 72.36 258.21 112.14 258.21 28.35 317.32 28.35 289.26"/>
  </g>
</svg>
