<svg version="1.1" id="choice-hotels-logo-svg" xmlns:x="ns_extend;" xmlns:i="ns_ai;" xmlns:graph="ns_graphs;" xmlns="http://www.w3.org/2000/svg" xmlns:xlink="http://www.w3.org/1999/xlink" x="0px" y="0px" viewBox="0 0 492.4 124.4" style="enable-background:new 0 0 492.4 124.4;" xml:space="preserve">
 <style type="text/css">
  .st0{fill:#FFC82E;}
	.st1{fill:#E16926;}
	.st2{fill:#5E5746;}
	.st3{fill:#231F20;}
 </style>
 <metadata>
  <sfw xmlns="ns_sfw;">
   <slices>
   </slices>
   <sliceSourceBounds bottomLeftOrigin="true" height="124.4" width="492.4" x="2.7" y="7.9">
   </sliceSourceBounds>
  </sfw>
 </metadata>
 <desc>
  Choice Hotels International
 </desc>
 <g>
  <path class="st0" d="M49,0v43l0,0c20.6,0,37.3-16.6,37.4-37.2V0H49L49,0z">
  </path>
  <path class="st0" d="M86.4,88.6v-43l0,0c-20.6,0-37.3,16.7-37.4,37.2v5.8L86.4,88.6L86.4,88.6z">
  </path>
  <path class="st1" d="M36.2,88.6C15.6,84.4,0,66.2,0,44.3S15.6,4.2,36.2,0V88.6L36.2,88.6z">
  </path>
  <path class="st2" d="M150,80.1c-12.3,0-22.2-3.8-29.3-11.2c-6.4-6.7-9.6-15.1-9.6-24.9c0-10.4,3.5-19.4,10.4-26.7
		c7.8-8.3,18.4-12.5,31.4-12.5c7.9,0,15,1.6,21.1,4.6c0.3,0.1,0.4,0.4,0.4,0.7v15.3c0,0.4-0.3,0.7-0.6,0.8c-0.1,0-0.1,0-0.2,0
		c-0.3,0-0.6-0.2-0.7-0.5c-3.7-9.2-11-13.7-22.3-13.7c-8.7,0-15.7,3.1-20.8,9.2c-4.7,5.5-7,12.4-7,20.5c0,8.2,2.4,15.3,7.2,21
		c5.3,6.3,12.6,9.5,21.7,9.5c8.6,0,16.4-3.6,23.1-10.7c0.1-0.2,0.4-0.2,0.6-0.2c0.1,0,0.2,0,0.3,0c0.3,0.1,0.5,0.4,0.5,0.7v6.9
		c0,0.2-0.1,0.4-0.2,0.5C169.4,76.6,160.6,80.1,150,80.1">
  </path>
  <path class="st2" d="M320.6,47.5c0,7.5-2.1,13.6-6.4,18.3c-4.2,4.6-9.7,6.9-16.4,6.9c-7.5,0-13.6-2.7-18.1-7.9
		c-4.6-5.3-7-12.3-7-20.7c0-7.4,2.1-13.4,6.3-17.9c4.2-4.5,9.7-6.7,16.5-6.7c7.5,0,13.7,2.6,18.2,7.8
		C318.3,32.5,320.6,39.3,320.6,47.5 M297.6,12c-10.4,0-19,3.3-25.6,9.9s-10,14.9-10,24.8c0,9.6,3.1,17.7,9.4,23.9
		c6.2,6.2,14.4,9.4,24.4,9.4c10.4,0,19.1-3.4,25.7-10.1c6.4-6.5,9.7-14.7,9.7-24.6c0-9.6-3.1-17.7-9.2-23.9
		C315.7,15.1,307.5,12,297.6,12">
  </path>
  <path class="st2" d="M356.5,20.3c0-0.2,0-0.3,0.1-0.5c0.3-2.1,1.9-3.7,4-4.1h0.1c0.5-0.1,0.9-0.6,0.8-1.1c0-0.6-0.5-1-1.1-1h-18.3
		c-0.6,0-1,0.4-1.1,1c0,0.5,0.3,1,0.9,1.1l0,0c2.3,0.5,4,2.5,4.1,4.9V21l0,0v50v0.1v0.5c0,2.4-1.8,4.5-4.1,4.9l0,0
		c-0.2,0-0.3,0.1-0.5,0.2c-0.2,0.2-0.3,0.6-0.3,0.9c0,0.6,0.5,1,1.1,1h18.2l0,0c0.6,0,1.1-0.5,1.1-1.1c0-0.5-0.3-0.9-0.8-1h-0.1
		c-2.3-0.4-4.1-2.5-4.1-4.9V71l0,0V20.7l0,0v-0.1C356.5,20.5,356.5,20.4,356.5,20.3">
  </path>
  <path class="st2" d="M429.8,62.7c-0.4-0.2-0.9-0.1-1.2,0.3c-5.9,6.3-12.8,9.5-20.4,9.5c-8,0-14.4-2.8-19.1-8.4
		c-4.2-5.1-6.4-11.3-6.4-18.6c0-7.1,2.1-13.2,6.2-18.1c4.5-5.4,10.6-8.1,18.3-8.1c9.9,0,16.3,3.9,19.6,12c0.2,0.5,0.7,0.8,1.2,0.7
		s0.9-0.6,0.9-1.1V17.1c0-0.4-0.2-0.8-0.6-1c-5.5-2.8-12-4.2-19.1-4.2c-11.8,0-21.3,3.8-28.3,11.2c-6.3,6.6-9.4,14.7-9.4,24.2
		c0,8.9,2.9,16.5,8.7,22.6c6.4,6.7,15.3,10.2,26.4,10.2c9.6,0,17.6-3.2,23.6-9.5c0.2-0.2,0.3-0.5,0.3-0.7v-6.1
		C430.5,63.3,430.2,62.9,429.8,62.7">
  </path>
  <path class="st2" d="M491.5,62c-0.5-0.2-1.1,0.1-1.3,0.6c-0.1,0.1-0.1,0.3-0.2,0.4c-1.8,5-6.6,8.5-12.2,8.5h-1c-0.2,0-0.3,0-0.5,0
		h-19.5V48.7h19.5c4.1,0,6.2,1.2,6.6,3.5c0.1,0.5,0.5,0.9,1.1,0.9h0.1c0.6,0,1-0.5,1-1.1V38.6c0-0.6-0.4-1-1-1.1s-1.1,0.3-1.2,0.9
		c-0.5,2.4-2.7,3.6-6.7,3.6h-19.4V19.7h20.7h0.1h1.3c4.4,0,8.1,3.2,9,7.4v0.1c0.2,0.5,0.6,0.9,1,0.9h0.1c0.6-0.1,1-0.5,1-1.1V14.6
		c0-0.6-0.5-1.1-1.1-1.1h-47c-0.6,0-1,0.4-1.1,1c0,0.6,0.4,1.1,0.9,1.1h0.1c0,0,0,0,0.1,0c2.4,0.4,4.3,2.4,4.3,5v50.8
		c0,2.4-1.7,4.4-3.9,4.9l0,0h-0.1h-0.1c-0.6,0.1-1,0.6-0.9,1.2c0,0.6,0.5,1,1.1,1h46.6c0.5,0,1-0.4,1.1-0.9l2.4-14.4
		C492.4,62.7,492,62.1,491.5,62">
  </path>
  <path class="st2" d="M248.5,20.6c0-2.4,1.7-4.4,4-4.9c0,0,0,0,0.1,0c0.5-0.1,0.9-0.6,0.8-1.1c0-0.6-0.5-1-1.1-1H234
		c-0.6,0-1,0.4-1.1,1c0,0.5,0.3,1,0.9,1.1l0,0c2.3,0.5,4,2.5,4,4.9v21.3h-35.6V20.8l0,0v-0.2c0-2.5,1.8-4.5,4.2-4.9l0,0
		c0.5-0.1,0.8-0.6,0.8-1.1c0-0.6-0.5-1-1.1-1h-18.4c-0.6,0-1,0.4-1.1,1c0,0.5,0.3,1,0.8,1.1c0,0,0.2,0,0.5,0.1
		c1.9,0.5,3.4,2.1,3.6,4.1c0,0.2,0,0.3,0.1,0.5c0,0.1,0,0.1,0,0.2v0.1v0.1v50.3l0,0v0.3c0,2.4-1.7,4.4-3.9,4.9l0,0l-0.4,0.2
		c-0.4,0.2-0.7,0.6-0.7,1.1c0,0.6,0.5,1,1.1,1h18.4c0.6,0,1-0.5,1.1-1c0-0.5-0.2-0.9-0.7-1.1l-0.4-0.1l0,0c-2.2-0.5-3.9-2.5-3.9-4.9
		V71v-0.1v-22h35.6c0,0,0,21.6,0,22c0,1.3-0.1,2-0.3,2.3c-0.6,1.6-1.9,2.8-3.6,3.2l-0.4,0.2c-0.4,0.2-0.7,0.6-0.6,1.1
		c0,0.6,0.5,1,1.1,1h18.3l0,0c0.6,0,1.1-0.5,1.1-1.1c0-0.4-0.2-0.8-0.6-1l-0.4-0.2c-2.2-0.5-3.9-2.5-3.9-4.9L248.5,20.6L248.5,20.6z
		">
  </path>
  <polygon class="st1" points="219,115.6 219,124.1 215.5,124.1 215.5,104 219,104 219,112.4 228.6,112.4 228.6,104 232.1,104 
		232.1,124.1 228.6,124.1 228.6,115.6 	">
  </polygon>
  <path class="st1" d="M257.3,106.9c-4,0-6.8,3.2-6.8,7.1s2.8,7.2,6.8,7.2c4,0,6.8-3.2,6.8-7.1S261.3,106.9,257.3,106.9 M257.3,124.4
		c-6.2,0-10.5-4.7-10.5-10.3c0-5.7,4.4-10.4,10.5-10.4c6.2,0,10.5,4.7,10.5,10.3C267.8,119.7,263.5,124.4,257.3,124.4">
  </path>
  <polygon class="st1" points="289.6,124.1 286.1,124.1 286.1,107.3 279.7,107.3 279.7,104 296,104 296,107.3 289.6,107.3 	">
  </polygon>
  <polygon class="st1" points="326,107.2 314.7,107.2 314.7,112.4 324.7,112.4 324.7,115.6 314.7,115.6 314.7,120.9 326.2,120.9 
		326.2,124.1 311.2,124.1 311.2,104 326,104 	">
  </polygon>
  <polygon class="st1" points="343.8,104 347.3,104 347.3,120.9 357.8,120.9 357.8,124.1 343.8,124.1 	">
  </polygon>
  <path class="st1" d="M377.6,112.5c4.2,1,6.4,2.5,6.4,5.9c0,3.8-2.9,6-7.2,6c-3.1,0-6-1.1-8.4-3.2l2.1-2.5c1.9,1.7,3.8,2.6,6.3,2.6
		c2.2,0,3.6-1,3.6-2.5s-0.8-2.2-4.5-3.1c-4.3-1-6.7-2.3-6.7-6c0-3.5,2.9-5.8,6.8-5.8c2.9,0,5.2,0.9,7.3,2.5l-1.9,2.7
		c-1.8-1.3-3.6-2.1-5.4-2.1c-2.1,0-3.3,1.1-3.3,2.4C372.9,110.9,373.8,111.5,377.6,112.5">
  </path>
  <path class="st3" d="M392.1,107.6h0.6c0.1,0,0.3,0,0.4,0s0.3,0,0.4-0.1c0.1,0,0.2-0.1,0.3-0.2c0.1-0.1,0.1-0.2,0.1-0.4
		c0-0.2,0-0.3-0.1-0.4s-0.2-0.2-0.3-0.2c-0.1,0-0.2-0.1-0.4-0.1c-0.1,0-0.3,0-0.4,0h-0.6V107.6L392.1,107.6z M391.3,105.6h1.8
		c0.6,0,1,0.1,1.3,0.4c0.3,0.2,0.4,0.6,0.4,1.1c0,0.4-0.1,0.7-0.3,0.9c-0.2,0.2-0.5,0.3-0.8,0.4l1.2,2H394l-1.2-1.9h-0.6v1.9h-0.9
		V105.6L391.3,105.6z M389.4,108c0,0.5,0.1,0.9,0.3,1.3c0.2,0.4,0.4,0.8,0.7,1.1c0.3,0.3,0.7,0.6,1.1,0.7c0.4,0.2,0.9,0.3,1.3,0.3
		c0.5,0,0.9-0.1,1.3-0.3c0.4-0.2,0.8-0.4,1.1-0.7c0.3-0.3,0.5-0.7,0.7-1.1s0.3-0.9,0.3-1.3c0-0.5-0.1-0.9-0.3-1.3
		c-0.2-0.4-0.4-0.8-0.7-1.1c-0.3-0.3-0.7-0.6-1.1-0.7c-0.4-0.2-0.9-0.3-1.3-0.3c-0.5,0-0.9,0.1-1.3,0.3c-0.4,0.2-0.8,0.4-1.1,0.7
		c-0.3,0.3-0.6,0.7-0.7,1.1C389.5,107.1,389.4,107.5,389.4,108L389.4,108z M388.7,108c0-0.6,0.1-1.1,0.3-1.6
		c0.2-0.5,0.5-0.9,0.9-1.3s0.8-0.7,1.3-0.9c0.5-0.2,1-0.3,1.6-0.3s1.1,0.1,1.6,0.3c0.5,0.2,0.9,0.5,1.3,0.9s0.7,0.8,0.9,1.3
		c0.2,0.5,0.3,1,0.3,1.6s-0.1,1.1-0.3,1.6c-0.2,0.5-0.5,0.9-0.9,1.3s-0.8,0.7-1.3,0.9c-0.5,0.2-1,0.3-1.6,0.3s-1.1-0.1-1.6-0.3
		c-0.5-0.2-0.9-0.5-1.3-0.9s-0.7-0.8-0.9-1.3S388.7,108.6,388.7,108L388.7,108z">
  </path>
 </g>
</svg>