<svg width="175" height="110" viewBox="0 0 175 110" fill="none" xmlns="http://www.w3.org/2000/svg">
<g clip-path="url(#clip0_5408_31374)">
<path fill-rule="evenodd" clip-rule="evenodd" d="M33 0H142V109.951H33V0Z" fill="white"/>
<path fill-rule="evenodd" clip-rule="evenodd" d="M33 0H101.396C106.887 0 112.426 0 117.917 0C116.376 1.55477 114.834 3.10954 113.293 4.66431C113.919 5.29594 114.545 5.92756 115.123 6.55919C116.52 5.58746 118.11 4.81007 119.795 4.66431C121.337 4.51855 122.878 4.90724 124.323 5.53887C124.853 5.7818 125.383 6.12191 125.961 6.21908C126.539 6.1705 127.02 5.63604 127.213 5.10159C127.406 4.7129 127.213 4.27562 126.924 4.03269C125.575 2.67226 124.275 1.36042 122.926 0C129.332 0 135.69 0 142 0C142 6.21908 142 12.4867 142 18.7058C140.7 17.394 139.447 16.0822 138.147 14.8189C137.81 14.4788 137.232 14.2845 136.75 14.4788C136.461 14.6246 136.124 14.8675 136.027 15.2076C135.835 15.8878 136.172 16.5194 136.413 17.1511C137.232 18.8516 137.569 20.7951 137.328 22.6899C137.183 23.9532 136.702 25.2164 136.027 26.3339C135.835 26.5769 135.69 26.8684 135.498 27.1599C136.172 27.7429 136.702 28.4231 137.376 29.0062C138.869 27.4514 140.459 25.8966 142 24.3419C142 34.788 142 45.1855 142 55.6316C141.711 55.7288 141.374 55.9231 141.085 55.7774C140.651 55.5345 140.362 55.0972 140.025 54.8057C136.316 51.0645 132.656 47.3233 128.899 43.6307C127.406 45.1369 125.961 46.6431 124.468 48.1007C125.238 49.0239 126.153 49.8012 126.972 50.6758C129.958 53.6882 132.945 56.7005 135.931 59.6643C136.172 59.9072 136.461 60.1502 136.605 60.4903C136.654 60.879 136.365 61.1705 136.268 61.5592C136.124 61.9479 136.461 62.4338 136.846 62.4823C137.232 62.5309 137.521 62.288 137.761 62.0451C139.158 60.636 140.555 59.227 141.952 57.818V110.049H90.2214C91.57 108.688 92.8705 107.376 94.2192 106.064C89.6916 101.497 85.1639 96.9788 80.6845 92.4117C79.1913 93.8207 77.7945 95.3269 76.3014 96.7845C76.0124 97.1246 75.627 97.4161 75.4825 97.8534C75.4344 98.2906 75.8197 98.6793 76.205 98.7279C76.5904 98.6793 76.8794 98.4364 77.2647 98.3392C77.6019 98.3392 77.8427 98.5822 78.0835 98.7765C80.7808 101.497 83.43 104.218 86.1273 106.939C86.8016 107.668 87.5241 108.299 88.1502 109.028C88.4392 109.368 88.2466 109.757 88.1021 110.097H57.0831C59.5395 107.619 61.9479 105.19 64.4043 102.712C64.8378 102.275 65.3195 101.789 65.4158 101.109C65.5122 100.331 64.7415 99.5539 63.9708 99.6996C63.3447 99.8454 62.8148 100.331 62.1405 100.331C61.707 100.283 61.418 99.9912 61.129 99.6996C55.3009 93.8207 49.4728 87.9417 43.6929 82.1113C43.3076 81.7226 42.8259 81.3339 42.6814 80.7509C42.6814 80.0707 43.1149 79.5362 43.3076 78.9046C43.5484 78.1272 42.8259 77.3012 42.0071 77.3498C41.4772 77.3984 40.9956 77.6899 40.6103 78.0786C38.1056 80.5565 35.5046 83.083 33 85.6581C33 57.1378 33 28.5689 33 0Z" fill="#F96302"/>
<path fill-rule="evenodd" clip-rule="evenodd" d="M111.655 6.36509C111.752 6.26791 111.944 6.12215 112.041 6.3165C120.036 14.3333 127.984 22.3987 135.979 30.464C133.186 33.282 130.392 36.1001 127.598 38.9181C127.213 39.2582 126.78 39.5497 126.298 39.5983C125.624 39.6469 124.901 39.0153 124.949 38.2865C124.949 37.6063 125.575 37.0232 125.575 36.343C125.575 35.9057 125.238 35.5656 124.949 35.2255C119.025 29.2494 113.1 23.3218 107.224 17.3457C106.887 17.0055 106.55 16.6169 106.02 16.6654C105.298 16.6654 104.72 17.3457 103.949 17.2971C103.515 17.2971 103.178 16.957 102.937 16.6169C102.648 15.9852 102.937 15.2564 103.371 14.7706C106.116 11.9525 108.862 9.13452 111.655 6.36509ZM123.119 8.69724C123.36 8.25996 123.793 7.87127 124.275 7.96844C124.853 8.01703 125.238 8.50289 125.624 8.89159C127.936 11.2237 130.199 13.5073 132.511 15.8395C132.945 16.2767 133.475 16.6654 133.571 17.2971C133.619 17.9773 133.041 18.5603 132.415 18.6089C131.885 18.6089 131.404 18.3174 130.97 18.0744C130.007 17.4914 128.899 17.0541 127.743 17.1027C127.165 17.1027 126.587 17.3457 126.057 17.5886C125.431 16.9084 124.708 16.2767 124.13 15.5965C124.323 15.0621 124.564 14.5762 124.612 14.0418C124.708 12.7785 124.179 11.5638 123.552 10.5435C123.167 9.91191 122.926 9.28028 123.119 8.69724ZM72.689 14.8191C73.9413 13.5073 75.2418 12.2441 76.446 10.9808C77.602 12.1469 78.758 13.313 79.9139 14.479C80.2993 14.8677 79.9621 15.4508 79.5286 15.6451C79.1914 15.6937 78.8543 15.4508 78.5653 15.3536C77.313 14.722 75.7716 14.6734 74.5675 15.3536C74.2303 15.4994 73.9895 15.7909 73.6523 15.8395C73.267 15.4508 72.978 15.1107 72.689 14.8191ZM71.9184 15.5479C73.6042 17.1999 75.2418 18.9004 76.8795 20.5524C79.4804 23.176 82.0814 25.7997 84.6824 28.4234C83.1892 29.9296 81.6961 31.4358 80.2029 32.9419C79.9139 33.282 79.2878 33.4278 78.9988 32.9905C78.6135 32.6018 79.0469 32.116 79.1433 31.7273C79.2878 31.4358 79.0469 31.1442 78.8543 30.9499C75.8198 27.8889 72.8335 24.8766 69.8472 21.8642C69.5582 21.6213 69.3656 21.2812 69.0284 21.1354C68.5949 21.0382 68.2096 21.4269 67.7761 21.4755C67.4389 21.4269 67.1017 21.0868 67.1499 20.7467C67.1499 20.4552 67.3426 20.2123 67.5352 20.0179C68.9802 18.5117 70.4252 17.0541 71.9184 15.5479ZM77.891 17.3942C77.7465 17.0055 77.9873 16.5683 78.4208 16.4711C78.7098 16.4225 78.9506 16.6654 79.1433 16.8598C80.3956 18.123 81.5998 19.3863 82.8521 20.601C83.0929 20.8439 83.3819 21.0868 83.3819 21.4269C83.4301 21.767 83.0929 22.1557 82.7076 22.1071C82.2259 22.1071 81.8406 21.7184 81.4071 21.5727C80.7809 21.2812 80.0103 21.2326 79.3359 21.5727C78.9988 21.2326 78.6616 20.8925 78.3245 20.601C78.469 20.1151 78.6135 19.532 78.469 18.9976C78.469 18.4146 78.0836 17.9287 77.891 17.3942ZM99.8066 18.3174C100.096 18.0259 100.481 17.7829 100.963 17.7343C101.733 17.6372 102.552 18.366 102.359 19.1434C102.263 19.8236 101.685 20.4066 101.733 21.1354C101.83 21.6213 102.263 22.01 102.6 22.3501C108.428 28.229 114.305 34.108 120.133 40.0356C120.47 40.3271 120.759 40.7158 121.24 40.7158C121.915 40.7158 122.445 40.1813 123.119 40.0842C123.89 39.9384 124.612 40.7158 124.516 41.4932C124.468 42.0276 124.179 42.4649 123.793 42.805C120.855 45.7688 117.917 48.7326 114.979 51.6964C114.594 52.0851 114.112 52.4252 113.582 52.4252C112.956 52.4737 112.378 51.9393 112.282 51.3077C112.185 50.4817 112.956 49.8987 112.908 49.0727C112.86 48.684 112.619 48.3925 112.378 48.101C107.224 42.9508 102.119 37.752 96.9648 32.5532C101.203 40.5214 105.49 48.4411 109.729 56.4093C109.777 56.5064 109.873 56.6522 109.921 56.798C109.632 57.0895 109.295 57.381 109.006 57.7211C100.481 53.4941 92.0036 49.2184 83.5264 44.9914C82.1777 44.3112 80.8773 43.5338 79.3359 43.3395C78.8543 43.2909 78.469 43.6796 78.1318 43.9711C77.7465 44.2626 77.2648 44.457 76.7831 44.3112C76.2051 44.0683 75.8198 43.3881 76.0125 42.7564C76.1088 42.3192 76.3978 41.979 76.6868 41.6875C79.4323 38.9181 82.1777 36.1487 84.9232 33.4278C89.21 35.517 93.4968 37.6063 97.7836 39.7441C97.9281 39.8412 98.0726 39.9384 98.2171 40.0842C98.2652 39.987 98.3616 39.9384 98.4097 39.8412H98.2652C96.0014 35.517 93.6413 31.2414 91.3775 26.9172C94.1711 24.002 96.9648 21.1354 99.8066 18.3174ZM84.7787 20.2608C84.9714 19.8722 85.5494 19.8236 85.8384 20.1637C86.9944 21.3298 88.1503 22.4958 89.3545 23.7105C88.054 25.0223 86.7535 26.3342 85.4049 27.6946C85.1159 27.3545 84.6824 27.063 84.4897 26.6743C84.8751 26.0426 85.2604 25.3624 85.3567 24.5851C85.5494 23.5161 85.3567 22.4472 84.9232 21.4755C84.7787 21.0382 84.5379 20.601 84.7787 20.2608ZM65.5604 21.9614C65.8013 21.7184 66.0421 21.4755 66.3792 21.3783C66.7164 21.3298 67.1017 21.5241 67.1499 21.8642C67.2462 22.2529 66.9091 22.593 66.8609 22.9817C66.8127 23.2732 67.0536 23.5161 67.2462 23.7105C70.2807 26.7714 73.3633 29.881 76.3978 32.9419C76.5905 33.1363 76.8313 33.3792 77.1203 33.4278C77.5056 33.3792 77.7946 33.1363 78.1318 33.0877C78.5653 33.0391 78.9506 33.525 78.8061 33.9137C78.7579 34.2052 78.5171 34.4481 78.3245 34.6911C76.8313 36.1972 75.3382 37.7034 73.845 39.161C73.6042 39.404 73.2188 39.6955 72.8335 39.5983C72.5927 39.5011 72.4482 39.3554 72.3518 39.1124C72.2555 38.6266 72.7853 38.1893 72.6408 37.7034C72.5445 37.5091 72.3519 37.3633 72.2074 37.2176C70.8105 35.8085 69.4137 34.3995 68.0169 32.9905C67.5352 33.4764 67.0536 34.0108 66.5237 34.4967C66.1866 34.1566 65.8494 33.8165 65.5123 33.4764C65.9939 32.9905 66.5237 32.4561 67.0054 31.9702C65.7531 30.7555 64.5489 29.4923 63.2966 28.2776C63.0558 28.0347 62.815 27.7432 62.4778 27.5488C61.8998 27.3545 61.37 28.1805 60.8401 27.7432C60.4066 27.4517 60.5511 26.82 60.8883 26.4799C62.526 25.0223 64.0673 23.5161 65.5604 21.9614Z" fill="white"/>
<path fill-rule="evenodd" clip-rule="evenodd" d="M59.6842 27.986C60.0213 27.743 60.5511 27.8888 60.6956 28.2775C60.8401 28.7633 60.4548 29.152 60.4066 29.6379C60.4066 29.8808 60.5993 30.0752 60.7438 30.2209C63.9228 33.4277 67.0536 36.6344 70.2325 39.7925C70.8105 40.4241 71.533 39.3552 72.1592 39.7925C72.5445 40.1326 72.4 40.7642 72.0629 41.0557C70.5697 42.5619 69.0766 44.0681 67.5834 45.5743C67.3426 45.8172 67.1017 46.0602 66.7646 46.2059C66.3792 46.3031 65.9458 46.0602 65.8976 45.6715C65.8494 45.2342 66.2347 44.8455 66.2347 44.4082C66.1866 44.2139 66.0421 44.0681 65.8976 43.9224C62.9595 40.8614 59.9731 37.849 56.9868 34.8367C56.6978 34.5937 56.457 34.2536 56.0717 34.1079C55.6382 34.1079 55.301 34.3994 54.9157 34.448C54.5785 34.448 54.2895 34.1564 54.2414 33.8163C54.1932 33.4762 54.4822 33.1847 54.723 32.9418C56.2162 31.4356 57.7093 29.9294 59.1543 28.4232C59.347 28.2289 59.4915 28.0831 59.6842 27.986ZM51.3996 36.2457C52.0739 35.5655 52.7482 34.8852 53.4226 34.205C54.6267 35.3711 55.7827 36.5858 56.9868 37.8004C57.1795 38.0434 57.4685 38.2377 57.5648 38.5292C57.7093 39.1123 57.0832 39.6953 56.5052 39.4524C55.9272 39.2095 55.4937 38.7722 54.9639 38.4321C54.0487 37.849 52.9891 37.5089 51.9294 37.6547C51.6404 37.3146 51.2551 37.0231 51.0142 36.683C51.1106 36.4886 51.2551 36.3428 51.3996 36.2457ZM46.4385 41.2501C47.7389 39.9868 48.9913 38.675 50.2436 37.4117C52.6519 39.8411 55.0602 42.2704 57.4685 44.6997C58.8172 46.0116 60.0695 47.372 61.4181 48.6838C61.8035 49.1211 62.2851 48.7324 62.7186 48.5867C63.1521 48.3923 63.6338 48.781 63.5856 49.2183C63.5856 49.5098 63.3929 49.7527 63.2003 49.9957C61.659 51.5504 60.1176 53.1052 58.5763 54.66C58.3355 54.9029 58.0947 55.0973 57.7575 55.0973C57.4203 55.1458 57.035 54.8057 57.0832 54.417C57.0832 54.0284 57.3722 53.7368 57.3722 53.3967C57.3722 53.1052 57.1313 52.9109 56.9387 52.6679C53.2781 49.0239 49.6656 45.3314 46.005 41.6874C46.1976 41.5416 46.294 41.3958 46.4385 41.2501ZM132.319 40.1326C133.716 41.5416 135.161 42.9506 136.557 44.4082C136.991 44.8455 136.702 45.6715 136.076 45.7686C135.546 45.8658 135.112 45.4285 134.679 45.137C133.523 44.3596 132.222 43.6308 130.777 43.8738C130.392 43.5337 130.055 43.1936 129.718 42.7563C130.633 41.8817 131.452 41.0072 132.319 40.1326ZM45.2343 42.4648C45.6678 42.6105 45.9086 43.0964 46.2458 43.3879C46.0531 44.7483 46.6793 45.963 47.4499 47.0319C47.6908 47.372 47.9316 47.6635 48.0761 48.0522C48.2206 48.5381 47.7389 49.0725 47.2091 49.0239C46.9201 49.0239 46.7275 48.781 46.5348 48.5867C45.2825 47.3234 44.0302 46.0602 42.7778 44.7969C43.6448 44.0681 44.4155 43.2421 45.2343 42.4648ZM70.7142 48.9754C72.978 48.2466 75.4826 48.1494 77.7946 48.6352C81.7924 49.5098 85.3085 51.842 88.1022 54.7572C90.8477 57.5752 93.0633 61.122 93.7858 65.0575C94.2193 67.1953 94.1229 69.4789 93.4968 71.6167C92.8706 73.7059 91.811 75.6494 90.4142 77.3013C89.8362 76.6697 89.1618 76.0867 88.5838 75.4064C88.5838 75.1149 88.7765 74.8234 88.8247 74.5319C89.1137 73.5116 88.8247 72.3941 88.054 71.6167C82.4186 65.8835 76.735 60.1989 71.0514 54.4656C70.5215 53.9312 69.8954 53.4939 69.1247 53.4453C68.4986 53.3481 67.9206 53.5911 67.3426 53.7854C67.1017 53.9312 66.9572 53.6397 66.8127 53.4939C66.3311 53.008 65.8494 52.5708 65.4159 52.0363C65.4159 51.9877 65.4159 51.9391 65.4159 51.8905C67.0054 50.6273 68.7876 49.607 70.7142 48.9754ZM86.1755 48.3437C86.7054 48.5381 87.187 48.781 87.6687 49.0239C89.499 49.9471 91.3293 50.8702 93.2078 51.7934C93.3523 51.8905 93.4968 51.9877 93.6413 52.1335C95.1826 53.7368 96.7721 55.2916 98.3134 56.895C99.1804 57.8181 100.24 58.4983 101.396 58.9356C102.215 59.2271 103.13 59.2271 103.949 58.9356C104.382 58.7898 104.816 58.6441 105.249 58.7898C105.683 58.9842 106.02 59.4215 106.02 59.8587C105.972 60.4904 105.586 61.0248 105.153 61.4621C103.756 62.8711 102.359 64.3287 100.914 65.7377C100.529 66.0778 100.096 66.4179 99.5657 66.5151C98.7951 66.6123 98.0726 65.8349 98.3134 65.1061C98.5542 64.3773 98.8432 63.5999 98.6987 62.8225C98.5061 61.5107 97.7836 60.3446 96.9648 59.3243C93.8821 56.1662 90.7513 53.0566 87.6205 49.8985C87.1389 49.364 86.609 48.8782 86.1755 48.3437ZM121.048 51.5019C121.915 50.6273 122.782 49.7527 123.649 48.8782C124.034 49.1697 124.371 49.5584 124.708 49.8985C124.564 51.0646 124.949 52.1821 125.527 53.1538C125.816 53.6883 126.298 54.1741 126.539 54.7572C126.683 55.0487 126.587 55.3402 126.491 55.6317C127.936 56.6034 129.188 57.8667 130.199 59.2757C131.355 60.9277 132.174 62.8711 132.126 64.9603C132.126 66.9038 131.307 68.7987 130.055 70.2563C129.718 69.9162 129.332 69.5761 129.043 69.1874C129.092 68.7501 129.284 68.3614 129.188 67.9241C129.092 67.3897 128.658 67.001 128.273 66.6123C125.238 63.5999 122.252 60.539 119.218 57.478C118.929 57.1865 118.543 56.895 118.158 56.8464C117.773 56.7978 117.339 56.895 117.002 57.0407C116.665 56.7006 116.279 56.3605 115.942 56.0204C117.484 54.7086 119.458 53.8826 121.481 53.9798C122.252 53.9798 123.023 54.1255 123.793 54.3199C122.926 53.3967 121.963 52.4736 121.048 51.5019ZM61.1773 58.2554C61.8035 56.5063 62.815 54.8543 63.9709 53.4453C64.5489 54.0284 65.1751 54.6114 65.7531 55.243C65.8494 55.6317 65.5604 55.9718 65.5123 56.3119C65.2233 57.2837 65.6086 58.4011 66.3311 59.1299C71.8702 64.766 77.4575 70.3534 83.0447 75.9895C83.5746 76.5725 84.2489 77.1556 85.0677 77.2527C85.7902 77.3499 86.5127 77.107 87.187 76.864C87.8132 77.4957 88.4393 78.0787 89.0173 78.7103C87.6687 79.8764 86.0792 80.8481 84.4416 81.4798C81.9369 82.4515 79.0951 82.6459 76.446 82.0142C72.4482 81.1397 68.8839 78.7103 66.0421 75.698C63.4411 72.9285 61.3218 69.5761 60.5993 65.7863C60.1176 63.3084 60.2621 60.6847 61.1773 58.2554ZM113.197 61.6079C113.341 59.8587 114.112 58.1582 115.268 56.8464C115.605 57.1865 115.942 57.5266 116.279 57.8667C116.135 58.304 115.942 58.7413 116.087 59.1785C116.135 59.5672 116.424 59.9073 116.713 60.1503C119.747 63.2112 122.734 66.2236 125.768 69.2845C126.105 69.6247 126.442 70.0619 126.972 70.2077C127.454 70.3534 127.887 70.1591 128.369 70.0133C128.706 70.3534 129.092 70.6936 129.381 71.0822C127.936 72.2969 126.153 73.1229 124.227 73.1229C122.396 73.2201 120.566 72.5398 119.025 71.5681C117.917 70.8393 116.906 69.9648 116.039 68.993C116.424 70.3534 116.328 71.8596 115.701 73.1229C115.075 74.3861 114.112 75.4064 113.149 76.3782C112.811 76.0381 112.474 75.6494 112.089 75.3093C112.378 74.8234 112.571 74.2404 112.378 73.6573C112.137 73.0743 111.704 72.6856 111.27 72.2483C110.403 71.3738 109.584 70.4992 108.717 69.6732C108.236 69.1874 107.658 68.6529 106.935 68.6043C106.502 68.5557 106.116 68.7987 105.779 68.993C105.442 68.6529 105.105 68.3128 104.719 67.9241C106.116 66.5151 107.658 65.1061 109.681 64.8146C111.318 64.5231 113.004 65.2519 114.16 66.4179C113.486 64.9603 113.052 63.2598 113.197 61.6079ZM52.8446 65.6406C53.1817 65.3004 53.6152 65.0575 54.0969 65.0089C54.8675 64.9603 55.59 65.7863 55.3974 66.5637C55.2047 67.1467 54.8194 67.6812 54.7712 68.3128C54.8194 68.8473 55.2529 69.236 55.6382 69.6246C61.5145 75.5522 67.3907 81.4798 73.267 87.4073C73.556 87.6503 73.845 87.9418 74.2303 87.9904C74.9047 87.9904 75.3863 87.5045 76.0606 87.3587C76.8313 87.213 77.5538 87.8932 77.5538 88.6706C77.5538 89.205 77.2648 89.6423 76.8795 90.031C73.9413 92.9948 70.955 96.0072 68.0169 98.9709C67.6316 99.3596 67.1499 99.6997 66.5719 99.6997C65.8976 99.6997 65.2233 99.0681 65.3196 98.3393C65.3678 97.6591 65.9458 97.0761 65.9939 96.3958C65.9939 95.9586 65.6568 95.667 65.3678 95.3269C62.7186 92.6547 60.0695 90.031 57.4685 87.3587C57.3722 87.2616 57.2277 87.0672 57.0832 87.213C56.168 88.0875 55.301 89.0593 54.3859 89.9338C53.7597 89.3022 53.1336 88.6706 52.5556 88.039C53.4226 87.1158 54.3377 86.1927 55.301 85.2695C55.301 85.2209 55.301 85.1238 55.301 85.0752C52.7964 82.5973 50.3881 80.1193 47.8834 77.6414C47.4981 77.3013 47.161 76.8155 46.6311 76.7183C45.9086 76.6697 45.3306 77.2527 44.6563 77.3499C43.7893 77.4957 43.0187 76.5239 43.3077 75.698C43.4522 75.1149 43.9338 74.7262 44.3191 74.289C47.1128 71.4223 50.0028 68.5557 52.8446 65.6406ZM103.949 68.7501C105.346 70.0619 106.598 71.4223 107.947 72.7342C110.499 75.3093 113.1 77.9329 115.653 80.508C115.846 80.6538 115.99 80.8481 116.231 80.8967C116.713 80.9453 117.098 80.4595 117.628 80.5566C117.917 80.6538 118.206 80.9453 118.158 81.2854C118.158 81.7227 117.773 82.0628 117.484 82.3543C115.846 83.9577 114.256 85.6096 112.667 87.213C112.33 87.6017 111.655 87.4073 111.415 86.9701C111.077 86.4356 111.944 85.8526 111.511 85.3667C108.187 82.0142 104.864 78.6617 101.541 75.3093C101.3 75.0663 101.107 74.8234 100.818 74.6776C100.336 74.5319 99.9511 74.9692 99.4694 75.0178C99.1322 74.9692 98.7951 74.6776 98.7951 74.289C98.7469 73.9003 99.0359 73.5602 99.3249 73.3172C100.914 71.811 102.456 70.2563 103.949 68.7501ZM93.7376 79.0504C95.0863 77.69 96.4349 76.281 97.8317 74.9692C99.0359 76.2324 100.288 77.4471 101.541 78.7103C101.974 79.099 101.541 79.7307 101.107 79.925C100.818 79.9736 100.529 79.7792 100.288 79.6821C99.2286 79.1476 98.0244 78.9047 96.8684 79.1962C96.1459 79.342 95.4716 79.7792 94.8454 80.1193C94.4601 79.7307 94.1229 79.3905 93.7376 79.0504ZM88.1985 84.6865C89.788 83.0831 91.3775 81.4798 92.967 79.8764C95.5198 82.4515 98.0726 85.0266 100.625 87.6017C102.6 89.5937 104.527 91.5858 106.502 93.5292C104.96 95.1326 103.371 96.6874 101.878 98.2421C101.637 98.4851 101.348 98.6308 101.059 98.728C100.77 98.6308 100.433 98.5337 100.336 98.1936C100.144 97.6591 100.722 97.2218 100.674 96.6874C100.433 96.2501 100.047 95.91 99.7102 95.5699C96.9166 92.7519 94.1711 89.9338 91.3775 87.1644C90.8958 86.7271 90.4623 86.1441 89.8843 85.804C89.3063 85.7068 88.7765 86.4356 88.1985 86.0469C87.6687 85.7068 87.8132 85.0266 88.1985 84.6865ZM99.2767 81.8199C99.0841 81.334 99.5176 80.7996 99.9992 80.8967C100.24 80.9453 100.385 81.0911 100.577 81.2854C101.781 82.5001 102.986 83.7148 104.19 84.9294C104.575 85.3181 105.105 85.6582 105.249 86.2413C105.105 86.4842 104.96 86.8243 104.575 86.8729C103.997 86.9215 103.612 86.4842 103.082 86.2898C102.408 85.9497 101.541 85.9497 100.866 86.2898C100.481 85.9012 100.144 85.561 99.7584 85.1724C99.9992 84.6379 100.144 84.0063 99.9511 83.4232C99.8547 82.8402 99.4694 82.3543 99.2767 81.8199ZM106.646 84.8322C106.887 84.4436 107.465 84.395 107.754 84.7351C109.006 85.9983 110.259 87.2616 111.463 88.5248C110.066 89.9338 108.717 91.3428 107.272 92.7033C106.935 92.3632 106.598 92.0231 106.261 91.6344C107.465 90.1282 107.658 87.8932 106.839 86.1441C106.694 85.7554 106.357 85.2209 106.646 84.8322Z" fill="white"/>
<path fill-rule="evenodd" clip-rule="evenodd" d="M33 89.3999C33.4335 89.2056 33.9152 88.9141 34.3968 88.9141C35.023 89.0112 35.3601 89.5943 35.7936 89.983C41.5736 95.7648 47.3053 101.547 53.0371 107.328C53.3743 107.668 53.7596 108.057 53.8078 108.543C53.8078 109.029 53.5188 109.466 53.3261 109.903C46.5347 109.903 39.7433 109.903 33 109.903C33 103.101 33 96.2506 33 89.3999Z" fill="#F96302"/>
<path fill-rule="evenodd" clip-rule="evenodd" d="M86.2717 89.1079C88.2947 88.9136 90.3177 89.691 92.0035 90.8085C93.304 91.683 94.5563 92.7034 95.4714 94.0152C96.5792 95.5214 97.3017 97.3677 97.3017 99.2625C97.3499 101.449 96.4829 103.635 94.9416 105.142C94.6044 104.801 94.2191 104.461 93.8819 104.073C94.0746 103.684 94.3154 103.247 94.2673 102.809C94.1709 102.129 93.6893 101.546 93.2076 101.06C90.6548 98.4852 88.0538 95.8615 85.501 93.2864C84.9712 92.7519 84.3932 92.2175 83.6226 92.1203C83.1891 92.0717 82.8037 92.3147 82.4666 92.509C82.1294 92.1203 81.6959 91.8774 81.4551 91.3915C82.7556 90.1283 84.4895 89.2051 86.2717 89.1079ZM132.559 103.441C132.559 101.352 134.245 99.8456 136.172 99.8456C138.098 99.8456 139.784 101.352 139.784 103.441C139.784 105.53 138.098 107.036 136.172 107.036C134.245 107.085 132.559 105.53 132.559 103.441ZM136.172 106.453C137.809 106.453 139.062 105.19 139.062 103.441C139.062 101.74 137.761 100.429 136.172 100.429C134.534 100.429 133.234 101.74 133.234 103.441C133.282 105.19 134.534 106.453 136.172 106.453ZM135.449 105.53H134.823V101.352H136.413C137.376 101.352 137.858 101.692 137.858 102.518C137.858 103.247 137.376 103.587 136.798 103.684L137.954 105.53H137.231L136.124 103.733H135.401V105.53H135.449ZM136.172 103.198C136.702 103.198 137.183 103.149 137.183 102.518C137.183 101.983 136.702 101.886 136.268 101.886H135.401V103.198H136.172Z" fill="white"/>
</g>
<defs>
<clipPath id="clip0_5408_31374">
<rect width="109" height="110" fill="white" transform="translate(33)"/>
</clipPath>
</defs>
</svg>
