<svg version="1.1" id="svg2" xmlns:x="ns_extend;" xmlns:i="ns_ai;" xmlns:graph="ns_graphs;" xmlns:cc="http://creativecommons.org/ns#" xmlns:dc="http://purl.org/dc/elements/1.1/" xmlns:rdf="http://www.w3.org/1999/02/22-rdf-syntax-ns#" xmlns:svg="http://www.w3.org/2000/svg" xmlns="http://www.w3.org/2000/svg" xmlns:xlink="http://www.w3.org/1999/xlink" x="0px" y="0px" viewBox="0 0 891.7 196.9" style="enable-background:new 0 0 891.7 196.9;" xml:space="preserve">
 <style type="text/css">
  .st0{fill:#E4032E;}
	.st1{fill:#3C3C3B;}
 </style>
 <metadata id="metadata8">
  <rdf:RDF>
   <cc:Work rdf:about="">
    <dc:format>
     image/svg+xml
    </dc:format>
    <dc:type rdf:resource="http://purl.org/dc/dcmitype/StillImage">
    </dc:type>
   </cc:Work>
  </rdf:RDF>
  <sfw xmlns="ns_sfw;">
   <slices>
   </slices>
   <sliceSourceBounds bottomLeftOrigin="true" height="196.9" width="891.7" x="64.8" y="341.6">
   </sliceSourceBounds>
  </sfw>
 </metadata>
 <g id="g10" transform="matrix(1.3333333,0,0,-1.3333333,0,353.04)">
  <g id="g12" transform="scale(0.1)">
   <path id="path14" class="st0" d="M4674.9,1540.7c0-25.6-20.8-46.3-46.3-46.3c-25.6,0-46.3,20.8-46.3,46.3
			c0,25.6,20.8,46.3,46.3,46.3C4654.1,1587,4674.9,1566.3,4674.9,1540.7">
   </path>
   <path id="path16" class="st0" d="M4757,1760.7v2c0,147,114.8,271.8,266.8,271.8c86.6,0,144.9-33.2,191.2-75.5
			c6-5.1,12.1-15.1,12.1-27.2c0-21.1-17.1-37.2-37.3-37.2c-10.1,0-19.1,4-25.1,9.1c-37.3,34.2-79.5,62.4-142,62.4
			c-105.7,0-186.2-89.6-186.2-201.4v-2c0-112.7,82.5-202.3,191.2-202.3c59.4,0,106.7,27.1,145,63.4c5,5,12.1,10.1,22.1,10.1
			c19.1,0,35.2-17.1,35.2-35.3c0-9-4-18.1-10.1-24.1c-49.3-49.3-108.7-83.6-196.3-83.6C4871.8,1490.9,4757.1,1614.7,4757,1760.7">
   </path>
   <path id="path18" class="st0" d="M5739.5,1760.7v2c0,111.8-83.6,203.4-193.2,203.4c-112.8,0-190.3-91.6-190.3-201.4v-2
			c0-111.7,82.5-202.3,192.3-202.3C5661,1560.4,5739.5,1651,5739.5,1760.7 M5276.5,1760.7v2c0,147,114.8,271.8,271.8,271.8
			c156,0,270.8-122.8,270.8-269.8v-2c0-147-115.8-271.8-272.8-271.8C5390.2,1490.9,5276.5,1613.7,5276.5,1760.7">
   </path>
   <path id="path20" class="st0" d="M5898.5,1985.6c0,21.1,17.1,39.3,38.3,39.3c22.1,0,39.2-17.1,39.2-39.3v-53.3
			c34.3,51.3,80.5,98.6,168.1,98.6c84.5,0,138.9-45.3,167-103.7c37.3,57.4,92.6,103.7,183.2,103.7c119.8,0,193.2-80.5,193.2-209.4
			v-287.9c0-22.1-17.1-39.3-38.3-39.3c-22.1,0-39.2,17.1-39.2,39.3v269.8c0,100.6-50.3,157-134.9,157c-78.5,0-143-58.4-143-161
			v-265.7c0-22.1-17.1-39.3-39.2-39.3c-21.2,0-38.3,17.1-38.3,39.3v271.8c0,97.6-51.3,155-133.9,155c-82.5,0-145-68.4-145-164
			v-262.7c0-22.1-16.1-39.3-38.2-39.3s-39.3,17.1-39.3,39.3L5898.5,1985.6">
   </path>
   <path id="path22" class="st0" d="M1473.1,2322.8c-24.9,24.4-67.9,23.9-92.4-1c-12.2-12.4-18.8-29-18.7-46.4
			c0.2-17.4,7.2-33.8,19.7-46c70.6-69.1,109.5-161.3,109.5-259.6c0-200.4-163.1-363.5-363.5-363.5c-200.4,0-363.5,163.1-363.5,363.5
			c0,98.3,38.9,190.5,109.4,259.6c25.8,25.2,26.1,66.7,0.9,92.4c-24.3,24.9-67.4,25.4-92.4,1c-95.9-93.9-148.7-219.3-148.7-353.1
			c0-272.6,221.7-494.3,494.2-494.3c272.6,0,494.2,221.7,494.2,494.3C1621.9,2103.5,1569,2228.9,1473.1,2322.8">
   </path>
   <path id="path24" class="st0" d="M1127.6,2001.1c36,0,65.4,29.3,65.4,65.3v399.2c0,36.1-29.3,65.4-65.4,65.4
			c-36,0-65.4-29.3-65.4-65.4v-399.2C1062.3,2030.4,1091.6,2001.1,1127.6,2001.1">
   </path>
   <path id="path26" class="st1" d="M2466.2,1934.4c0-91.9-28.8-166.9-85.5-223c-56.8-56.1-133.2-84.6-227.1-84.6
			c-93,0-169.6,28.7-227.6,85.4c-57.9,56.6-87.4,129.3-87.4,216.1c0,57.4,14.3,111.5,42.5,160.7c28.1,49.2,67.4,88.3,116.8,116.2
			c49.5,27.9,103.9,42,161.8,42c55.2,0,107.6-13.7,155.6-40.9c47.9-27.1,85.4-64.5,111.4-111.1
			C2452.9,2048.4,2466.2,1994.3,2466.2,1934.4 M2529.5,2358.1c-37.6,0-68.1-30.6-68.1-68.1v-52.8c-43.4,45.9-88.8,80.2-135,102.3
			c-55.6,26.6-116.3,40.1-180.6,40.1c-77.3,0-151.7-20.2-221.3-60c-69.7-39.9-125-94.8-164.4-163.3
			c-39.4-68.5-59.4-143.3-59.4-222.5c0-79.2,19.2-152.9,57.1-219.1c37.9-66.3,92.3-119.7,161.8-158.8
			c69.3-39.1,144.4-58.8,223.2-58.8c67.2,0,131.6,14.2,191.6,42.3c48.1,22.5,90.7,53.2,127.1,91.5v-3.7c0-89-10.3-153.9-30.5-192.8
			c-19.9-38.4-54.1-70.9-101.5-96.6c-47.9-26-107.7-39.1-177.9-39.1c-71.2,0-131.5,12.8-179.2,38c-24.3,12.9-46.5,29.5-65.4,48.5
			l-36.7,44.2c-12.4,19.4-33.5,30.9-56.5,30.9c-37,0-67.1-30.1-67.1-67.1c0-12.6,3.5-24.9,10.7-36.3l10.6-14.5
			c14.9-21.5,30.8-40.3,47.1-55.8c36.9-35.2,85.4-63.5,144-84.3c58.1-20.6,124.5-31,197.3-31c99.6,0,186.3,21.5,257.5,63.9
			c72,42.9,123.2,104.9,152.4,184.1c20.9,55.5,31.4,143.4,31.4,261.3V2290C2597.6,2327.6,2567.1,2358.1,2529.5,2358.1">
   </path>
   <path id="path28" class="st1" d="M3452,1920.8c0-60.4-13.6-115.3-40.5-163.3c-26.8-47.8-65.7-86.4-115.5-114.5
			c-50-28.2-103.5-42.4-159.3-42.4c-55.2,0-107.6,14.4-155.6,42.7c-48.2,28.3-87.2,68.6-115.7,119.5c-28.7,51.1-43.2,105.3-43.2,161
			c0,56.3,14.4,110.5,42.8,161c28.3,50.4,67,90.1,114.9,117.9c47.9,27.9,100.9,42,157.6,42c88.2,0,163.4-31.2,223.7-92.7
			C3421.4,2090.6,3452,2012.7,3452,1920.8 M3513,2355.7c-37.1,0-67.3-30.2-67.3-67.3v-57.9c-36.9,43.4-78.6,77.4-124.4,101.4
			c-57.3,30-122,45.3-192.3,45.3c-121.9,0-227.6-44.4-314.2-132.1c-86.6-87.6-130.4-194.4-130.4-317.6
			c0-125.8,43.5-234.1,129.2-321.9c85.9-87.9,191-132.4,312.4-132.4c68.3,0,132.2,14.4,189.7,42.8c46.9,23.1,90.6,55.9,130.1,97.6
			v-51.7c0-37.1,30.2-67.3,67.3-67.3s67.3,30.2,67.3,67.3v726.5C3580.3,2325.5,3550.1,2355.7,3513,2355.7">
   </path>
   <path id="path30" class="st1" d="M4410.7,2193.1c-24,55.9-61.7,101.1-112.1,134.2c-50.4,33-108.8,49.8-173.5,49.8
			c-63.3,0-122.8-14.9-176.7-44.3c-43.3-23.5-83.8-57-120.8-99.7l-0.4,54.6c0,37.4-30.5,67.9-67.9,67.9c-37.5,0-67.9-30.4-67.9-67.9
			v-725.2c0-37.6,30.5-68.1,68.1-68.1s68.1,30.5,68.1,68.1l0,251.7c0,108,5,183,14.8,222.8c15.5,60,48,110.9,96.7,151.6
			c48.4,40.4,103.8,60.8,164.8,60.8c53,0,96.3-13,128.8-38.6c32.4-25.5,54.5-64.6,66-116.3c7.5-30.9,11.4-94.3,11.4-188.5v-343.5
			c0-37.6,30.5-68.1,68.1-68.1s68.1,30.5,68.1,68.1v374.7C4446.3,2051.9,4434.3,2138,4410.7,2193.1">
   </path>
   <path id="path32" class="st1" d="M601.5,1606.8l-375.2,335.9l348.6,303.8c26.7,23.3,29.5,64,6.2,90.7
			c-22.4,25.8-64.9,28.7-90.8,6.2l-354-308.5l0.3,544.6c0,37.6-30.6,68.3-68.3,68.3c-37.6,0-68.3-30.6-68.3-68.3v-1017
			c0-37.6,30.5-68.1,68.1-68.1c37.6,0,68,30.5,68,68.1l0.1,288l379.4-339.6c11.8-10.6,27-16.4,42.9-16.4c18.3,0,35.8,7.8,47.9,21.4
			C630.1,1542.3,627.9,1583.1,601.5,1606.8">
   </path>
  </g>
 </g>
</svg>