<?xml version="1.0" encoding="UTF-8"?>
<svg id="Layer_1" data-name="Layer 1" xmlns="http://www.w3.org/2000/svg" viewBox="0 0 1037.82 396.16">
  <defs>
    <style>
      .cls-1 {
        fill: #f05339;
      }

      .cls-2 {
        fill: #fdc328;
      }

      .cls-3 {
        fill-rule: evenodd;
      }
    </style>
  </defs>
  <rect class="cls-2" width="1037.82" height="396.16"/>
  <path class="cls-3" d="M227.14,270.99v-136.18h76.49v37.31h-35.23v12.63h32.11v35.82h-32.1v13.11h36.36v37.32h-77.63ZM335.6,270.99v-93.23l-23.19,1.38v-44.34h86.45v44.34l-22.74-1.36v93.2h-40.52ZM447.66,215.78h8.93c3.46,0,6.88.47,9.27,3.25,3.19,3.68,3.5,9.5,1.43,13.8-.93,1.93-2.49,3.69-4.54,4.47-2.13.79-4.47.94-6.7.94h-8.39v-22.47h0ZM447.64,186.99l.02-19.46h6.49c3.58,0,7.04.55,8.82,4.1,1.48,2.95,1.58,6.64.48,9.74-.72,1.98-2.09,3.79-4.05,4.68-1.62.72-3.44.95-5.19.95h-6.57ZM409.54,134.8h49.6c5.83,0,11.65.62,17.33,1.87,10.13,2.22,18.58,9.76,22.26,19.48,2.7,7.12,3.5,14.96,2.58,22.53-.91,7.16-3.67,13.69-9.17,18.51-1.71,1.53-3.31,2.42-5.24,3.4,2.23,1.14,4.31,2.27,6.36,3.81,6.58,4.92,11.25,12.15,12.92,20.21,2.88,13.97-1.66,29.71-12.96,38.73-3.05,2.43-6.51,4.4-10.23,5.53-5.09,1.55-10.43,2.12-15.74,2.12h-57.7v-136.2h0ZM559.97,221.71l8.26-41.48,8.27,41.48h-16.53ZM552.3,253.95l-3.02,17.04h-43.52l39.25-136.21h45.62l40.42,136.21h-43.66l-3.76-17.04h-31.33,0ZM678.53,172.12h7.12c2.35,0,4.63.88,6.19,2.69,3.12,3.67,3.95,9.49,2.32,13.97-.92,2.47-2.71,4.65-5.19,5.69-1.53.62-3.19.84-4.81.88l-5.63.07v-23.29h0ZM638.39,271v-136.21h51.16c7.42,0,14.57.67,21.26,4.05,9.14,4.63,16.8,12.62,20.57,22.22,3.45,8.74,4.25,18.55,3.21,27.85-.58,5.29-1.78,10.61-4.21,15.4-2.75,5.41-7.36,9.65-12.98,11.92-1.06.43-2.15.85-3.24,1.25l30.31,53.5h-47.39l-18.59-46.12v46.12h-40.14l.03.02h.01ZM752.07,270.99v-136.21h39.41l26.32,51.35c2.07,4.07,4.09,8.13,6,12.26,1.37,3.08,2.71,6.16,4.04,9.26-.48-4.29-.95-8.61-1.23-12.88-.4-5.61-.5-11.18-.48-16.8v-43.18h39.42v136.21h-39.42l-28.33-53.76c-2.8-5.32-5.18-10.88-7.63-16.38.62,7.9,1.3,15.81,1.3,23.72v46.41h-39.41.01ZM158.61,195.7l.02-23.56h7.61c4.49,0,8.66,1.81,10.39,6.15,1.51,3.8,1.27,8.33-.68,11.92-2.04,3.77-6.16,5.49-10.28,5.49h-7.08.02ZM118.55,270.99v-136.18h54.4c14.58,0,28.66,6.17,36.5,18.84,5.58,8.99,8.05,19.64,8.2,30.17.11,10.61-2.13,21.64-7.9,30.68-6.36,9.93-16.55,15.56-28.34,15.56h-22.8v40.93h-40.06Z"/>
  <path class="cls-1" d="M923.2,111.1c.16-4.23-2.19-6.99-6.17-7.17-2.68-.13-4.49,1.49-6.01,3.3-1.22,1.44-2.11,3.19-3.18,4.91-.38-.34-.82-.76-1.24-1.2-1.74-1.78-3.52-3.5-6.01-4.24-2.64-.77-5.54.45-6.7,2.93-1.11,2.43-.63,4.74.59,6.93,1.94,3.47,4.87,6.02,8.01,8.31.81.59,1.64,1.14,2.5,1.64,1.37.82,2.78,1.6,4.15,2.43.72.43,1.47.43,2.08-.18,2.7-2.8,5.49-5.51,8.02-8.43,2.26-2.62,3.82-5.64,3.97-9.22h-.01Z"/>
  <path class="cls-1" d="M933.4,211.23c2.25-6.11.18-11.28-5.56-13.58-3.85-1.56-7.25-.08-10.37,1.77-2.49,1.51-4.59,3.59-7.02,5.54-.37-.69-.82-1.52-1.24-2.42-1.7-3.48-3.46-6.89-6.74-9.22-3.5-2.49-8.34-2.15-11.17.92-2.76,2.93-3.18,6.58-2.45,10.38,1.14,6.05,4.18,11.25,7.68,16.15.92,1.27,1.87,2.47,2.88,3.67,1.6,1.87,3.29,3.73,4.9,5.66.82.96,1.96,1.39,3.13.73,5.29-2.71,10.67-5.28,15.76-8.27,4.57-2.68,8.31-6.27,10.21-11.45l-.03.12h.01Z"/>
  <path class="cls-1" d="M977.76,148.63c.09-9.84-5.54-16.09-14.82-16.25-6.24-.12-10.32,3.78-13.75,8.08-2.75,3.44-4.69,7.57-7.06,11.62-.89-.77-1.96-1.71-2.98-2.72-4.18-4.02-8.42-7.89-14.26-9.46-6.19-1.62-12.84,1.41-15.38,7.28-2.42,5.72-1.15,11.06,1.83,16.06,4.73,7.92,11.72,13.68,19.18,18.79,1.94,1.32,3.89,2.53,5.93,3.64,3.25,1.83,6.57,3.53,9.82,5.37,1.69.96,3.46.92,4.82-.58,6.07-6.69,12.38-13.17,18.08-20.13,5.09-6.23,8.5-13.37,8.6-21.69h-.01Z"/>
</svg>
