<svg width="175" height="110" viewBox="0 0 175 110" fill="none" xmlns="http://www.w3.org/2000/svg">
<g clip-path="url(#clip0_5408_31362)">
<path fill-rule="evenodd" clip-rule="evenodd" d="M164 56.1443C164 45.294 158.73 36.7324 148.657 36.7324C138.542 36.7324 132.422 45.294 132.422 56.0596C132.422 68.8171 139.647 75.2595 150.017 75.2595C155.075 75.2595 158.9 74.1152 161.79 72.5046V64.0278C158.9 65.4688 155.585 66.3589 151.377 66.3589C147.255 66.3589 143.6 64.9179 143.132 59.9166H163.915C163.915 59.3656 164 57.1616 164 56.1443ZM143.005 52.1179C143.005 47.3285 145.937 45.3364 148.615 45.3364C151.207 45.3364 153.97 47.3285 153.97 52.1179H143.005Z" fill="#061B31"/>
<path fill-rule="evenodd" clip-rule="evenodd" d="M116.018 36.7324C111.853 36.7324 109.175 38.6821 107.688 40.0384L107.135 37.4106H97.7852V86.8304L108.41 84.584L108.453 72.5893C109.983 73.6913 112.235 75.2595 115.975 75.2595C123.583 75.2595 130.51 69.1562 130.51 55.7205C130.468 43.4291 123.455 36.7324 116.018 36.7324ZM113.468 65.935C110.96 65.935 109.473 65.045 108.453 63.9431L108.41 48.2185C109.515 46.9894 111.045 46.1417 113.468 46.1417C117.335 46.1417 120.013 50.4649 120.013 56.0172C120.013 61.6967 117.378 65.935 113.468 65.935Z" fill="#061B31"/>
<path fill-rule="evenodd" clip-rule="evenodd" d="M83.165 34.2325L93.8325 31.9438V23.3398L83.165 25.5862V34.2325Z" fill="#061B31"/>
<path d="M93.8325 37.4531H83.165V74.5392H93.8325V37.4531Z" fill="#061B31"/>
<path fill-rule="evenodd" clip-rule="evenodd" d="M71.7326 40.5902L71.0526 37.4537H61.8726V74.5398H72.4976V49.406C75.0051 46.1425 79.2551 46.7359 80.5726 47.2021V37.4537C79.2126 36.9451 74.2401 36.0127 71.7326 40.5902Z" fill="#061B31"/>
<path fill-rule="evenodd" clip-rule="evenodd" d="M50.4823 28.2559L40.1123 30.4598L40.0698 64.4095C40.0698 70.6823 44.7873 75.3022 51.0773 75.3022C54.5624 75.3022 57.1124 74.6664 58.5149 73.9035V65.2996C57.1549 65.8505 50.4398 67.8002 50.4398 61.5274V46.481H58.5149V37.4533H50.4398L50.4823 28.2559Z" fill="#061B31"/>
<path fill-rule="evenodd" clip-rule="evenodd" d="M21.7525 48.2185C21.7525 46.5655 23.1125 45.9298 25.365 45.9298C28.595 45.9298 32.675 46.9046 35.905 48.6424V38.6821C32.3775 37.2834 28.8925 36.7324 25.365 36.7324C16.7375 36.7324 11 41.2251 11 48.7271C11 60.4251 27.15 58.5602 27.15 63.6039C27.15 65.5536 25.45 66.1893 23.07 66.1893C19.5425 66.1893 15.0375 64.7484 11.4675 62.7987V72.886C15.42 74.5814 19.415 75.3019 23.07 75.3019C31.91 75.3019 37.9875 70.9364 37.9875 63.3496C37.945 50.7192 21.7525 52.9655 21.7525 48.2185Z" fill="#061B31"/>
</g>
<defs>
<clipPath id="clip0_5408_31362">
<rect width="153" height="64" fill="white" transform="translate(11 23)"/>
</clipPath>
</defs>
</svg>
