<svg width="175" height="110" viewBox="0 0 175 110" fill="none" xmlns="http://www.w3.org/2000/svg">
<g clip-path="url(#clip0_5408_31498)">
<path d="M27.8892 47.8409V53.1818H40.732C40.391 56.1364 39.3681 58.4091 37.777 59.8864C35.9585 61.7045 33.0036 63.75 27.8892 63.75C20.0472 63.75 13.9099 57.3864 13.9099 49.5455C13.9099 41.7045 19.9335 35.3409 27.8892 35.3409C32.0944 35.3409 35.2766 37.0455 37.5497 39.2045L41.3002 35.4545C38.1179 32.3864 33.7991 30 27.8892 30C17.0922 30 8 38.75 8 49.5455C8 60.3409 17.0922 69.0909 27.8892 69.0909C33.6855 69.0909 38.1179 67.1591 41.5275 63.6364C45.0508 60.1136 46.1873 55.1136 46.1873 51.1364C46.1873 49.8864 46.0736 48.75 45.96 47.8409H27.8892Z" fill="#4285F4"/>
<path d="M62.0987 43.4082C55.1659 43.4082 49.3696 48.7491 49.3696 56.0218C49.3696 63.2946 55.0523 68.6355 62.0987 68.6355C69.1452 68.6355 74.8278 63.4082 74.8278 56.1355C74.8278 48.7491 69.1452 43.4082 62.0987 43.4082ZM62.0987 63.7491C58.2345 63.7491 54.9386 60.5673 54.9386 56.1355C54.9386 51.59 58.2345 48.5218 62.0987 48.5218C65.9629 48.5218 69.2588 51.59 69.2588 56.1355C69.2588 60.5673 65.9629 63.7491 62.0987 63.7491Z" fill="#EA4335"/>
<path d="M124.267 46.2491H124.039C122.789 44.7718 120.402 43.4082 117.334 43.4082C110.969 43.4082 105.514 48.8627 105.514 56.0218C105.514 63.0673 110.969 68.6355 117.334 68.6355C120.402 68.6355 122.789 67.2718 124.039 65.7946H124.267V67.6128C124.267 72.3855 121.653 74.9991 117.561 74.9991C114.152 74.9991 112.106 72.6128 111.197 70.4537L106.423 72.4991C107.787 75.7946 111.538 79.9991 117.675 79.9991C124.153 79.9991 129.722 76.1355 129.722 66.8173V44.09H124.494V46.2491H124.267ZM117.902 63.7491C114.038 63.7491 111.197 60.4537 111.197 56.1355C111.197 51.7037 114.152 48.5218 117.902 48.5218C121.653 48.5218 124.608 51.8173 124.608 56.2491C124.721 60.5673 121.766 63.7491 117.902 63.7491Z" fill="#4285F4"/>
<path d="M90.398 43.4082C83.4652 43.4082 77.6689 48.7491 77.6689 56.0218C77.6689 63.2946 83.3516 68.6355 90.398 68.6355C97.4445 68.6355 103.127 63.4082 103.127 56.1355C103.127 48.7491 97.4445 43.4082 90.398 43.4082ZM90.398 63.7491C86.5338 63.7491 83.2379 60.5673 83.2379 56.1355C83.2379 51.59 86.5338 48.5218 90.398 48.5218C94.2622 48.5218 97.5582 51.59 97.5582 56.1355C97.5582 60.5673 94.2622 63.7491 90.398 63.7491Z" fill="#FBBC05"/>
<path d="M133.927 30.5684H139.382V68.7502H133.927V30.5684Z" fill="#34A853"/>
<path d="M156.203 63.7491C153.362 63.7491 151.43 62.4991 150.066 59.8855L167 52.9537L166.432 51.4764C165.409 48.6355 162.113 43.4082 155.635 43.4082C149.156 43.4082 143.701 48.5218 143.701 56.0218C143.701 63.0673 149.043 68.6355 156.203 68.6355C161.999 68.6355 165.295 65.1127 166.773 63.0673L162.454 60.2264C160.976 62.3855 159.044 63.7491 156.203 63.7491ZM155.862 48.1809C158.135 48.1809 160.067 49.3173 160.635 50.9082L149.27 55.6809C149.156 50.4537 153.021 48.1809 155.862 48.1809Z" fill="#EA4335"/>
</g>
<defs>
<clipPath id="clip0_5408_31498">
<rect width="159" height="50" fill="white" transform="translate(8 30)"/>
</clipPath>
</defs>
</svg>
