<svg version="1.1" id="Layer_1" xmlns:x="ns_extend;" xmlns:i="ns_ai;" xmlns:graph="ns_graphs;" xmlns="http://www.w3.org/2000/svg" xmlns:xlink="http://www.w3.org/1999/xlink" x="0px" y="0px" viewBox="0 0 627.8 75" style="enable-background:new 0 0 627.8 75;" xml:space="preserve">
 <style type="text/css">
  .st0{fill:#EB1700;}
 </style>
 <metadata>
  <sfw xmlns="ns_sfw;">
   <slices>
   </slices>
   <sliceSourceBounds bottomLeftOrigin="true" height="75" width="627.8" x="-532.5" y="-171.4">
   </sliceSourceBounds>
  </sfw>
 </metadata>
 <g>
  <g>
   <path class="st0" d="M126.9,17.8C121,6.8,109.6,0,97.2,0h-94C1.4,0,0,1.5,0,3.3c0,0.8,0.3,1.7,0.9,2.3l20.5,20.6
			c1.8,1.8,4.3,2.8,6.8,2.8h66.3c4.7,0,8.6,3.7,8.6,8.5c0,4.7-3.7,8.6-8.5,8.6H49c-1.8,0-3.2,1.5-3.2,3.3c0,0.9,0.3,1.7,0.9,2.3
			l20.5,20.6C69,74,71.5,75,74,75h20.7C121.6,75,141.9,46.3,126.9,17.8">
   </path>
  </g>
  <g>
   <path class="st0" d="M176.8,23.4V55h8.1c8.6-0.1,15.5-7.2,15.4-15.8c0,0,0,0,0,0c0.2-8.5-6.4-15.5-14.9-15.8c-0.2,0-0.3,0-0.5,0
			H176.8z M184.9,13.5c15.1,0,26.5,11.4,26.5,25.7S200,64.9,184.9,64.9h-17.8c-0.7,0-1.3-0.6-1.3-1.3V14.8c0-0.7,0.6-1.3,1.3-1.3
			L184.9,13.5z">
   </path>
   <path class="st0" d="M250.3,56.1c9.3,0,16.9-7.5,17-16.9s-7.5-16.9-16.9-17c-9.3,0-16.9,7.5-17,16.9c0,0,0,0,0,0
			C233.4,48.5,240.9,56.1,250.3,56.1 M250.3,12.3c15.9,0,28,12.2,28,26.9S266.1,66,250.3,66s-27.9-12.1-27.9-26.9
			S234.5,12.3,250.3,12.3">
   </path>
   <path class="st0" d="M316.8,56.1c9.3,0,16.9-7.6,16.9-17s-7.6-16.9-17-16.9c-9.3,0-16.9,7.6-16.9,16.9
			C299.9,48.5,307.4,56.1,316.8,56.1C316.8,56.1,316.8,56.1,316.8,56.1 M316.8,12.3c15.8,0,27.9,12.1,27.9,26.9S332.6,66,316.8,66
			s-28-12.1-28-26.9S300.9,12.3,316.8,12.3">
   </path>
   <path class="st0" d="M381.8,23.4h-11.4V37h11.4c3.7,0.2,6.8-2.7,7-6.4c0-0.1,0-0.2,0-0.3c0.1-3.7-2.8-6.9-6.5-7
			C382.1,23.4,381.9,23.4,381.8,23.4 M359.3,14.8c0-0.7,0.6-1.3,1.3-1.3h21.5c10.2,0,17.6,7.5,17.6,16.9c0.1,6.4-3.5,12.2-9.2,15.1
			l9.9,17.5c0.4,0.6,0.2,1.4-0.3,1.8c-0.2,0.2-0.5,0.2-0.8,0.2h-8.7c-0.5,0-0.9-0.3-1.2-0.7L379.9,47h-9.6v16.6
			c0,0.7-0.6,1.3-1.3,1.3h-8.4c-0.7,0-1.3-0.6-1.3-1.3L359.3,14.8z">
   </path>
   <path class="st0" d="M428.5,23.6v31.6h8.1c8.6-0.1,15.5-7.2,15.4-15.8c0,0,0,0,0,0c0.3-8.5-6.4-15.6-14.9-15.8c-0.2,0-0.4,0-0.6,0
			H428.5z M436.6,13.7c15.1,0,26.5,11.4,26.5,25.7s-11.4,25.7-26.5,25.7h-17.8c-0.7,0-1.3-0.6-1.3-1.3V15c0-0.7,0.6-1.3,1.3-1.3
			L436.6,13.7z">
   </path>
   <path class="st0" d="M496.7,26.3l-6.3,16.9h12.5L496.7,26.3z M486.8,52.7L482.7,64c-0.2,0.5-0.7,0.9-1.3,0.9h-8.9
			c-0.7,0.1-1.3-0.4-1.4-1.2c0-0.2,0-0.5,0.1-0.7l19.2-48.8c0.2-0.5,0.7-0.9,1.3-0.8h9.9c0.6,0,1.1,0.3,1.3,0.8l19.2,48.8
			c0.3,0.6,0,1.4-0.6,1.7c-0.2,0.1-0.4,0.1-0.7,0.1h-8.9c-0.6,0-1.1-0.3-1.3-0.9l-4.1-11.3H486.8z">
   </path>
   <path class="st0" d="M532.4,27.4c0-8.1,7-15.1,18-15.1c5.9-0.1,11.7,2,16,6c0.5,0.5,0.6,1.3,0.1,1.8c0,0,0,0-0.1,0.1l-4.9,4.9
			c-0.5,0.5-1.3,0.5-1.8,0c0,0,0,0,0,0c-2.3-2.1-5.4-3.3-8.5-3.4c-4.4,0-7.7,2.6-7.7,5.5c0,9.6,26.1,4,26.1,22.4
			c0,9.3-7.1,16.4-19.5,16.4c-6.9,0.1-13.6-2.6-18.6-7.5c-0.5-0.5-0.6-1.3-0.1-1.8c0,0,0,0,0.1-0.1l4.8-4.8c0.5-0.5,1.3-0.5,1.8,0
			c0,0,0,0,0,0c3,2.9,7.1,4.5,11.2,4.6c5.5,0,9.1-2.9,9.1-6.6C558.5,40.3,532.4,45.8,532.4,27.4">
   </path>
   <path class="st0" d="M616.9,14.7V34h-22.1V14.7c0-0.7-0.6-1.3-1.3-1.3h-8.4c-0.7,0-1.3,0.6-1.3,1.3v48.8c0,0.7,0.6,1.3,1.3,1.3
			h8.4c0.7,0,1.3-0.6,1.3-1.3V43.9h22.1v19.6c0,0.7,0.6,1.3,1.3,1.3h8.4c0.7,0,1.3-0.6,1.3-1.3V14.7c0-0.7-0.6-1.3-1.3-1.3h-8.4
			C617.4,13.4,616.9,14,616.9,14.7z">
   </path>
  </g>
 </g>
</svg>