<svg version="1.1" id="Layer_1" xmlns="http://www.w3.org/2000/svg" xmlns:xlink="http://www.w3.org/1999/xlink" x="0px" y="0px"
	 width="100%" viewBox="0 0 1009 338" enable-background="new 0 0 1009 338" xml:space="preserve">
<path fill="#FEFEFF" opacity="1.000000" stroke="none"
	d="
M651.000000,339.000000
	C434.000031,339.000000 217.500076,339.000000 1.000087,339.000000
	C1.000058,226.333389 1.000058,113.666786 1.000029,1.000088
	C169.166580,1.000000 337.333160,1.000000 505.499725,1.000000
	C673.666382,1.000000 841.833008,1.000000 1009.999756,1.000000
	C1009.999817,113.666527 1009.999817,226.333054 1009.999878,338.999786
	C890.500000,339.000000 771.000000,339.000000 651.000000,339.000000
M234.739441,186.226501
	C228.695160,192.642456 221.174332,196.956879 212.607056,197.807770
	C196.741104,199.383575 180.776413,200.071945 164.836853,200.759125
	C155.607971,201.156998 146.347900,200.831406 137.150192,200.831406
	C137.150192,207.761154 137.150192,213.338531 137.150192,218.875061
	C196.222794,218.875061 254.976608,218.875061 313.641022,218.875061
	C341.582733,127.107002 288.412445,42.735020 209.879807,18.077948
	C128.326218,-7.527618 40.053322,37.131790 13.066040,117.563278
	C-14.789598,200.582748 27.229464,289.419220 108.631409,318.918457
	C184.065033,346.254822 261.667938,311.623718 293.007843,257.481598
	C283.798309,257.481598 274.855408,257.514191 265.912811,257.475800
	C232.261459,257.331299 198.591278,257.792053 164.965668,256.779846
	C143.185486,256.124237 123.084885,248.872223 106.666512,233.934082
	C84.211838,213.503876 76.954697,187.383179 79.894432,157.917923
	C83.936424,117.404564 116.152870,85.887695 156.618912,82.624794
	C196.032028,79.446793 232.514374,104.578766 242.370758,142.176453
	C246.397141,157.535278 246.015396,172.566223 234.739441,186.226501
M462.472504,217.191437
	C462.376068,218.412003 462.279663,219.632553 462.098389,221.927414
	C461.122009,220.514648 460.745667,220.058258 460.463776,219.549530
	C447.920868,196.915329 421.301453,199.186066 407.073456,212.250244
	C390.012604,227.915543 387.350372,258.755737 401.336151,278.125031
	C415.339783,297.519012 447.052795,302.207764 461.035370,276.343689
	C461.135101,276.159302 461.530853,276.134979 461.789795,276.039551
	C464.585785,288.775360 460.988770,302.753357 452.553528,307.463257
	C437.692810,315.760742 424.693237,309.991394 412.204590,300.345001
	C407.688171,305.232788 403.219147,310.069336 398.507721,315.168182
	C409.114258,324.994202 421.440155,329.666473 435.253174,330.467346
	C468.530762,332.396790 486.334595,311.212585 485.354614,284.156189
	C484.493103,260.370941 485.174530,236.529816 485.174530,212.713364
	C485.174530,210.268799 485.174530,207.824219 485.174530,205.192108
	C477.453217,205.192108 470.200928,205.192108 462.472687,205.192108
	C462.472687,209.009964 462.472687,212.640503 462.472504,217.191437
M741.461670,280.499756
	C741.461670,296.414337 741.461670,312.328918 741.461670,328.258179
	C749.502197,328.258179 756.761841,328.258179 764.663757,328.258179
	C764.663757,311.006378 764.663757,294.021454 764.663757,275.858551
	C765.881165,277.355499 766.335571,277.773010 766.620361,278.284912
	C777.525208,297.891693 801.619873,299.555359 817.971741,287.069214
	C840.261658,270.048767 841.100098,230.126068 819.833984,211.812103
	C804.446045,198.560287 777.918945,197.820648 765.984436,220.089981
	C765.814819,220.406433 765.319519,220.548309 764.438843,221.121323
	C764.438843,215.509552 764.438843,210.402496 764.438843,205.294189
	C756.604614,205.294189 749.204285,205.294189 741.461792,205.294189
	C741.461792,230.231613 741.461792,254.865677 741.461670,280.499756
M858.843018,67.500046
	C858.843018,49.070789 858.843018,30.641535 858.843018,12.132274
	C850.892029,12.132274 843.501160,12.132274 835.702454,12.132274
	C835.702454,30.128311 835.702454,47.822567 835.702454,66.716003
	C834.570984,65.119522 834.115540,64.539017 833.725403,63.917568
	C822.153870,45.486717 800.311890,41.448959 782.811218,54.511066
	C762.216187,69.882751 758.793457,104.990288 775.630371,125.340500
	C791.701477,144.765076 822.686401,144.947952 834.260681,121.762138
	C834.467651,121.347588 835.106628,121.148727 836.120850,120.454262
	C836.120850,126.426491 836.120850,131.681686 836.120850,136.777206
	C843.862793,136.777206 851.242737,136.777206 858.843018,136.777206
	C858.843018,113.754333 858.843018,91.127190 858.843018,67.500046
M586.843628,132.529526
	C586.843628,128.639923 586.843628,124.750320 586.843628,119.603249
	C588.010132,121.236420 588.390930,121.710564 588.709045,122.223587
	C599.797485,140.104996 618.923950,144.797073 636.958191,134.054474
	C664.946777,117.382301 664.601440,68.460999 636.380432,52.213642
	C618.631409,41.995201 599.465942,46.798653 588.864258,64.117760
	C588.490051,64.729042 588.064148,65.308678 586.809753,67.164230
	C586.809753,60.416004 586.809753,55.198517 586.809753,49.824844
	C578.964905,49.824844 571.585388,49.824844 564.352173,49.824844
	C564.352173,91.081650 564.352173,131.985626 564.352173,172.712067
	C571.976135,172.712067 579.239624,172.712067 586.843628,172.712067
	C586.843628,159.454483 586.843628,146.487228 586.843628,132.529526
M941.715820,138.948990
	C958.216919,141.567505 970.469177,135.422012 979.158691,119.428703
	C979.158691,126.214363 979.158691,131.440445 979.158691,136.909576
	C986.986816,136.909576 994.371826,136.909576 1001.966125,136.909576
	C1001.966125,107.788864 1001.966125,78.887230 1001.966125,49.764809
	C994.382935,49.764809 986.973267,49.764809 979.062012,49.764809
	C979.062012,55.222805 979.062012,60.409058 979.062012,66.930016
	C977.983337,65.233215 977.657593,64.739967 977.350769,64.235229
	C967.408691,47.879337 950.302734,42.403133 933.081543,50.612949
	C916.877075,58.338100 909.860901,72.321083 908.627930,89.522118
	C906.931824,113.184586 919.257385,133.628143 941.715820,138.948990
M641.052917,260.434814
	C646.812744,237.165115 634.768982,213.556946 612.845337,205.142395
	C590.504639,196.567780 565.482910,206.070160 554.470703,227.311035
	C543.543091,248.388748 550.016541,274.001587 569.819458,287.357391
	C594.768921,304.184174 631.102417,293.929565 641.052917,260.434814
M466.955902,63.568993
	C457.342773,52.545055 445.408173,46.688087 430.596954,46.796463
	C409.241211,46.952724 391.147217,61.115681 385.904205,82.022377
	C380.696075,102.789909 390.248962,124.378029 409.158081,134.572906
	C427.742218,144.592575 451.061615,140.563492 465.310455,124.821167
	C466.772736,123.205597 467.987762,121.366150 469.806000,118.992996
	C456.937042,118.992996 445.272003,119.179367 433.615234,118.949059
	C416.386383,118.608665 405.807068,107.204544 406.867218,90.486076
	C407.557983,79.593407 416.480652,69.695023 427.064148,68.080582
	C438.481598,66.338936 449.538788,72.574127 453.655518,83.075584
	C457.851440,93.779068 452.596527,101.689415 440.989960,101.971237
	C435.199493,102.111839 429.402832,101.995712 423.401855,101.995712
	C423.401855,104.518768 423.401855,106.075279 423.401855,107.696823
	C440.891205,107.696823 458.136749,107.696823 475.290100,107.696823
	C480.032837,91.356812 477.580872,78.043839 466.955902,63.568993
M754.613525,76.018532
	C745.305359,54.875347 724.297791,43.193001 703.000854,47.316624
	C675.930908,52.558056 659.174377,79.163918 666.326477,105.547997
	C673.541992,132.166214 701.755615,146.641022 727.824585,136.966019
	C736.854797,133.614609 744.106384,127.933243 749.356323,119.721275
	C748.721069,119.267563 748.600525,119.106087 748.479309,119.105606
	C737.156799,119.060684 725.833374,119.103905 714.511902,118.975533
	C700.180420,118.813019 690.078369,111.165108 687.393005,98.626144
	C684.645691,85.798203 692.079163,72.655968 704.207764,68.898277
	C716.181946,65.188438 729.044739,71.257355 733.799316,82.860130
	C738.181580,93.554024 732.982361,101.686905 721.468872,101.970413
	C715.565369,102.115776 709.655396,101.995911 703.370789,101.995911
	C703.554810,104.811386 703.656128,106.361557 703.748352,107.772720
	C721.409790,107.772720 738.530884,107.772720 755.591492,107.772720
	C758.904480,97.191048 758.649841,86.927368 754.613525,76.018532
M725.997070,266.125427
	C725.997070,245.864304 725.997070,225.603180 725.997070,205.312134
	C718.249573,205.312134 710.856262,205.312134 703.160217,205.312134
	C703.160217,223.758301 703.184143,241.891800 703.149902,260.025177
	C703.133240,268.838348 697.696167,274.795135 689.773438,274.825897
	C681.362976,274.858612 676.020630,269.105347 676.008545,259.915100
	C675.986511,243.086533 676.008118,226.257950 675.991394,209.429382
	C675.989990,208.000885 675.836792,206.572556 675.765442,205.340271
	C667.937134,205.340271 660.533508,205.340271 652.997803,205.340271
	C652.997803,224.167465 652.985657,242.652405 653.001221,261.137299
	C653.016541,279.347168 662.970215,291.509766 680.797119,294.590759
	C685.175659,295.347473 689.774414,295.269073 694.239197,295.010437
	C710.991760,294.039978 722.708557,283.577209 725.997070,266.125427
M482.876495,64.660751
	C489.558014,73.975258 496.239532,83.289764 503.032379,92.759476
	C492.509888,107.342560 482.052887,121.834885 470.982941,137.176666
	C477.673370,137.176666 483.317444,136.730377 488.855988,137.303696
	C494.264465,137.863525 497.320312,135.767548 500.086151,131.357254
	C504.784424,123.865639 510.090515,116.755180 515.370056,109.155037
	C521.482483,118.027077 527.124146,126.260818 532.834351,134.446777
	C533.545654,135.466476 534.601746,136.977478 535.528992,137.000229
	C543.716309,137.201096 551.910645,137.116776 561.022034,137.116776
	C549.700439,121.313408 539.075378,106.482430 528.430542,91.623734
	C538.443237,77.629570 548.243652,63.932167 558.589661,49.472130
	C550.327759,49.472130 543.193848,49.321476 536.076599,49.597977
	C534.635803,49.653950 532.834656,51.021637 531.920593,52.300076
	C526.644714,59.678818 521.585266,67.212303 516.091431,75.219635
	C510.684845,67.367531 505.657227,59.969425 500.497589,52.664555
	C499.608673,51.406059 498.187714,49.679966 496.963013,49.638691
	C488.910736,49.367317 480.844849,49.498718 471.946838,49.498718
	C475.854004,54.938492 479.142700,59.517155 482.876495,64.660751
M524.007385,262.500061
	C524.032898,255.674637 523.798218,248.836029 524.142944,242.026764
	C524.700317,231.021378 529.638611,226.543243 540.582825,226.531952
	C543.015930,226.529434 545.449097,226.531586 547.795410,226.531586
	C547.795410,218.151428 547.795410,210.430344 547.795410,202.626984
	C533.808228,201.452042 527.634583,209.603165 523.798584,221.109436
	C523.798584,215.837738 523.798584,210.566040 523.798584,205.356659
	C516.112549,205.356659 508.737457,205.356659 501.362091,205.356659
	C501.362091,234.469315 501.362091,263.217346 501.362091,292.237061
	C508.967957,292.237061 516.364685,292.237061 524.007385,292.237061
	C524.007385,282.463043 524.007385,272.981537 524.007385,262.500061
M897.560059,106.500168
	C897.560059,87.597939 897.560059,68.695709 897.560059,49.857780
	C889.440613,49.857780 882.064148,49.857780 874.791382,49.857780
	C874.791382,79.149498 874.791382,108.023270 874.791382,137.018066
	C882.434204,137.018066 889.724915,137.018066 897.559998,137.018066
	C897.559998,127.066940 897.559998,117.283562 897.560059,106.500168
M872.893188,26.123274
	C874.729431,33.584476 880.274170,38.061928 886.985107,37.502747
	C893.374268,36.970375 898.664246,31.823069 899.140381,25.675287
	C899.754333,17.747942 894.439697,11.343513 886.959290,10.996456
	C878.512573,10.604571 873.061157,16.116783 872.893188,26.123274
M872.396912,210.600861
	C872.396912,208.826080 872.396912,207.051300 872.396912,205.241150
	C865.685486,203.959534 868.834656,210.408737 865.828674,212.389313
	C865.279114,210.610718 865.047058,208.790436 864.173279,207.362991
	C863.446228,206.175217 861.965210,205.448929 860.376648,204.160019
	C860.376648,209.695236 860.376648,213.822876 860.376648,219.295013
	C861.579712,217.587433 862.084167,217.072830 862.341614,216.455246
	C862.667480,215.673523 862.792297,214.807999 863.119934,213.523422
	C865.474854,219.079803 865.849121,219.181839 868.196228,216.223572
	C869.474731,216.932541 870.628113,217.572159 872.396790,218.552963
	C872.396790,215.472641 872.396790,213.483658 872.396912,210.600861
M295.396576,325.012756
	C295.396576,321.748810 295.396576,318.484894 295.396576,315.236969
	C288.690979,313.998108 291.860382,320.471680 289.187256,322.094940
	C286.370605,320.661896 289.404266,313.752747 283.425842,315.193726
	C283.425842,319.761963 283.425842,323.874695 283.425842,327.987457
	C283.792633,328.046417 284.159454,328.105377 284.526245,328.164307
	C285.054718,326.776154 285.583191,325.388031 286.219574,323.716431
	C287.115143,325.499908 287.799530,326.862854 288.746033,328.747742
	C290.037994,327.322784 290.862122,326.413788 291.282959,325.949646
	C292.103088,326.711304 292.805420,327.363556 293.507751,328.015808
	C294.136169,327.302124 294.764587,326.588440 295.396576,325.012756
M273.766266,317.252350
	C274.191467,320.895538 274.616638,324.538757 275.041840,328.181946
	C275.658936,328.096588 276.276062,328.011200 276.893158,327.925842
	C276.893158,324.533173 276.893158,321.140533 276.893158,317.865997
	C278.581848,317.182648 279.856903,316.666687 281.131958,316.150726
	C281.042969,315.908203 280.953979,315.665649 280.864990,315.423126
	C277.455475,315.423126 274.045990,315.423126 270.636475,315.423126
	C270.592377,315.725708 270.548248,316.028290 270.504150,316.330902
	C271.313385,316.574738 272.122650,316.818604 273.766266,317.252350
M857.108521,205.037384
	C854.045715,205.037384 850.982849,205.037384 847.920044,205.037384
	C847.835693,205.463867 847.751404,205.890350 847.667114,206.316833
	C855.701233,207.437653 848.982300,215.087509 853.914490,218.912170
	C854.157104,214.562698 854.348206,211.137909 854.523926,207.987869
	C855.774475,207.030884 856.853455,206.205185 857.108521,205.037384
z"/>
<path fill="#01019A" opacity="1.000000" stroke="none"
	d="
M234.965820,185.947479
	C246.015396,172.566223 246.397141,157.535278 242.370758,142.176453
	C232.514374,104.578766 196.032028,79.446793 156.618912,82.624794
	C116.152870,85.887695 83.936424,117.404564 79.894432,157.917923
	C76.954697,187.383179 84.211838,213.503876 106.666512,233.934082
	C123.084885,248.872223 143.185486,256.124237 164.965668,256.779846
	C198.591278,257.792053 232.261459,257.331299 265.912811,257.475800
	C274.855408,257.514191 283.798309,257.481598 293.007843,257.481598
	C261.667938,311.623718 184.065033,346.254822 108.631409,318.918457
	C27.229464,289.419220 -14.789598,200.582748 13.066040,117.563278
	C40.053322,37.131790 128.326218,-7.527618 209.879807,18.077948
	C288.412445,42.735020 341.582733,127.107002 313.641022,218.875061
	C254.976608,218.875061 196.222794,218.875061 137.150192,218.875061
	C137.150192,213.338531 137.150192,207.761154 137.150192,200.831406
	C146.347900,200.831406 155.607971,201.156998 164.836853,200.759125
	C180.776413,200.071945 196.741104,199.383575 212.607056,197.807770
	C221.174332,196.956879 228.695160,192.642456 234.965820,185.947479
z"/>
<path fill="#04049A" opacity="1.000000" stroke="none"
	d="
M462.472595,216.731247
	C462.472687,212.640503 462.472687,209.009964 462.472687,205.192108
	C470.200928,205.192108 477.453217,205.192108 485.174530,205.192108
	C485.174530,207.824219 485.174530,210.268799 485.174530,212.713364
	C485.174530,236.529816 484.493103,260.370941 485.354614,284.156189
	C486.334595,311.212585 468.530762,332.396790 435.253174,330.467346
	C421.440155,329.666473 409.114258,324.994202 398.507721,315.168182
	C403.219147,310.069336 407.688171,305.232788 412.204590,300.345001
	C424.693237,309.991394 437.692810,315.760742 452.553528,307.463257
	C460.988770,302.753357 464.585785,288.775360 461.789093,276.037720
	C461.530853,276.134979 461.135101,276.159302 461.035370,276.343689
	C447.052795,302.207764 415.339783,297.519012 401.336151,278.125031
	C387.350372,258.755737 390.012604,227.915543 407.073456,212.250244
	C421.301453,199.186066 447.920868,196.915329 460.463776,219.549530
	C460.745667,220.058258 461.122009,220.514648 462.098389,221.927414
	C462.279663,219.632553 462.376068,218.412003 462.472595,216.731247
M420.833282,266.589050
	C430.872650,278.906860 448.471375,277.876282 457.646515,265.019745
	C464.734924,255.087158 464.484497,240.636795 457.111603,230.903931
	C447.343109,218.008682 429.096283,218.307510 419.722870,231.516312
	C412.526154,241.657730 412.769073,255.037949 420.833282,266.589050
z"/>
<path fill="#06069B" opacity="1.000000" stroke="none"
	d="
M741.461731,279.999756
	C741.461792,254.865677 741.461792,230.231613 741.461792,205.294189
	C749.204285,205.294189 756.604614,205.294189 764.438843,205.294189
	C764.438843,210.402496 764.438843,215.509552 764.438843,221.121323
	C765.319519,220.548309 765.814819,220.406433 765.984436,220.089981
	C777.918945,197.820648 804.446045,198.560287 819.833984,211.812103
	C841.100098,230.126068 840.261658,270.048767 817.971741,287.069214
	C801.619873,299.555359 777.525208,297.891693 766.620361,278.284912
	C766.335571,277.773010 765.881165,277.355499 764.663757,275.858551
	C764.663757,294.021454 764.663757,311.006378 764.663757,328.258179
	C756.761841,328.258179 749.502197,328.258179 741.461670,328.258179
	C741.461670,312.328918 741.461670,296.414337 741.461731,279.999756
M790.137939,221.366119
	C773.007080,221.322098 760.996643,236.983704 764.656982,254.593140
	C767.770813,269.573486 780.897156,278.831329 794.020508,275.303040
	C806.390564,271.977264 813.681519,260.768188 812.987549,246.143127
	C812.391785,233.587372 803.560730,223.725555 790.137939,221.366119
z"/>
<path fill="#03039A" opacity="1.000000" stroke="none"
	d="
M858.843018,68.000046
	C858.843018,91.127190 858.843018,113.754333 858.843018,136.777206
	C851.242737,136.777206 843.862793,136.777206 836.120850,136.777206
	C836.120850,131.681686 836.120850,126.426491 836.120850,120.454262
	C835.106628,121.148727 834.467651,121.347588 834.260681,121.762138
	C822.686401,144.947952 791.701477,144.765076 775.630371,125.340500
	C758.793457,104.990288 762.216187,69.882751 782.811218,54.511066
	C800.311890,41.448959 822.153870,45.486717 833.725403,63.917568
	C834.115540,64.539017 834.570984,65.119522 835.702454,66.716003
	C835.702454,47.822567 835.702454,30.128311 835.702454,12.132274
	C843.501160,12.132274 850.892029,12.132274 858.843018,12.132274
	C858.843018,30.641535 858.843018,49.070789 858.843018,68.000046
M831.867310,77.783218
	C824.660522,68.006699 815.789978,64.167702 806.231506,66.688538
	C787.317322,71.676781 780.557922,97.300011 794.133911,112.547302
	C803.464050,123.026054 818.202393,123.435257 828.106079,113.490517
	C837.042419,104.516991 838.629456,90.831955 831.867310,77.783218
z"/>
<path fill="#03039A" opacity="1.000000" stroke="none"
	d="
M586.843628,133.024750
	C586.843628,146.487228 586.843628,159.454483 586.843628,172.712067
	C579.239624,172.712067 571.976135,172.712067 564.352173,172.712067
	C564.352173,131.985626 564.352173,91.081650 564.352173,49.824844
	C571.585388,49.824844 578.964905,49.824844 586.809753,49.824844
	C586.809753,55.198517 586.809753,60.416004 586.809753,67.164230
	C588.064148,65.308678 588.490051,64.729042 588.864258,64.117760
	C599.465942,46.798653 618.631409,41.995201 636.380432,52.213642
	C664.601440,68.460999 664.946777,117.382301 636.958191,134.054474
	C618.923950,144.797073 599.797485,140.104996 588.709045,122.223587
	C588.390930,121.710564 588.010132,121.236420 586.843628,119.603249
	C586.843628,124.750320 586.843628,128.639923 586.843628,133.024750
M630.116516,110.517311
	C635.392822,103.351265 636.514771,95.268372 634.858398,86.800354
	C631.249939,68.352264 611.220886,59.897217 597.083801,70.924446
	C588.123596,77.913635 585.249695,87.566399 587.032349,98.514542
	C588.710022,108.817024 594.414124,116.406898 604.493896,119.600266
	C614.662720,122.821861 623.052063,119.144257 630.116516,110.517311
z"/>
<path fill="#04049A" opacity="1.000000" stroke="none"
	d="
M941.300842,138.893921
	C919.257385,133.628143 906.931824,113.184586 908.627930,89.522118
	C909.860901,72.321083 916.877075,58.338100 933.081543,50.612949
	C950.302734,42.403133 967.408691,47.879337 977.350769,64.235229
	C977.657593,64.739967 977.983337,65.233215 979.062012,66.930016
	C979.062012,60.409058 979.062012,55.222805 979.062012,49.764809
	C986.973267,49.764809 994.382935,49.764809 1001.966125,49.764809
	C1001.966125,78.887230 1001.966125,107.788864 1001.966125,136.909576
	C994.371826,136.909576 986.986816,136.909576 979.158691,136.909576
	C979.158691,131.440445 979.158691,126.214363 979.158691,119.428703
	C970.469177,135.422012 958.216919,141.567505 941.300842,138.893921
M972.510010,74.020294
	C961.104980,62.936516 946.015381,63.281227 936.840454,75.082283
	C929.831299,84.097511 928.744324,94.228043 932.899597,104.713692
	C936.803955,114.566406 944.328674,120.510582 954.951111,120.646843
	C965.169189,120.777908 972.672852,115.165199 976.831055,105.919479
	C981.806946,94.855698 980.576172,84.247047 972.510010,74.020294
z"/>
<path fill="#03039A" opacity="1.000000" stroke="none"
	d="
M640.986755,260.840454
	C631.102417,293.929565 594.768921,304.184174 569.819458,287.357391
	C550.016541,274.001587 543.543091,248.388748 554.470703,227.311035
	C565.482910,206.070160 590.504639,196.567780 612.845337,205.142395
	C634.768982,213.556946 646.812744,237.165115 640.986755,260.840454
M576.385498,232.979553
	C567.859070,246.560898 570.802612,263.080688 583.126038,270.808350
	C594.109253,277.695648 608.453247,274.667358 615.772217,263.916107
	C623.712097,252.252609 621.194458,235.953354 610.170410,227.649628
	C599.663635,219.735535 585.730652,221.735748 576.385498,232.979553
z"/>
<path fill="#03039A" opacity="1.000000" stroke="none"
	d="
M467.183228,63.844830
	C477.580872,78.043839 480.032837,91.356812 475.290100,107.696823
	C458.136749,107.696823 440.891205,107.696823 423.401855,107.696823
	C423.401855,106.075279 423.401855,104.518768 423.401855,101.995712
	C429.402832,101.995712 435.199493,102.111839 440.989960,101.971237
	C452.596527,101.689415 457.851440,93.779068 453.655518,83.075584
	C449.538788,72.574127 438.481598,66.338936 427.064148,68.080582
	C416.480652,69.695023 407.557983,79.593407 406.867218,90.486076
	C405.807068,107.204544 416.386383,118.608665 433.615234,118.949059
	C445.272003,119.179367 456.937042,118.992996 469.806000,118.992996
	C467.987762,121.366150 466.772736,123.205597 465.310455,124.821167
	C451.061615,140.563492 427.742218,144.592575 409.158081,134.572906
	C390.248962,124.378029 380.696075,102.789909 385.904205,82.022377
	C391.147217,61.115681 409.241211,46.952724 430.596954,46.796463
	C445.408173,46.688087 457.342773,52.545055 467.183228,63.844830
z"/>
<path fill="#03039A" opacity="1.000000" stroke="none"
	d="
M754.754028,76.384003
	C758.649841,86.927368 758.904480,97.191048 755.591492,107.772720
	C738.530884,107.772720 721.409790,107.772720 703.748352,107.772720
	C703.656128,106.361557 703.554810,104.811386 703.370789,101.995911
	C709.655396,101.995911 715.565369,102.115776 721.468872,101.970413
	C732.982361,101.686905 738.181580,93.554024 733.799316,82.860130
	C729.044739,71.257355 716.181946,65.188438 704.207764,68.898277
	C692.079163,72.655968 684.645691,85.798203 687.393005,98.626144
	C690.078369,111.165108 700.180420,118.813019 714.511902,118.975533
	C725.833374,119.103905 737.156799,119.060684 748.479309,119.105606
	C748.600525,119.106087 748.721069,119.267563 749.356323,119.721275
	C744.106384,127.933243 736.854797,133.614609 727.824585,136.966019
	C701.755615,146.641022 673.541992,132.166214 666.326477,105.547997
	C659.174377,79.163918 675.930908,52.558056 703.000854,47.316624
	C724.297791,43.193001 745.305359,54.875347 754.754028,76.384003
z"/>
<path fill="#02029A" opacity="1.000000" stroke="none"
	d="
M725.959351,266.577271
	C722.708557,283.577209 710.991760,294.039978 694.239197,295.010437
	C689.774414,295.269073 685.175659,295.347473 680.797119,294.590759
	C662.970215,291.509766 653.016541,279.347168 653.001221,261.137299
	C652.985657,242.652405 652.997803,224.167465 652.997803,205.340271
	C660.533508,205.340271 667.937134,205.340271 675.765442,205.340271
	C675.836792,206.572556 675.989990,208.000885 675.991394,209.429382
	C676.008118,226.257950 675.986511,243.086533 676.008545,259.915100
	C676.020630,269.105347 681.362976,274.858612 689.773438,274.825897
	C697.696167,274.795135 703.133240,268.838348 703.149902,260.025177
	C703.184143,241.891800 703.160217,223.758301 703.160217,205.312134
	C710.856262,205.312134 718.249573,205.312134 725.997070,205.312134
	C725.997070,225.603180 725.997070,245.864304 725.959351,266.577271
z"/>
<path fill="#04049B" opacity="1.000000" stroke="none"
	d="
M482.653931,64.378281
	C479.142700,59.517155 475.854004,54.938492 471.946838,49.498718
	C480.844849,49.498718 488.910736,49.367317 496.963013,49.638691
	C498.187714,49.679966 499.608673,51.406059 500.497589,52.664555
	C505.657227,59.969425 510.684845,67.367531 516.091431,75.219635
	C521.585266,67.212303 526.644714,59.678818 531.920593,52.300076
	C532.834656,51.021637 534.635803,49.653950 536.076599,49.597977
	C543.193848,49.321476 550.327759,49.472130 558.589661,49.472130
	C548.243652,63.932167 538.443237,77.629570 528.430542,91.623734
	C539.075378,106.482430 549.700439,121.313408 561.022034,137.116776
	C551.910645,137.116776 543.716309,137.201096 535.528992,137.000229
	C534.601746,136.977478 533.545654,135.466476 532.834351,134.446777
	C527.124146,126.260818 521.482483,118.027077 515.370056,109.155037
	C510.090515,116.755180 504.784424,123.865639 500.086151,131.357254
	C497.320312,135.767548 494.264465,137.863525 488.855988,137.303696
	C483.317444,136.730377 477.673370,137.176666 470.982941,137.176666
	C482.052887,121.834885 492.509888,107.342560 503.032379,92.759476
	C496.239532,83.289764 489.558014,73.975258 482.653931,64.378281
z"/>
<path fill="#05059B" opacity="1.000000" stroke="none"
	d="
M524.007385,263.000061
	C524.007385,272.981537 524.007385,282.463043 524.007385,292.237061
	C516.364685,292.237061 508.967957,292.237061 501.362091,292.237061
	C501.362091,263.217346 501.362091,234.469315 501.362091,205.356659
	C508.737457,205.356659 516.112549,205.356659 523.798584,205.356659
	C523.798584,210.566040 523.798584,215.837738 523.798584,221.109436
	C527.634583,209.603165 533.808228,201.452042 547.795410,202.626984
	C547.795410,210.430344 547.795410,218.151428 547.795410,226.531586
	C545.449097,226.531586 543.015930,226.529434 540.582825,226.531952
	C529.638611,226.543243 524.700317,231.021378 524.142944,242.026764
	C523.798218,248.836029 524.032898,255.674637 524.007385,263.000061
z"/>
<path fill="#0C0C9E" opacity="1.000000" stroke="none"
	d="
M897.560059,107.000175
	C897.559998,117.283562 897.559998,127.066940 897.559998,137.018066
	C889.724915,137.018066 882.434204,137.018066 874.791382,137.018066
	C874.791382,108.023270 874.791382,79.149498 874.791382,49.857780
	C882.064148,49.857780 889.440613,49.857780 897.560059,49.857780
	C897.560059,68.695709 897.560059,87.597939 897.560059,107.000175
z"/>
<path fill="#04049B" opacity="1.000000" stroke="none"
	d="
M872.862793,25.702103
	C873.061157,16.116783 878.512573,10.604571 886.959290,10.996456
	C894.439697,11.343513 899.754333,17.747942 899.140381,25.675287
	C898.664246,31.823069 893.374268,36.970375 886.985107,37.502747
	C880.274170,38.061928 874.729431,33.584476 872.862793,25.702103
z"/>
<path fill="#10109F" opacity="1.000000" stroke="none"
	d="
M872.396851,211.047760
	C872.396790,213.483658 872.396790,215.472641 872.396790,218.552963
	C870.628113,217.572159 869.474731,216.932541 868.196228,216.223572
	C865.849121,219.181839 865.474854,219.079803 863.119934,213.523422
	C862.792297,214.807999 862.667480,215.673523 862.341614,216.455246
	C862.084167,217.072830 861.579712,217.587433 860.376648,219.295013
	C860.376648,213.822876 860.376648,209.695236 860.376648,204.160019
	C861.965210,205.448929 863.446228,206.175217 864.173279,207.362991
	C865.047058,208.790436 865.279114,210.610718 865.828674,212.389313
	C868.834656,210.408737 865.685486,203.959534 872.396912,205.241150
	C872.396912,207.051300 872.396912,208.826080 872.396851,211.047760
z"/>
<path fill="#10109F" opacity="1.000000" stroke="none"
	d="
M295.394775,325.443756
	C294.764587,326.588440 294.136169,327.302124 293.507751,328.015808
	C292.805420,327.363556 292.103088,326.711304 291.282959,325.949646
	C290.862122,326.413788 290.037994,327.322784 288.746033,328.747742
	C287.799530,326.862854 287.115143,325.499908 286.219574,323.716431
	C285.583191,325.388031 285.054718,326.776154 284.526245,328.164307
	C284.159454,328.105377 283.792633,328.046417 283.425842,327.987457
	C283.425842,323.874695 283.425842,319.761963 283.425842,315.193726
	C289.404266,313.752747 286.370605,320.661896 289.187256,322.094940
	C291.860382,320.471680 288.690979,313.998108 295.396576,315.236969
	C295.396576,318.484894 295.396576,321.748810 295.394775,325.443756
z"/>
<path fill="#1515A1" opacity="1.000000" stroke="none"
	d="
M273.349060,317.157410
	C272.122650,316.818604 271.313385,316.574738 270.504150,316.330902
	C270.548248,316.028290 270.592377,315.725708 270.636475,315.423126
	C274.045990,315.423126 277.455475,315.423126 280.864990,315.423126
	C280.953979,315.665649 281.042969,315.908203 281.131958,316.150726
	C279.856903,316.666687 278.581848,317.182648 276.893158,317.865997
	C276.893158,321.140533 276.893158,324.533173 276.893158,327.925842
	C276.276062,328.011200 275.658936,328.096588 275.041840,328.181946
	C274.616638,324.538757 274.191467,320.895538 273.349060,317.157410
z"/>
<path fill="#000099" opacity="1.000000" stroke="none"
	d="
M857.520508,205.208435
	C856.853455,206.205185 855.774475,207.030884 854.523926,207.987869
	C854.348206,211.137909 854.157104,214.562698 853.914490,218.912170
	C848.982300,215.087509 855.701233,207.437653 847.667114,206.316833
	C847.751404,205.890350 847.835693,205.463867 847.920044,205.037384
	C850.982849,205.037384 854.045715,205.037384 857.520508,205.208435
z"/>
<path fill="#FDFDFE" opacity="1.000000" stroke="none"
	d="
M420.591492,266.316376
	C412.769073,255.037949 412.526154,241.657730 419.722870,231.516312
	C429.096283,218.307510 447.343109,218.008682 457.111603,230.903931
	C464.484497,240.636795 464.734924,255.087158 457.646515,265.019745
	C448.471375,277.876282 430.872650,278.906860 420.591492,266.316376
z"/>
<path fill="#FDFDFE" opacity="1.000000" stroke="none"
	d="
M790.538940,221.444107
	C803.560730,223.725555 812.391785,233.587372 812.987549,246.143127
	C813.681519,260.768188 806.390564,271.977264 794.020508,275.303040
	C780.897156,278.831329 767.770813,269.573486 764.656982,254.593140
	C760.996643,236.983704 773.007080,221.322098 790.538940,221.444107
z"/>
<path fill="#FDFDFE" opacity="1.000000" stroke="none"
	d="
M832.018127,78.119690
	C838.629456,90.831955 837.042419,104.516991 828.106079,113.490517
	C818.202393,123.435257 803.464050,123.026054 794.133911,112.547302
	C780.557922,97.300011 787.317322,71.676781 806.231506,66.688538
	C815.789978,64.167702 824.660522,68.006699 832.018127,78.119690
z"/>
<path fill="#FDFDFE" opacity="1.000000" stroke="none"
	d="
M629.919800,110.823959
	C623.052063,119.144257 614.662720,122.821861 604.493896,119.600266
	C594.414124,116.406898 588.710022,108.817024 587.032349,98.514542
	C585.249695,87.566399 588.123596,77.913635 597.083801,70.924446
	C611.220886,59.897217 631.249939,68.352264 634.858398,86.800354
	C636.514771,95.268372 635.392822,103.351265 629.919800,110.823959
z"/>
<path fill="#FDFDFE" opacity="1.000000" stroke="none"
	d="
M972.736084,74.301086
	C980.576172,84.247047 981.806946,94.855698 976.831055,105.919479
	C972.672852,115.165199 965.169189,120.777908 954.951111,120.646843
	C944.328674,120.510582 936.803955,114.566406 932.899597,104.713692
	C928.744324,94.228043 929.831299,84.097511 936.840454,75.082283
	C946.015381,63.281227 961.104980,62.936516 972.736084,74.301086
z"/>
<path fill="#FDFDFE" opacity="1.000000" stroke="none"
	d="
M576.623413,232.705505
	C585.730652,221.735748 599.663635,219.735535 610.170410,227.649628
	C621.194458,235.953354 623.712097,252.252609 615.772217,263.916107
	C608.453247,274.667358 594.109253,277.695648 583.126038,270.808350
	C570.802612,263.080688 567.859070,246.560898 576.623413,232.705505
z"/>
</svg>
