<?xml version="1.0" encoding="UTF-8"?>
<svg id="Layer_2" data-name="Layer 2" xmlns="http://www.w3.org/2000/svg" viewBox="0 0 193.2 229.06">
  <defs>
    <style>
      .cls-1, .cls-2 {
        fill-rule: evenodd;
        stroke: #000;
        stroke-linejoin: bevel;
        stroke-width: 1.5px;
      }

      .cls-2 {
        fill: none;
      }
    </style>
  </defs>
  <g id="Layer_1-2" data-name="Layer 1">
    <g>
      <g>
        <polygon class="cls-1" points="192.45 82.36 113.34 131.04 113.34 228.42 192.45 179.73 192.45 161.47 128.55 201.03 128.55 140.17 192.45 100.61 192.45 82.36"/>
        <polygon class="cls-2" points="192.45 82.36 177.24 73.23 98.12 121.91 113.34 131.04 192.45 82.36"/>
        <polygon class="cls-2" points="98.12 121.91 113.34 131.04 113.34 228.42 98.12 219.29 98.12 121.91"/>
        <polygon class="cls-2" points="192.45 161.47 177.24 152.34 128.55 182.77 128.55 201.03 192.45 161.47"/>
      </g>
      <g>
        <polygon class="cls-2" points="15.96 91.48 .75 82.36 .75 179.73 79.87 228.42 79.87 131.04 64.65 121.91 64.65 201.03 15.96 170.6 15.96 91.48"/>
        <polygon class="cls-1" points="95.08 121.91 79.87 131.04 79.87 228.42 95.08 219.29 95.08 121.91"/>
        <polygon class="cls-1" points="31.18 82.36 15.96 91.48 15.96 170.6 31.18 161.47 31.18 82.36"/>
        <polygon class="cls-2" points="15.96 73.23 .75 82.36 15.96 91.48 31.18 82.36 15.96 73.23"/>
        <polygon class="cls-2" points="31.18 161.47 15.96 170.6 64.65 201.03 64.65 182.77 31.18 161.47"/>
        <polygon class="cls-2" points="79.87 112.79 64.65 121.91 79.87 131.04 95.08 121.91 79.87 112.79"/>
      </g>
      <g>
        <path class="cls-2" d="M162.22,40.77L96.6.64,15.96,50.26l80.64,49.62,15-9.23-15-9.51,65.62-40.38ZM80.9,71.51l-34.38-21.44,50.08-30.82,34.74,21.38-50.44,30.89Z"/>
        <polygon class="cls-2" points="15.96 50.26 15.96 68.87 96.6 118.49 96.6 99.89 15.96 50.26"/>
        <polygon class="cls-1" points="111.6 90.66 111.6 109.26 96.6 118.49 96.6 99.89 111.6 90.66"/>
        <polygon class="cls-1" points="162.22 40.77 162.22 59.57 111.6 90.66 96.6 81.15 162.22 40.77"/>
        <polygon class="cls-1" points="96.6 19.25 96.6 38.11 62.04 59.38 46.52 50.07 96.6 19.25"/>
        <polygon class="cls-2" points="115.6 50.26 131.34 40.62 96.6 19.25 96.6 38.11 115.6 50.26"/>
      </g>
    </g>
  </g>
</svg>
