<svg width="175" height="110" viewBox="0 0 175 110" fill="none" xmlns="http://www.w3.org/2000/svg">
<g clip-path="url(#clip0_5408_31506)">
<path d="M41.2976 40.7297C41.2652 40.5042 41.0708 40.3753 40.9088 40.3753C40.7468 40.3753 37.5392 40.3109 37.5392 40.3109C37.5392 40.3109 34.85 37.7339 34.5908 37.4439C34.3316 37.1862 33.8132 37.2507 33.6188 37.3151C33.6188 37.3151 33.1004 37.4762 32.258 37.7339C32.1284 37.2829 31.9016 36.7353 31.61 36.1554C30.6704 34.3515 29.2448 33.3851 27.56 33.3851C27.4304 33.3851 27.3332 33.3851 27.2036 33.4173C27.1388 33.3529 27.1064 33.2885 27.0416 33.2563C26.2964 32.4832 25.3568 32.0966 24.2228 32.1288C22.052 32.1932 19.8812 33.7717 18.0992 36.542C16.868 38.507 15.9284 40.9551 15.6368 42.8557C13.142 43.6288 11.3924 44.1764 11.3276 44.1764C10.064 44.563 10.0316 44.5952 9.8696 45.7871C9.8048 46.689 6.5 72.105 6.5 72.105L34.2344 76.8725L46.2548 73.9089C46.2224 73.9089 41.33 40.9551 41.2976 40.7297ZM30.8648 38.1848C30.2168 38.3781 29.504 38.6036 28.7264 38.8613C28.7264 37.7661 28.5644 36.2198 28.0784 34.9313C29.7308 35.189 30.5408 37.0574 30.8648 38.1848ZM27.2684 39.2801C25.8104 39.7311 24.2228 40.2142 22.6352 40.6974C23.0888 38.9902 23.9312 37.3151 24.968 36.1876C25.3568 35.7689 25.9076 35.3179 26.5232 35.0602C27.1712 36.3165 27.3008 38.0882 27.2684 39.2801ZM24.2876 33.5784C24.806 33.5784 25.2272 33.675 25.5836 33.9327C25.0004 34.2227 24.4172 34.6736 23.8988 35.2535C22.5056 36.7353 21.4364 39.0224 21.0152 41.2451C19.6868 41.6638 18.3908 42.0504 17.2244 42.4047C18.002 38.8935 20.9504 33.675 24.2876 33.5784Z" fill="#95BF47"/>
<path d="M40.9088 40.3756C40.7468 40.3756 37.5392 40.3112 37.5392 40.3112C37.5392 40.3112 34.85 37.7342 34.5908 37.4443C34.4936 37.3476 34.364 37.2832 34.2344 37.2832V76.8728L46.2548 73.9093C46.2548 73.9093 41.3624 40.9555 41.33 40.73C41.2652 40.5045 41.0708 40.3756 40.9088 40.3756Z" fill="#5E8E3E"/>
<path d="M27.56 46.5288L26.1668 51.715C26.1668 51.715 24.6116 51.0064 22.7648 51.1352C20.0432 51.2963 20.0432 53.0036 20.0432 53.4223C20.2052 55.7416 26.3288 56.2571 26.6852 61.701C26.9444 65.9853 24.4172 68.9167 20.7236 69.1422C16.3172 69.3677 13.8872 66.7907 13.8872 66.7907L14.8268 62.8285C14.8268 62.8285 17.2892 64.6646 19.2332 64.5358C20.4968 64.4713 20.9828 63.4083 20.918 62.6996C20.7236 59.6716 15.734 59.8649 15.41 54.8719C15.1508 50.6842 17.9048 46.4643 23.996 46.0778C26.3612 45.9167 27.56 46.5288 27.56 46.5288Z" fill="white"/>
<path d="M62.5196 57.5776C61.1264 56.8367 60.4136 56.1925 60.4136 55.3227C60.4136 54.2275 61.418 53.5188 62.9732 53.5188C64.7876 53.5188 66.4076 54.2597 66.4076 54.2597L67.6712 50.3941C67.6712 50.3941 66.5048 49.4922 63.0704 49.4922C58.2752 49.4922 54.938 52.2303 54.938 56.0636C54.938 58.2541 56.4932 59.897 58.5668 61.0888C60.2516 62.023 60.8348 62.6995 60.8348 63.6981C60.8348 64.7289 59.9924 65.5664 58.4372 65.5664C56.1368 65.5664 53.9336 64.3745 53.9336 64.3745L52.5728 68.2401C52.5728 68.2401 54.5816 69.593 57.9836 69.593C62.9084 69.593 66.4724 67.1771 66.4724 62.8283C66.44 60.4768 64.658 58.8017 62.5196 57.5776Z" fill="black"/>
<path d="M82.154 49.4272C79.724 49.4272 77.8124 50.5869 76.3544 52.3264L76.2896 52.2942L78.3956 41.3418H72.92L67.574 69.2382H73.0496L74.864 59.7031C75.5768 56.0953 77.456 53.8726 79.2056 53.8726C80.4368 53.8726 80.9228 54.7101 80.9228 55.902C80.9228 56.6429 80.858 57.5771 80.696 58.318L78.6224 69.2382H84.098L86.2364 57.9636C86.4632 56.7718 86.6252 55.3544 86.6252 54.388C86.6576 51.2956 85.0376 49.4272 82.154 49.4272Z" fill="black"/>
<path d="M99.0669 49.4277C92.4573 49.4277 88.0833 55.3549 88.0833 61.9585C88.0833 66.1784 90.7077 69.593 95.6325 69.593C102.112 69.593 106.486 63.8269 106.486 57.0622C106.519 53.1644 104.218 49.4277 99.0669 49.4277ZM96.3776 65.4375C94.4984 65.4375 93.7209 63.8591 93.7209 61.8619C93.7209 58.7373 95.3408 53.6476 98.3216 53.6476C100.266 53.6476 100.914 55.3227 100.914 56.9333C100.914 60.2835 99.2612 65.4375 96.3776 65.4375Z" fill="black"/>
<path d="M120.548 49.4277C116.854 49.4277 114.748 52.6812 114.748 52.6812H114.683L115.007 49.7499H110.147C109.921 51.7148 109.467 54.7429 109.046 56.9978L105.223 76.9698H110.698L112.221 68.8843H112.351C112.351 68.8843 113.485 69.593 115.558 69.593C122.006 69.593 126.218 63.0216 126.218 56.3857C126.218 52.7134 124.565 49.4277 120.548 49.4277ZM115.299 65.502C113.873 65.502 113.031 64.6966 113.031 64.6966L113.938 59.607C114.586 56.1924 116.368 53.9375 118.28 53.9375C119.965 53.9375 120.483 55.4838 120.483 56.9333C120.483 60.4768 118.377 65.502 115.299 65.502Z" fill="black"/>
<path d="M134.059 41.5996C132.309 41.5996 130.916 42.9848 130.916 44.7565C130.916 46.3671 131.953 47.4946 133.508 47.4946H133.573C135.29 47.4946 136.748 46.3349 136.78 44.3377C136.78 42.7593 135.711 41.5996 134.059 41.5996Z" fill="black"/>
<path d="M126.38 69.2066H131.855L135.581 49.8789H130.073L126.38 69.2066Z" fill="black"/>
<path d="M149.546 49.8458H145.723L145.917 48.9439C146.241 47.0755 147.343 45.4327 149.19 45.4327C150.162 45.4327 150.939 45.7226 150.939 45.7226L152.008 41.4383C152.008 41.4383 151.069 40.9551 149.028 40.9551C147.084 40.9551 145.14 41.5027 143.649 42.759C141.77 44.3374 140.895 46.6245 140.474 48.9439L140.312 49.8458H137.752L136.942 53.9691H139.502L136.586 69.238H142.062L144.978 53.9691H148.768L149.546 49.8458Z" fill="black"/>
<path d="M162.765 49.8789C162.765 49.8789 159.331 58.4797 157.808 63.1828H157.743C157.646 61.6688 156.382 49.8789 156.382 49.8789H150.615L153.92 67.6282C153.985 68.0148 153.952 68.2725 153.79 68.5302C153.142 69.7543 152.073 70.9461 150.81 71.8159C149.773 72.5568 148.606 73.04 147.699 73.3621L149.222 78.0008C150.324 77.7753 152.656 76.8411 154.6 75.0372C157.095 72.7178 159.428 69.11 161.793 64.2136L168.5 49.8789H162.765Z" fill="black"/>
</g>
<defs>
<clipPath id="clip0_5408_31506">
<rect width="162" height="46" fill="white" transform="translate(6.5 32)"/>
</clipPath>
</defs>
</svg>
